<svg width="307.686" height="405.748" viewBox="0 0 431 570" xmlns="http://www.w3.org/2000/svg" xmlns:xlink="http://www.w3.org/1999/xlink" overflow="hidden"><g stroke-width="1" stroke-linecap="square" stroke-linejoin="miter" stroke-miterlimit="10" stroke-dasharray="" stroke-dashoffset="0"><clipPath id="clip7e3852d9-fd8c-4f06-9a5b-663b9d515e8f"><path d="M0 0 0 571 433 571 433 0Z"/></clipPath><clipPath id="clip29ec1728-47a9-4add-840a-fc22dc18637b"><path d="M0 0 0 571 433 571 433 0Z"/></clipPath><clipPath id="clip2afaddd3-d63e-4801-8847-211b845eb301"><path d="M0 0 0 571 433 571 433 0Z"/></clipPath><clipPath id="clipd4e9e287-f0bd-4620-ac74-c5626900be39"><path d="M0 0 0 571 433 571 433 0Z"/></clipPath><clipPath id="clipbf3894bd-fb7f-49a0-b509-35f99048d5f5"><path d="M0 0 0 571 433 571 433 0Z"/></clipPath><clipPath id="clip02f85acf-ab29-4b88-b9eb-9f67ba753b9a"><path d="M0 0 0 571 433 571 433 0Z"/></clipPath><clipPath id="clipb02380de-d03b-4107-b0da-b6a727a04b1b"><path d="M0 0 0 571 433 571 433 0Z"/></clipPath><clipPath id="clipe3503313-707a-40d9-b463-1e142c23cbea"><path d="M0 0 0 571 433 571 433 0Z"/></clipPath><clipPath id="clipda86a7dd-70f5-49e1-ab6c-5e310da89ab7"><path d="M0 0 0 571 433 571 433 0Z"/></clipPath><clipPath id="clip3ca3c9a1-1473-49e8-8c23-82e01f38968c"><path d="M0 0 0 571 433 571 433 0Z"/></clipPath><clipPath id="clip76960df2-7d7c-4b7f-8886-9aa903b49cc3"><path d="M0 0 0 571 433 571 433 0Z"/></clipPath><clipPath id="clip4b087d9a-5f81-4d3f-8be8-3d25644cf99f"><path d="M0 0 0 571 433 571 433 0Z"/></clipPath><clipPath id="clip5cb9d110-1b0c-408a-96a4-16ee74a6c5f3"><path d="M0 0 0 571 433 571 433 0Z"/></clipPath><clipPath id="clip20a3487c-9135-49cd-9f8d-9bc9e2fe71a8"><path d="M0 0 0 571 433 571 433 0Z"/></clipPath><clipPath id="clip10e9133e-ddd9-4b73-832f-7127bbd5eb47"><path d="M0 0 0 571 433 571 433 0Z"/></clipPath><clipPath id="clip6f393ca4-f388-443b-ba19-704d36294ad1"><path d="M0 0 0 571 433 571 433 0Z"/></clipPath><clipPath id="clip7fef66d4-adec-4e45-bb1a-db5ef72228a5"><path d="M0 0 0 571 433 571 433 0Z"/></clipPath><clipPath id="clip09b524d1-d7b0-48e2-bde0-83f4737656c6"><path d="M0 0 0 571 433 571 433 0Z"/></clipPath><clipPath id="clip354f67e5-6d5f-48eb-9773-ab4ca0a467f4"><path d="M0 0 0 571 433 571 433 0Z"/></clipPath><clipPath id="clip84eb2e19-1a27-4003-b5c9-eb256ff83ee9"><path d="M0 0 0 571 433 571 433 0Z"/></clipPath><clipPath id="clip10acd00b-9ac0-4a2a-a9ed-4dc1ead39e7d"><path d="M0 0 0 571 433 571 433 0Z"/></clipPath><clipPath id="clip5063bb03-8607-40ad-98f6-a1e90cb16c23"><path d="M0 0 0 571 433 571 433 0Z"/></clipPath><clipPath id="clip6c280458-d90b-4ac3-8c22-d2e42c9c0576"><path d="M0 0 0 571 433 571 433 0Z"/></clipPath><clipPath id="clip018e58e9-4016-4147-9bfd-9c2f888b27dd"><path d="M0 0 0 571 433 571 433 0Z"/></clipPath><clipPath id="clip6b8d67b5-5b01-4107-be6a-cbd988941577"><path d="M0 0 0 571 433 571 433 0Z"/></clipPath><clipPath id="clip253d73d8-8360-4f8e-ae79-4822d74bc0d7"><path d="M0 0 0 571 433 571 433 0Z"/></clipPath><clipPath id="clip02087de9-fd4e-48e0-97ee-1c7d578fb6c3"><path d="M0 0 0 571 433 571 433 0Z"/></clipPath><clipPath id="clipf836003d-a0ca-4183-bd00-db91a86e1f54"><path d="M0 0 0 571 433 571 433 0Z"/></clipPath><clipPath id="clip2c290347-06f3-4a1a-a218-84b8f204fd66"><path d="M0 0 0 571 433 571 433 0Z"/></clipPath><clipPath id="clip646854af-7144-4968-a836-cde7c5ce9390"><path d="M0 0 0 571 433 571 433 0Z"/></clipPath><clipPath id="clipa8ba988d-005f-441d-8842-0cd057f0e608"><path d="M0 0 0 571 433 571 433 0Z"/></clipPath><clipPath id="clipc64471d3-2872-44b8-a715-f949bd2e4ce4"><path d="M0 0 0 571 433 571 433 0Z"/></clipPath><clipPath id="clip5ed6222a-2d97-469b-b798-19304b99e9f7"><path d="M0 0 0 571 433 571 433 0Z"/></clipPath><clipPath id="clipfd13a064-26a1-4ff3-a79b-89c35f0fdfeb"><path d="M0 0 0 571 433 571 433 0Z"/></clipPath><clipPath id="clip4802e042-ba4a-47d2-9a16-00d95abf3a86"><path d="M0 0 0 571 433 571 433 0Z"/></clipPath><clipPath id="clip9ce96127-a349-4abf-b4e2-8dc63800baf5"><path d="M0 0 0 571 433 571 433 0Z"/></clipPath><clipPath id="clip7b346c10-bd24-44dd-9c0d-543a73479c70"><path d="M0 0 0 571 433 571 433 0Z"/></clipPath><clipPath id="clip9a631f1d-5bf3-45f5-819b-f855856139f7"><path d="M0 0 0 571 433 571 433 0Z"/></clipPath><clipPath id="clipf78520ba-5e89-4479-a99b-f1392aebd699"><path d="M0 0 0 571 433 571 433 0Z"/></clipPath><clipPath id="clipb24d2807-0e83-4e7a-aea0-297d06bef1b9"><path d="M0 0 0 571 433 571 433 0Z"/></clipPath><clipPath id="clip68ee3cd6-665e-41ae-8c2d-743a923afcff"><path d="M0 0 0 571 433 571 433 0Z"/></clipPath><clipPath id="clip5386ed9c-5773-4796-bef2-2fcde2d1fc35"><path d="M0 0 0 571 433 571 433 0Z"/></clipPath><clipPath id="clip94a3ed49-3b71-49aa-a6a7-e05ae1774e85"><path d="M0 0 0 571 433 571 433 0Z"/></clipPath><clipPath id="clip29fd4055-fea2-4f40-8cdd-46cb0fc8633a"><path d="M0 0 0 571 433 571 433 0Z"/></clipPath><clipPath id="clip4c231931-8073-438c-b5a0-729f2fdffd41"><path d="M0 0 0 571 433 571 433 0Z"/></clipPath><clipPath id="clip1ce32bc6-58ea-47df-9f60-43162a6d42c9"><path d="M0 0 0 571 433 571 433 0Z"/></clipPath><clipPath id="clip60e07b64-8c57-4f45-8f75-41509b0bc69b"><path d="M0 0 0 571 433 571 433 0Z"/></clipPath><clipPath id="clipbb651a7d-4fc6-4a0b-8a1d-792e1f4c5b41"><path d="M0 0 0 571 433 571 433 0Z"/></clipPath><clipPath id="clip7491b462-3ac6-4d17-be7f-25176fa96239"><path d="M0 0 0 571 433 571 433 0Z"/></clipPath><clipPath id="clip5d646a14-f2df-416e-8d6d-f94c0957ff94"><path d="M0 0 0 571 433 571 433 0Z"/></clipPath><clipPath id="clip97d68b47-0a73-453c-bc55-3f58bf5feb5f"><path d="M0 0 0 571 433 571 433 0Z"/></clipPath><clipPath id="clip3f0e1bbe-7665-4c7b-a00c-359929466cb1"><path d="M0 0 0 571 433 571 433 0Z"/></clipPath><clipPath id="clip18d32571-8af3-4bca-894c-9c9729e102f1"><path d="M0 0 0 571 433 571 433 0Z"/></clipPath><clipPath id="clip6d9086bc-6c45-452d-9c13-85ef120967c8"><path d="M0 0 0 571 433 571 433 0Z"/></clipPath><clipPath id="clip7a28d86c-9f99-44a1-aee7-2d19d51c05bd"><path d="M0 0 0 571 433 571 433 0Z"/></clipPath><clipPath id="clip938a9e74-2fbc-498a-a92b-0d1b9fbd5d8a"><path d="M0 0 0 571 433 571 433 0Z"/></clipPath><clipPath id="clipd68c9a6a-3cfc-4d9c-9e30-59fc025f198b"><path d="M0 0 0 571 433 571 433 0Z"/></clipPath><clipPath id="clipcbcc6047-b290-49e8-95ee-c27da5ad5c01"><path d="M0 0 0 571 433 571 433 0Z"/></clipPath><clipPath id="clip865bd703-8b98-4dbe-b42d-0479eeaab412"><path d="M0 0 0 571 433 571 433 0Z"/></clipPath><clipPath id="clipcfd973e7-736f-4a15-91bb-17f8ae7c0022"><path d="M0 0 0 571 433 571 433 0Z"/></clipPath><clipPath id="clip5c0d7fa6-adf6-4584-a39f-aed04a9e64e1"><path d="M0 0 0 571 433 571 433 0Z"/></clipPath><clipPath id="clip7f32e235-9d33-4beb-a0be-8076695a2138"><path d="M0 0 0 571 433 571 433 0Z"/></clipPath><clipPath id="clipbaa3846e-fedb-4a84-8bc1-34c4ad809a53"><path d="M0 0 0 571 433 571 433 0Z"/></clipPath><clipPath id="clipebe5e4b4-7f12-4089-b573-24f2e1349e96"><path d="M0 0 0 571 433 571 433 0Z"/></clipPath><clipPath id="clip3bd9d351-03e7-41d8-ac01-c18647d1f89c"><path d="M0 0 0 571 433 571 433 0Z"/></clipPath><clipPath id="clip9c43cab6-2d2d-4521-b2e2-ed77b9b5cdc3"><path d="M0 0 0 571 433 571 433 0Z"/></clipPath><clipPath id="clipdf755460-8e23-4620-a3a5-1bbd0d6887c2"><path d="M0 0 0 571 433 571 433 0Z"/></clipPath><clipPath id="clip55a4e719-a645-4e72-8ab5-40c9abc9c5b5"><path d="M0 0 0 571 433 571 433 0Z"/></clipPath><clipPath id="clipef3ca571-c8fe-4ff5-8682-8bd6dbac47cf"><path d="M0 0 0 571 433 571 433 0Z"/></clipPath><clipPath id="clip8d7e71cc-1874-4670-9f4c-b2efedf3627a"><path d="M0 0 0 571 433 571 433 0Z"/></clipPath><clipPath id="clipc30a8ad9-7dc1-494a-ac9a-736e3fe6100c"><path d="M0 0 0 571 433 571 433 0Z"/></clipPath><clipPath id="clipa89318df-e241-44bd-bea5-effe0e0eaa1a"><path d="M0 0 0 571 433 571 433 0Z"/></clipPath><clipPath id="clip494fbb55-a8c7-4750-b9ee-aac0d81fa5e6"><path d="M0 0 0 571 433 571 433 0Z"/></clipPath><clipPath id="clipf618d6bb-60b2-4ed5-9430-c6293d38db5d"><path d="M0 0 0 571 433 571 433 0Z"/></clipPath><clipPath id="clip88dfd3d0-4e1a-4809-9b64-24c10ffcbbeb"><path d="M0 0 0 571 433 571 433 0Z"/></clipPath><clipPath id="clip606db94f-fd93-4bd0-9bea-3fec73d12ef4"><path d="M0 0 0 571 433 571 433 0Z"/></clipPath><clipPath id="clip39c6e9a8-ddaa-45dd-8731-d43a690b8aff"><path d="M0 0 0 571 433 571 433 0Z"/></clipPath><clipPath id="clipf2e4b623-7dfa-489a-a306-a6ca203b7aee"><path d="M0 0 0 571 433 571 433 0Z"/></clipPath><clipPath id="clip8a48c1ef-4a3c-4607-8a80-a21febbb41a4"><path d="M0 0 0 571 433 571 433 0Z"/></clipPath><clipPath id="clipabc8cba8-fa3a-4540-81c9-de30ed671dec"><path d="M0 0 0 571 433 571 433 0Z"/></clipPath><clipPath id="clipf6b1de6c-1b80-4969-8e26-20a18475f923"><path d="M0 0 0 571 433 571 433 0Z"/></clipPath><clipPath id="clip46e8378b-90f2-4809-a2bb-8ad8c885b0b1"><path d="M0 0 0 571 433 571 433 0Z"/></clipPath><clipPath id="clipbc0e02fc-8273-417f-820a-93df7180a3af"><path d="M0 0 0 571 433 571 433 0Z"/></clipPath><clipPath id="clip4112abf2-b1b0-4ec2-819f-070ec7f60a28"><path d="M0 0 0 571 433 571 433 0Z"/></clipPath><clipPath id="clipa4252de7-50b9-4cec-9477-3b4d94dcb342"><path d="M0 0 0 571 433 571 433 0Z"/></clipPath><clipPath id="clip3fc464f1-0bb3-4577-a85d-cc26d1aee7ba"><path d="M0 0 0 571 433 571 433 0Z"/></clipPath><clipPath id="clipd5ed6a32-47a4-4228-8d62-9bac9cff946f"><path d="M0 0 0 571 433 571 433 0Z"/></clipPath><clipPath id="clipf95c6bf7-b7b9-49c7-b0a1-425398695b05"><path d="M0 0 0 571 433 571 433 0Z"/></clipPath><clipPath id="clipb7601d5b-164b-4abf-a2a2-26879069ae3e"><path d="M0 0 0 571 433 571 433 0Z"/></clipPath><clipPath id="clipdc5f48ee-9c06-42fc-af66-9d0d37a6d334"><path d="M0 0 0 571 433 571 433 0Z"/></clipPath><clipPath id="clipaae8ac0c-b600-4ae1-b8d6-9589b68e625a"><path d="M0 0 0 571 433 571 433 0Z"/></clipPath><clipPath id="clipe7de1de3-0a61-49ed-a638-35e8ab1299de"><path d="M0 0 0 571 433 571 433 0Z"/></clipPath><clipPath id="clip537c1449-1988-46b2-a018-5fc010caed33"><path d="M0 0 0 571 433 571 433 0Z"/></clipPath><clipPath id="clip8db858b3-cbbc-4ae0-890e-d2177d990fb9"><path d="M0 0 0 571 433 571 433 0Z"/></clipPath><clipPath id="clip24520d2f-d239-4ea7-bf74-730110ed101a"><path d="M0 0 0 571 433 571 433 0Z"/></clipPath><clipPath id="clipdfc26f00-8a5c-47d0-bdf4-e456eb673faf"><path d="M0 0 0 571 433 571 433 0Z"/></clipPath><clipPath id="clipbf9ecbdc-40a1-41aa-a4ad-545e029e2679"><path d="M0 0 0 571 433 571 433 0Z"/></clipPath><clipPath id="clipfe56138b-5ea1-4410-9354-3645be21e0b7"><path d="M0 0 0 571 433 571 433 0Z"/></clipPath><clipPath id="clip77b9f0bb-5598-4d7c-8997-5d8473e76459"><path d="M0 0 0 571 433 571 433 0Z"/></clipPath><clipPath id="clip35b0eaef-4ebc-4bb3-ac08-67184a8600d7"><path d="M0 0 0 571 433 571 433 0Z"/></clipPath><clipPath id="clip60f9b9ab-ac0e-40a9-bf7d-7b508d585e02"><path d="M0 0 0 571 433 571 433 0Z"/></clipPath><clipPath id="clip98aabe39-9739-48e4-903d-ab62c1be7a9c"><path d="M0 0 0 571 433 571 433 0Z"/></clipPath><clipPath id="clip477d0232-1c19-481a-b58b-202e5c48ccd2"><path d="M0 0 0 571 433 571 433 0Z"/></clipPath><clipPath id="clipf3641053-5fcf-4705-996e-cbbc82d0452e"><path d="M0 0 0 571 433 571 433 0Z"/></clipPath><clipPath id="clip271ece30-4b66-44b5-8c77-b8711ebf509d"><path d="M0 0 0 571 433 571 433 0Z"/></clipPath><clipPath id="clipf8a187c4-9afc-4c49-81a1-b5ce18b9cbc7"><path d="M0 0 0 571 433 571 433 0Z"/></clipPath><clipPath id="clipb11c47a8-8b39-462f-9645-f878af0059b0"><path d="M0 0 0 571 433 571 433 0Z"/></clipPath><clipPath id="clip0bfa6c62-a4d1-4139-8c0b-582ca550dfca"><path d="M0 0 0 571 433 571 433 0Z"/></clipPath><clipPath id="clip80ef41a3-f065-4cee-bd8d-5814a98ada69"><path d="M0 0 0 571 433 571 433 0Z"/></clipPath><clipPath id="clip194c9329-4fc7-4e61-8872-ed8f143ef79b"><path d="M0 0 0 571 433 571 433 0Z"/></clipPath><clipPath id="clipa1905b03-79a1-4eae-b498-34edd18f9b21"><path d="M0 0 0 571 433 571 433 0Z"/></clipPath><clipPath id="clip524d1a6d-ed4f-41e0-b1a1-0bd080c4d110"><path d="M0 0 0 571 433 571 433 0Z"/></clipPath><clipPath id="clip6373cfae-913c-417e-a729-688cf6790671"><path d="M0 0 0 571 433 571 433 0Z"/></clipPath><clipPath id="clipbdf74620-bfb9-42cf-b1cb-4e8e5e0a731c"><path d="M0 0 0 571 433 571 433 0Z"/></clipPath><clipPath id="clip7f437fd1-352a-4e34-9cc8-e2b497081c0a"><path d="M0 0 0 571 433 571 433 0Z"/></clipPath><clipPath id="clip29996c29-e844-4f72-9828-1e35eb857647"><path d="M0 0 0 571 433 571 433 0Z"/></clipPath><clipPath id="clipad01dcdd-47f4-4626-910d-7d87f8aa8a0a"><path d="M0 0 0 571 433 571 433 0Z"/></clipPath><clipPath id="clipd6d583da-5910-44f2-be3b-59010a29357f"><path d="M0 0 0 571 433 571 433 0Z"/></clipPath><g clip-path="url(#clip1)"><g stroke="#C0C0C0" stroke-linecap="round" stroke-linejoin="round" stroke-opacity="1" fill="none"><path d="M1.4846 0 1.4846 571"/></g></g><g clip-path="url(#clip2)"><g stroke="#C0C0C0" stroke-linecap="round" stroke-linejoin="round" stroke-opacity="1" fill="none"><path d="M1.4846 0 1.4846 571"/></g></g><g clip-path="url(#clip3)"><g stroke="#C0C0C0" stroke-linecap="round" stroke-linejoin="round" stroke-opacity="1" fill="none"><path d="M54.673 0 54.673 571"/></g></g><g clip-path="url(#clip4)"><g stroke="#C0C0C0" stroke-linecap="round" stroke-linejoin="round" stroke-opacity="1" fill="none"><path d="M161.05 0 161.05 571"/></g></g><g clip-path="url(#clip5)"><g stroke="#C0C0C0" stroke-linecap="round" stroke-linejoin="round" stroke-opacity="1" fill="none"><path d="M214.24 0 214.24 571"/></g></g><g clip-path="url(#clip6)"><g stroke="#C0C0C0" stroke-linecap="round" stroke-linejoin="round" stroke-opacity="1" fill="none"><path d="M267.43 0 267.43 571"/></g></g><g clip-path="url(#clip7)"><g stroke="#C0C0C0" stroke-linecap="round" stroke-linejoin="round" stroke-opacity="1" fill="none"><path d="M320.62 0 320.62 571"/></g></g><g clip-path="url(#clip8)"><g stroke="#C0C0C0" stroke-linecap="round" stroke-linejoin="round" stroke-opacity="1" fill="none"><path d="M373.8 0 373.8 571"/></g></g><g clip-path="url(#clip9)"><g stroke="#C0C0C0" stroke-linecap="round" stroke-linejoin="round" stroke-opacity="1" fill="none"><path d="M426.99 0 426.99 571"/></g></g><g clip-path="url(#clip10)"><g stroke="#C0C0C0" stroke-linecap="round" stroke-linejoin="round" stroke-opacity="0.23529" fill="none"><path d="M12.122 0 12.122 571"/></g></g><g clip-path="url(#clip11)"><g stroke="#C0C0C0" stroke-linecap="round" stroke-linejoin="round" stroke-opacity="0.23529" fill="none"><path d="M22.76 0 22.76 571"/></g></g><g clip-path="url(#clip12)"><g stroke="#C0C0C0" stroke-linecap="round" stroke-linejoin="round" stroke-opacity="0.23529" fill="none"><path d="M33.398 0 33.398 571"/></g></g><g clip-path="url(#clip13)"><g stroke="#C0C0C0" stroke-linecap="round" stroke-linejoin="round" stroke-opacity="0.23529" fill="none"><path d="M44.035 0 44.035 571"/></g></g><g clip-path="url(#clip14)"><g stroke="#C0C0C0" stroke-linecap="round" stroke-linejoin="round" stroke-opacity="0.23529" fill="none"><path d="M65.311 0 65.311 571"/></g></g><g clip-path="url(#clip15)"><g stroke="#C0C0C0" stroke-linecap="round" stroke-linejoin="round" stroke-opacity="0.23529" fill="none"><path d="M75.948 0 75.948 571"/></g></g><g clip-path="url(#clip16)"><g stroke="#C0C0C0" stroke-linecap="round" stroke-linejoin="round" stroke-opacity="0.23529" fill="none"><path d="M86.586 0 86.586 571"/></g></g><g clip-path="url(#clip17)"><g stroke="#C0C0C0" stroke-linecap="round" stroke-linejoin="round" stroke-opacity="0.23529" fill="none"><path d="M97.224 0 97.224 571"/></g></g><g clip-path="url(#clip18)"><g stroke="#C0C0C0" stroke-linecap="round" stroke-linejoin="round" stroke-opacity="0.23529" fill="none"><path d="M118.5 0 118.5 571"/></g></g><g clip-path="url(#clip19)"><g stroke="#C0C0C0" stroke-linecap="round" stroke-linejoin="round" stroke-opacity="0.23529" fill="none"><path d="M129.14 0 129.14 571"/></g></g><g clip-path="url(#clip20)"><g stroke="#C0C0C0" stroke-linecap="round" stroke-linejoin="round" stroke-opacity="0.23529" fill="none"><path d="M139.77 0 139.77 571"/></g></g><g clip-path="url(#clip21)"><g stroke="#C0C0C0" stroke-linecap="round" stroke-linejoin="round" stroke-opacity="0.23529" fill="none"><path d="M150.41 0 150.41 571"/></g></g><g clip-path="url(#clip22)"><g stroke="#C0C0C0" stroke-linecap="round" stroke-linejoin="round" stroke-opacity="0.23529" fill="none"><path d="M171.69 0 171.69 571"/></g></g><g clip-path="url(#clip23)"><g stroke="#C0C0C0" stroke-linecap="round" stroke-linejoin="round" stroke-opacity="0.23529" fill="none"><path d="M182.33 0 182.33 571"/></g></g><g clip-path="url(#clip24)"><g stroke="#C0C0C0" stroke-linecap="round" stroke-linejoin="round" stroke-opacity="0.23529" fill="none"><path d="M192.96 0 192.96 571"/></g></g><g clip-path="url(#clip25)"><g stroke="#C0C0C0" stroke-linecap="round" stroke-linejoin="round" stroke-opacity="0.23529" fill="none"><path d="M203.6 0 203.6 571"/></g></g><g clip-path="url(#clip26)"><g stroke="#C0C0C0" stroke-linecap="round" stroke-linejoin="round" stroke-opacity="0.23529" fill="none"><path d="M224.88 0 224.88 571"/></g></g><g clip-path="url(#clip27)"><g stroke="#C0C0C0" stroke-linecap="round" stroke-linejoin="round" stroke-opacity="0.23529" fill="none"><path d="M235.51 0 235.51 571"/></g></g><g clip-path="url(#clip28)"><g stroke="#C0C0C0" stroke-linecap="round" stroke-linejoin="round" stroke-opacity="0.23529" fill="none"><path d="M246.15 0 246.15 571"/></g></g><g clip-path="url(#clip29)"><g stroke="#C0C0C0" stroke-linecap="round" stroke-linejoin="round" stroke-opacity="0.23529" fill="none"><path d="M256.79 0 256.79 571"/></g></g><g clip-path="url(#clip30)"><g stroke="#C0C0C0" stroke-linecap="round" stroke-linejoin="round" stroke-opacity="0.23529" fill="none"><path d="M278.06 0 278.06 571"/></g></g><g clip-path="url(#clip31)"><g stroke="#C0C0C0" stroke-linecap="round" stroke-linejoin="round" stroke-opacity="0.23529" fill="none"><path d="M288.7 0 288.7 571"/></g></g><g clip-path="url(#clip32)"><g stroke="#C0C0C0" stroke-linecap="round" stroke-linejoin="round" stroke-opacity="0.23529" fill="none"><path d="M299.34 0 299.34 571"/></g></g><g clip-path="url(#clip33)"><g stroke="#C0C0C0" stroke-linecap="round" stroke-linejoin="round" stroke-opacity="0.23529" fill="none"><path d="M309.98 0 309.98 571"/></g></g><g clip-path="url(#clip34)"><g stroke="#C0C0C0" stroke-linecap="round" stroke-linejoin="round" stroke-opacity="0.23529" fill="none"><path d="M331.25 0 331.25 571"/></g></g><g clip-path="url(#clip35)"><g stroke="#C0C0C0" stroke-linecap="round" stroke-linejoin="round" stroke-opacity="0.23529" fill="none"><path d="M341.89 0 341.89 571"/></g></g><g clip-path="url(#clip36)"><g stroke="#C0C0C0" stroke-linecap="round" stroke-linejoin="round" stroke-opacity="0.23529" fill="none"><path d="M352.53 0 352.53 571"/></g></g><g clip-path="url(#clip37)"><g stroke="#C0C0C0" stroke-linecap="round" stroke-linejoin="round" stroke-opacity="0.23529" fill="none"><path d="M363.17 0 363.17 571"/></g></g><g clip-path="url(#clip38)"><g stroke="#C0C0C0" stroke-linecap="round" stroke-linejoin="round" stroke-opacity="0.23529" fill="none"><path d="M384.44 0 384.44 571"/></g></g><g clip-path="url(#clip39)"><g stroke="#C0C0C0" stroke-linecap="round" stroke-linejoin="round" stroke-opacity="0.23529" fill="none"><path d="M395.08 0 395.08 571"/></g></g><g clip-path="url(#clip40)"><g stroke="#C0C0C0" stroke-linecap="round" stroke-linejoin="round" stroke-opacity="0.23529" fill="none"><path d="M405.72 0 405.72 571"/></g></g><g clip-path="url(#clip41)"><g stroke="#C0C0C0" stroke-linecap="round" stroke-linejoin="round" stroke-opacity="0.23529" fill="none"><path d="M416.35 0 416.35 571"/></g></g><g clip-path="url(#clip42)"><g stroke="#C0C0C0" stroke-linecap="round" stroke-linejoin="round" stroke-opacity="1" fill="none"><path d="M0 0.62947 433 0.62947"/></g></g><g clip-path="url(#clip43)"><g stroke="#C0C0C0" stroke-linecap="round" stroke-linejoin="round" stroke-opacity="1" fill="none"><path d="M0 0.62947 433 0.62947"/></g></g><g clip-path="url(#clip44)"><g stroke="#C0C0C0" stroke-linecap="round" stroke-linejoin="round" stroke-opacity="1" fill="none"><path d="M0 53.818 433 53.818"/></g></g><g clip-path="url(#clip45)"><g stroke="#C0C0C0" stroke-linecap="round" stroke-linejoin="round" stroke-opacity="1" fill="none"><path d="M0 107.01 433 107.01"/></g></g><g clip-path="url(#clip46)"><g stroke="#C0C0C0" stroke-linecap="round" stroke-linejoin="round" stroke-opacity="1" fill="none"><path d="M0 160.19 433 160.19"/></g></g><g clip-path="url(#clip47)"><g stroke="#C0C0C0" stroke-linecap="round" stroke-linejoin="round" stroke-opacity="1" fill="none"><path d="M0 213.38 433 213.38"/></g></g><g clip-path="url(#clip48)"><g stroke="#C0C0C0" stroke-linecap="round" stroke-linejoin="round" stroke-opacity="1" fill="none"><path d="M0 266.57 433 266.57"/></g></g><g clip-path="url(#clip49)"><g stroke="#C0C0C0" stroke-linecap="round" stroke-linejoin="round" stroke-opacity="1" fill="none"><path d="M0 319.76 433 319.76"/></g></g><g clip-path="url(#clip50)"><g stroke="#C0C0C0" stroke-linecap="round" stroke-linejoin="round" stroke-opacity="1" fill="none"><path d="M0 372.95 433 372.95"/></g></g><g clip-path="url(#clip51)"><g stroke="#C0C0C0" stroke-linecap="round" stroke-linejoin="round" stroke-opacity="1" fill="none"><path d="M0 426.14 433 426.14"/></g></g><g clip-path="url(#clip52)"><g stroke="#C0C0C0" stroke-linecap="round" stroke-linejoin="round" stroke-opacity="1" fill="none"><path d="M0 532.51 433 532.51"/></g></g><g clip-path="url(#clip53)"><g stroke="#C0C0C0" stroke-linecap="round" stroke-linejoin="round" stroke-opacity="0.23529" fill="none"><path d="M0 0.62947 433 0.62947"/></g></g><g clip-path="url(#clip54)"><g stroke="#C0C0C0" stroke-linecap="round" stroke-linejoin="round" stroke-opacity="0.23529" fill="none"><path d="M0 11.267 433 11.267"/></g></g><g clip-path="url(#clip55)"><g stroke="#C0C0C0" stroke-linecap="round" stroke-linejoin="round" stroke-opacity="0.23529" fill="none"><path d="M0 21.905 433 21.905"/></g></g><g clip-path="url(#clip56)"><g stroke="#C0C0C0" stroke-linecap="round" stroke-linejoin="round" stroke-opacity="0.23529" fill="none"><path d="M0 32.543 433 32.543"/></g></g><g clip-path="url(#clip57)"><g stroke="#C0C0C0" stroke-linecap="round" stroke-linejoin="round" stroke-opacity="0.23529" fill="none"><path d="M0 43.18 433 43.18"/></g></g><g clip-path="url(#clip58)"><g stroke="#C0C0C0" stroke-linecap="round" stroke-linejoin="round" stroke-opacity="0.23529" fill="none"><path d="M0 64.456 433 64.456"/></g></g><g clip-path="url(#clip59)"><g stroke="#C0C0C0" stroke-linecap="round" stroke-linejoin="round" stroke-opacity="0.23529" fill="none"><path d="M0 75.093 433 75.093"/></g></g><g clip-path="url(#clip60)"><g stroke="#C0C0C0" stroke-linecap="round" stroke-linejoin="round" stroke-opacity="0.23529" fill="none"><path d="M0 85.731 433 85.731"/></g></g><g clip-path="url(#clip61)"><g stroke="#C0C0C0" stroke-linecap="round" stroke-linejoin="round" stroke-opacity="0.23529" fill="none"><path d="M0 96.369 433 96.369"/></g></g><g clip-path="url(#clip62)"><g stroke="#C0C0C0" stroke-linecap="round" stroke-linejoin="round" stroke-opacity="0.23529" fill="none"><path d="M0 117.64 433 117.64"/></g></g><g clip-path="url(#clip63)"><g stroke="#C0C0C0" stroke-linecap="round" stroke-linejoin="round" stroke-opacity="0.23529" fill="none"><path d="M0 128.28 433 128.28"/></g></g><g clip-path="url(#clip64)"><g stroke="#C0C0C0" stroke-linecap="round" stroke-linejoin="round" stroke-opacity="0.23529" fill="none"><path d="M0 138.92 433 138.92"/></g></g><g clip-path="url(#clip65)"><g stroke="#C0C0C0" stroke-linecap="round" stroke-linejoin="round" stroke-opacity="0.23529" fill="none"><path d="M0 149.56 433 149.56"/></g></g><g clip-path="url(#clip66)"><g stroke="#C0C0C0" stroke-linecap="round" stroke-linejoin="round" stroke-opacity="0.23529" fill="none"><path d="M0 170.83 433 170.83"/></g></g><g clip-path="url(#clip67)"><g stroke="#C0C0C0" stroke-linecap="round" stroke-linejoin="round" stroke-opacity="0.23529" fill="none"><path d="M0 181.47 433 181.47"/></g></g><g clip-path="url(#clip68)"><g stroke="#C0C0C0" stroke-linecap="round" stroke-linejoin="round" stroke-opacity="0.23529" fill="none"><path d="M0 192.11 433 192.11"/></g></g><g clip-path="url(#clip69)"><g stroke="#C0C0C0" stroke-linecap="round" stroke-linejoin="round" stroke-opacity="0.23529" fill="none"><path d="M0 202.75 433 202.75"/></g></g><g clip-path="url(#clip70)"><g stroke="#C0C0C0" stroke-linecap="round" stroke-linejoin="round" stroke-opacity="0.23529" fill="none"><path d="M0 224.02 433 224.02"/></g></g><g clip-path="url(#clip71)"><g stroke="#C0C0C0" stroke-linecap="round" stroke-linejoin="round" stroke-opacity="0.23529" fill="none"><path d="M0 234.66 433 234.66"/></g></g><g clip-path="url(#clip72)"><g stroke="#C0C0C0" stroke-linecap="round" stroke-linejoin="round" stroke-opacity="0.23529" fill="none"><path d="M0 245.3 433 245.3"/></g></g><g clip-path="url(#clip73)"><g stroke="#C0C0C0" stroke-linecap="round" stroke-linejoin="round" stroke-opacity="0.23529" fill="none"><path d="M0 255.93 433 255.93"/></g></g><g clip-path="url(#clip74)"><g stroke="#C0C0C0" stroke-linecap="round" stroke-linejoin="round" stroke-opacity="0.23529" fill="none"><path d="M0 277.21 433 277.21"/></g></g><g clip-path="url(#clip75)"><g stroke="#C0C0C0" stroke-linecap="round" stroke-linejoin="round" stroke-opacity="0.23529" fill="none"><path d="M0 287.85 433 287.85"/></g></g><g clip-path="url(#clip76)"><g stroke="#C0C0C0" stroke-linecap="round" stroke-linejoin="round" stroke-opacity="0.23529" fill="none"><path d="M0 298.48 433 298.48"/></g></g><g clip-path="url(#clip77)"><g stroke="#C0C0C0" stroke-linecap="round" stroke-linejoin="round" stroke-opacity="0.23529" fill="none"><path d="M0 309.12 433 309.12"/></g></g><g clip-path="url(#clip78)"><g stroke="#C0C0C0" stroke-linecap="round" stroke-linejoin="round" stroke-opacity="0.23529" fill="none"><path d="M0 330.4 433 330.4"/></g></g><g clip-path="url(#clip79)"><g stroke="#C0C0C0" stroke-linecap="round" stroke-linejoin="round" stroke-opacity="0.23529" fill="none"><path d="M0 341.04 433 341.04"/></g></g><g clip-path="url(#clip80)"><g stroke="#C0C0C0" stroke-linecap="round" stroke-linejoin="round" stroke-opacity="0.23529" fill="none"><path d="M0 351.67 433 351.67"/></g></g><g clip-path="url(#clip81)"><g stroke="#C0C0C0" stroke-linecap="round" stroke-linejoin="round" stroke-opacity="0.23529" fill="none"><path d="M0 362.31 433 362.31"/></g></g><g clip-path="url(#clip82)"><g stroke="#C0C0C0" stroke-linecap="round" stroke-linejoin="round" stroke-opacity="0.23529" fill="none"><path d="M0 383.59 433 383.59"/></g></g><g clip-path="url(#clip83)"><g stroke="#C0C0C0" stroke-linecap="round" stroke-linejoin="round" stroke-opacity="0.23529" fill="none"><path d="M0 394.22 433 394.22"/></g></g><g clip-path="url(#clip84)"><g stroke="#C0C0C0" stroke-linecap="round" stroke-linejoin="round" stroke-opacity="0.23529" fill="none"><path d="M0 404.86 433 404.86"/></g></g><g clip-path="url(#clip85)"><g stroke="#C0C0C0" stroke-linecap="round" stroke-linejoin="round" stroke-opacity="0.23529" fill="none"><path d="M0 415.5 433 415.5"/></g></g><g clip-path="url(#clip86)"><g stroke="#C0C0C0" stroke-linecap="round" stroke-linejoin="round" stroke-opacity="0.23529" fill="none"><path d="M0 436.77 433 436.77"/></g></g><g clip-path="url(#clip87)"><g stroke="#C0C0C0" stroke-linecap="round" stroke-linejoin="round" stroke-opacity="0.23529" fill="none"><path d="M0 447.41 433 447.41"/></g></g><g clip-path="url(#clip88)"><g stroke="#C0C0C0" stroke-linecap="round" stroke-linejoin="round" stroke-opacity="0.23529" fill="none"><path d="M0 458.05 433 458.05"/></g></g><g clip-path="url(#clip89)"><g stroke="#C0C0C0" stroke-linecap="round" stroke-linejoin="round" stroke-opacity="0.23529" fill="none"><path d="M0 468.69 433 468.69"/></g></g><g clip-path="url(#clip90)"><g stroke="#C0C0C0" stroke-linecap="round" stroke-linejoin="round" stroke-opacity="0.23529" fill="none"><path d="M0 489.96 433 489.96"/></g></g><g clip-path="url(#clip91)"><g stroke="#C0C0C0" stroke-linecap="round" stroke-linejoin="round" stroke-opacity="0.23529" fill="none"><path d="M0 500.6 433 500.6"/></g></g><g clip-path="url(#clip92)"><g stroke="#C0C0C0" stroke-linecap="round" stroke-linejoin="round" stroke-opacity="0.23529" fill="none"><path d="M0 511.24 433 511.24"/></g></g><g clip-path="url(#clip93)"><g stroke="#C0C0C0" stroke-linecap="round" stroke-linejoin="round" stroke-opacity="0.23529" fill="none"><path d="M0 521.88 433 521.88"/></g></g><g clip-path="url(#clip94)"><g stroke="#C0C0C0" stroke-linecap="round" stroke-linejoin="round" stroke-opacity="0.23529" fill="none"><path d="M0 543.15 433 543.15"/></g></g><g clip-path="url(#clip95)"><g stroke="#C0C0C0" stroke-linecap="round" stroke-linejoin="round" stroke-opacity="0.23529" fill="none"><path d="M0 553.79 433 553.79"/></g></g><g clip-path="url(#clip96)"><g stroke="#C0C0C0" stroke-linecap="round" stroke-linejoin="round" stroke-opacity="0.23529" fill="none"><path d="M0 564.43 433 564.43"/></g></g><g clip-path="url(#clip97)"><g stroke="#000000" stroke-linecap="butt" stroke-opacity="1" fill="none"><path d="M107.86 2 107.86 571"/></g></g><g clip-path="url(#clip98)"><g stroke="#000000" stroke-linecap="butt" stroke-opacity="1" fill="none"><path d="M107.86 1 103.86 5"/></g></g><g clip-path="url(#clip99)"><g stroke="#000000" stroke-linecap="butt" stroke-opacity="1" fill="none"><path d="M107.86 1 111.86 5"/></g></g><g clip-path="url(#clip100)"><g stroke="#000000" stroke-linecap="butt" stroke-opacity="1" fill="none"><path d="M0 479.33 431 479.33"/></g></g><g clip-path="url(#clip101)"><g stroke="#000000" stroke-linecap="butt" stroke-opacity="1" fill="none"><path d="M432 479.33 428 475.33"/></g></g><g clip-path="url(#clip102)"><g stroke="#000000" stroke-linecap="butt" stroke-opacity="1" fill="none"><path d="M432 479.33 428 483.33"/></g></g><g clip-path="url(#clip103)"><g stroke="none" fill="#000000" fill-rule="nonzero" fill-opacity="1"><path d="M49.615 491.82 49.615 491.02 54.385 491.02 54.385 491.82ZM56.805 495 56.805 494.13 58.539 494.13 58.539 487.29 56.805 487.72 56.805 486.83 59.699 486.11 59.699 494.13 61.434 494.13 61.434 495Z"/></g></g><g clip-path="url(#clip104)"><g stroke="none" fill="#000000" fill-rule="nonzero" fill-opacity="1"><path d="M160.8 495 160.8 494.13 162.54 494.13 162.54 487.29 160.8 487.72 160.8 486.83 163.7 486.11 163.7 494.13 165.43 494.13 165.43 495Z"/></g></g><g clip-path="url(#clip105)"><g stroke="none" fill="#000000" fill-rule="nonzero" fill-opacity="1"><path d="M213 495 213 493.99C213.333 493.203 214.013 492.347 215.04 491.42L215.7 490.83C216.547 490.057 216.97 489.293 216.97 488.54 216.97 488.053 216.827 487.67 216.54 487.39 216.247 487.117 215.847 486.98 215.34 486.98 214.74 486.98 214.03 487.213 213.21 487.68L213.21 486.66C213.983 486.293 214.747 486.11 215.5 486.11 216.313 486.11 216.967 486.33 217.46 486.77 217.953 487.203 218.2 487.783 218.2 488.51 218.2 489.03 218.077 489.49 217.83 489.89 217.583 490.29 217.12 490.78 216.44 491.36L216 491.74C215.073 492.52 214.537 493.27 214.39 493.99L218.16 493.99 218.16 495Z"/></g></g><g clip-path="url(#clip106)"><g stroke="none" fill="#000000" fill-rule="nonzero" fill-opacity="1"><path d="M266.22 494.94 266.22 493.86C267.047 494.187 267.7 494.35 268.18 494.35 268.727 494.35 269.173 494.19 269.52 493.87 269.867 493.543 270.04 493.127 270.04 492.62 270.04 491.4 269.187 490.79 267.48 490.79L267.02 490.79 267.02 490.01 267.43 490C269.03 490 269.83 489.437 269.83 488.31 269.83 487.423 269.303 486.98 268.25 486.98 267.67 486.98 267.033 487.14 266.34 487.46L266.34 486.46C267.02 486.227 267.683 486.11 268.33 486.11 270.103 486.11 270.99 486.78 270.99 488.12 270.99 489.14 270.387 489.867 269.18 490.3 270.58 490.627 271.28 491.393 271.28 492.6 271.28 493.413 271.01 494.053 270.47 494.52 269.93 494.987 269.19 495.22 268.25 495.22 267.71 495.22 267.033 495.127 266.22 494.94Z"/></g></g><g clip-path="url(#clip107)"><g stroke="none" fill="#000000" fill-rule="nonzero" fill-opacity="1"><path d="M322.52 495 322.52 492.54 318.62 492.54 318.62 491.67 322.52 486.33 323.6 486.33 323.6 491.6 324.76 491.6 324.76 492.54 323.6 492.54 323.6 495ZM319.75 491.6 322.59 491.6 322.59 487.75Z"/></g></g><g clip-path="url(#clip108)"><g stroke="none" fill="#000000" fill-rule="nonzero" fill-opacity="1"><path d="M372.46 495.04 372.46 494C373.033 494.233 373.58 494.35 374.1 494.35 374.673 494.35 375.12 494.183 375.44 493.85 375.767 493.51 375.93 493.047 375.93 492.46 375.93 491.16 375.033 490.51 373.24 490.51 373.04 490.51 372.83 490.523 372.61 490.55L372.61 486.33 376.99 486.33 376.99 487.34 373.62 487.34 373.62 489.62C374.733 489.62 375.603 489.877 376.23 490.39 376.85 490.903 377.16 491.613 377.16 492.52 377.16 493.36 376.877 494.02 376.31 494.5 375.743 494.98 374.957 495.22 373.95 495.22 373.51 495.22 373.013 495.16 372.46 495.04Z"/></g></g><g clip-path="url(#clip109)"><g stroke="none" fill="#000000" fill-rule="nonzero" fill-opacity="1"><path d="M87.615 533.82 87.615 533.02 92.385 533.02 92.385 533.82ZM94.805 537 94.805 536.13 96.539 536.13 96.539 529.29 94.805 529.72 94.805 528.83 97.699 528.11 97.699 536.13 99.434 536.13 99.434 537Z"/></g></g><g clip-path="url(#clip110)"><g stroke="none" fill="#000000" fill-rule="nonzero" fill-opacity="1"><path d="M94.805 431 94.805 430.13 96.539 430.13 96.539 423.29 94.805 423.72 94.805 422.83 97.699 422.11 97.699 430.13 99.434 430.13 99.434 431Z"/></g></g><g clip-path="url(#clip111)"><g stroke="none" fill="#000000" fill-rule="nonzero" fill-opacity="1"><path d="M93.996 377 93.996 375.99C94.332 375.203 95.0117 374.347 96.035 373.42L96.697 372.83C97.549 372.057 97.975 371.293 97.975 370.54 97.975 370.053 97.8293 369.67 97.538 369.39 97.2473 369.117 96.848 368.98 96.34 368.98 95.7387 368.98 95.0297 369.213 94.213 369.68L94.213 368.66C94.9823 368.293 95.746 368.11 96.504 368.11 97.3167 368.11 97.969 368.33 98.461 368.77 98.953 369.203 99.199 369.783 99.199 370.51 99.199 371.03 99.075 371.49 98.827 371.89 98.579 372.29 98.117 372.78 97.441 373.36L96.996 373.74C96.07 374.52 95.535 375.27 95.391 375.99L99.158 375.99 99.158 377Z"/></g></g><g clip-path="url(#clip112)"><g stroke="none" fill="#000000" fill-rule="nonzero" fill-opacity="1"><path d="M94.219 323.94 94.219 322.86C95.047 323.187 95.6993 323.35 96.176 323.35 96.7267 323.35 97.175 323.19 97.521 322.87 97.8663 322.543 98.039 322.127 98.039 321.62 98.039 320.4 97.1857 319.79 95.479 319.79L95.021 319.79 95.021 319.01 95.426 319C97.0273 319 97.828 318.437 97.828 317.31 97.828 316.423 97.3007 315.98 96.246 315.98 95.668 315.98 95.0313 316.14 94.336 316.46L94.336 315.46C95.0193 315.227 95.6833 315.11 96.328 315.11 98.1013 315.11 98.988 315.78 98.988 317.12 98.988 318.14 98.3847 318.867 97.178 319.3 98.576 319.627 99.275 320.393 99.275 321.6 99.275 322.413 99.0057 323.053 98.467 323.52 97.9277 323.987 97.1873 324.22 96.246 324.22 95.7107 324.22 95.035 324.127 94.219 323.94Z"/></g></g><g clip-path="url(#clip113)"><g stroke="none" fill="#000000" fill-rule="nonzero" fill-opacity="1"><path d="M97.518 271 97.518 268.54 93.615 268.54 93.615 267.67 97.518 262.33 98.602 262.33 98.602 267.6 99.762 267.6 99.762 268.54 98.602 268.54 98.602 271ZM94.746 267.6 97.594 267.6 97.594 263.75Z"/></g></g><g clip-path="url(#clip114)"><g stroke="none" fill="#000000" fill-rule="nonzero" fill-opacity="1"><path d="M94.459 218.04 94.459 217C95.033 217.233 95.58 217.35 96.1 217.35 96.67 217.35 97.118 217.183 97.444 216.85 97.7707 216.51 97.934 216.047 97.934 215.46 97.934 214.16 97.0373 213.51 95.244 213.51 95.0407 213.51 94.8277 213.523 94.605 213.55L94.605 209.33 98.994 209.33 98.994 210.34 95.619 210.34 95.619 212.62C96.7323 212.62 97.6017 212.877 98.227 213.39 98.8517 213.903 99.164 214.613 99.164 215.52 99.164 216.36 98.88 217.02 98.312 217.5 97.7433 217.98 96.955 218.22 95.947 218.22 95.5097 218.22 95.0137 218.16 94.459 218.04Z"/></g></g><g clip-path="url(#clip115)"><g stroke="none" fill="#000000" fill-rule="nonzero" fill-opacity="1"><path d="M95.062 160.51C95.6133 159.79 96.307 159.43 97.143 159.43 97.9003 159.43 98.5203 159.683 99.003 160.19 99.4857 160.69 99.727 161.333 99.727 162.12 99.727 163.02 99.4563 163.76 98.915 164.34 98.3743 164.927 97.6877 165.22 96.855 165.22 95.8983 165.22 95.1503 164.833 94.611 164.06 94.0723 163.293 93.803 162.227 93.803 160.86 93.803 159.353 94.1123 158.183 94.731 157.35 95.3503 156.523 96.2227 156.11 97.348 156.11 97.8633 156.11 98.5077 156.217 99.281 156.43L99.281 157.44C98.465 157.127 97.797 156.97 97.277 156.97 95.8003 156.97 95.062 158.15 95.062 160.51ZM98.566 162.38C98.566 161.72 98.4187 161.203 98.124 160.83 97.8293 160.457 97.42 160.27 96.896 160.27 96.408 160.27 95.9883 160.433 95.637 160.76 95.285 161.087 95.109 161.48 95.109 161.94 95.109 162.667 95.276 163.25 95.61 163.69 95.944 164.13 96.3867 164.35 96.938 164.35 97.434 164.35 97.8293 164.17 98.124 163.81 98.4187 163.457 98.566 162.98 98.566 162.38Z"/></g></g><g clip-path="url(#clip116)"><g stroke="none" fill="#000000" fill-rule="nonzero" fill-opacity="1"><path d="M94.805 112C94.9183 111.327 95.0793 110.743 95.288 110.25 95.4973 109.757 95.8673 109.08 96.398 108.22L98.766 104.41 94.301 104.41 94.301 103.33 99.867 103.33 99.867 104.41C97.6443 107.69 96.4003 110.22 96.135 112Z"/></g></g><g clip-path="url(#clip117)"><g stroke="none" fill="#000000" fill-rule="nonzero" fill-opacity="1"><path d="M95.76 53.277C94.912 52.6877 94.488 52.0353 94.488 51.32 94.488 50.664 94.7283 50.131 95.209 49.721 95.6897 49.3103 96.3167 49.105 97.09 49.105 97.8047 49.105 98.3837 49.279 98.827 49.627 99.2703 49.9743 99.492 50.4253 99.492 50.98 99.492 51.82 98.953 52.5857 97.875 53.277 99.1837 53.9177 99.838 54.744 99.838 55.756 99.838 56.4827 99.5637 57.0743 99.015 57.531 98.4657 57.9883 97.7577 58.217 96.891 58.217 96.039 58.217 95.3503 58.001 94.825 57.569 94.2997 57.1377 94.037 56.5703 94.037 55.867 94.037 54.8283 94.6113 53.965 95.76 53.277ZM97.23 52.914C98.0387 52.3827 98.443 51.791 98.443 51.139 98.443 50.791 98.3083 50.5107 98.039 50.298 97.7697 50.0853 97.4143 49.979 96.973 49.979 96.547 49.979 96.2013 50.0833 95.936 50.292 95.67 50.5007 95.537 50.7713 95.537 51.104 95.537 51.428 95.657 51.718 95.897 51.974 96.1377 52.2293 96.582 52.5427 97.23 52.914ZM96.387 53.746C95.9217 54.1053 95.606 54.419 95.44 54.687 95.274 54.9543 95.191 55.2873 95.191 55.686 95.191 56.182 95.3513 56.5833 95.672 56.89 95.992 57.1967 96.414 57.35 96.938 57.35 97.4413 57.35 97.8523 57.219 98.171 56.957 98.489 56.695 98.648 56.3553 98.648 55.938 98.648 55.602 98.5497 55.3177 98.353 55.085 98.1557 54.8523 97.7737 54.568 97.207 54.232Z"/></g></g><g clip-path="url(#clip118)"><g stroke="none" fill="#000000" fill-rule="nonzero" fill-opacity="1"><path d="M96.762 495.22C95.8673 495.22 95.1437 494.797 94.591 493.95 94.0383 493.11 93.762 492.013 93.762 490.66 93.762 489.293 94.0403 488.193 94.597 487.36 95.1537 486.527 95.887 486.11 96.797 486.11 97.707 486.11 98.4403 486.527 98.997 487.36 99.5537 488.193 99.832 489.287 99.832 490.64 99.832 492.033 99.5537 493.143 98.997 493.97 98.4403 494.803 97.6953 495.22 96.762 495.22ZM96.773 494.35C97.9957 494.35 98.607 493.107 98.607 490.62 98.607 488.193 98.0037 486.98 96.797 486.98 95.5937 486.98 94.992 488.207 94.992 490.66 94.992 493.12 95.5857 494.35 96.773 494.35Z"/></g></g><g id="misc"></g><g id="layer0"><clipPath id="clip2662c27b-7356-4484-bfdf-9d174e5b6c80"><path d="M0 0 0 571 433 571 433 0Z"/></clipPath><clipPath id="clip6ab9761e-c905-4385-a2a6-2434c7ffe6c4"><path d="M0 0 0 571 433 571 433 0Z"/></clipPath><clipPath id="clipb91c7e8f-0c65-4248-9477-8972acf41187"><path d="M0 0 0 571 433 571 433 0Z"/></clipPath><clipPath id="clip32da9634-2c6e-4fd7-baf7-b204dbc59ee4"><path d="M0 0 0 571 433 571 433 0Z"/></clipPath><clipPath id="clipc5676e2d-ce18-4560-91bb-f82b58031794"><path d="M0 0 0 571 433 571 433 0Z"/></clipPath><clipPath id="clip1867f593-d500-47ca-a988-c9fac3782e67"><path d="M0 0 0 571 433 571 433 0Z"/></clipPath><clipPath id="clip1798e72d-d11a-4000-9c8c-baff0aaaf779"><path d="M0 0 0 571 433 571 433 0Z"/></clipPath><clipPath id="clipee1f99b0-1dfe-48ca-8822-809aedb62f0d"><path d="M0 0 0 571 433 571 433 0Z"/></clipPath><clipPath id="clip4e1f1265-3f65-4c04-943b-8c0a9ed4f977"><path d="M0 0 0 571 433 571 433 0Z"/></clipPath><clipPath id="clipabcf5b02-7411-46f5-bf7f-725ad8088987"><path d="M0 0 0 571 433 571 433 0Z"/></clipPath><clipPath id="clipa2b84143-369c-4561-9aa3-29686f4e01c8"><path d="M0 0 0 571 433 571 433 0Z"/></clipPath><clipPath id="clipaf79663b-2b7c-490c-985d-7a09482350c3"><path d="M0 0 0 571 433 571 433 0Z"/></clipPath><clipPath id="clip1782813c-2682-47d0-a433-609686283b60"><path d="M0 0 0 571 433 571 433 0Z"/></clipPath><g clip-path="url(#clip119)"><g stroke="#000000" stroke-width="2.5" stroke-linecap="round" stroke-linejoin="round" stroke-opacity="0.69804" fill="none"><path d="M54.673 53.818 56.09 62.285 57.508 70.676M57.508 70.676 59.199 80.59 60.891 90.397M60.891 90.397 62.582 100.1 64.273 109.69 65.965 119.17 67.656 128.55M67.656 128.55 69.348 137.82 71.039 146.98 72.73 156.03 74.422 164.98 76.113 173.82 77.805 182.55 79.496 191.17 81.188 199.69M81.188 199.69 82.879 208.1 84.57 216.4 86.262 224.59 87.953 232.68 89.645 240.65 91.336 248.52 93.027 256.29 94.719 263.94 96.41 271.49 98.102 278.93 99.793 286.26 101.48 293.49 103.18 300.6 104.87 307.61 106.56 314.52 108.25 321.31M108.25 321.31 109.94 328 111.63 334.58 113.32 341.05 115.02 347.41 116.71 353.67 118.4 359.82 120.09 365.86 121.78 371.8 123.47 377.62 125.16 383.34 126.86 388.95 128.55 394.46 130.24 399.85 131.93 405.14 133.62 410.32 135.31 415.4 138.7 425.22 142.08 434.61 145.46 443.58 148.84 452.11 152.23 460.22 155.61 467.89 158.99 475.13 162.38 481.94 165.76 488.32 169.14 494.28 172.52 499.8 175.91 504.89 179.29 509.55 182.67 513.78 186.05 517.58 189.44 520.95 192.82 523.89 196.2 526.4 199.59 528.48 202.97 530.13 206.35 531.34 209.73 532.13 213.12 532.49 216.5 532.42M216.5 532.42 219.88 531.91 223.27 530.98 226.65 529.62 230.03 527.82 233.41 525.6 236.8 522.95 240.18 519.86 243.56 516.35 246.95 512.4 250.33 508.03 253.71 503.22 257.09 497.98 260.48 492.32 263.86 486.22 267.24 479.69 270.62 472.74 274.01 465.35 277.39 457.53 280.77 449.28 284.16 440.6 287.54 431.5 290.92 421.96 294.3 411.99 296 406.84 297.69 401.59 299.38 396.23 301.07 390.76 302.76 385.18 304.45 379.5 306.14 373.71 307.84 367.81 309.53 361.8 311.22 355.69 312.91 349.46 314.6 343.13 316.29 336.7 317.98 330.15 319.68 323.5 321.37 316.74 323.06 309.87 324.75 302.9M324.75 302.9 326.44 295.82 328.13 288.63 329.82 281.33 331.52 273.92 333.21 266.41 334.9 258.79 336.59 251.06 338.28 243.23 339.97 235.29 341.66 227.23 343.36 219.08 345.05 210.81 346.74 202.44 348.43 193.96 350.12 185.37 351.81 176.67M351.81 176.67 353.5 167.87 355.2 158.96 356.89 149.94 358.58 140.81 360.27 131.58 361.96 122.24 363.65 112.79 365.34 103.23M365.34 103.23 367.04 93.567 368.73 83.796 370.42 73.916 372.11 63.929M372.11 63.929 372.96 58.887 373.8 53.818"/></g></g><g clip-path="url(#clip120)"><g stroke="#404040" stroke-width="2.5" stroke-linecap="butt" stroke-linejoin="round" stroke-dasharray="6.5 4" stroke-opacity="0.69804" fill="none"><path d="M107.86 532.51 214.24 532.51"/></g></g><g clip-path="url(#clip121)"><g stroke="#404040" stroke-width="2.5" stroke-linecap="butt" stroke-linejoin="round" stroke-dasharray="6.5 4" stroke-opacity="0.69804" fill="none"><path d="M214.24 532.51 214.24 479.33"/></g></g><g clip-path="url(#clip122)"><g stroke="none" fill="#000000" fill-rule="nonzero" fill-opacity="1"><path d="M110.86 319.76C110.86 321.42 109.52 322.76 107.86 322.76 106.2 322.76 104.86 321.42 104.86 319.76 104.86 318.1 106.2 316.76 107.86 316.76 109.52 316.76 110.86 318.1 110.86 319.76Z"/></g></g><g clip-path="url(#clip123)"><g stroke="none" fill="#000000" fill-rule="nonzero" fill-opacity="1"><path d="M376.8 53.818C376.8 55.475 375.46 56.818 373.8 56.818 372.15 56.818 370.8 55.475 370.8 53.818 370.8 52.161 372.15 50.818 373.8 50.818 375.46 50.818 376.8 52.161 376.8 53.818Z"/></g></g><g clip-path="url(#clip124)"><g stroke="none" fill="#000000" fill-rule="nonzero" fill-opacity="1"><path d="M164.05 479.33C164.05 480.98 162.71 482.33 161.05 482.33 159.39 482.33 158.05 480.98 158.05 479.33 158.05 477.67 159.39 476.33 161.05 476.33 162.71 476.33 164.05 477.67 164.05 479.33Z"/></g></g><g clip-path="url(#clip125)"><g stroke="none" fill="#000000" fill-rule="nonzero" fill-opacity="1"><path d="M57.673 53.818C57.673 55.475 56.33 56.818 54.673 56.818 53.016 56.818 51.673 55.475 51.673 53.818 51.673 52.161 53.016 50.818 54.673 50.818 56.33 50.818 57.673 52.161 57.673 53.818Z"/></g></g><g clip-path="url(#clip126)"><g stroke="none" fill="#000000" fill-rule="nonzero" fill-opacity="1"><path d="M270.43 479.33C270.43 480.98 269.08 482.33 267.43 482.33 265.77 482.33 264.43 480.98 264.43 479.33 264.43 477.67 265.77 476.33 267.43 476.33 269.08 476.33 270.43 477.67 270.43 479.33Z"/></g></g><g clip-path="url(#clip127)"><g stroke="none" fill="#000000" fill-rule="nonzero" fill-opacity="1"><path d="M217.24 532.51C217.24 534.17 215.9 535.51 214.24 535.51 212.58 535.51 211.24 534.17 211.24 532.51 211.24 530.86 212.58 529.51 214.24 529.51 215.9 529.51 217.24 530.86 217.24 532.51Z"/></g></g><g clip-path="url(#clip128)"><g stroke="none" fill="#000000" fill-rule="nonzero" fill-opacity="1"><path d="M217.24 479.33C217.24 480.98 215.9 482.33 214.24 482.33 212.58 482.33 211.24 480.98 211.24 479.33 211.24 477.67 212.58 476.33 214.24 476.33 215.9 476.33 217.24 477.67 217.24 479.33Z"/></g></g><g clip-path="url(#clip129)"><g stroke="none" fill="#000000" fill-rule="nonzero" fill-opacity="1"><path d="M110.86 532.51C110.86 534.17 109.52 535.51 107.86 535.51 106.2 535.51 104.86 534.17 104.86 532.51 104.86 530.86 106.2 529.51 107.86 529.51 109.52 529.51 110.86 530.86 110.86 532.51Z"/></g></g><g clip-path="url(#clip130)"><g stroke="none" fill="#000000" fill-rule="nonzero" fill-opacity="1"><path d="M388.45 102.29C386.65 102.29 385.26 101.763 384.28 100.71 383.3 99.6533 382.81 98.159 382.81 96.227 382.81 94.2997 383.31 92.8047 384.31 91.742 385.303 90.6793 386.707 90.148 388.52 90.148 389.56 90.148 390.773 90.3173 392.16 90.656L392.16 92.195C390.58 91.6483 389.36 91.375 388.5 91.375 387.247 91.375 386.277 91.7993 385.59 92.648 384.897 93.4973 384.55 94.6953 384.55 96.242 384.55 97.716 384.92 98.8787 385.66 99.73 386.393 100.583 387.393 101.01 388.66 101.01 389.753 101.01 390.927 100.673 392.18 100L392.18 101.41C391.04 101.997 389.797 102.29 388.45 102.29Z"/></g></g><g clip-path="url(#clip131)"><g stroke="none" fill="#000000" fill-rule="nonzero" fill-opacity="1"><path d="M396.02 102.59 396.02 109 394.67 109 394.67 102.59 393.62 102.59 393.62 101.58 394.67 101.58 394.67 100.69C394.67 98.92 395.477 98.035 397.09 98.035 397.543 98.035 398.057 98.1103 398.63 98.261L398.63 99.327C398.023 99.1403 397.537 99.047 397.17 99.047 396.73 99.047 396.43 99.153 396.27 99.365 396.103 99.577 396.02 99.9687 396.02 100.54L396.02 101.58 397.88 101.58 397.88 102.59ZM400.92 100.23 402.35 97.365 403.91 97.365 401.85 100.23Z"/></g></g><g transform="matrix(0.19 0 0 0.19 123 18.189)"><clipPath id="clip051befbc-dab4-482f-8ac6-f8846dc3d1cc"><path d="M-647.37-95.732-647.37 2909.5 1631.6 2909.5 1631.6-95.732Z"/></clipPath><g clip-path="url(#clip132)"><g stroke="none" fill="#000000" fill-rule="nonzero" fill-opacity="1"><path d="M48.594-38.094 39 0.09375C37.396 6.63538 33.8283 11.9375 28.297 16 24.2343 19 20 20.5 15.594 20.5 11.1355 20.5 7.96873 18.9687 6.0938 15.906 5.3646 14.6353 5 13.2657 5 11.797 5 8.40107 6.3646 6.30207 9.0938 5.5 9.6354 5.3646 10.1355 5.2969 10.594 5.2969 12.7293 5.2969 13.9323 6.2292 14.203 8.0938 14.2657 8.30207 14.297 8.53643 14.297 8.7969 14.297 10.3283 13.6303 11.698 12.297 12.906 11.3697 13.698 9.93733 14.094 8 14.094 9.19793 16.896 11.7293 18.297 15.594 18.297 19.7293 18.297 23.396 16.198 26.594 12 29.198 8.53127 31.2657 3.83333 32.797-2.0938 32.8697-2.3646 32.9687-2.80207 33.094-3.4062 30.094-0.4062 26.7293 1.0938 23 1.0938 17.6667 1.0938 14.0313-0.869767 12.094-4.7969 11.2293-6.53643 10.797-8.53647 10.797-10.797 10.797-14.4637 12.5627-21.0313 16.094-30.5 16.2293-30.896 16.396-31.3283 16.594-31.797 17.7293-34.8697 18.297-37.203 18.297-38.797 18.297-40.9323 17.4637-42 15.797-42 12.1303-42 9.1303-38.9687 6.7969-32.906L6.7969-32.797C6.40103-31.797 6.03643-30.7293 5.7031-29.594 4.96357-28.4687 4.42713-27.8697 4.0938-27.797 3.30207-27.797 2.9062-28.1303 2.9062-28.797 2.9062-29.995 3.60413-32.094 5-35.094 7.93747-41.1667 11.6355-44.203 16.094-44.203 19.6353-44.203 22.104-42.703 23.5-39.703 24.0313-38.5677 24.297-37.3333 24.297-36 24.297-34.604 23.6303-32.203 22.297-28.797 18.901-19.995 17.203-13.4637 17.203-9.2031 17.203-3.7969 19.2707-1.0938 23.406-1.0938 27.2707-1.0938 30.6353-3.1615 33.5-7.2969 34.1667-8.2969 34.5677-9.06253 34.703-9.5938L39.203-27.594C39.6717-29.802 40.3383-32.4687 41.203-35.594 41.8697-38.4687 42.3333-40.2707 42.594-41 43.4687-42.396 44.6353-43.094 46.094-43.094 47.7607-42.7607 48.7293-41.8647 49-40.406 49-39.802 48.8647-39.0313 48.594-38.094Z"/></g></g></g><g transform="matrix(0.19 0 0 0.19 411 466.44)"><clipPath id="clip85cda0c6-df67-41e2-9b1d-93a7bd0ee03c"><path d="M-2163.2-2454.9-2163.2 550.34 115.79 550.34 115.79-2454.9Z"/></clipPath><g clip-path="url(#clip133)"><g stroke="none" fill="#000000" fill-rule="nonzero" fill-opacity="1"><path d="M26-22.906 46 -0 37.703 -0 22.703-18.797 8.2031 -0 0 -0 19.406-22.906 0.59375-44.406 8.9062-44.406 22.703-27.906 36.094-44.406 44.297-44.406 26-22.906Z"/></g></g></g></g></g></svg>