<svg width="833.448" height="314.332" viewBox="0 0 1338 503" xmlns="http://www.w3.org/2000/svg" xmlns:xlink="http://www.w3.org/1999/xlink" overflow="hidden"><g stroke-linecap="square" stroke-miterlimit="10"><clipPath id="clip8b0d981d-e1bf-4c6f-a29b-7694efd71e13"><path d="M0 0 0 505 1339 505 1339 0Z"/></clipPath><clipPath id="clip61a2f781-04ba-4195-97e4-73cad89b5613"><path d="M0 0 0 505 1339 505 1339 0Z"/></clipPath><clipPath id="clipd559db9c-4458-47a2-aeee-2538e84bbaef"><path d="M0 0 0 505 1339 505 1339 0Z"/></clipPath><clipPath id="clipd762b4b5-394c-402b-97a7-77163a07e9ad"><path d="M0 0 0 505 1339 505 1339 0Z"/></clipPath><clipPath id="clip4a3784ed-d2ea-44f7-a49b-832b5a9365d3"><path d="M0 0 0 505 1339 505 1339 0Z"/></clipPath><clipPath id="clipf0bc5b48-458a-4749-a2d6-6c8ac372a28d"><path d="M0 0 0 505 1339 505 1339 0Z"/></clipPath><clipPath id="clip8c57e9b5-1a99-4fa3-8373-9e7dbad68258"><path d="M0 0 0 505 1339 505 1339 0Z"/></clipPath><clipPath id="clip6cdc2a9b-68fc-42d2-963f-7056312102dc"><path d="M0 0 0 505 1339 505 1339 0Z"/></clipPath><clipPath id="clip90168fa2-94a1-4b5e-9ffb-01e0b9d47b13"><path d="M0 0 0 505 1339 505 1339 0Z"/></clipPath><clipPath id="clipb8c0b952-8ef8-47c8-92f4-23bdfaeaa676"><path d="M0 0 0 505 1339 505 1339 0Z"/></clipPath><clipPath id="clip1f4a74e9-6612-473d-a6bf-0f3d28614a5f"><path d="M0 0 0 505 1339 505 1339 0Z"/></clipPath><clipPath id="clip199f9c9c-dc77-4fda-bb76-3629a4f88ab7"><path d="M0 0 0 505 1339 505 1339 0Z"/></clipPath><clipPath id="clipe5d9ff75-0f52-4e59-b1d5-e3359197e1e0"><path d="M0 0 0 505 1339 505 1339 0Z"/></clipPath><clipPath id="clip9b8497e1-54c5-471d-a39f-3ad0eca5e226"><path d="M0 0 0 505 1339 505 1339 0Z"/></clipPath><clipPath id="clipf33fe70f-97d9-45e4-b814-8717d2334550"><path d="M0 0 0 505 1339 505 1339 0Z"/></clipPath><clipPath id="clip74c278b0-b66a-4379-9794-06acb20f2478"><path d="M0 0 0 505 1339 505 1339 0Z"/></clipPath><clipPath id="clipced918e9-af26-4c51-8b44-c808f2fbae80"><path d="M0 0 0 505 1339 505 1339 0Z"/></clipPath><clipPath id="clipace9f317-3701-4b1c-8bdc-4612757ee8f8"><path d="M0 0 0 505 1339 505 1339 0Z"/></clipPath><clipPath id="clip1d6f18f5-093c-4cd2-a3af-c38e4b192a44"><path d="M0 0 0 505 1339 505 1339 0Z"/></clipPath><clipPath id="clip999bcb29-4827-49fe-be37-3fbcbc599551"><path d="M0 0 0 505 1339 505 1339 0Z"/></clipPath><clipPath id="clip555bb009-c462-4236-bbbe-04ffa4114038"><path d="M0 0 0 505 1339 505 1339 0Z"/></clipPath><clipPath id="clipd349fe16-916d-46aa-ba07-e7cca688e9a3"><path d="M0 0 0 505 1339 505 1339 0Z"/></clipPath><clipPath id="clip85ff2a58-c944-4d68-a880-68187d27132c"><path d="M0 0 0 505 1339 505 1339 0Z"/></clipPath><clipPath id="clip34a0027d-deab-4d09-88d5-5681eec4ab2e"><path d="M0 0 0 505 1339 505 1339 0Z"/></clipPath><clipPath id="clipedbb8b5a-e94b-421f-b606-8e922e11e508"><path d="M0 0 0 505 1339 505 1339 0Z"/></clipPath><clipPath id="clipd4437162-4259-48da-bfcd-0093946f43f2"><path d="M0 0 0 505 1339 505 1339 0Z"/></clipPath><clipPath id="clip3de775a4-9772-49ad-b83a-7a63a9e6d652"><path d="M0 0 0 505 1339 505 1339 0Z"/></clipPath><clipPath id="clipd2478e6d-5a59-44e7-ab82-3318066e58c0"><path d="M0 0 0 505 1339 505 1339 0Z"/></clipPath><clipPath id="clipc9d99d57-b621-4613-b8cd-d81da9104981"><path d="M0 0 0 505 1339 505 1339 0Z"/></clipPath><clipPath id="clip66482810-329a-415a-811a-1fd4b6d91a5f"><path d="M0 0 0 505 1339 505 1339 0Z"/></clipPath><clipPath id="clipde0aed7d-b98f-4e22-9587-672d29ba2915"><path d="M0 0 0 505 1339 505 1339 0Z"/></clipPath><clipPath id="clip1f6617ee-e6fc-4bcb-8af1-08ebfa0f54cd"><path d="M0 0 0 505 1339 505 1339 0Z"/></clipPath><clipPath id="clipd5fca5d3-89bd-46f1-9ea1-b45682e53208"><path d="M0 0 0 505 1339 505 1339 0Z"/></clipPath><clipPath id="clipfbb04a43-30f9-4638-b7be-c19bcb5a7969"><path d="M0 0 0 505 1339 505 1339 0Z"/></clipPath><clipPath id="clip9d296bb9-8866-4206-b482-5d31e9063b61"><path d="M0 0 0 505 1339 505 1339 0Z"/></clipPath><clipPath id="clipf6be7f44-504b-424c-ad75-f4b299d3ab92"><path d="M0 0 0 505 1339 505 1339 0Z"/></clipPath><clipPath id="clip969ed883-c7da-4394-b3d7-e72418223f24"><path d="M0 0 0 505 1339 505 1339 0Z"/></clipPath><clipPath id="clipa17f6d7b-5ad5-473a-8c7b-2e67040d586a"><path d="M0 0 0 505 1339 505 1339 0Z"/></clipPath><clipPath id="clip3e039ab1-cc6a-4730-8ff6-1a86b4938685"><path d="M0 0 0 505 1339 505 1339 0Z"/></clipPath><clipPath id="clip2b9e8732-f4e7-4dd1-8445-a80dc22fdf55"><path d="M0 0 0 505 1339 505 1339 0Z"/></clipPath><clipPath id="clip2d1217b0-94f2-4e9e-b4a8-4dd237c33c0e"><path d="M0 0 0 505 1339 505 1339 0Z"/></clipPath><clipPath id="clip4e8a216e-d995-44c6-901e-f524ce2acf88"><path d="M0 0 0 505 1339 505 1339 0Z"/></clipPath><clipPath id="clip621fb9d3-f7e9-4b40-b040-598c9d5a8fbb"><path d="M0 0 0 505 1339 505 1339 0Z"/></clipPath><clipPath id="clip5af831f3-7962-4b9e-b3c9-32de66d4fa50"><path d="M0 0 0 505 1339 505 1339 0Z"/></clipPath><clipPath id="clipec5d050b-eb75-4b5c-a6de-11f2df839f8d"><path d="M0 0 0 505 1339 505 1339 0Z"/></clipPath><clipPath id="clip8f190989-49b9-4a65-82b2-d1def7211468"><path d="M0 0 0 505 1339 505 1339 0Z"/></clipPath><clipPath id="clip6fff746b-c24e-4449-a784-1c04788db7be"><path d="M0 0 0 505 1339 505 1339 0Z"/></clipPath><clipPath id="clipf3125b14-c18c-4f1e-ae28-c4df9c0de0c0"><path d="M0 0 0 505 1339 505 1339 0Z"/></clipPath><clipPath id="clipda35f6fa-e911-48dd-9dec-7af1092c781d"><path d="M0 0 0 505 1339 505 1339 0Z"/></clipPath><clipPath id="clip89607922-f1e3-4096-8098-7750f7d27e7e"><path d="M0 0 0 505 1339 505 1339 0Z"/></clipPath><clipPath id="clip2e642a5d-1a2d-42df-a4d8-20c8c0c7c258"><path d="M0 0 0 505 1339 505 1339 0Z"/></clipPath><clipPath id="clip91057de6-32b0-47e4-8d78-4013a995d11d"><path d="M0 0 0 505 1339 505 1339 0Z"/></clipPath><clipPath id="clipcaf0dd0b-2f3e-4666-9e13-6503e4983eb0"><path d="M0 0 0 505 1339 505 1339 0Z"/></clipPath><clipPath id="clip4ca52643-ff65-473a-9717-39f30e5cf382"><path d="M0 0 0 505 1339 505 1339 0Z"/></clipPath><clipPath id="clipccf3b67d-d1e8-4a47-8621-304c6430aef5"><path d="M0 0 0 505 1339 505 1339 0Z"/></clipPath><clipPath id="clipb4a84c04-f950-4109-91db-d8dc7cea3d06"><path d="M0 0 0 505 1339 505 1339 0Z"/></clipPath><clipPath id="clip3028aa92-d333-432d-9883-a8e908505229"><path d="M0 0 0 505 1339 505 1339 0Z"/></clipPath><clipPath id="clipd746fd4c-4fc4-4be4-9edb-99bcb16f5675"><path d="M0 0 0 505 1339 505 1339 0Z"/></clipPath><clipPath id="clip45f01a44-bd09-4e3d-bc9d-5768418139e2"><path d="M0 0 0 505 1339 505 1339 0Z"/></clipPath><clipPath id="clip08f928e5-887e-4652-861f-6ed60c9af0cf"><path d="M0 0 0 505 1339 505 1339 0Z"/></clipPath><clipPath id="clip2e26094f-a815-4fc5-9635-75cc17261197"><path d="M0 0 0 505 1339 505 1339 0Z"/></clipPath><clipPath id="clip1d1f1665-d70e-456e-8246-3ba87d2f78e1"><path d="M0 0 0 505 1339 505 1339 0Z"/></clipPath><clipPath id="clipa1c527e2-4104-48f0-9483-64c7de585cb6"><path d="M0 0 0 505 1339 505 1339 0Z"/></clipPath><clipPath id="clip3903e9bf-4949-44eb-bea4-8b230833e504"><path d="M0 0 0 505 1339 505 1339 0Z"/></clipPath><clipPath id="clip82f48d84-c916-4aa3-a8d8-17548cb0aa3c"><path d="M0 0 0 505 1339 505 1339 0Z"/></clipPath><clipPath id="clip666506a5-18e4-48f7-b8a4-db80b67f12ba"><path d="M0 0 0 505 1339 505 1339 0Z"/></clipPath><g clip-path="url(#clip1)"><g stroke="#C0C0C0" stroke-width="2" stroke-linecap="round" stroke-linejoin="round" fill="none"><path d="M6.1465 0 6.1465 505"/></g></g><g clip-path="url(#clip2)"><g stroke="#C0C0C0" stroke-width="2" stroke-linecap="round" stroke-linejoin="round" fill="none"><path d="M6.1465 0 6.1465 505"/></g></g><g clip-path="url(#clip3)"><g stroke="#C0C0C0" stroke-width="2" stroke-linecap="round" stroke-linejoin="round" fill="none"><path d="M66.868 0 66.868 505"/></g></g><g clip-path="url(#clip4)"><g stroke="#C0C0C0" stroke-width="2" stroke-linecap="round" stroke-linejoin="round" fill="none"><path d="M127.59 0 127.59 505"/></g></g><g clip-path="url(#clip5)"><g stroke="#C0C0C0" stroke-width="2" stroke-linecap="round" stroke-linejoin="round" fill="none"><path d="M188.31 0 188.31 505"/></g></g><g clip-path="url(#clip6)"><g stroke="#C0C0C0" stroke-width="2" stroke-linecap="round" stroke-linejoin="round" fill="none"><path d="M249.03 0 249.03 505"/></g></g><g clip-path="url(#clip7)"><g stroke="#C0C0C0" stroke-width="2" stroke-linecap="round" stroke-linejoin="round" fill="none"><path d="M309.75 0 309.75 505"/></g></g><g clip-path="url(#clip8)"><g stroke="#C0C0C0" stroke-width="2" stroke-linecap="round" stroke-linejoin="round" fill="none"><path d="M370.47 0 370.47 505"/></g></g><g clip-path="url(#clip9)"><g stroke="#C0C0C0" stroke-width="2" stroke-linecap="round" stroke-linejoin="round" fill="none"><path d="M431.19 0 431.19 505"/></g></g><g clip-path="url(#clip10)"><g stroke="#C0C0C0" stroke-width="2" stroke-linecap="round" stroke-linejoin="round" fill="none"><path d="M491.92 0 491.92 505"/></g></g><g clip-path="url(#clip11)"><g stroke="#C0C0C0" stroke-width="2" stroke-linecap="round" stroke-linejoin="round" fill="none"><path d="M552.64 0 552.64 505"/></g></g><g clip-path="url(#clip12)"><g stroke="#C0C0C0" stroke-width="2" stroke-linecap="round" stroke-linejoin="round" fill="none"><path d="M613.36 0 613.36 505"/></g></g><g clip-path="url(#clip13)"><g stroke="#C0C0C0" stroke-width="2" stroke-linecap="round" stroke-linejoin="round" fill="none"><path d="M674.08 0 674.08 505"/></g></g><g clip-path="url(#clip14)"><g stroke="#C0C0C0" stroke-width="2" stroke-linecap="round" stroke-linejoin="round" fill="none"><path d="M734.8 0 734.8 505"/></g></g><g clip-path="url(#clip15)"><g stroke="#C0C0C0" stroke-width="2" stroke-linecap="round" stroke-linejoin="round" fill="none"><path d="M795.52 0 795.52 505"/></g></g><g clip-path="url(#clip16)"><g stroke="#C0C0C0" stroke-width="2" stroke-linecap="round" stroke-linejoin="round" fill="none"><path d="M856.24 0 856.24 505"/></g></g><g clip-path="url(#clip17)"><g stroke="#C0C0C0" stroke-width="2" stroke-linecap="round" stroke-linejoin="round" fill="none"><path d="M916.96 0 916.96 505"/></g></g><g clip-path="url(#clip18)"><g stroke="#C0C0C0" stroke-width="2" stroke-linecap="round" stroke-linejoin="round" fill="none"><path d="M1038.4 0 1038.4 505"/></g></g><g clip-path="url(#clip19)"><g stroke="#C0C0C0" stroke-width="2" stroke-linecap="round" stroke-linejoin="round" fill="none"><path d="M1099.1 0 1099.1 505"/></g></g><g clip-path="url(#clip20)"><g stroke="#C0C0C0" stroke-width="2" stroke-linecap="round" stroke-linejoin="round" fill="none"><path d="M1159.8 0 1159.8 505"/></g></g><g clip-path="url(#clip21)"><g stroke="#C0C0C0" stroke-width="2" stroke-linecap="round" stroke-linejoin="round" fill="none"><path d="M1220.6 0 1220.6 505"/></g></g><g clip-path="url(#clip22)"><g stroke="#C0C0C0" stroke-width="2" stroke-linecap="round" stroke-linejoin="round" fill="none"><path d="M1281.3 0 1281.3 505"/></g></g><g clip-path="url(#clip23)"><g stroke="#C0C0C0" stroke-width="2" stroke-linecap="round" stroke-linejoin="round" fill="none"><path d="M0 58.706 1339 58.706"/></g></g><g clip-path="url(#clip24)"><g stroke="#C0C0C0" stroke-width="2" stroke-linecap="round" stroke-linejoin="round" fill="none"><path d="M0 58.706 1339 58.706"/></g></g><g clip-path="url(#clip25)"><g stroke="#C0C0C0" stroke-width="2" stroke-linecap="round" stroke-linejoin="round" fill="none"><path d="M0 119.43 1339 119.43"/></g></g><g clip-path="url(#clip26)"><g stroke="#C0C0C0" stroke-width="2" stroke-linecap="round" stroke-linejoin="round" fill="none"><path d="M0 180.15 1339 180.15"/></g></g><g clip-path="url(#clip27)"><g stroke="#C0C0C0" stroke-width="2" stroke-linecap="round" stroke-linejoin="round" fill="none"><path d="M0 240.87 1339 240.87"/></g></g><g clip-path="url(#clip28)"><g stroke="#C0C0C0" stroke-width="2" stroke-linecap="round" stroke-linejoin="round" fill="none"><path d="M0 301.59 1339 301.59"/></g></g><g clip-path="url(#clip29)"><g stroke="#C0C0C0" stroke-width="2" stroke-linecap="round" stroke-linejoin="round" fill="none"><path d="M0 423.03 1339 423.03"/></g></g><g clip-path="url(#clip30)"><g stroke="#C0C0C0" stroke-width="2" stroke-linecap="round" stroke-linejoin="round" fill="none"><path d="M0 483.75 1339 483.75"/></g></g><g clip-path="url(#clip31)"><g stroke="#000000" stroke-linecap="butt" fill="none"><path d="M977.68 2 977.68 505"/></g></g><g clip-path="url(#clip32)"><g stroke="#000000" stroke-linecap="butt" fill="none"><path d="M977.68 1 971.68 7"/></g></g><g clip-path="url(#clip33)"><g stroke="#000000" stroke-linecap="butt" fill="none"><path d="M977.68 1 983.68 7"/></g></g><g clip-path="url(#clip34)"><g><path d="M1317.2 358 1321.7 351.53 1317.5 345.55 1320.2 345.55 1322.1 348.47C1322.43 349.023 1322.7 349.487 1322.9 349.86 1323.3 349.347 1323.63 348.893 1323.9 348.5L1326 345.55 1328.5 345.55 1324.2 351.41 1328.8 358 1326.2 358 1323.7 354.12 1323 353.09 1319.7 358 1317.2 358Z"/></g></g><g clip-path="url(#clip35)"><g stroke="#000000" stroke-linecap="butt" fill="none"><path d="M0 362.31 1337 362.31"/></g></g><g clip-path="url(#clip36)"><g stroke="#000000" stroke-linecap="butt" fill="none"><path d="M1338 362.31 1332 356.31"/></g></g><g clip-path="url(#clip37)"><g stroke="#000000" stroke-linecap="butt" fill="none"><path d="M1338 362.31 1332 368.31"/></g></g><g clip-path="url(#clip38)"><g><path d="M54.922 379.23 54.922 378.03 62.078 378.03 62.078 379.23 54.922 379.23ZM69.703 384 68.125 384 68.125 373.92C67.7397 374.287 67.2397 374.65 66.625 375.01 66.0103 375.37 65.453 375.643 64.953 375.83L64.953 374.3C65.8383 373.88 66.6143 373.373 67.281 372.78 67.9477 372.187 68.4167 371.613 68.688 371.06L69.703 371.06 69.703 384ZM73.761 380.62 75.417 380.48C75.5417 381.293 75.828 381.903 76.276 382.31 76.724 382.717 77.2657 382.92 77.901 382.92 78.6617 382.92 79.305 382.633 79.831 382.06 80.357 381.487 80.62 380.723 80.62 379.77 80.62 378.87 80.3673 378.16 79.862 377.64 79.3567 377.12 78.6927 376.86 77.87 376.86 77.3593 376.86 76.8983 376.973 76.487 377.2 76.0757 377.433 75.7553 377.737 75.526 378.11L74.042 377.91 75.292 371.3 81.698 371.3 81.698 372.8 76.558 372.8 75.854 376.27C76.6353 375.723 77.448 375.45 78.292 375.45 79.4167 375.45 80.3673 375.84 81.144 376.62 81.92 377.407 82.308 378.407 82.308 379.62 82.308 380.793 81.964 381.807 81.276 382.66 80.4533 383.7 79.3283 384.22 77.901 384.22 76.7243 384.22 75.766 383.89 75.026 383.23 74.2867 382.577 73.865 381.707 73.761 380.62Z"/></g></g><g clip-path="url(#clip39)"><g><path d="M115.92 379.23 115.92 378.03 123.08 378.03 123.08 379.23 115.92 379.23ZM130.7 384 129.12 384 129.12 373.92C128.74 374.287 128.24 374.65 127.62 375.01 127.007 375.37 126.45 375.643 125.95 375.83L125.95 374.3C126.837 373.88 127.613 373.373 128.28 372.78 128.947 372.187 129.417 371.613 129.69 371.06L130.7 371.06 130.7 384ZM139.82 384 139.82 380.92 134.25 380.92 134.25 379.47 140.12 371.11 141.42 371.11 141.42 379.47 143.15 379.47 143.15 380.92 141.42 380.92 141.42 384 139.82 384ZM139.82 379.47 139.82 373.66 135.79 379.47 139.82 379.47Z"/></g></g><g clip-path="url(#clip40)"><g><path d="M175.92 379.23 175.92 378.03 183.08 378.03 183.08 379.23 175.92 379.23ZM190.7 384 189.12 384 189.12 373.92C188.74 374.287 188.24 374.65 187.62 375.01 187.007 375.37 186.45 375.643 185.95 375.83L185.95 374.3C186.837 373.88 187.613 373.373 188.28 372.78 188.947 372.187 189.417 371.613 189.69 371.06L190.7 371.06 190.7 384ZM194.76 380.59 196.35 380.39C196.53 381.283 196.84 381.93 197.28 382.33 197.713 382.723 198.243 382.92 198.87 382.92 199.623 382.92 200.253 382.663 200.76 382.15 201.273 381.637 201.53 380.997 201.53 380.23 201.53 379.503 201.293 378.903 200.82 378.43 200.34 377.957 199.737 377.72 199.01 377.72 198.71 377.72 198.337 377.783 197.89 377.91L198.06 376.52C198.16 376.527 198.247 376.53 198.32 376.53 198.987 376.53 199.593 376.353 200.14 376 200.68 375.647 200.95 375.107 200.95 374.38 200.95 373.793 200.75 373.31 200.35 372.93 199.957 372.55 199.453 372.36 198.84 372.36 198.227 372.36 197.713 372.553 197.3 372.94 196.887 373.327 196.623 373.91 196.51 374.69L194.93 374.41C195.117 373.343 195.557 372.52 196.25 371.94 196.937 371.353 197.79 371.06 198.81 371.06 199.503 371.06 200.15 371.213 200.75 371.52 201.343 371.82 201.793 372.23 202.1 372.75 202.413 373.27 202.57 373.823 202.57 374.41 202.57 374.97 202.423 375.477 202.13 375.93 201.83 376.383 201.383 376.747 200.79 377.02 201.55 377.193 202.143 377.56 202.57 378.12 202.99 378.673 203.2 379.363 203.2 380.19 203.2 381.317 202.79 382.27 201.97 383.05 201.157 383.837 200.123 384.23 198.87 384.23 197.737 384.23 196.797 383.893 196.05 383.22 195.303 382.54 194.873 381.663 194.76 380.59Z"/></g></g><g clip-path="url(#clip41)"><g><path d="M236.92 379.23 236.92 378.03 244.08 378.03 244.08 379.23 236.92 379.23ZM251.7 384 250.12 384 250.12 373.92C249.74 374.287 249.24 374.65 248.62 375.01 248.007 375.37 247.45 375.643 246.95 375.83L246.95 374.3C247.837 373.88 248.613 373.373 249.28 372.78 249.947 372.187 250.417 371.613 250.69 371.06L251.7 371.06 251.7 384ZM264.07 382.48 264.07 384 255.56 384C255.547 383.613 255.61 383.25 255.75 382.91 255.963 382.323 256.307 381.75 256.78 381.19 257.26 380.623 257.95 379.97 258.85 379.23 260.25 378.09 261.197 377.183 261.69 376.51 262.183 375.837 262.43 375.203 262.43 374.61 262.43 373.977 262.207 373.447 261.76 373.02 261.313 372.593 260.73 372.38 260.01 372.38 259.237 372.38 258.623 372.607 258.17 373.06 257.723 373.52 257.493 374.15 257.48 374.95L255.85 374.78C255.97 373.573 256.39 372.653 257.11 372.02 257.837 371.38 258.813 371.06 260.04 371.06 261.273 371.06 262.25 371.403 262.97 372.09 263.697 372.777 264.06 373.627 264.06 374.64 264.06 375.153 263.953 375.66 263.74 376.16 263.527 376.66 263.173 377.183 262.68 377.73 262.193 378.283 261.383 379.04 260.25 380 259.297 380.8 258.687 381.34 258.42 381.62 258.147 381.907 257.927 382.193 257.76 382.48L264.07 382.48Z"/></g></g><g clip-path="url(#clip42)"><g><path d="M297.92 379.23 297.92 378.03 305.08 378.03 305.08 379.23 297.92 379.23ZM312.7 384 311.12 384 311.12 373.92C310.74 374.287 310.24 374.65 309.62 375.01 309.007 375.37 308.45 375.643 307.95 375.83L307.95 374.3C308.837 373.88 309.613 373.373 310.28 372.78 310.947 372.187 311.417 371.613 311.69 371.06L312.7 371.06 312.7 384ZM322.71 384 321.14 384 321.14 373.92C320.753 374.287 320.253 374.65 319.64 375.01 319.02 375.37 318.46 375.643 317.96 375.83L317.96 374.3C318.847 373.88 319.623 373.373 320.29 372.78 320.957 372.187 321.427 371.613 321.7 371.06L322.71 371.06 322.71 384Z"/></g></g><g clip-path="url(#clip43)"><g><path d="M357.92 379.23 357.92 378.03 365.08 378.03 365.08 379.23 357.92 379.23ZM372.7 384 371.12 384 371.12 373.92C370.74 374.287 370.24 374.65 369.62 375.01 369.007 375.37 368.45 375.643 367.95 375.83L367.95 374.3C368.837 373.88 369.613 373.373 370.28 372.78 370.947 372.187 371.417 371.613 371.69 371.06L372.7 371.06 372.7 384ZM376.76 377.64C376.76 376.12 376.917 374.897 377.23 373.97 377.543 373.043 378.01 372.327 378.63 371.82 379.25 371.313 380.027 371.06 380.96 371.06 381.653 371.06 382.26 371.2 382.78 371.48 383.3 371.753 383.73 372.153 384.07 372.68 384.403 373.207 384.67 373.847 384.87 374.6 385.07 375.353 385.17 376.367 385.17 377.64 385.17 379.153 385.013 380.373 384.7 381.3 384.387 382.233 383.92 382.953 383.3 383.46 382.68 383.967 381.9 384.22 380.96 384.22 379.713 384.22 378.737 383.777 378.03 382.89 377.183 381.817 376.76 380.067 376.76 377.64ZM378.39 377.64C378.39 379.753 378.637 381.163 379.13 381.87 379.623 382.57 380.233 382.92 380.96 382.92 381.68 382.92 382.29 382.57 382.79 381.87 383.29 381.163 383.54 379.753 383.54 377.64 383.54 375.527 383.29 374.12 382.79 373.42 382.29 372.727 381.677 372.38 380.95 372.38 380.217 372.38 379.633 372.687 379.2 373.3 378.66 374.08 378.39 375.527 378.39 377.64Z"/></g></g><g clip-path="url(#clip44)"><g><path d="M423.92 379.23 423.92 378.03 431.08 378.03 431.08 379.23 423.92 379.23ZM432.98 381.02 434.5 380.88C434.633 381.593 434.88 382.113 435.24 382.44 435.6 382.76 436.067 382.92 436.64 382.92 437.133 382.92 437.56 382.81 437.92 382.59 438.287 382.363 438.587 382.067 438.82 381.7 439.053 381.327 439.25 380.823 439.41 380.19 439.563 379.55 439.64 378.903 439.64 378.25 439.64 378.177 439.64 378.073 439.64 377.94 439.32 378.44 438.887 378.847 438.34 379.16 437.793 379.467 437.2 379.62 436.56 379.62 435.5 379.62 434.6 379.237 433.86 378.47 433.12 377.697 432.75 376.677 432.75 375.41 432.75 374.103 433.137 373.053 433.91 372.26 434.677 371.46 435.64 371.06 436.8 371.06 437.64 371.06 438.407 371.287 439.1 371.74 439.793 372.193 440.32 372.837 440.68 373.67 441.04 374.503 441.22 375.713 441.22 377.3 441.22 378.947 441.04 380.257 440.68 381.23 440.32 382.203 439.79 382.943 439.09 383.45 438.383 383.963 437.557 384.22 436.61 384.22 435.597 384.22 434.77 383.94 434.13 383.38 433.49 382.827 433.107 382.04 432.98 381.02ZM439.47 375.33C439.47 374.423 439.227 373.703 438.74 373.17 438.26 372.643 437.68 372.38 437 372.38 436.293 372.38 435.68 372.663 435.16 373.23 434.64 373.803 434.38 374.55 434.38 375.47 434.38 376.29 434.627 376.957 435.12 377.47 435.613 377.977 436.223 378.23 436.95 378.23 437.683 378.23 438.287 377.977 438.76 377.47 439.233 376.957 439.47 376.243 439.47 375.33Z"/></g></g><g clip-path="url(#clip45)"><g><path d="M483.92 379.23 483.92 378.03 491.08 378.03 491.08 379.23 483.92 379.23ZM495.19 377.02C494.53 376.78 494.043 376.433 493.73 375.98 493.41 375.533 493.25 375.003 493.25 374.39 493.25 373.45 493.587 372.66 494.26 372.02 494.933 371.38 495.83 371.06 496.95 371.06 498.077 371.06 498.98 371.387 499.66 372.04 500.347 372.693 500.69 373.487 500.69 374.42 500.69 375.027 500.533 375.55 500.22 375.99 499.907 376.437 499.433 376.78 498.8 377.02 499.587 377.28 500.187 377.697 500.6 378.27 501.013 378.837 501.22 379.517 501.22 380.31 501.22 381.417 500.83 382.343 500.05 383.09 499.27 383.843 498.243 384.22 496.97 384.22 495.697 384.22 494.673 383.843 493.9 383.09 493.12 382.33 492.73 381.39 492.73 380.27 492.73 379.437 492.943 378.733 493.37 378.16 493.79 377.593 494.397 377.213 495.19 377.02ZM494.86 374.33C494.86 374.943 495.057 375.443 495.45 375.83 495.85 376.217 496.36 376.41 496.98 376.41 497.587 376.41 498.087 376.217 498.48 375.83 498.867 375.443 499.06 374.973 499.06 374.42 499.06 373.84 498.86 373.35 498.46 372.95 498.06 372.557 497.563 372.36 496.97 372.36 496.363 372.36 495.86 372.553 495.46 372.94 495.06 373.327 494.86 373.79 494.86 374.33ZM494.36 380.28C494.36 380.727 494.467 381.163 494.68 381.59 494.893 382.01 495.21 382.337 495.63 382.57 496.057 382.803 496.513 382.92 497 382.92 497.747 382.92 498.37 382.677 498.87 382.19 499.363 381.697 499.61 381.077 499.61 380.33 499.61 379.57 499.353 378.943 498.84 378.45 498.333 377.95 497.7 377.7 496.94 377.7 496.2 377.7 495.583 377.947 495.09 378.44 494.603 378.927 494.36 379.54 494.36 380.28Z"/></g></g><g clip-path="url(#clip46)"><g><path d="M544.92 379.23 544.92 378.03 552.08 378.03 552.08 379.23 544.92 379.23ZM553.86 372.8 553.86 371.28 562.19 371.28 562.19 372.52C561.377 373.393 560.567 374.55 559.76 375.99 558.953 377.437 558.33 378.923 557.89 380.45 557.57 381.537 557.367 382.72 557.28 384L555.66 384C555.68 382.987 555.88 381.763 556.26 380.33 556.64 378.89 557.183 377.503 557.89 376.17 558.597 374.837 559.353 373.713 560.16 372.8L553.86 372.8Z"/></g></g><g clip-path="url(#clip47)"><g><path d="M605.92 379.23 605.92 378.03 613.08 378.03 613.08 379.23 605.92 379.23ZM622.95 374.27 621.39 374.39C621.243 373.777 621.04 373.33 620.78 373.05 620.353 372.59 619.827 372.36 619.2 372.36 618.7 372.36 618.26 372.5 617.88 372.78 617.373 373.147 616.98 373.68 616.7 374.38 616.413 375.073 616.263 376.067 616.25 377.36 616.637 376.773 617.103 376.34 617.65 376.06 618.197 375.78 618.773 375.64 619.38 375.64 620.44 375.64 621.34 376.027 622.08 376.8 622.82 377.58 623.19 378.583 623.19 379.81 623.19 380.623 623.013 381.377 622.66 382.07 622.313 382.763 621.837 383.293 621.23 383.66 620.617 384.033 619.927 384.22 619.16 384.22 617.833 384.22 616.753 383.737 615.92 382.77 615.087 381.797 614.67 380.197 614.67 377.97 614.67 375.477 615.133 373.663 616.06 372.53 616.867 371.55 617.947 371.06 619.3 371.06 620.32 371.06 621.153 371.343 621.8 371.91 622.447 372.483 622.83 373.27 622.95 374.27ZM616.5 379.83C616.5 380.37 616.613 380.89 616.84 381.39 617.073 381.89 617.397 382.27 617.81 382.53 618.23 382.79 618.667 382.92 619.12 382.92 619.787 382.92 620.36 382.65 620.84 382.11 621.32 381.57 621.56 380.837 621.56 379.91 621.56 379.023 621.323 378.32 620.85 377.8 620.377 377.287 619.78 377.03 619.06 377.03 618.34 377.03 617.733 377.287 617.24 377.8 616.747 378.32 616.5 378.997 616.5 379.83Z"/></g></g><g clip-path="url(#clip48)"><g><path d="M666.92 379.23 666.92 378.03 674.08 378.03 674.08 379.23 666.92 379.23ZM675.75 380.62 677.41 380.48C677.53 381.293 677.817 381.903 678.27 382.31 678.717 382.717 679.257 382.92 679.89 382.92 680.65 382.92 681.293 382.633 681.82 382.06 682.347 381.487 682.61 380.723 682.61 379.77 682.61 378.87 682.357 378.16 681.85 377.64 681.343 377.12 680.68 376.86 679.86 376.86 679.347 376.86 678.887 376.973 678.48 377.2 678.067 377.433 677.747 377.737 677.52 378.11L676.03 377.91 677.28 371.3 683.69 371.3 683.69 372.8 678.55 372.8 677.84 376.27C678.627 375.723 679.44 375.45 680.28 375.45 681.407 375.45 682.357 375.84 683.13 376.62 683.91 377.407 684.3 378.407 684.3 379.62 684.3 380.793 683.957 381.807 683.27 382.66 682.443 383.7 681.317 384.22 679.89 384.22 678.71 384.22 677.753 383.89 677.02 383.23 676.28 382.577 675.857 381.707 675.75 380.62Z"/></g></g><g clip-path="url(#clip49)"><g><path d="M726.92 379.23 726.92 378.03 734.08 378.03 734.08 379.23 726.92 379.23ZM740.81 384 740.81 380.92 735.23 380.92 735.23 379.47 741.11 371.11 742.41 371.11 742.41 379.47 744.14 379.47 744.14 380.92 742.41 380.92 742.41 384 740.81 384ZM740.81 379.47 740.81 373.66 736.78 379.47 740.81 379.47Z"/></g></g><g clip-path="url(#clip50)"><g><path d="M787.92 379.23 787.92 378.03 795.08 378.03 795.08 379.23 787.92 379.23ZM796.75 380.59 798.34 380.39C798.52 381.283 798.83 381.93 799.27 382.33 799.703 382.723 800.233 382.92 800.86 382.92 801.607 382.92 802.237 382.663 802.75 382.15 803.263 381.637 803.52 380.997 803.52 380.23 803.52 379.503 803.28 378.903 802.8 378.43 802.327 377.957 801.727 377.72 801 377.72 800.7 377.72 800.327 377.783 799.88 377.91L800.05 376.52C800.15 376.527 800.237 376.53 800.31 376.53 800.977 376.53 801.58 376.353 802.12 376 802.667 375.647 802.94 375.107 802.94 374.38 802.94 373.793 802.74 373.31 802.34 372.93 801.947 372.55 801.443 372.36 800.83 372.36 800.217 372.36 799.703 372.553 799.29 372.94 798.877 373.327 798.613 373.91 798.5 374.69L796.92 374.41C797.107 373.343 797.543 372.52 798.23 371.94 798.923 371.353 799.78 371.06 800.8 371.06 801.493 371.06 802.137 371.213 802.73 371.52 803.323 371.82 803.777 372.23 804.09 372.75 804.403 373.27 804.56 373.823 804.56 374.41 804.56 374.97 804.413 375.477 804.12 375.93 803.82 376.383 803.373 376.747 802.78 377.02 803.54 377.193 804.13 377.56 804.55 378.12 804.977 378.673 805.19 379.363 805.19 380.19 805.19 381.317 804.78 382.27 803.96 383.05 803.14 383.837 802.107 384.23 800.86 384.23 799.727 384.23 798.787 383.893 798.04 383.22 797.293 382.54 796.863 381.663 796.75 380.59Z"/></g></g><g clip-path="url(#clip51)"><g><path d="M848.92 379.23 848.92 378.03 856.08 378.03 856.08 379.23 848.92 379.23ZM866.06 382.48 866.06 384 857.55 384C857.537 383.613 857.597 383.25 857.73 382.91 857.95 382.323 858.297 381.75 858.77 381.19 859.243 380.623 859.933 379.97 860.84 379.23 862.24 378.09 863.187 377.183 863.68 376.51 864.173 375.837 864.42 375.203 864.42 374.61 864.42 373.977 864.197 373.447 863.75 373.02 863.303 372.593 862.72 372.38 862 372.38 861.227 372.38 860.613 372.607 860.16 373.06 859.707 373.52 859.477 374.15 859.47 374.95L857.84 374.78C857.96 373.573 858.38 372.653 859.1 372.02 859.827 371.38 860.803 371.06 862.03 371.06 863.263 371.06 864.24 371.403 864.96 372.09 865.687 372.777 866.05 373.627 866.05 374.64 866.05 375.153 865.943 375.66 865.73 376.16 865.517 376.66 865.163 377.183 864.67 377.73 864.183 378.283 863.37 379.04 862.23 380 861.283 380.8 860.677 381.34 860.41 381.62 860.137 381.907 859.917 382.193 859.75 382.48L866.06 382.48Z"/></g></g><g clip-path="url(#clip52)"><g><path d="M908.92 379.23 908.92 378.03 916.08 378.03 916.08 379.23 908.92 379.23ZM923.7 384 922.12 384 922.12 373.92C921.74 374.287 921.24 374.65 920.62 375.01 920.007 375.37 919.45 375.643 918.95 375.83L918.95 374.3C919.837 373.88 920.613 373.373 921.28 372.78 921.947 372.187 922.417 371.613 922.69 371.06L923.7 371.06 923.7 384Z"/></g></g><g clip-path="url(#clip53)"><g><path d="M1040.7 384 1039.1 384 1039.1 373.92C1038.7 374.287 1038.2 374.65 1037.6 375.01 1037 375.37 1036.47 375.643 1036 375.83L1036 374.3C1036.87 373.88 1037.63 373.373 1038.3 372.78 1038.97 372.187 1039.43 371.613 1039.7 371.06L1040.7 371.06 1040.7 384Z"/></g></g><g clip-path="url(#clip54)"><g><path d="M1104.1 382.48 1104.1 384 1095.5 384C1095.5 383.613 1095.57 383.25 1095.7 382.91 1095.97 382.323 1096.33 381.75 1096.8 381.19 1097.27 380.623 1097.93 379.97 1098.8 379.23 1100.2 378.09 1101.17 377.183 1101.7 376.51 1102.17 375.837 1102.4 375.203 1102.4 374.61 1102.4 373.977 1102.2 373.447 1101.8 373.02 1101.33 372.593 1100.73 372.38 1100 372.38 1099.2 372.38 1098.6 372.607 1098.2 373.06 1097.73 373.52 1097.5 374.15 1097.5 374.95L1095.8 374.78C1095.93 373.573 1096.37 372.653 1097.1 372.02 1097.83 371.38 1098.8 371.06 1100 371.06 1101.27 371.06 1102.27 371.403 1103 372.09 1103.67 372.777 1104 373.627 1104 374.64 1104 375.153 1103.9 375.66 1103.7 376.16 1103.5 376.66 1103.17 377.183 1102.7 377.73 1102.17 378.283 1101.33 379.04 1100.2 380 1099.27 380.8 1098.67 381.34 1098.4 381.62 1098.13 381.907 1097.93 382.193 1097.8 382.48L1104.1 382.48Z"/></g></g><g clip-path="url(#clip55)"><g><path d="M1156.8 380.59 1158.3 380.39C1158.5 381.283 1158.83 381.93 1159.3 382.33 1159.7 382.723 1160.23 382.92 1160.9 382.92 1161.63 382.92 1162.27 382.663 1162.8 382.15 1163.27 381.637 1163.5 380.997 1163.5 380.23 1163.5 379.503 1163.27 378.903 1162.8 378.43 1162.33 377.957 1161.73 377.72 1161 377.72 1160.67 377.72 1160.3 377.783 1159.9 377.91L1160 376.52C1160.13 376.527 1160.23 376.53 1160.3 376.53 1160.97 376.53 1161.57 376.353 1162.1 376 1162.63 375.647 1162.9 375.107 1162.9 374.38 1162.9 373.793 1162.7 373.31 1162.3 372.93 1161.97 372.55 1161.47 372.36 1160.8 372.36 1160.2 372.36 1159.7 372.553 1159.3 372.94 1158.9 373.327 1158.63 373.91 1158.5 374.69L1156.9 374.41C1157.1 373.343 1157.53 372.52 1158.2 371.94 1158.93 371.353 1159.8 371.06 1160.8 371.06 1161.47 371.06 1162.1 371.213 1162.7 371.52 1163.3 371.82 1163.77 372.23 1164.1 372.75 1164.43 373.27 1164.6 373.823 1164.6 374.41 1164.6 374.97 1164.43 375.477 1164.1 375.93 1163.83 376.383 1163.4 376.747 1162.8 377.02 1163.53 377.193 1164.13 377.56 1164.6 378.12 1165 378.673 1165.2 379.363 1165.2 380.19 1165.2 381.317 1164.8 382.27 1164 383.05 1163.13 383.837 1162.1 384.23 1160.9 384.23 1159.77 384.23 1158.8 383.893 1158 383.22 1157.27 382.54 1156.87 381.663 1156.8 380.59Z"/></g></g><g clip-path="url(#clip56)"><g><path d="M1222.8 384 1222.8 380.92 1217.2 380.92 1217.2 379.47 1223.1 371.11 1224.4 371.11 1224.4 379.47 1226.1 379.47 1226.1 380.92 1224.4 380.92 1224.4 384 1222.8 384ZM1222.8 379.47 1222.8 373.66 1218.8 379.47 1222.8 379.47Z"/></g></g><g clip-path="url(#clip57)"><g><path d="M1277.8 380.62 1279.4 380.48C1279.53 381.293 1279.83 381.903 1280.3 382.31 1280.7 382.717 1281.23 382.92 1281.9 382.92 1282.63 382.92 1283.27 382.633 1283.8 382.06 1284.33 381.487 1284.6 380.723 1284.6 379.77 1284.6 378.87 1284.37 378.16 1283.9 377.64 1283.37 377.12 1282.7 376.86 1281.9 376.86 1281.37 376.86 1280.9 376.973 1280.5 377.2 1280.1 377.433 1279.77 377.737 1279.5 378.11L1278 377.91 1279.3 371.3 1285.7 371.3 1285.7 372.8 1280.5 372.8 1279.8 376.27C1280.6 375.723 1281.43 375.45 1282.3 375.45 1283.43 375.45 1284.37 375.84 1285.1 376.62 1285.9 377.407 1286.3 378.407 1286.3 379.62 1286.3 380.793 1285.97 381.807 1285.3 382.66 1284.43 383.7 1283.3 384.22 1281.9 384.22 1280.7 384.22 1279.73 383.89 1279 383.23 1278.27 382.577 1277.87 381.707 1277.8 380.62Z"/></g></g><g clip-path="url(#clip58)"><g><path d="M983.48 33.797 983.25 31.812C983.717 31.9373 984.123 32 984.47 32 984.937 32 985.31 31.922 985.59 31.766 985.877 31.6093 986.107 31.3903 986.28 31.109 986.413 30.901 986.627 30.3803 986.92 29.547 986.96 29.4217 987.023 29.2497 987.11 29.031L982.39 16.547 984.66 16.547 987.25 23.766C987.583 24.672 987.887 25.6303 988.16 26.641 988.4 25.6723 988.687 24.7293 989.02 23.812L991.69 16.547 993.8 16.547 989.06 29.219C988.553 30.5837 988.16 31.521 987.88 32.031 987.5 32.729 987.07 33.2393 986.59 33.562 986.103 33.8853 985.52 34.047 984.84 34.047 984.433 34.047 983.98 33.9637 983.48 33.797Z"/></g></g><g clip-path="url(#clip59)"><g><path d="M950.92 486.23 950.92 485.03 958.08 485.03 958.08 486.23 950.92 486.23ZM968.06 489.48 968.06 491 959.55 491C959.537 490.613 959.597 490.25 959.73 489.91 959.95 489.323 960.297 488.75 960.77 488.19 961.243 487.623 961.933 486.97 962.84 486.23 964.24 485.09 965.187 484.183 965.68 483.51 966.173 482.837 966.42 482.203 966.42 481.61 966.42 480.977 966.197 480.447 965.75 480.02 965.303 479.593 964.72 479.38 964 479.38 963.227 479.38 962.613 479.607 962.16 480.06 961.707 480.52 961.477 481.15 961.47 481.95L959.84 481.78C959.96 480.573 960.38 479.653 961.1 479.02 961.827 478.38 962.803 478.06 964.03 478.06 965.263 478.06 966.24 478.403 966.96 479.09 967.687 479.777 968.05 480.627 968.05 481.64 968.05 482.153 967.943 482.66 967.73 483.16 967.517 483.66 967.163 484.183 966.67 484.73 966.183 485.283 965.37 486.04 964.23 487 963.283 487.8 962.677 488.34 962.41 488.62 962.137 488.907 961.917 489.193 961.75 489.48L968.06 489.48Z"/></g></g><g clip-path="url(#clip60)"><g><path d="M950.92 426.23 950.92 425.03 958.08 425.03 958.08 426.23 950.92 426.23ZM965.7 431 964.12 431 964.12 420.92C963.74 421.287 963.24 421.65 962.62 422.01 962.007 422.37 961.45 422.643 960.95 422.83L960.95 421.3C961.837 420.88 962.613 420.373 963.28 419.78 963.947 419.187 964.417 418.613 964.69 418.06L965.7 418.06 965.7 431Z"/></g></g><g clip-path="url(#clip61)"><g><path d="M965.7 309 964.12 309 964.12 298.92C963.74 299.287 963.24 299.65 962.62 300.01 962.007 300.37 961.45 300.643 960.95 300.83L960.95 299.3C961.837 298.88 962.613 298.373 963.28 297.78 963.947 297.187 964.417 296.613 964.69 296.06L965.7 296.06 965.7 309Z"/></g></g><g clip-path="url(#clip62)"><g><path d="M968.06 246.48 968.06 248 959.55 248C959.537 247.613 959.597 247.25 959.73 246.91 959.95 246.323 960.297 245.75 960.77 245.19 961.243 244.623 961.933 243.97 962.84 243.23 964.24 242.09 965.187 241.183 965.68 240.51 966.173 239.837 966.42 239.203 966.42 238.61 966.42 237.977 966.197 237.447 965.75 237.02 965.303 236.593 964.72 236.38 964 236.38 963.227 236.38 962.613 236.607 962.16 237.06 961.707 237.52 961.477 238.15 961.47 238.95L959.84 238.78C959.96 237.573 960.38 236.653 961.1 236.02 961.827 235.38 962.803 235.06 964.03 235.06 965.263 235.06 966.24 235.403 966.96 236.09 967.687 236.777 968.05 237.627 968.05 238.64 968.05 239.153 967.943 239.66 967.73 240.16 967.517 240.66 967.163 241.183 966.67 241.73 966.183 242.283 965.37 243.04 964.23 244 963.283 244.8 962.677 245.34 962.41 245.62 962.137 245.907 961.917 246.193 961.75 246.48L968.06 246.48Z"/></g></g><g clip-path="url(#clip63)"><g><path d="M959.75 184.59 961.34 184.39C961.52 185.283 961.83 185.93 962.27 186.33 962.703 186.723 963.233 186.92 963.86 186.92 964.607 186.92 965.237 186.663 965.75 186.15 966.263 185.637 966.52 184.997 966.52 184.23 966.52 183.503 966.28 182.903 965.8 182.43 965.327 181.957 964.727 181.72 964 181.72 963.7 181.72 963.327 181.783 962.88 181.91L963.05 180.52C963.15 180.527 963.237 180.53 963.31 180.53 963.977 180.53 964.58 180.353 965.12 180 965.667 179.647 965.94 179.107 965.94 178.38 965.94 177.793 965.74 177.31 965.34 176.93 964.947 176.55 964.443 176.36 963.83 176.36 963.217 176.36 962.703 176.553 962.29 176.94 961.877 177.327 961.613 177.91 961.5 178.69L959.92 178.41C960.107 177.343 960.543 176.52 961.23 175.94 961.923 175.353 962.78 175.06 963.8 175.06 964.493 175.06 965.137 175.213 965.73 175.52 966.323 175.82 966.777 176.23 967.09 176.75 967.403 177.27 967.56 177.823 967.56 178.41 967.56 178.97 967.413 179.477 967.12 179.93 966.82 180.383 966.373 180.747 965.78 181.02 966.54 181.193 967.13 181.56 967.55 182.12 967.977 182.673 968.19 183.363 968.19 184.19 968.19 185.317 967.78 186.27 966.96 187.05 966.14 187.837 965.107 188.23 963.86 188.23 962.727 188.23 961.787 187.893 961.04 187.22 960.293 186.54 959.863 185.663 959.75 184.59Z"/></g></g><g clip-path="url(#clip64)"><g><path d="M964.81 127 964.81 123.92 959.23 123.92 959.23 122.47 965.11 114.11 966.41 114.11 966.41 122.47 968.14 122.47 968.14 123.92 966.41 123.92 966.41 127 964.81 127ZM964.81 122.47 964.81 116.66 960.78 122.47 964.81 122.47Z"/></g></g><g clip-path="url(#clip65)"><g><path d="M959.75 62.625 961.41 62.484C961.53 63.2967 961.817 63.906 962.27 64.312 962.717 64.7187 963.257 64.922 963.89 64.922 964.65 64.922 965.293 64.6353 965.82 64.062 966.347 63.4893 966.61 62.724 966.61 61.766 966.61 60.87 966.357 60.1617 965.85 59.641 965.343 59.1197 964.68 58.859 963.86 58.859 963.347 58.859 962.887 58.9737 962.48 59.203 962.067 59.4323 961.747 59.7343 961.52 60.109L960.03 59.906 961.28 53.297 967.69 53.297 967.69 54.797 962.55 54.797 961.84 58.266C962.627 57.724 963.44 57.453 964.28 57.453 965.407 57.453 966.357 57.8437 967.13 58.625 967.91 59.4063 968.3 60.4063 968.3 61.625 968.3 62.7917 967.957 63.802 967.27 64.656 966.443 65.698 965.317 66.219 963.89 66.219 962.71 66.219 961.753 65.8907 961.02 65.234 960.28 64.578 959.857 63.7083 959.75 62.625Z"/></g></g><g clip-path="url(#clip66)"><g><path d="M959.75 377.64C959.75 376.12 959.907 374.897 960.22 373.97 960.533 373.043 961 372.327 961.62 371.82 962.24 371.313 963.017 371.06 963.95 371.06 964.637 371.06 965.243 371.2 965.77 371.48 966.29 371.753 966.717 372.153 967.05 372.68 967.39 373.207 967.66 373.847 967.86 374.6 968.06 375.353 968.16 376.367 968.16 377.64 968.16 379.153 968.003 380.373 967.69 381.3 967.377 382.233 966.91 382.953 966.29 383.46 965.67 383.967 964.89 384.22 963.95 384.22 962.703 384.22 961.727 383.777 961.02 382.89 960.173 381.817 959.75 380.067 959.75 377.64ZM961.38 377.64C961.38 379.753 961.627 381.163 962.12 381.87 962.613 382.57 963.223 382.92 963.95 382.92 964.67 382.92 965.28 382.57 965.78 381.87 966.28 381.163 966.53 379.753 966.53 377.64 966.53 375.527 966.28 374.12 965.78 373.42 965.28 372.727 964.667 372.38 963.94 372.38 963.207 372.38 962.623 372.687 962.19 373.3 961.65 374.08 961.38 375.527 961.38 377.64Z"/></g></g><g id="misc"></g><g id="layer0"><clipPath id="clip37176d04-3644-47b2-8246-4a7558001abc"><path d="M0 0 0 505 1339 505 1339 0Z"/></clipPath><clipPath id="clip9ae676bf-f2cd-4d99-8088-2476dc542d6d"><path d="M0 0 0 505 1339 505 1339 0Z"/></clipPath><clipPath id="clip23e2d834-8fcb-488f-bc18-f11d01389dd1"><path d="M0 0 0 505 1339 505 1339 0Z"/></clipPath><clipPath id="clipaea0f226-bb6d-4722-b78f-c836ed2409d2"><path d="M0 0 0 505 1339 505 1339 0Z"/></clipPath><clipPath id="clip01a06a04-23bf-4f19-b2d1-434582d37e17"><path d="M0 0 0 505 1339 505 1339 0Z"/></clipPath><clipPath id="clip6a980b2a-d509-4e5b-8bee-ed7b098fb676"><path d="M0 0 0 505 1339 505 1339 0Z"/></clipPath><clipPath id="clipc7ca7ad0-4bad-481a-a97c-5b6dfc8eb1a0"><path d="M0 0 0 505 1339 505 1339 0Z"/></clipPath><clipPath id="clip5933e5ed-63d1-4cc0-a773-ef9f5ff0477d"><path d="M0 0 0 505 1339 505 1339 0Z"/></clipPath><clipPath id="clip99d6b78e-071b-4126-8ce0-0bf8df177360"><path d="M0 0 0 505 1339 505 1339 0Z"/></clipPath><g clip-path="url(#clip67)"><g stroke="#000000" stroke-width="3.5" stroke-linecap="round" stroke-linejoin="round" stroke-opacity="0.69804" fill="none"><path d="M856.24 119.43 857.8 124.11M857.8 124.11 860.41 131.79 863.03 139.21 865.64 146.38 868.26 153.3 870.87 159.97 873.49 166.4 876.1 172.6 878.72 178.55M878.72 178.55 881.33 184.28 883.95 189.77 886.56 195.04 889.18 200.09 894.41 209.53 899.64 218.13 904.87 225.9 910.1 232.88 915.33 239.09 920.56 244.55M920.56 244.55 925.79 249.31 931.02 253.37 936.25 256.78 941.48 259.55 946.71 261.71 951.95 263.29 957.18 264.32 962.41 264.82 967.64 264.82 972.87 264.35 978.1 263.43 983.33 262.09 988.56 260.36 993.79 258.26 999.02 255.82 1004.2 253.07M1004.2 253.07 1009.5 250.04 1014.7 246.74 1019.9 243.22 1025.2 239.48 1030.4 235.57 1035.6 231.51 1040.9 227.32 1046.1 223.03 1051.3 218.68 1056.6 214.27 1061.8 209.85 1067 205.44 1072.2 201.07 1077.5 196.75 1082.7 192.53 1087.9 188.42 1093.2 184.46 1098.4 180.66 1103.6 177.06 1108.9 173.69 1114.1 170.56 1119.3 167.71 1124.6 165.17 1129.8 162.95 1135 161.1 1140.2 159.63 1145.5 158.56 1150.7 157.94 1155.9 157.78 1161.2 158.11 1166.4 158.96 1171.6 160.36M1171.6 160.36 1176.9 162.32 1182.1 164.89 1187.3 168.08 1192.5 171.92 1197.8 176.44 1203 181.67 1208.2 187.63 1213.5 194.34 1218.7 201.85 1223.9 210.16 1229.2 219.32 1231.8 224.22 1234.4 229.35 1237 234.69 1239.6 240.26 1242.2 246.06 1244.9 252.1 1247.5 258.37 1250.1 264.88 1252.7 271.64 1255.3 278.64M1255.3 278.64 1257.9 285.89 1260.5 293.4 1263.2 301.16 1265.8 309.18 1268.4 317.47 1271 326.02 1273.6 334.84 1276.2 343.94M1276.2 343.94 1278.8 352.99 1281.3 362.31"/></g></g><g clip-path="url(#clip68)"><g><path d="M798.48 174.8 798.25 172.81C798.717 172.937 799.123 173 799.47 173 799.937 173 800.31 172.923 800.59 172.77 800.877 172.61 801.107 172.39 801.28 172.11 801.413 171.903 801.627 171.383 801.92 170.55 801.96 170.423 802.023 170.25 802.11 170.03L797.39 157.55 799.66 157.55 802.25 164.77C802.583 165.67 802.887 166.627 803.16 167.64 803.4 166.673 803.687 165.73 804.02 164.81L806.69 157.55 808.8 157.55 804.06 170.22C803.553 171.587 803.16 172.523 802.88 173.03 802.5 173.73 802.07 174.24 801.59 174.56 801.103 174.887 800.52 175.05 799.84 175.05 799.433 175.05 798.98 174.967 798.48 174.8ZM821.69 159.89 810.34 159.89 810.34 157.92 821.69 157.92 821.69 159.89ZM821.69 165.11 810.34 165.11 810.34 163.14 821.69 163.14 821.69 165.11ZM825.11 170 825.11 159.19 823.23 159.19 823.23 157.55 825.11 157.55 825.11 156.23C825.11 155.39 825.183 154.767 825.33 154.36 825.523 153.82 825.88 153.38 826.4 153.04 826.913 152.7 827.63 152.53 828.55 152.53 829.143 152.53 829.8 152.597 830.52 152.73L830.2 154.58C829.767 154.493 829.35 154.45 828.95 154.45 828.317 154.45 827.867 154.59 827.6 154.87 827.333 155.143 827.2 155.657 827.2 156.41L827.2 157.55 829.62 157.55 829.62 159.19 827.2 159.19 827.2 170 825.11 170ZM835.29 175.05C834.137 173.577 833.157 171.857 832.35 169.89 831.543 167.923 831.14 165.887 831.14 163.78 831.14 161.913 831.44 160.133 832.04 158.44 832.74 156.46 833.823 154.49 835.29 152.53L836.81 152.53C835.863 154.157 835.237 155.313 834.93 156 834.45 157.08 834.077 158.207 833.81 159.38 833.477 160.847 833.31 162.313 833.31 163.78 833.31 167.54 834.477 171.297 836.81 175.05L835.29 175.05ZM837.85 170 842.39 163.53 838.19 157.55 840.83 157.55 842.74 160.47C843.107 161.023 843.397 161.487 843.61 161.86 843.957 161.347 844.27 160.893 844.55 160.5L846.66 157.55 849.18 157.55 844.88 163.41 849.5 170 846.91 170 844.36 166.12 843.68 165.09 840.41 170 837.85 170ZM852.64 175.05 851.13 175.05C853.463 171.297 854.63 167.54 854.63 163.78 854.63 162.313 854.463 160.86 854.13 159.42 853.87 158.247 853.5 157.123 853.02 156.05 852.72 155.337 852.09 154.163 851.13 152.53L852.64 152.53C854.113 154.49 855.197 156.46 855.89 158.44 856.497 160.133 856.8 161.913 856.8 163.78 856.8 165.887 856.397 167.923 855.59 169.89 854.783 171.857 853.8 173.577 852.64 175.05Z"/></g></g><g clip-path="url(#clip69)"><g stroke="#000000" stroke-width="3" fill="none"><path d="M862.24 119.43C862.24 122.74 859.56 125.43 856.24 125.43 852.93 125.43 850.24 122.74 850.24 119.43 850.24 116.11 852.93 113.43 856.24 113.43 859.56 113.43 862.24 116.11 862.24 119.43Z"/></g></g><g clip-path="url(#clip70)"><g><path d="M922.96 240.87C922.96 244.18 920.28 246.87 916.96 246.87 913.65 246.87 910.96 244.18 910.96 240.87 910.96 237.56 913.65 234.87 916.96 234.87 920.28 234.87 922.96 237.56 922.96 240.87Z"/></g></g><g clip-path="url(#clip71)"><g stroke="#000000" stroke-linecap="round" stroke-linejoin="round" fill="none"><path d="M922.96 240.87C922.96 244.18 920.28 246.87 916.96 246.87 913.65 246.87 910.96 244.18 910.96 240.87 910.96 237.56 913.65 234.87 916.96 234.87 920.28 234.87 922.96 237.56 922.96 240.87Z"/></g></g><g clip-path="url(#clip72)"><g><path d="M1105.1 180.15C1105.1 183.46 1102.4 186.15 1099.1 186.15 1095.8 186.15 1093.1 183.46 1093.1 180.15 1093.1 176.83 1095.8 174.15 1099.1 174.15 1102.4 174.15 1105.1 176.83 1105.1 180.15Z"/></g></g><g clip-path="url(#clip73)"><g stroke="#000000" stroke-linecap="round" stroke-linejoin="round" fill="none"><path d="M1105.1 180.15C1105.1 183.46 1102.4 186.15 1099.1 186.15 1095.8 186.15 1093.1 183.46 1093.1 180.15 1093.1 176.83 1095.8 174.15 1099.1 174.15 1102.4 174.15 1105.1 176.83 1105.1 180.15Z"/></g></g><g clip-path="url(#clip74)"><g><path d="M1287.3 362.31C1287.3 365.63 1284.6 368.31 1281.3 368.31 1278 368.31 1275.3 365.63 1275.3 362.31 1275.3 359 1278 356.31 1281.3 356.31 1284.6 356.31 1287.3 359 1287.3 362.31Z"/></g></g><g clip-path="url(#clip75)"><g stroke="#000000" stroke-linecap="round" stroke-linejoin="round" fill="none"><path d="M1287.3 362.31C1287.3 365.63 1284.6 368.31 1281.3 368.31 1278 368.31 1275.3 365.63 1275.3 362.31 1275.3 359 1278 356.31 1281.3 356.31 1284.6 356.31 1287.3 359 1287.3 362.31Z"/></g></g></g></g></svg>