<svg width="275.71" height="289.922" viewBox="0 0 386 407" xmlns="http://www.w3.org/2000/svg" xmlns:xlink="http://www.w3.org/1999/xlink" overflow="hidden"><g stroke-width="1" stroke-linecap="square" stroke-linejoin="miter" stroke-miterlimit="10" stroke-dasharray="" stroke-dashoffset="0"><clipPath id="clipc8f92d9b-ba47-4e46-b6ca-1d4e89005b39"><path d="M0 0 0 408 388 408 388 0Z"/></clipPath><clipPath id="clip6412e262-9d82-4353-825e-6b28ed7e7108"><path d="M0 0 0 408 388 408 388 0Z"/></clipPath><clipPath id="clipde504b70-7164-4f4a-8ed8-8f6a715f873b"><path d="M0 0 0 408 388 408 388 0Z"/></clipPath><clipPath id="clip94aaf508-84e2-4a48-84d6-8fab7437bd48"><path d="M0 0 0 408 388 408 388 0Z"/></clipPath><clipPath id="clip113fdbb2-178f-46bf-adb9-50f0c0334b4c"><path d="M0 0 0 408 388 408 388 0Z"/></clipPath><clipPath id="clip69ecbf4e-5806-4731-8e5a-231baa6d4e81"><path d="M0 0 0 408 388 408 388 0Z"/></clipPath><clipPath id="clip65ffd8e0-f0bb-4450-8f6b-30d5ca13b226"><path d="M0 0 0 408 388 408 388 0Z"/></clipPath><clipPath id="clip043816c6-1f42-4374-a682-471d111e2c8d"><path d="M0 0 0 408 388 408 388 0Z"/></clipPath><clipPath id="clipe56fcab4-3ad0-4c95-92cd-2b46deb0ca54"><path d="M0 0 0 408 388 408 388 0Z"/></clipPath><clipPath id="clip8f7af40d-6881-4260-8a95-35b54402e023"><path d="M0 0 0 408 388 408 388 0Z"/></clipPath><clipPath id="clip2038dc9f-15cb-4bf3-96c2-5255a6991f0a"><path d="M0 0 0 408 388 408 388 0Z"/></clipPath><clipPath id="clip00c11343-792e-4b9a-95f8-88281ae3f048"><path d="M0 0 0 408 388 408 388 0Z"/></clipPath><clipPath id="clip23d5ad0b-d33d-4d78-9861-4f6eff8cbc99"><path d="M0 0 0 408 388 408 388 0Z"/></clipPath><clipPath id="clip1fac433c-bcc8-4caa-90bd-8fd35de367f8"><path d="M0 0 0 408 388 408 388 0Z"/></clipPath><clipPath id="clipd7c6d8af-f110-4788-8615-4eabc8d70346"><path d="M0 0 0 408 388 408 388 0Z"/></clipPath><clipPath id="clipd47388c1-a63c-4eb4-a2dd-59bb6d485b52"><path d="M0 0 0 408 388 408 388 0Z"/></clipPath><clipPath id="clip81fa693c-0883-4544-a45a-ab057bdd507f"><path d="M0 0 0 408 388 408 388 0Z"/></clipPath><clipPath id="clip1ea4aa06-0b8a-427e-b41e-81495e183662"><path d="M0 0 0 408 388 408 388 0Z"/></clipPath><clipPath id="clip3c7142eb-11f0-4ab1-baaa-5632bf4a26a0"><path d="M0 0 0 408 388 408 388 0Z"/></clipPath><clipPath id="clip9caf1720-2e0a-47c5-91b7-1d4c017fd171"><path d="M0 0 0 408 388 408 388 0Z"/></clipPath><clipPath id="clipd9eabaa1-c047-43c0-ac41-51953bfdb2c4"><path d="M0 0 0 408 388 408 388 0Z"/></clipPath><clipPath id="clip1e51c4a2-3d41-4dc9-8eae-2b58a133f551"><path d="M0 0 0 408 388 408 388 0Z"/></clipPath><clipPath id="clip48733b4d-df95-4c60-82f2-cab37f9e239f"><path d="M0 0 0 408 388 408 388 0Z"/></clipPath><clipPath id="clipe0de1e19-6b02-40da-9b6a-833a3ee53dc2"><path d="M0 0 0 408 388 408 388 0Z"/></clipPath><clipPath id="clipa728cdea-b6d5-48c3-840a-024ff18fe829"><path d="M0 0 0 408 388 408 388 0Z"/></clipPath><clipPath id="clip5fac9145-a351-43ff-ac17-927f7b1bd804"><path d="M0 0 0 408 388 408 388 0Z"/></clipPath><clipPath id="clip24d7fee6-735f-4b2c-ac2f-da9f45d6deb3"><path d="M0 0 0 408 388 408 388 0Z"/></clipPath><clipPath id="clipd2ed2776-0750-482d-a62c-9d03a12ebdef"><path d="M0 0 0 408 388 408 388 0Z"/></clipPath><clipPath id="clip5bcc3133-43ba-4286-8d23-813d43b83d98"><path d="M0 0 0 408 388 408 388 0Z"/></clipPath><clipPath id="clip579a1467-93f2-4c6a-825a-6db0e160cba4"><path d="M0 0 0 408 388 408 388 0Z"/></clipPath><clipPath id="clip7899166a-897b-4a40-bbfc-179474ab3ce7"><path d="M0 0 0 408 388 408 388 0Z"/></clipPath><clipPath id="clip53626bb7-55e3-44e4-8c6c-3b462b14889c"><path d="M0 0 0 408 388 408 388 0Z"/></clipPath><clipPath id="clipe2fa0c96-97f6-4fc3-971f-9f974a083ab6"><path d="M0 0 0 408 388 408 388 0Z"/></clipPath><clipPath id="clip1395a46c-e0f4-498a-8ed1-86d1a0c7dd55"><path d="M0 0 0 408 388 408 388 0Z"/></clipPath><clipPath id="clip5ad37280-ca2a-4cd9-8831-8e0641aa40be"><path d="M0 0 0 408 388 408 388 0Z"/></clipPath><clipPath id="clipe9e5d085-7d07-4832-b507-8261a85dbee6"><path d="M0 0 0 408 388 408 388 0Z"/></clipPath><clipPath id="clip7123154d-7c1d-4cbb-8a74-52470360d686"><path d="M0 0 0 408 388 408 388 0Z"/></clipPath><clipPath id="clipc6d0bb3f-3059-4ac1-85a6-bae1cacbc881"><path d="M0 0 0 408 388 408 388 0Z"/></clipPath><clipPath id="clip20581fe9-fae5-4f27-9aab-29f455e1c268"><path d="M0 0 0 408 388 408 388 0Z"/></clipPath><clipPath id="clip57edd8d7-7341-4181-a3fb-41ee3ed23da0"><path d="M0 0 0 408 388 408 388 0Z"/></clipPath><clipPath id="clipf9b763d6-fd5a-467e-a476-90df0488aeae"><path d="M0 0 0 408 388 408 388 0Z"/></clipPath><clipPath id="clip6ca5a205-9132-44f3-aea5-51884e2612a5"><path d="M0 0 0 408 388 408 388 0Z"/></clipPath><clipPath id="clip087452cc-7afe-4f9e-9438-0eece9694859"><path d="M0 0 0 408 388 408 388 0Z"/></clipPath><clipPath id="clip8342bf6b-3ee2-4204-9b67-429add370d62"><path d="M0 0 0 408 388 408 388 0Z"/></clipPath><clipPath id="clipd69fe8f0-8614-40a9-ad61-70f8dd211eac"><path d="M0 0 0 408 388 408 388 0Z"/></clipPath><clipPath id="clip257d9f53-0324-433a-a889-25ce0b005655"><path d="M0 0 0 408 388 408 388 0Z"/></clipPath><clipPath id="clipa4fd1b96-cc1a-4bb3-81c0-a5ffd41714af"><path d="M0 0 0 408 388 408 388 0Z"/></clipPath><clipPath id="clip9d884de5-dd95-4092-b834-84aeb9b1326a"><path d="M0 0 0 408 388 408 388 0Z"/></clipPath><clipPath id="clip4427bc43-8992-498b-b8ae-97435757d69a"><path d="M0 0 0 408 388 408 388 0Z"/></clipPath><clipPath id="clip5f49b548-3e34-4ccc-a137-ad6c9df643ab"><path d="M0 0 0 408 388 408 388 0Z"/></clipPath><clipPath id="clipcfdb613d-c9fe-459c-a9ed-1f9b678bb280"><path d="M0 0 0 408 388 408 388 0Z"/></clipPath><clipPath id="clipba0c2d9e-7ce2-4652-82de-63845c9f9558"><path d="M0 0 0 408 388 408 388 0Z"/></clipPath><clipPath id="clip96bc45cd-462a-4caa-bbf4-ceb6d600331d"><path d="M0 0 0 408 388 408 388 0Z"/></clipPath><clipPath id="clip7650f270-ee3f-4812-8b78-84d35ba67d5d"><path d="M0 0 0 408 388 408 388 0Z"/></clipPath><clipPath id="clipd09faaa3-fc7a-4f02-948f-1d9cd10b80d2"><path d="M0 0 0 408 388 408 388 0Z"/></clipPath><clipPath id="clip36dfe28b-2618-4923-ab83-6b36ab9e7be0"><path d="M0 0 0 408 388 408 388 0Z"/></clipPath><clipPath id="clipd47454d1-788a-40a9-b02a-e708d517f8df"><path d="M0 0 0 408 388 408 388 0Z"/></clipPath><clipPath id="clipfa6f4dfd-36ae-40eb-b76c-512f3d0f76d4"><path d="M0 0 0 408 388 408 388 0Z"/></clipPath><clipPath id="clipc2708e2c-04ef-4e0f-b4c0-b0cff877bfb3"><path d="M0 0 0 408 388 408 388 0Z"/></clipPath><clipPath id="clip390f465c-1455-4ddb-a8b3-629b6a204cbc"><path d="M0 0 0 408 388 408 388 0Z"/></clipPath><clipPath id="clip20caff9b-6719-4564-a841-f511d798bf03"><path d="M0 0 0 408 388 408 388 0Z"/></clipPath><clipPath id="clip68c9b8f2-11c2-4a8a-b02c-76c3ebef32ab"><path d="M0 0 0 408 388 408 388 0Z"/></clipPath><clipPath id="clip1aa151ee-fbd7-4db9-a3cf-66d513dc64f1"><path d="M0 0 0 408 388 408 388 0Z"/></clipPath><clipPath id="clip435da73d-df04-45ce-8234-3dc46c57d4fe"><path d="M0 0 0 408 388 408 388 0Z"/></clipPath><clipPath id="clip20a4eacf-3af9-491f-9b46-d867cb8b2dc4"><path d="M0 0 0 408 388 408 388 0Z"/></clipPath><clipPath id="clip8e199dcf-e83e-44f3-aa37-b3facac6c0e8"><path d="M0 0 0 408 388 408 388 0Z"/></clipPath><clipPath id="clip0b845707-a564-4e37-be5e-6d196508e8ce"><path d="M0 0 0 408 388 408 388 0Z"/></clipPath><clipPath id="clip963683e7-1655-4d8d-803c-71a25330c629"><path d="M0 0 0 408 388 408 388 0Z"/></clipPath><clipPath id="clip7ac8f21e-951e-4c7a-b23d-13be3f44d29c"><path d="M0 0 0 408 388 408 388 0Z"/></clipPath><clipPath id="clip0f5e9246-5388-4190-a17d-858ed08032f1"><path d="M0 0 0 408 388 408 388 0Z"/></clipPath><clipPath id="clipdf9e80bf-200b-431b-92f0-c0aa6643a9b9"><path d="M0 0 0 408 388 408 388 0Z"/></clipPath><clipPath id="clip86889f86-9096-40b1-8c2e-74ccb1fe0eb6"><path d="M0 0 0 408 388 408 388 0Z"/></clipPath><clipPath id="clipb619810b-2288-4a97-934b-1cafcea4ced4"><path d="M0 0 0 408 388 408 388 0Z"/></clipPath><clipPath id="clip8cd7943a-228f-412b-bf14-451bf07b1e33"><path d="M0 0 0 408 388 408 388 0Z"/></clipPath><clipPath id="clip0a8a8a54-a093-44e5-9ff2-b745b9f9a4c9"><path d="M0 0 0 408 388 408 388 0Z"/></clipPath><clipPath id="clip4ecfe54e-4df4-4c8f-bf69-7f8bf4876221"><path d="M0 0 0 408 388 408 388 0Z"/></clipPath><clipPath id="clip65d20863-e145-483f-a20c-c09bbdc82dfb"><path d="M0 0 0 408 388 408 388 0Z"/></clipPath><clipPath id="clipa266e8af-2ba3-4b78-93b4-d7a115e62d3c"><path d="M0 0 0 408 388 408 388 0Z"/></clipPath><clipPath id="clipfb49956d-1d56-44c6-8030-63fb82b68b60"><path d="M0 0 0 408 388 408 388 0Z"/></clipPath><clipPath id="clip41e3d1a0-99a4-462b-8a50-3f6abaf2e666"><path d="M0 0 0 408 388 408 388 0Z"/></clipPath><clipPath id="clip47699438-bc4b-4de7-8f1d-6f659cddc391"><path d="M0 0 0 408 388 408 388 0Z"/></clipPath><clipPath id="clip915900db-8759-4ff3-b7dd-04cb8ec3ab3a"><path d="M0 0 0 408 388 408 388 0Z"/></clipPath><clipPath id="clip2f67db88-649c-42e8-92ef-43d0aa35b3c7"><path d="M0 0 0 408 388 408 388 0Z"/></clipPath><clipPath id="clip2ce555cb-7097-4189-a350-f90a64e2d1ed"><path d="M0 0 0 408 388 408 388 0Z"/></clipPath><clipPath id="clip4d1e2705-a980-413d-ab5d-a5af2e5c72b5"><path d="M0 0 0 408 388 408 388 0Z"/></clipPath><clipPath id="clipaf398e81-bc53-4f7a-a5ac-a58701c7b341"><path d="M0 0 0 408 388 408 388 0Z"/></clipPath><clipPath id="clipb3a780b8-d2f4-48be-9b34-3ab82744f8eb"><path d="M0 0 0 408 388 408 388 0Z"/></clipPath><clipPath id="clip48bc5f98-42fa-4adb-8c0b-ddb1d49816d9"><path d="M0 0 0 408 388 408 388 0Z"/></clipPath><clipPath id="clip248e9ae8-2f6e-486f-b6c9-64fda47e43a2"><path d="M0 0 0 408 388 408 388 0Z"/></clipPath><clipPath id="clip22f23f87-1af1-4c1b-a66f-3824c6e27359"><path d="M0 0 0 408 388 408 388 0Z"/></clipPath><clipPath id="clipe0c7e935-4d35-4241-9ac7-687451960c7c"><path d="M0 0 0 408 388 408 388 0Z"/></clipPath><clipPath id="clip40bd809a-c30b-42bd-8c44-6020a6e81d98"><path d="M0 0 0 408 388 408 388 0Z"/></clipPath><clipPath id="clip56fe3fba-6b42-4a1b-b442-509a5cef0385"><path d="M0 0 0 408 388 408 388 0Z"/></clipPath><clipPath id="clip7f6c9daf-4077-4fac-8c20-a1bdaf90a6ad"><path d="M0 0 0 408 388 408 388 0Z"/></clipPath><clipPath id="clipb126de6a-b8a9-4155-880e-40bfcc644bf0"><path d="M0 0 0 408 388 408 388 0Z"/></clipPath><g clip-path="url(#clip1)"><g stroke="#C0C0C0" stroke-linecap="round" stroke-linejoin="round" stroke-opacity="1" fill="none"><path d="M21.673 0 21.673 408"/></g></g><g clip-path="url(#clip2)"><g stroke="#C0C0C0" stroke-linecap="round" stroke-linejoin="round" stroke-opacity="1" fill="none"><path d="M21.673 0 21.673 408"/></g></g><g clip-path="url(#clip3)"><g stroke="#C0C0C0" stroke-linecap="round" stroke-linejoin="round" stroke-opacity="1" fill="none"><path d="M128.05 0 128.05 408"/></g></g><g clip-path="url(#clip4)"><g stroke="#C0C0C0" stroke-linecap="round" stroke-linejoin="round" stroke-opacity="1" fill="none"><path d="M181.24 0 181.24 408"/></g></g><g clip-path="url(#clip5)"><g stroke="#C0C0C0" stroke-linecap="round" stroke-linejoin="round" stroke-opacity="1" fill="none"><path d="M234.43 0 234.43 408"/></g></g><g clip-path="url(#clip6)"><g stroke="#C0C0C0" stroke-linecap="round" stroke-linejoin="round" stroke-opacity="1" fill="none"><path d="M287.62 0 287.62 408"/></g></g><g clip-path="url(#clip7)"><g stroke="#C0C0C0" stroke-linecap="round" stroke-linejoin="round" stroke-opacity="1" fill="none"><path d="M340.8 0 340.8 408"/></g></g><g clip-path="url(#clip8)"><g stroke="#C0C0C0" stroke-linecap="round" stroke-linejoin="round" stroke-opacity="0.23529" fill="none"><path d="M0.39764 0 0.39764 408"/></g></g><g clip-path="url(#clip9)"><g stroke="#C0C0C0" stroke-linecap="round" stroke-linejoin="round" stroke-opacity="0.23529" fill="none"><path d="M11.035 0 11.035 408"/></g></g><g clip-path="url(#clip10)"><g stroke="#C0C0C0" stroke-linecap="round" stroke-linejoin="round" stroke-opacity="0.23529" fill="none"><path d="M32.311 0 32.311 408"/></g></g><g clip-path="url(#clip11)"><g stroke="#C0C0C0" stroke-linecap="round" stroke-linejoin="round" stroke-opacity="0.23529" fill="none"><path d="M42.948 0 42.948 408"/></g></g><g clip-path="url(#clip12)"><g stroke="#C0C0C0" stroke-linecap="round" stroke-linejoin="round" stroke-opacity="0.23529" fill="none"><path d="M53.586 0 53.586 408"/></g></g><g clip-path="url(#clip13)"><g stroke="#C0C0C0" stroke-linecap="round" stroke-linejoin="round" stroke-opacity="0.23529" fill="none"><path d="M64.224 0 64.224 408"/></g></g><g clip-path="url(#clip14)"><g stroke="#C0C0C0" stroke-linecap="round" stroke-linejoin="round" stroke-opacity="0.23529" fill="none"><path d="M85.499 0 85.499 408"/></g></g><g clip-path="url(#clip15)"><g stroke="#C0C0C0" stroke-linecap="round" stroke-linejoin="round" stroke-opacity="0.23529" fill="none"><path d="M96.137 0 96.137 408"/></g></g><g clip-path="url(#clip16)"><g stroke="#C0C0C0" stroke-linecap="round" stroke-linejoin="round" stroke-opacity="0.23529" fill="none"><path d="M106.77 0 106.77 408"/></g></g><g clip-path="url(#clip17)"><g stroke="#C0C0C0" stroke-linecap="round" stroke-linejoin="round" stroke-opacity="0.23529" fill="none"><path d="M117.41 0 117.41 408"/></g></g><g clip-path="url(#clip18)"><g stroke="#C0C0C0" stroke-linecap="round" stroke-linejoin="round" stroke-opacity="0.23529" fill="none"><path d="M138.69 0 138.69 408"/></g></g><g clip-path="url(#clip19)"><g stroke="#C0C0C0" stroke-linecap="round" stroke-linejoin="round" stroke-opacity="0.23529" fill="none"><path d="M149.33 0 149.33 408"/></g></g><g clip-path="url(#clip20)"><g stroke="#C0C0C0" stroke-linecap="round" stroke-linejoin="round" stroke-opacity="0.23529" fill="none"><path d="M159.96 0 159.96 408"/></g></g><g clip-path="url(#clip21)"><g stroke="#C0C0C0" stroke-linecap="round" stroke-linejoin="round" stroke-opacity="0.23529" fill="none"><path d="M170.6 0 170.6 408"/></g></g><g clip-path="url(#clip22)"><g stroke="#C0C0C0" stroke-linecap="round" stroke-linejoin="round" stroke-opacity="0.23529" fill="none"><path d="M191.88 0 191.88 408"/></g></g><g clip-path="url(#clip23)"><g stroke="#C0C0C0" stroke-linecap="round" stroke-linejoin="round" stroke-opacity="0.23529" fill="none"><path d="M202.51 0 202.51 408"/></g></g><g clip-path="url(#clip24)"><g stroke="#C0C0C0" stroke-linecap="round" stroke-linejoin="round" stroke-opacity="0.23529" fill="none"><path d="M213.15 0 213.15 408"/></g></g><g clip-path="url(#clip25)"><g stroke="#C0C0C0" stroke-linecap="round" stroke-linejoin="round" stroke-opacity="0.23529" fill="none"><path d="M223.79 0 223.79 408"/></g></g><g clip-path="url(#clip26)"><g stroke="#C0C0C0" stroke-linecap="round" stroke-linejoin="round" stroke-opacity="0.23529" fill="none"><path d="M245.06 0 245.06 408"/></g></g><g clip-path="url(#clip27)"><g stroke="#C0C0C0" stroke-linecap="round" stroke-linejoin="round" stroke-opacity="0.23529" fill="none"><path d="M255.7 0 255.7 408"/></g></g><g clip-path="url(#clip28)"><g stroke="#C0C0C0" stroke-linecap="round" stroke-linejoin="round" stroke-opacity="0.23529" fill="none"><path d="M266.34 0 266.34 408"/></g></g><g clip-path="url(#clip29)"><g stroke="#C0C0C0" stroke-linecap="round" stroke-linejoin="round" stroke-opacity="0.23529" fill="none"><path d="M276.98 0 276.98 408"/></g></g><g clip-path="url(#clip30)"><g stroke="#C0C0C0" stroke-linecap="round" stroke-linejoin="round" stroke-opacity="0.23529" fill="none"><path d="M298.25 0 298.25 408"/></g></g><g clip-path="url(#clip31)"><g stroke="#C0C0C0" stroke-linecap="round" stroke-linejoin="round" stroke-opacity="0.23529" fill="none"><path d="M308.89 0 308.89 408"/></g></g><g clip-path="url(#clip32)"><g stroke="#C0C0C0" stroke-linecap="round" stroke-linejoin="round" stroke-opacity="0.23529" fill="none"><path d="M319.53 0 319.53 408"/></g></g><g clip-path="url(#clip33)"><g stroke="#C0C0C0" stroke-linecap="round" stroke-linejoin="round" stroke-opacity="0.23529" fill="none"><path d="M330.17 0 330.17 408"/></g></g><g clip-path="url(#clip34)"><g stroke="#C0C0C0" stroke-linecap="round" stroke-linejoin="round" stroke-opacity="0.23529" fill="none"><path d="M351.44 0 351.44 408"/></g></g><g clip-path="url(#clip35)"><g stroke="#C0C0C0" stroke-linecap="round" stroke-linejoin="round" stroke-opacity="0.23529" fill="none"><path d="M362.08 0 362.08 408"/></g></g><g clip-path="url(#clip36)"><g stroke="#C0C0C0" stroke-linecap="round" stroke-linejoin="round" stroke-opacity="0.23529" fill="none"><path d="M372.72 0 372.72 408"/></g></g><g clip-path="url(#clip37)"><g stroke="#C0C0C0" stroke-linecap="round" stroke-linejoin="round" stroke-opacity="0.23529" fill="none"><path d="M383.35 0 383.35 408"/></g></g><g clip-path="url(#clip38)"><g stroke="#C0C0C0" stroke-linecap="round" stroke-linejoin="round" stroke-opacity="1" fill="none"><path d="M0 44.572 388 44.572"/></g></g><g clip-path="url(#clip39)"><g stroke="#C0C0C0" stroke-linecap="round" stroke-linejoin="round" stroke-opacity="1" fill="none"><path d="M0 44.572 388 44.572"/></g></g><g clip-path="url(#clip40)"><g stroke="#C0C0C0" stroke-linecap="round" stroke-linejoin="round" stroke-opacity="1" fill="none"><path d="M0 97.76 388 97.76"/></g></g><g clip-path="url(#clip41)"><g stroke="#C0C0C0" stroke-linecap="round" stroke-linejoin="round" stroke-opacity="1" fill="none"><path d="M0 150.95 388 150.95"/></g></g><g clip-path="url(#clip42)"><g stroke="#C0C0C0" stroke-linecap="round" stroke-linejoin="round" stroke-opacity="1" fill="none"><path d="M0 204.14 388 204.14"/></g></g><g clip-path="url(#clip43)"><g stroke="#C0C0C0" stroke-linecap="round" stroke-linejoin="round" stroke-opacity="1" fill="none"><path d="M0 310.51 388 310.51"/></g></g><g clip-path="url(#clip44)"><g stroke="#C0C0C0" stroke-linecap="round" stroke-linejoin="round" stroke-opacity="1" fill="none"><path d="M0 363.7 388 363.7"/></g></g><g clip-path="url(#clip45)"><g stroke="#C0C0C0" stroke-linecap="round" stroke-linejoin="round" stroke-opacity="0.23529" fill="none"><path d="M0 2.0209 388 2.0209"/></g></g><g clip-path="url(#clip46)"><g stroke="#C0C0C0" stroke-linecap="round" stroke-linejoin="round" stroke-opacity="0.23529" fill="none"><path d="M0 12.659 388 12.659"/></g></g><g clip-path="url(#clip47)"><g stroke="#C0C0C0" stroke-linecap="round" stroke-linejoin="round" stroke-opacity="0.23529" fill="none"><path d="M0 23.296 388 23.296"/></g></g><g clip-path="url(#clip48)"><g stroke="#C0C0C0" stroke-linecap="round" stroke-linejoin="round" stroke-opacity="0.23529" fill="none"><path d="M0 33.934 388 33.934"/></g></g><g clip-path="url(#clip49)"><g stroke="#C0C0C0" stroke-linecap="round" stroke-linejoin="round" stroke-opacity="0.23529" fill="none"><path d="M0 55.209 388 55.209"/></g></g><g clip-path="url(#clip50)"><g stroke="#C0C0C0" stroke-linecap="round" stroke-linejoin="round" stroke-opacity="0.23529" fill="none"><path d="M0 65.847 388 65.847"/></g></g><g clip-path="url(#clip51)"><g stroke="#C0C0C0" stroke-linecap="round" stroke-linejoin="round" stroke-opacity="0.23529" fill="none"><path d="M0 76.485 388 76.485"/></g></g><g clip-path="url(#clip52)"><g stroke="#C0C0C0" stroke-linecap="round" stroke-linejoin="round" stroke-opacity="0.23529" fill="none"><path d="M0 87.122 388 87.122"/></g></g><g clip-path="url(#clip53)"><g stroke="#C0C0C0" stroke-linecap="round" stroke-linejoin="round" stroke-opacity="0.23529" fill="none"><path d="M0 108.4 388 108.4"/></g></g><g clip-path="url(#clip54)"><g stroke="#C0C0C0" stroke-linecap="round" stroke-linejoin="round" stroke-opacity="0.23529" fill="none"><path d="M0 119.04 388 119.04"/></g></g><g clip-path="url(#clip55)"><g stroke="#C0C0C0" stroke-linecap="round" stroke-linejoin="round" stroke-opacity="0.23529" fill="none"><path d="M0 129.67 388 129.67"/></g></g><g clip-path="url(#clip56)"><g stroke="#C0C0C0" stroke-linecap="round" stroke-linejoin="round" stroke-opacity="0.23529" fill="none"><path d="M0 140.31 388 140.31"/></g></g><g clip-path="url(#clip57)"><g stroke="#C0C0C0" stroke-linecap="round" stroke-linejoin="round" stroke-opacity="0.23529" fill="none"><path d="M0 161.59 388 161.59"/></g></g><g clip-path="url(#clip58)"><g stroke="#C0C0C0" stroke-linecap="round" stroke-linejoin="round" stroke-opacity="0.23529" fill="none"><path d="M0 172.22 388 172.22"/></g></g><g clip-path="url(#clip59)"><g stroke="#C0C0C0" stroke-linecap="round" stroke-linejoin="round" stroke-opacity="0.23529" fill="none"><path d="M0 182.86 388 182.86"/></g></g><g clip-path="url(#clip60)"><g stroke="#C0C0C0" stroke-linecap="round" stroke-linejoin="round" stroke-opacity="0.23529" fill="none"><path d="M0 193.5 388 193.5"/></g></g><g clip-path="url(#clip61)"><g stroke="#C0C0C0" stroke-linecap="round" stroke-linejoin="round" stroke-opacity="0.23529" fill="none"><path d="M0 214.77 388 214.77"/></g></g><g clip-path="url(#clip62)"><g stroke="#C0C0C0" stroke-linecap="round" stroke-linejoin="round" stroke-opacity="0.23529" fill="none"><path d="M0 225.41 388 225.41"/></g></g><g clip-path="url(#clip63)"><g stroke="#C0C0C0" stroke-linecap="round" stroke-linejoin="round" stroke-opacity="0.23529" fill="none"><path d="M0 236.05 388 236.05"/></g></g><g clip-path="url(#clip64)"><g stroke="#C0C0C0" stroke-linecap="round" stroke-linejoin="round" stroke-opacity="0.23529" fill="none"><path d="M0 246.69 388 246.69"/></g></g><g clip-path="url(#clip65)"><g stroke="#C0C0C0" stroke-linecap="round" stroke-linejoin="round" stroke-opacity="0.23529" fill="none"><path d="M0 267.96 388 267.96"/></g></g><g clip-path="url(#clip66)"><g stroke="#C0C0C0" stroke-linecap="round" stroke-linejoin="round" stroke-opacity="0.23529" fill="none"><path d="M0 278.6 388 278.6"/></g></g><g clip-path="url(#clip67)"><g stroke="#C0C0C0" stroke-linecap="round" stroke-linejoin="round" stroke-opacity="0.23529" fill="none"><path d="M0 289.24 388 289.24"/></g></g><g clip-path="url(#clip68)"><g stroke="#C0C0C0" stroke-linecap="round" stroke-linejoin="round" stroke-opacity="0.23529" fill="none"><path d="M0 299.88 388 299.88"/></g></g><g clip-path="url(#clip69)"><g stroke="#C0C0C0" stroke-linecap="round" stroke-linejoin="round" stroke-opacity="0.23529" fill="none"><path d="M0 321.15 388 321.15"/></g></g><g clip-path="url(#clip70)"><g stroke="#C0C0C0" stroke-linecap="round" stroke-linejoin="round" stroke-opacity="0.23529" fill="none"><path d="M0 331.79 388 331.79"/></g></g><g clip-path="url(#clip71)"><g stroke="#C0C0C0" stroke-linecap="round" stroke-linejoin="round" stroke-opacity="0.23529" fill="none"><path d="M0 342.43 388 342.43"/></g></g><g clip-path="url(#clip72)"><g stroke="#C0C0C0" stroke-linecap="round" stroke-linejoin="round" stroke-opacity="0.23529" fill="none"><path d="M0 353.06 388 353.06"/></g></g><g clip-path="url(#clip73)"><g stroke="#C0C0C0" stroke-linecap="round" stroke-linejoin="round" stroke-opacity="0.23529" fill="none"><path d="M0 374.34 388 374.34"/></g></g><g clip-path="url(#clip74)"><g stroke="#C0C0C0" stroke-linecap="round" stroke-linejoin="round" stroke-opacity="0.23529" fill="none"><path d="M0 384.98 388 384.98"/></g></g><g clip-path="url(#clip75)"><g stroke="#C0C0C0" stroke-linecap="round" stroke-linejoin="round" stroke-opacity="0.23529" fill="none"><path d="M0 395.62 388 395.62"/></g></g><g clip-path="url(#clip76)"><g stroke="#C0C0C0" stroke-linecap="round" stroke-linejoin="round" stroke-opacity="0.23529" fill="none"><path d="M0 406.25 388 406.25"/></g></g><g clip-path="url(#clip77)"><g stroke="#000000" stroke-linecap="butt" stroke-opacity="1" fill="none"><path d="M74.861 2 74.861 408"/></g></g><g clip-path="url(#clip78)"><g stroke="#000000" stroke-linecap="butt" stroke-opacity="1" fill="none"><path d="M74.861 1 70.861 5"/></g></g><g clip-path="url(#clip79)"><g stroke="#000000" stroke-linecap="butt" stroke-opacity="1" fill="none"><path d="M74.861 1 78.861 5"/></g></g><g clip-path="url(#clip80)"><g stroke="#000000" stroke-linecap="butt" stroke-opacity="1" fill="none"><path d="M0 257.33 386 257.33"/></g></g><g clip-path="url(#clip81)"><g stroke="#000000" stroke-linecap="butt" stroke-opacity="1" fill="none"><path d="M387 257.33 383 253.33"/></g></g><g clip-path="url(#clip82)"><g stroke="#000000" stroke-linecap="butt" stroke-opacity="1" fill="none"><path d="M387 257.33 383 261.33"/></g></g><g clip-path="url(#clip83)"><g stroke="none" fill="#000000" fill-rule="nonzero" fill-opacity="1"><path d="M16.615 269.82 16.615 269.02 21.385 269.02 21.385 269.82ZM23.805 273 23.805 272.13 25.539 272.13 25.539 265.29 23.805 265.72 23.805 264.83 26.699 264.11 26.699 272.13 28.434 272.13 28.434 273Z"/></g></g><g clip-path="url(#clip84)"><g stroke="none" fill="#000000" fill-rule="nonzero" fill-opacity="1"><path d="M127.8 273 127.8 272.13 129.54 272.13 129.54 265.29 127.8 265.72 127.8 264.83 130.7 264.11 130.7 272.13 132.43 272.13 132.43 273Z"/></g></g><g clip-path="url(#clip85)"><g stroke="none" fill="#000000" fill-rule="nonzero" fill-opacity="1"><path d="M180 273 180 271.99C180.333 271.203 181.013 270.347 182.04 269.42L182.7 268.83C183.547 268.057 183.97 267.293 183.97 266.54 183.97 266.053 183.827 265.67 183.54 265.39 183.247 265.117 182.847 264.98 182.34 264.98 181.74 264.98 181.03 265.213 180.21 265.68L180.21 264.66C180.983 264.293 181.747 264.11 182.5 264.11 183.313 264.11 183.967 264.33 184.46 264.77 184.953 265.203 185.2 265.783 185.2 266.51 185.2 267.03 185.077 267.49 184.83 267.89 184.583 268.29 184.12 268.78 183.44 269.36L183 269.74C182.073 270.52 181.537 271.27 181.39 271.99L185.16 271.99 185.16 273Z"/></g></g><g clip-path="url(#clip86)"><g stroke="none" fill="#000000" fill-rule="nonzero" fill-opacity="1"><path d="M233.22 272.94 233.22 271.86C234.047 272.187 234.7 272.35 235.18 272.35 235.727 272.35 236.173 272.19 236.52 271.87 236.867 271.543 237.04 271.127 237.04 270.62 237.04 269.4 236.187 268.79 234.48 268.79L234.02 268.79 234.02 268.01 234.43 268C236.03 268 236.83 267.437 236.83 266.31 236.83 265.423 236.303 264.98 235.25 264.98 234.67 264.98 234.033 265.14 233.34 265.46L233.34 264.46C234.02 264.227 234.683 264.11 235.33 264.11 237.103 264.11 237.99 264.78 237.99 266.12 237.99 267.14 237.387 267.867 236.18 268.3 237.58 268.627 238.28 269.393 238.28 270.6 238.28 271.413 238.01 272.053 237.47 272.52 236.93 272.987 236.19 273.22 235.25 273.22 234.71 273.22 234.033 273.127 233.22 272.94Z"/></g></g><g clip-path="url(#clip87)"><g stroke="none" fill="#000000" fill-rule="nonzero" fill-opacity="1"><path d="M289.52 273 289.52 270.54 285.62 270.54 285.62 269.67 289.52 264.33 290.6 264.33 290.6 269.6 291.76 269.6 291.76 270.54 290.6 270.54 290.6 273ZM286.75 269.6 289.59 269.6 289.59 265.75Z"/></g></g><g clip-path="url(#clip88)"><g stroke="none" fill="#000000" fill-rule="nonzero" fill-opacity="1"><path d="M339.46 273.04 339.46 272C340.033 272.233 340.58 272.35 341.1 272.35 341.673 272.35 342.12 272.183 342.44 271.85 342.767 271.51 342.93 271.047 342.93 270.46 342.93 269.16 342.033 268.51 340.24 268.51 340.04 268.51 339.83 268.523 339.61 268.55L339.61 264.33 343.99 264.33 343.99 265.34 340.62 265.34 340.62 267.62C341.733 267.62 342.603 267.877 343.23 268.39 343.85 268.903 344.16 269.613 344.16 270.52 344.16 271.36 343.877 272.02 343.31 272.5 342.743 272.98 341.957 273.22 340.95 273.22 340.51 273.22 340.013 273.16 339.46 273.04Z"/></g></g><g clip-path="url(#clip89)"><g stroke="none" fill="#000000" fill-rule="nonzero" fill-opacity="1"><path d="M54.615 364.82 54.615 364.02 59.385 364.02 59.385 364.82ZM60.996 368 60.996 366.99C61.332 366.203 62.0117 365.347 63.035 364.42L63.697 363.83C64.549 363.057 64.975 362.293 64.975 361.54 64.975 361.053 64.8293 360.67 64.538 360.39 64.2473 360.117 63.848 359.98 63.34 359.98 62.7387 359.98 62.0297 360.213 61.213 360.68L61.213 359.66C61.9823 359.293 62.746 359.11 63.504 359.11 64.3167 359.11 64.969 359.33 65.461 359.77 65.953 360.203 66.199 360.783 66.199 361.51 66.199 362.03 66.075 362.49 65.827 362.89 65.579 363.29 65.117 363.78 64.441 364.36L63.996 364.74C63.07 365.52 62.535 366.27 62.391 366.99L66.158 366.99 66.158 368Z"/></g></g><g clip-path="url(#clip90)"><g stroke="none" fill="#000000" fill-rule="nonzero" fill-opacity="1"><path d="M54.615 311.82 54.615 311.02 59.385 311.02 59.385 311.82ZM61.805 315 61.805 314.13 63.539 314.13 63.539 307.29 61.805 307.72 61.805 306.83 64.699 306.11 64.699 314.13 66.434 314.13 66.434 315Z"/></g></g><g clip-path="url(#clip91)"><g stroke="none" fill="#000000" fill-rule="nonzero" fill-opacity="1"><path d="M61.805 209 61.805 208.13 63.539 208.13 63.539 201.29 61.805 201.72 61.805 200.83 64.699 200.11 64.699 208.13 66.434 208.13 66.434 209Z"/></g></g><g clip-path="url(#clip92)"><g stroke="none" fill="#000000" fill-rule="nonzero" fill-opacity="1"><path d="M60.996 155 60.996 153.99C61.332 153.203 62.0117 152.347 63.035 151.42L63.697 150.83C64.549 150.057 64.975 149.293 64.975 148.54 64.975 148.053 64.8293 147.67 64.538 147.39 64.2473 147.117 63.848 146.98 63.34 146.98 62.7387 146.98 62.0297 147.213 61.213 147.68L61.213 146.66C61.9823 146.293 62.746 146.11 63.504 146.11 64.3167 146.11 64.969 146.33 65.461 146.77 65.953 147.203 66.199 147.783 66.199 148.51 66.199 149.03 66.075 149.49 65.827 149.89 65.579 150.29 65.117 150.78 64.441 151.36L63.996 151.74C63.07 152.52 62.535 153.27 62.391 153.99L66.158 153.99 66.158 155Z"/></g></g><g clip-path="url(#clip93)"><g stroke="none" fill="#000000" fill-rule="nonzero" fill-opacity="1"><path d="M61.219 101.94 61.219 100.86C62.047 101.187 62.6993 101.35 63.176 101.35 63.7267 101.35 64.175 101.19 64.521 100.87 64.8663 100.543 65.039 100.125 65.039 99.615 65.039 98.3963 64.1857 97.787 62.479 97.787L62.021 97.787 62.021 97.008 62.426 97.002C64.0273 97.002 64.828 96.4377 64.828 95.309 64.828 94.4223 64.3007 93.979 63.246 93.979 62.668 93.979 62.0313 94.141 61.336 94.465L61.336 93.457C62.0193 93.2263 62.6833 93.111 63.328 93.111 65.1013 93.111 65.988 93.781 65.988 95.121 65.988 96.1403 65.3847 96.867 64.178 97.301 65.576 97.625 66.275 98.3907 66.275 99.598 66.275 100.413 66.0057 101.053 65.467 101.52 64.9277 101.987 64.1873 102.22 63.246 102.22 62.7107 102.22 62.035 102.127 61.219 101.94Z"/></g></g><g clip-path="url(#clip94)"><g stroke="none" fill="#000000" fill-rule="nonzero" fill-opacity="1"><path d="M64.518 49 64.518 46.545 60.615 46.545 60.615 45.672 64.518 40.328 65.602 40.328 65.602 45.602 66.762 45.602 66.762 46.545 65.602 46.545 65.602 49ZM61.746 45.602 64.594 45.602 64.594 41.746Z"/></g></g><g clip-path="url(#clip95)"><g stroke="none" fill="#000000" fill-rule="nonzero" fill-opacity="1"><path d="M63.762 273.22C62.8673 273.22 62.1437 272.797 61.591 271.95 61.0383 271.11 60.762 270.013 60.762 268.66 60.762 267.293 61.0403 266.193 61.597 265.36 62.1537 264.527 62.887 264.11 63.797 264.11 64.707 264.11 65.4403 264.527 65.997 265.36 66.5537 266.193 66.832 267.287 66.832 268.64 66.832 270.033 66.5537 271.143 65.997 271.97 65.4403 272.803 64.6953 273.22 63.762 273.22ZM63.773 272.35C64.9957 272.35 65.607 271.107 65.607 268.62 65.607 266.193 65.0037 264.98 63.797 264.98 62.5937 264.98 61.992 266.207 61.992 268.66 61.992 271.12 62.5857 272.35 63.773 272.35Z"/></g></g><g id="misc"></g><g id="layer0"><clipPath id="clipe22dd1f0-65fe-4e19-a745-974d6814a5ab"><path d="M0 0 0 408 388 408 388 0Z"/></clipPath><clipPath id="clip20344165-cf94-4522-87ae-bd70b5fa60b8"><path d="M0 0 0 408 388 408 388 0Z"/></clipPath><clipPath id="clipa7f42e79-3ea8-431f-a81e-8977c102279b"><path d="M0 0 0 408 388 408 388 0Z"/></clipPath><clipPath id="clip47ba981f-a8da-46e2-88ea-9e785b86a3b0"><path d="M0 0 0 408 388 408 388 0Z"/></clipPath><clipPath id="clipc7d31838-7a47-4b86-9529-bc09f9087cf5"><path d="M0 0 0 408 388 408 388 0Z"/></clipPath><clipPath id="clipa65d3c23-4299-423a-afc1-0089a0e6594f"><path d="M0 0 0 408 388 408 388 0Z"/></clipPath><clipPath id="clipca32ef4e-b537-4be0-b054-76c34ddc961c"><path d="M0 0 0 408 388 408 388 0Z"/></clipPath><g clip-path="url(#clip96)"><g stroke="#000000" stroke-width="2.5" stroke-linecap="round" stroke-linejoin="round" stroke-opacity="0.69804" fill="none"><path d="M74.861 150.95 75.781 151.1M75.781 151.1 78.812 151.66M78.812 151.66 81.844 152.26 84.875 152.93M84.875 152.93 87.906 153.66 90.938 154.44 93.969 155.28 97 156.17M97 156.17 100.03 157.13 103.06 158.14 106.09 159.21 109.12 160.34 112.16 161.52 115.19 162.77 118.22 164.07 121.25 165.42 124.28 166.84 127.31 168.31 130.34 169.84 133.38 171.43 136.41 173.07 139.44 174.78 142.47 176.54 145.5 178.36 148.53 180.23 151.56 182.17 154.59 184.16 157.62 186.21 160.66 188.31 163.69 190.48 166.72 192.7 169.75 194.98 172.78 197.31 175.81 199.71 178.84 202.16 181.88 204.67 184.91 207.24 187.94 209.86 190.97 212.54 194 215.28M194 215.28 197.03 218.08 200.06 220.93 203.09 223.85 206.12 226.82 209.16 229.84 212.19 232.93 215.22 236.07 218.25 239.27 221.28 242.53 224.31 245.85 227.34 249.22 230.38 252.65 233.41 256.14 236.44 259.68 239.47 263.29 242.5 266.95M242.5 266.95 245.53 270.67 248.56 274.44 251.59 278.28 254.62 282.17 257.66 286.12 260.69 290.12 263.72 294.19 266.75 298.31M266.75 298.31 269.78 302.49 272.81 306.73 275.84 311.02 278.88 315.37M278.88 315.37 281.91 319.78 284.94 324.25M284.94 324.25 287.62 328.24"/></g></g><g clip-path="url(#clip97)"><g stroke="none" fill="#000000" fill-rule="nonzero" fill-opacity="1"><path d="M77.861 150.95C77.861 152.61 76.518 153.95 74.861 153.95 73.205 153.95 71.861 152.61 71.861 150.95 71.861 149.29 73.205 147.95 74.861 147.95 76.518 147.95 77.861 149.29 77.861 150.95Z"/></g></g><g clip-path="url(#clip98)"><g stroke="none" fill="#000000" fill-rule="nonzero" fill-opacity="1"><path d="M290.62 328.24C290.62 329.9 289.27 331.24 287.62 331.24 285.96 331.24 284.62 329.9 284.62 328.24 284.62 326.59 285.96 325.24 287.62 325.24 289.27 325.24 290.62 326.59 290.62 328.24Z"/></g></g><g clip-path="url(#clip99)"><g stroke="none" fill="#000000" fill-rule="nonzero" fill-opacity="1"><path d="M237.43 257.33C237.43 258.98 236.08 260.33 234.43 260.33 232.77 260.33 231.43 258.98 231.43 257.33 231.43 255.67 232.77 254.33 234.43 254.33 236.08 254.33 237.43 255.67 237.43 257.33Z"/></g></g><g clip-path="url(#clip100)"><g stroke="none" fill="#404040" fill-rule="nonzero" fill-opacity="1"><path d="M184.24 204.14C184.24 205.79 182.9 207.14 181.24 207.14 179.58 207.14 178.24 205.79 178.24 204.14 178.24 202.48 179.58 201.14 181.24 201.14 182.9 201.14 184.24 202.48 184.24 204.14Z"/></g></g><g clip-path="url(#clip101)"><g stroke="none" fill="#000000" fill-rule="nonzero" fill-opacity="1"><path d="M243.45 330.29C241.65 330.29 240.26 329.763 239.28 328.71 238.3 327.65 237.81 326.157 237.81 324.23 237.81 322.303 238.31 320.807 239.31 319.74 240.303 318.68 241.707 318.15 243.52 318.15 244.56 318.15 245.773 318.32 247.16 318.66L247.16 320.2C245.58 319.653 244.36 319.38 243.5 319.38 242.247 319.38 241.277 319.803 240.59 320.65 239.897 321.497 239.55 322.693 239.55 324.24 239.55 325.713 239.92 326.877 240.66 327.73 241.393 328.583 242.393 329.01 243.66 329.01 244.753 329.01 245.927 328.673 247.18 328L247.18 329.41C246.04 329.997 244.797 330.29 243.45 330.29Z"/></g></g><g clip-path="url(#clip102)"><g stroke="none" fill="#000000" fill-rule="nonzero" fill-opacity="1"><path d="M251.02 330.59 251.02 337 249.67 337 249.67 330.59 248.62 330.59 248.62 329.58 249.67 329.58 249.67 328.69C249.67 326.923 250.477 326.04 252.09 326.04 252.543 326.04 253.057 326.113 253.63 326.26L253.63 327.33C253.023 327.143 252.537 327.05 252.17 327.05 251.73 327.05 251.43 327.153 251.27 327.36 251.103 327.573 251.02 327.967 251.02 328.54L251.02 329.58 252.88 329.58 252.88 330.59ZM255.92 328.23 257.35 325.37 258.91 325.37 256.85 328.23Z"/></g></g><g transform="matrix(0.19 0 0 0.19 85 18.189)"><clipPath id="clip46468325-82b2-4d89-8149-09fcfb99b6d9"><path d="M-447.37-95.732-447.37 2051.6 1594.7 2051.6 1594.7-95.732Z"/></clipPath><g clip-path="url(#clip103)"><g stroke="none" fill="#000000" fill-rule="nonzero" fill-opacity="1"><path d="M48.594-38.094 39 0.09375C37.396 6.63538 33.8283 11.9375 28.297 16 24.2343 19 20 20.5 15.594 20.5 11.1355 20.5 7.96873 18.9687 6.0938 15.906 5.3646 14.6353 5 13.2657 5 11.797 5 8.40107 6.3646 6.30207 9.0938 5.5 9.6354 5.3646 10.1355 5.2969 10.594 5.2969 12.7293 5.2969 13.9323 6.2292 14.203 8.0938 14.2657 8.30207 14.297 8.53643 14.297 8.7969 14.297 10.3283 13.6303 11.698 12.297 12.906 11.3697 13.698 9.93733 14.094 8 14.094 9.19793 16.896 11.7293 18.297 15.594 18.297 19.7293 18.297 23.396 16.198 26.594 12 29.198 8.53127 31.2657 3.83333 32.797-2.0938 32.8697-2.3646 32.9687-2.80207 33.094-3.4062 30.094-0.4062 26.7293 1.0938 23 1.0938 17.6667 1.0938 14.0313-0.869767 12.094-4.7969 11.2293-6.53643 10.797-8.53647 10.797-10.797 10.797-14.4637 12.5627-21.0313 16.094-30.5 16.2293-30.896 16.396-31.3283 16.594-31.797 17.7293-34.8697 18.297-37.203 18.297-38.797 18.297-40.9323 17.4637-42 15.797-42 12.1303-42 9.1303-38.9687 6.7969-32.906L6.7969-32.797C6.40103-31.797 6.03643-30.7293 5.7031-29.594 4.96357-28.4687 4.42713-27.8697 4.0938-27.797 3.30207-27.797 2.9062-28.1303 2.9062-28.797 2.9062-29.995 3.60413-32.094 5-35.094 7.93747-41.1667 11.6355-44.203 16.094-44.203 19.6353-44.203 22.104-42.703 23.5-39.703 24.0313-38.5677 24.297-37.3333 24.297-36 24.297-34.604 23.6303-32.203 22.297-28.797 18.901-19.995 17.203-13.4637 17.203-9.2031 17.203-3.7969 19.2707-1.0938 23.406-1.0938 27.2707-1.0938 30.6353-3.1615 33.5-7.2969 34.1667-8.2969 34.5677-9.06253 34.703-9.5938L39.203-27.594C39.6717-29.802 40.3383-32.4687 41.203-35.594 41.8697-38.4687 42.3333-40.2707 42.594-41 43.4687-42.396 44.6353-43.094 46.094-43.094 47.7607-42.7607 48.7293-41.8647 49-40.406 49-39.802 48.8647-39.0313 48.594-38.094Z"/></g></g></g><g transform="matrix(0.19 0 0 0.19 366 244.44)"><clipPath id="clip41aac4aa-9744-45de-b1e7-b5345105c356"><path d="M-1926.3-1286.5-1926.3 860.86 115.79 860.86 115.79-1286.5Z"/></clipPath><g clip-path="url(#clip104)"><g stroke="none" fill="#000000" fill-rule="nonzero" fill-opacity="1"><path d="M26-22.906 46 -0 37.703 -0 22.703-18.797 8.2031 -0 0 -0 19.406-22.906 0.59375-44.406 8.9062-44.406 22.703-27.906 36.094-44.406 44.297-44.406 26-22.906Z"/></g></g></g></g></g></svg>