<svg width="282.816" height="282.105" viewBox="0 0 397 395" xmlns="http://www.w3.org/2000/svg" xmlns:xlink="http://www.w3.org/1999/xlink" overflow="hidden"><g stroke-width="1" stroke-linecap="square" stroke-linejoin="miter" stroke-miterlimit="10" stroke-dasharray="" stroke-dashoffset="0"><clipPath id="clipafc3e9bf-9db9-471e-8a4e-1f083095aba1"><path d="M0 0 0 397 398 397 398 0Z"/></clipPath><clipPath id="clipd1d8ecb9-de09-4368-9ff8-ce5b2e7aba2a"><path d="M0 0 0 397 398 397 398 0Z"/></clipPath><clipPath id="clip0327bfd7-3ed7-4673-b310-de2e16359be3"><path d="M0 0 0 397 398 397 398 0Z"/></clipPath><clipPath id="clipf24f97f7-5f48-404d-8e21-07e24f1e4da4"><path d="M0 0 0 397 398 397 398 0Z"/></clipPath><clipPath id="clipb487b8dd-bd90-414c-9281-16835ab0506b"><path d="M0 0 0 397 398 397 398 0Z"/></clipPath><clipPath id="clipec6a6126-2462-4813-a739-df31c0a32382"><path d="M0 0 0 397 398 397 398 0Z"/></clipPath><clipPath id="clipdc2f148c-09a7-4b66-aa31-728bf9fa697d"><path d="M0 0 0 397 398 397 398 0Z"/></clipPath><clipPath id="clipf8efa682-8f3c-4c0e-8f4f-57c28d1247cb"><path d="M0 0 0 397 398 397 398 0Z"/></clipPath><clipPath id="clipdfdb3b08-566e-494c-b0b8-aacfa6813379"><path d="M0 0 0 397 398 397 398 0Z"/></clipPath><clipPath id="clip4f3df2a4-660a-4542-b7ac-91bcd419e0ca"><path d="M0 0 0 397 398 397 398 0Z"/></clipPath><clipPath id="clip8d708ffb-75f9-421b-8505-636c1a3f639c"><path d="M0 0 0 397 398 397 398 0Z"/></clipPath><clipPath id="clip8821ba95-3dea-4139-92bf-7b7f358f4780"><path d="M0 0 0 397 398 397 398 0Z"/></clipPath><clipPath id="clipe5f6b216-7003-44a8-bdee-ed4f5d943a6e"><path d="M0 0 0 397 398 397 398 0Z"/></clipPath><clipPath id="clip5ab94356-1d75-4d06-abb6-0cafe382a2b1"><path d="M0 0 0 397 398 397 398 0Z"/></clipPath><clipPath id="clip68c47bfa-11d1-46d0-b0e6-da6b2e40cb79"><path d="M0 0 0 397 398 397 398 0Z"/></clipPath><clipPath id="clip9aa16907-6b1b-4134-8843-af2b3e502f9c"><path d="M0 0 0 397 398 397 398 0Z"/></clipPath><clipPath id="clipc51660ea-2cbc-4423-8bc9-0e7fc1e3d6c4"><path d="M0 0 0 397 398 397 398 0Z"/></clipPath><clipPath id="clip34390e8b-07aa-4dfc-939b-d09e0df6255b"><path d="M0 0 0 397 398 397 398 0Z"/></clipPath><clipPath id="clip411b0dae-eded-41d7-9c79-7608cf096811"><path d="M0 0 0 397 398 397 398 0Z"/></clipPath><clipPath id="clip95b2edc8-c57d-4fa2-8449-5bb05ad2dd4a"><path d="M0 0 0 397 398 397 398 0Z"/></clipPath><clipPath id="clipfd19688e-ba1f-47aa-902e-b3ce3644b05c"><path d="M0 0 0 397 398 397 398 0Z"/></clipPath><clipPath id="clip493a1971-ef5a-4b9a-a48e-0ba0375dd403"><path d="M0 0 0 397 398 397 398 0Z"/></clipPath><clipPath id="clip2a7c82ac-9426-4e56-ad33-ad8372d5a1d0"><path d="M0 0 0 397 398 397 398 0Z"/></clipPath><clipPath id="clip9deae581-d446-4da7-92df-dc965d574f82"><path d="M0 0 0 397 398 397 398 0Z"/></clipPath><clipPath id="clip9bd96aad-ee8c-4c48-9363-040a4ae96b4f"><path d="M0 0 0 397 398 397 398 0Z"/></clipPath><clipPath id="clip55199989-14fc-4029-a07d-2fb5a2b3406b"><path d="M0 0 0 397 398 397 398 0Z"/></clipPath><clipPath id="clipf47de18d-8694-4a13-a9e0-88e5879682d7"><path d="M0 0 0 397 398 397 398 0Z"/></clipPath><clipPath id="clip26deeb72-ec62-430c-a502-3a2186032556"><path d="M0 0 0 397 398 397 398 0Z"/></clipPath><clipPath id="clip1cdb73d1-1fdf-4d13-ba44-7afb358c8877"><path d="M0 0 0 397 398 397 398 0Z"/></clipPath><clipPath id="clipc2019c7b-d4cb-4f8f-af1e-e580a8b062c7"><path d="M0 0 0 397 398 397 398 0Z"/></clipPath><clipPath id="clip0de46e3e-7c0a-4de8-830b-215c987cc90d"><path d="M0 0 0 397 398 397 398 0Z"/></clipPath><clipPath id="clip3015dfb0-52ac-4b80-8690-39fd44d0ff06"><path d="M0 0 0 397 398 397 398 0Z"/></clipPath><clipPath id="clip5f858e05-f74a-4203-bbf0-f0e0b7f53d86"><path d="M0 0 0 397 398 397 398 0Z"/></clipPath><clipPath id="clip55a6e4f5-cd19-4ed0-ae4c-7f452acfeca9"><path d="M0 0 0 397 398 397 398 0Z"/></clipPath><clipPath id="clip8241aa0c-f21c-4f4b-ad60-ccd8de4f82f6"><path d="M0 0 0 397 398 397 398 0Z"/></clipPath><clipPath id="clip878eb335-0cb9-4171-8332-b86fed719946"><path d="M0 0 0 397 398 397 398 0Z"/></clipPath><clipPath id="clip805d47c6-d978-492d-9950-63e28feb5531"><path d="M0 0 0 397 398 397 398 0Z"/></clipPath><clipPath id="clipc614ee5e-ecfb-4341-911e-ad0bc39effba"><path d="M0 0 0 397 398 397 398 0Z"/></clipPath><clipPath id="clip233b1a10-b5be-424e-847b-96607339ff46"><path d="M0 0 0 397 398 397 398 0Z"/></clipPath><clipPath id="clip7e641c3a-763d-4d78-a5d4-8774db4f9827"><path d="M0 0 0 397 398 397 398 0Z"/></clipPath><clipPath id="clipa024baa7-40a3-4d0c-8403-7be9ae32d082"><path d="M0 0 0 397 398 397 398 0Z"/></clipPath><clipPath id="clip8a2c40ec-9b11-4bd5-a8d0-f0ff4642dc8a"><path d="M0 0 0 397 398 397 398 0Z"/></clipPath><clipPath id="clip48dbac6b-b096-4d22-85c7-7edb3feff727"><path d="M0 0 0 397 398 397 398 0Z"/></clipPath><clipPath id="clipc0225c98-8117-4f4a-8d38-6a51c2e59a7e"><path d="M0 0 0 397 398 397 398 0Z"/></clipPath><clipPath id="clip07777ce9-733b-4f51-9ec0-524b928df877"><path d="M0 0 0 397 398 397 398 0Z"/></clipPath><clipPath id="clipb9659aa3-1034-4ac8-9840-5db67300df12"><path d="M0 0 0 397 398 397 398 0Z"/></clipPath><clipPath id="clip5531844a-e0dd-4bd0-8cbc-6d8e31e25810"><path d="M0 0 0 397 398 397 398 0Z"/></clipPath><clipPath id="clip95dcd408-f510-495d-aad8-656415b57630"><path d="M0 0 0 397 398 397 398 0Z"/></clipPath><clipPath id="clipf3cff595-4bba-48cd-baff-0fb160a2077f"><path d="M0 0 0 397 398 397 398 0Z"/></clipPath><clipPath id="clipf08c0e36-57cd-4d17-a7b1-69d2f7d1119a"><path d="M0 0 0 397 398 397 398 0Z"/></clipPath><clipPath id="clipcc5c2895-d3cf-48b9-b1d1-791c9fee344f"><path d="M0 0 0 397 398 397 398 0Z"/></clipPath><clipPath id="clip00897683-9271-4be6-8820-324f6dd1dd5e"><path d="M0 0 0 397 398 397 398 0Z"/></clipPath><clipPath id="clip89f1f817-3fe2-41b5-918a-ccb528cd589f"><path d="M0 0 0 397 398 397 398 0Z"/></clipPath><clipPath id="clipcd180a7a-2794-4942-b835-6f9edeb3ab51"><path d="M0 0 0 397 398 397 398 0Z"/></clipPath><clipPath id="clipa298db94-5c3a-427d-994f-03f78136ee27"><path d="M0 0 0 397 398 397 398 0Z"/></clipPath><clipPath id="clip40605060-205c-48ad-9042-1094e042e8bf"><path d="M0 0 0 397 398 397 398 0Z"/></clipPath><clipPath id="clip147d5a5a-f095-4881-9247-a3ed7d07f0ff"><path d="M0 0 0 397 398 397 398 0Z"/></clipPath><clipPath id="clipf4fc10f2-a5ad-410b-916b-1c517c20be3e"><path d="M0 0 0 397 398 397 398 0Z"/></clipPath><clipPath id="clipac8dae36-6b49-4c76-a333-1ff481d2aac9"><path d="M0 0 0 397 398 397 398 0Z"/></clipPath><clipPath id="clip4ca5192f-d70d-4f6f-9e5a-7753da9241d6"><path d="M0 0 0 397 398 397 398 0Z"/></clipPath><clipPath id="clip8773e1a4-fdb6-4d87-88ce-764c195d89b1"><path d="M0 0 0 397 398 397 398 0Z"/></clipPath><clipPath id="clip80c3b708-96a3-4826-9773-37b3f89bd469"><path d="M0 0 0 397 398 397 398 0Z"/></clipPath><clipPath id="clip70961e79-2c8c-4417-be8f-e58211541270"><path d="M0 0 0 397 398 397 398 0Z"/></clipPath><clipPath id="clip4c033592-942f-4f35-8c03-b9155046eecf"><path d="M0 0 0 397 398 397 398 0Z"/></clipPath><clipPath id="clip11556c68-7a6d-4345-aa69-9f49cad9f7d9"><path d="M0 0 0 397 398 397 398 0Z"/></clipPath><clipPath id="clipff4204f2-0bf3-40cb-a649-bfe53b932575"><path d="M0 0 0 397 398 397 398 0Z"/></clipPath><clipPath id="clipb0432974-892f-4d97-97f0-2d5c8dc26f01"><path d="M0 0 0 397 398 397 398 0Z"/></clipPath><clipPath id="clip3ed3acae-f689-4895-827b-114d1759149f"><path d="M0 0 0 397 398 397 398 0Z"/></clipPath><clipPath id="clipa1356a3c-e37b-4cf1-bb4b-12206b671e87"><path d="M0 0 0 397 398 397 398 0Z"/></clipPath><clipPath id="clip0016c6b0-f17b-4104-af34-31ad57267021"><path d="M0 0 0 397 398 397 398 0Z"/></clipPath><clipPath id="clip13976d67-dd54-4959-b757-20dca8fc322e"><path d="M0 0 0 397 398 397 398 0Z"/></clipPath><clipPath id="clipf6b46e48-f2c1-4c37-9e76-d3a7817dc317"><path d="M0 0 0 397 398 397 398 0Z"/></clipPath><clipPath id="clipa918aa7d-fb0e-46bb-899c-7ab7822f9fea"><path d="M0 0 0 397 398 397 398 0Z"/></clipPath><clipPath id="clipa89bb2b9-1d7b-449a-be6f-3466b0d5281f"><path d="M0 0 0 397 398 397 398 0Z"/></clipPath><clipPath id="clip93eaa872-3b2a-4b74-af8d-48bfe6ece6d1"><path d="M0 0 0 397 398 397 398 0Z"/></clipPath><clipPath id="clipb4c5282b-12c8-45e7-98e2-8cb7992e92e5"><path d="M0 0 0 397 398 397 398 0Z"/></clipPath><clipPath id="clipe3838c3f-f85b-40d4-a3a3-7d8d74549aa8"><path d="M0 0 0 397 398 397 398 0Z"/></clipPath><clipPath id="clip3d2ce916-8a0a-4dc6-bb99-4f2c313cadfb"><path d="M0 0 0 397 398 397 398 0Z"/></clipPath><clipPath id="clip7f3ef5a8-8dd7-407d-a9e5-a91f152734ae"><path d="M0 0 0 397 398 397 398 0Z"/></clipPath><clipPath id="clip4b4d6491-14d7-4b0f-8705-8c231c8fe4a6"><path d="M0 0 0 397 398 397 398 0Z"/></clipPath><clipPath id="clipd9f0d48e-3db8-4b3f-87e6-8b413f9be616"><path d="M0 0 0 397 398 397 398 0Z"/></clipPath><clipPath id="clipb4e7a765-2199-434d-9317-dfc6a4177089"><path d="M0 0 0 397 398 397 398 0Z"/></clipPath><clipPath id="clip3a2639a2-326c-4e62-b6d3-e7b18a7cd47a"><path d="M0 0 0 397 398 397 398 0Z"/></clipPath><clipPath id="clip99522d52-7670-4a90-b868-27bcb682514c"><path d="M0 0 0 397 398 397 398 0Z"/></clipPath><clipPath id="clipca1702bd-3403-4c0c-81c4-48a8bf5f10ee"><path d="M0 0 0 397 398 397 398 0Z"/></clipPath><clipPath id="clip0e05616d-53f3-4919-b34a-3f90ed17fe2f"><path d="M0 0 0 397 398 397 398 0Z"/></clipPath><clipPath id="clip1855cae0-d2bc-4511-9b73-b91f2628a9b4"><path d="M0 0 0 397 398 397 398 0Z"/></clipPath><clipPath id="clip32145347-4ec4-44ef-9fcf-238bd525c15a"><path d="M0 0 0 397 398 397 398 0Z"/></clipPath><clipPath id="clip58ddebb8-8e5c-466f-b232-cbe303778254"><path d="M0 0 0 397 398 397 398 0Z"/></clipPath><clipPath id="clip19d8193f-7926-4a4b-90ac-8b43e250a04a"><path d="M0 0 0 397 398 397 398 0Z"/></clipPath><clipPath id="clipef8c6119-19a1-4ac2-a416-a99f2440674a"><path d="M0 0 0 397 398 397 398 0Z"/></clipPath><clipPath id="clip57267d5a-28ea-44f2-89d6-74ac7c83946b"><path d="M0 0 0 397 398 397 398 0Z"/></clipPath><clipPath id="clip93b03403-bddf-44f6-9d88-90632f27b550"><path d="M0 0 0 397 398 397 398 0Z"/></clipPath><clipPath id="clip7baa350c-8cf9-42a8-9a74-64e8af0d4481"><path d="M0 0 0 397 398 397 398 0Z"/></clipPath><clipPath id="clipf4112e00-7d2e-4420-8334-c8a11362761a"><path d="M0 0 0 397 398 397 398 0Z"/></clipPath><g clip-path="url(#clip1)"><g stroke="#C0C0C0" stroke-linecap="round" stroke-linejoin="round" stroke-opacity="1" fill="none"><path d="M21.673 0 21.673 397"/></g></g><g clip-path="url(#clip2)"><g stroke="#C0C0C0" stroke-linecap="round" stroke-linejoin="round" stroke-opacity="1" fill="none"><path d="M21.673 0 21.673 397"/></g></g><g clip-path="url(#clip3)"><g stroke="#C0C0C0" stroke-linecap="round" stroke-linejoin="round" stroke-opacity="1" fill="none"><path d="M128.05 0 128.05 397"/></g></g><g clip-path="url(#clip4)"><g stroke="#C0C0C0" stroke-linecap="round" stroke-linejoin="round" stroke-opacity="1" fill="none"><path d="M181.24 0 181.24 397"/></g></g><g clip-path="url(#clip5)"><g stroke="#C0C0C0" stroke-linecap="round" stroke-linejoin="round" stroke-opacity="1" fill="none"><path d="M234.43 0 234.43 397"/></g></g><g clip-path="url(#clip6)"><g stroke="#C0C0C0" stroke-linecap="round" stroke-linejoin="round" stroke-opacity="1" fill="none"><path d="M287.62 0 287.62 397"/></g></g><g clip-path="url(#clip7)"><g stroke="#C0C0C0" stroke-linecap="round" stroke-linejoin="round" stroke-opacity="1" fill="none"><path d="M340.8 0 340.8 397"/></g></g><g clip-path="url(#clip8)"><g stroke="#C0C0C0" stroke-linecap="round" stroke-linejoin="round" stroke-opacity="1" fill="none"><path d="M393.99 0 393.99 397"/></g></g><g clip-path="url(#clip9)"><g stroke="#C0C0C0" stroke-linecap="round" stroke-linejoin="round" stroke-opacity="0.23529" fill="none"><path d="M0.39764 0 0.39764 397"/></g></g><g clip-path="url(#clip10)"><g stroke="#C0C0C0" stroke-linecap="round" stroke-linejoin="round" stroke-opacity="0.23529" fill="none"><path d="M11.035 0 11.035 397"/></g></g><g clip-path="url(#clip11)"><g stroke="#C0C0C0" stroke-linecap="round" stroke-linejoin="round" stroke-opacity="0.23529" fill="none"><path d="M32.311 0 32.311 397"/></g></g><g clip-path="url(#clip12)"><g stroke="#C0C0C0" stroke-linecap="round" stroke-linejoin="round" stroke-opacity="0.23529" fill="none"><path d="M42.948 0 42.948 397"/></g></g><g clip-path="url(#clip13)"><g stroke="#C0C0C0" stroke-linecap="round" stroke-linejoin="round" stroke-opacity="0.23529" fill="none"><path d="M53.586 0 53.586 397"/></g></g><g clip-path="url(#clip14)"><g stroke="#C0C0C0" stroke-linecap="round" stroke-linejoin="round" stroke-opacity="0.23529" fill="none"><path d="M64.224 0 64.224 397"/></g></g><g clip-path="url(#clip15)"><g stroke="#C0C0C0" stroke-linecap="round" stroke-linejoin="round" stroke-opacity="0.23529" fill="none"><path d="M85.499 0 85.499 397"/></g></g><g clip-path="url(#clip16)"><g stroke="#C0C0C0" stroke-linecap="round" stroke-linejoin="round" stroke-opacity="0.23529" fill="none"><path d="M96.137 0 96.137 397"/></g></g><g clip-path="url(#clip17)"><g stroke="#C0C0C0" stroke-linecap="round" stroke-linejoin="round" stroke-opacity="0.23529" fill="none"><path d="M106.77 0 106.77 397"/></g></g><g clip-path="url(#clip18)"><g stroke="#C0C0C0" stroke-linecap="round" stroke-linejoin="round" stroke-opacity="0.23529" fill="none"><path d="M117.41 0 117.41 397"/></g></g><g clip-path="url(#clip19)"><g stroke="#C0C0C0" stroke-linecap="round" stroke-linejoin="round" stroke-opacity="0.23529" fill="none"><path d="M138.69 0 138.69 397"/></g></g><g clip-path="url(#clip20)"><g stroke="#C0C0C0" stroke-linecap="round" stroke-linejoin="round" stroke-opacity="0.23529" fill="none"><path d="M149.33 0 149.33 397"/></g></g><g clip-path="url(#clip21)"><g stroke="#C0C0C0" stroke-linecap="round" stroke-linejoin="round" stroke-opacity="0.23529" fill="none"><path d="M159.96 0 159.96 397"/></g></g><g clip-path="url(#clip22)"><g stroke="#C0C0C0" stroke-linecap="round" stroke-linejoin="round" stroke-opacity="0.23529" fill="none"><path d="M170.6 0 170.6 397"/></g></g><g clip-path="url(#clip23)"><g stroke="#C0C0C0" stroke-linecap="round" stroke-linejoin="round" stroke-opacity="0.23529" fill="none"><path d="M191.88 0 191.88 397"/></g></g><g clip-path="url(#clip24)"><g stroke="#C0C0C0" stroke-linecap="round" stroke-linejoin="round" stroke-opacity="0.23529" fill="none"><path d="M202.51 0 202.51 397"/></g></g><g clip-path="url(#clip25)"><g stroke="#C0C0C0" stroke-linecap="round" stroke-linejoin="round" stroke-opacity="0.23529" fill="none"><path d="M213.15 0 213.15 397"/></g></g><g clip-path="url(#clip26)"><g stroke="#C0C0C0" stroke-linecap="round" stroke-linejoin="round" stroke-opacity="0.23529" fill="none"><path d="M223.79 0 223.79 397"/></g></g><g clip-path="url(#clip27)"><g stroke="#C0C0C0" stroke-linecap="round" stroke-linejoin="round" stroke-opacity="0.23529" fill="none"><path d="M245.06 0 245.06 397"/></g></g><g clip-path="url(#clip28)"><g stroke="#C0C0C0" stroke-linecap="round" stroke-linejoin="round" stroke-opacity="0.23529" fill="none"><path d="M255.7 0 255.7 397"/></g></g><g clip-path="url(#clip29)"><g stroke="#C0C0C0" stroke-linecap="round" stroke-linejoin="round" stroke-opacity="0.23529" fill="none"><path d="M266.34 0 266.34 397"/></g></g><g clip-path="url(#clip30)"><g stroke="#C0C0C0" stroke-linecap="round" stroke-linejoin="round" stroke-opacity="0.23529" fill="none"><path d="M276.98 0 276.98 397"/></g></g><g clip-path="url(#clip31)"><g stroke="#C0C0C0" stroke-linecap="round" stroke-linejoin="round" stroke-opacity="0.23529" fill="none"><path d="M298.25 0 298.25 397"/></g></g><g clip-path="url(#clip32)"><g stroke="#C0C0C0" stroke-linecap="round" stroke-linejoin="round" stroke-opacity="0.23529" fill="none"><path d="M308.89 0 308.89 397"/></g></g><g clip-path="url(#clip33)"><g stroke="#C0C0C0" stroke-linecap="round" stroke-linejoin="round" stroke-opacity="0.23529" fill="none"><path d="M319.53 0 319.53 397"/></g></g><g clip-path="url(#clip34)"><g stroke="#C0C0C0" stroke-linecap="round" stroke-linejoin="round" stroke-opacity="0.23529" fill="none"><path d="M330.17 0 330.17 397"/></g></g><g clip-path="url(#clip35)"><g stroke="#C0C0C0" stroke-linecap="round" stroke-linejoin="round" stroke-opacity="0.23529" fill="none"><path d="M351.44 0 351.44 397"/></g></g><g clip-path="url(#clip36)"><g stroke="#C0C0C0" stroke-linecap="round" stroke-linejoin="round" stroke-opacity="0.23529" fill="none"><path d="M362.08 0 362.08 397"/></g></g><g clip-path="url(#clip37)"><g stroke="#C0C0C0" stroke-linecap="round" stroke-linejoin="round" stroke-opacity="0.23529" fill="none"><path d="M372.72 0 372.72 397"/></g></g><g clip-path="url(#clip38)"><g stroke="#C0C0C0" stroke-linecap="round" stroke-linejoin="round" stroke-opacity="0.23529" fill="none"><path d="M383.35 0 383.35 397"/></g></g><g clip-path="url(#clip39)"><g stroke="#C0C0C0" stroke-linecap="round" stroke-linejoin="round" stroke-opacity="1" fill="none"><path d="M0 6.5716 398 6.5716"/></g></g><g clip-path="url(#clip40)"><g stroke="#C0C0C0" stroke-linecap="round" stroke-linejoin="round" stroke-opacity="1" fill="none"><path d="M0 6.5716 398 6.5716"/></g></g><g clip-path="url(#clip41)"><g stroke="#C0C0C0" stroke-linecap="round" stroke-linejoin="round" stroke-opacity="1" fill="none"><path d="M0 59.76 398 59.76"/></g></g><g clip-path="url(#clip42)"><g stroke="#C0C0C0" stroke-linecap="round" stroke-linejoin="round" stroke-opacity="1" fill="none"><path d="M0 112.95 398 112.95"/></g></g><g clip-path="url(#clip43)"><g stroke="#C0C0C0" stroke-linecap="round" stroke-linejoin="round" stroke-opacity="1" fill="none"><path d="M0 166.14 398 166.14"/></g></g><g clip-path="url(#clip44)"><g stroke="#C0C0C0" stroke-linecap="round" stroke-linejoin="round" stroke-opacity="1" fill="none"><path d="M0 272.51 398 272.51"/></g></g><g clip-path="url(#clip45)"><g stroke="#C0C0C0" stroke-linecap="round" stroke-linejoin="round" stroke-opacity="1" fill="none"><path d="M0 325.7 398 325.7"/></g></g><g clip-path="url(#clip46)"><g stroke="#C0C0C0" stroke-linecap="round" stroke-linejoin="round" stroke-opacity="1" fill="none"><path d="M0 378.89 398 378.89"/></g></g><g clip-path="url(#clip47)"><g stroke="#C0C0C0" stroke-linecap="round" stroke-linejoin="round" stroke-opacity="0.23529" fill="none"><path d="M0 6.5716 398 6.5716"/></g></g><g clip-path="url(#clip48)"><g stroke="#C0C0C0" stroke-linecap="round" stroke-linejoin="round" stroke-opacity="0.23529" fill="none"><path d="M0 17.209 398 17.209"/></g></g><g clip-path="url(#clip49)"><g stroke="#C0C0C0" stroke-linecap="round" stroke-linejoin="round" stroke-opacity="0.23529" fill="none"><path d="M0 27.847 398 27.847"/></g></g><g clip-path="url(#clip50)"><g stroke="#C0C0C0" stroke-linecap="round" stroke-linejoin="round" stroke-opacity="0.23529" fill="none"><path d="M0 38.485 398 38.485"/></g></g><g clip-path="url(#clip51)"><g stroke="#C0C0C0" stroke-linecap="round" stroke-linejoin="round" stroke-opacity="0.23529" fill="none"><path d="M0 49.122 398 49.122"/></g></g><g clip-path="url(#clip52)"><g stroke="#C0C0C0" stroke-linecap="round" stroke-linejoin="round" stroke-opacity="0.23529" fill="none"><path d="M0 70.398 398 70.398"/></g></g><g clip-path="url(#clip53)"><g stroke="#C0C0C0" stroke-linecap="round" stroke-linejoin="round" stroke-opacity="0.23529" fill="none"><path d="M0 81.035 398 81.035"/></g></g><g clip-path="url(#clip54)"><g stroke="#C0C0C0" stroke-linecap="round" stroke-linejoin="round" stroke-opacity="0.23529" fill="none"><path d="M0 91.673 398 91.673"/></g></g><g clip-path="url(#clip55)"><g stroke="#C0C0C0" stroke-linecap="round" stroke-linejoin="round" stroke-opacity="0.23529" fill="none"><path d="M0 102.31 398 102.31"/></g></g><g clip-path="url(#clip56)"><g stroke="#C0C0C0" stroke-linecap="round" stroke-linejoin="round" stroke-opacity="0.23529" fill="none"><path d="M0 123.59 398 123.59"/></g></g><g clip-path="url(#clip57)"><g stroke="#C0C0C0" stroke-linecap="round" stroke-linejoin="round" stroke-opacity="0.23529" fill="none"><path d="M0 134.22 398 134.22"/></g></g><g clip-path="url(#clip58)"><g stroke="#C0C0C0" stroke-linecap="round" stroke-linejoin="round" stroke-opacity="0.23529" fill="none"><path d="M0 144.86 398 144.86"/></g></g><g clip-path="url(#clip59)"><g stroke="#C0C0C0" stroke-linecap="round" stroke-linejoin="round" stroke-opacity="0.23529" fill="none"><path d="M0 155.5 398 155.5"/></g></g><g clip-path="url(#clip60)"><g stroke="#C0C0C0" stroke-linecap="round" stroke-linejoin="round" stroke-opacity="0.23529" fill="none"><path d="M0 176.77 398 176.77"/></g></g><g clip-path="url(#clip61)"><g stroke="#C0C0C0" stroke-linecap="round" stroke-linejoin="round" stroke-opacity="0.23529" fill="none"><path d="M0 187.41 398 187.41"/></g></g><g clip-path="url(#clip62)"><g stroke="#C0C0C0" stroke-linecap="round" stroke-linejoin="round" stroke-opacity="0.23529" fill="none"><path d="M0 198.05 398 198.05"/></g></g><g clip-path="url(#clip63)"><g stroke="#C0C0C0" stroke-linecap="round" stroke-linejoin="round" stroke-opacity="0.23529" fill="none"><path d="M0 208.69 398 208.69"/></g></g><g clip-path="url(#clip64)"><g stroke="#C0C0C0" stroke-linecap="round" stroke-linejoin="round" stroke-opacity="0.23529" fill="none"><path d="M0 229.96 398 229.96"/></g></g><g clip-path="url(#clip65)"><g stroke="#C0C0C0" stroke-linecap="round" stroke-linejoin="round" stroke-opacity="0.23529" fill="none"><path d="M0 240.6 398 240.6"/></g></g><g clip-path="url(#clip66)"><g stroke="#C0C0C0" stroke-linecap="round" stroke-linejoin="round" stroke-opacity="0.23529" fill="none"><path d="M0 251.24 398 251.24"/></g></g><g clip-path="url(#clip67)"><g stroke="#C0C0C0" stroke-linecap="round" stroke-linejoin="round" stroke-opacity="0.23529" fill="none"><path d="M0 261.88 398 261.88"/></g></g><g clip-path="url(#clip68)"><g stroke="#C0C0C0" stroke-linecap="round" stroke-linejoin="round" stroke-opacity="0.23529" fill="none"><path d="M0 283.15 398 283.15"/></g></g><g clip-path="url(#clip69)"><g stroke="#C0C0C0" stroke-linecap="round" stroke-linejoin="round" stroke-opacity="0.23529" fill="none"><path d="M0 293.79 398 293.79"/></g></g><g clip-path="url(#clip70)"><g stroke="#C0C0C0" stroke-linecap="round" stroke-linejoin="round" stroke-opacity="0.23529" fill="none"><path d="M0 304.43 398 304.43"/></g></g><g clip-path="url(#clip71)"><g stroke="#C0C0C0" stroke-linecap="round" stroke-linejoin="round" stroke-opacity="0.23529" fill="none"><path d="M0 315.06 398 315.06"/></g></g><g clip-path="url(#clip72)"><g stroke="#C0C0C0" stroke-linecap="round" stroke-linejoin="round" stroke-opacity="0.23529" fill="none"><path d="M0 336.34 398 336.34"/></g></g><g clip-path="url(#clip73)"><g stroke="#C0C0C0" stroke-linecap="round" stroke-linejoin="round" stroke-opacity="0.23529" fill="none"><path d="M0 346.98 398 346.98"/></g></g><g clip-path="url(#clip74)"><g stroke="#C0C0C0" stroke-linecap="round" stroke-linejoin="round" stroke-opacity="0.23529" fill="none"><path d="M0 357.62 398 357.62"/></g></g><g clip-path="url(#clip75)"><g stroke="#C0C0C0" stroke-linecap="round" stroke-linejoin="round" stroke-opacity="0.23529" fill="none"><path d="M0 368.25 398 368.25"/></g></g><g clip-path="url(#clip76)"><g stroke="#C0C0C0" stroke-linecap="round" stroke-linejoin="round" stroke-opacity="0.23529" fill="none"><path d="M0 389.53 398 389.53"/></g></g><g clip-path="url(#clip77)"><g stroke="#000000" stroke-linecap="butt" stroke-opacity="1" fill="none"><path d="M74.861 2 74.861 397"/></g></g><g clip-path="url(#clip78)"><g stroke="#000000" stroke-linecap="butt" stroke-opacity="1" fill="none"><path d="M74.861 1 70.861 5"/></g></g><g clip-path="url(#clip79)"><g stroke="#000000" stroke-linecap="butt" stroke-opacity="1" fill="none"><path d="M74.861 1 78.861 5"/></g></g><g clip-path="url(#clip80)"><g stroke="#000000" stroke-linecap="butt" stroke-opacity="1" fill="none"><path d="M0 219.33 396 219.33"/></g></g><g clip-path="url(#clip81)"><g stroke="#000000" stroke-linecap="butt" stroke-opacity="1" fill="none"><path d="M397 219.33 393 215.33"/></g></g><g clip-path="url(#clip82)"><g stroke="#000000" stroke-linecap="butt" stroke-opacity="1" fill="none"><path d="M397 219.33 393 223.33"/></g></g><g clip-path="url(#clip83)"><g stroke="none" fill="#000000" fill-rule="nonzero" fill-opacity="1"><path d="M16.615 231.82 16.615 231.02 21.385 231.02 21.385 231.82ZM23.805 235 23.805 234.13 25.539 234.13 25.539 227.29 23.805 227.72 23.805 226.83 26.699 226.11 26.699 234.13 28.434 234.13 28.434 235Z"/></g></g><g clip-path="url(#clip84)"><g stroke="none" fill="#000000" fill-rule="nonzero" fill-opacity="1"><path d="M127.8 235 127.8 234.13 129.54 234.13 129.54 227.29 127.8 227.72 127.8 226.83 130.7 226.11 130.7 234.13 132.43 234.13 132.43 235Z"/></g></g><g clip-path="url(#clip85)"><g stroke="none" fill="#000000" fill-rule="nonzero" fill-opacity="1"><path d="M180 235 180 233.99C180.333 233.203 181.013 232.347 182.04 231.42L182.7 230.83C183.547 230.057 183.97 229.293 183.97 228.54 183.97 228.053 183.827 227.67 183.54 227.39 183.247 227.117 182.847 226.98 182.34 226.98 181.74 226.98 181.03 227.213 180.21 227.68L180.21 226.66C180.983 226.293 181.747 226.11 182.5 226.11 183.313 226.11 183.967 226.33 184.46 226.77 184.953 227.203 185.2 227.783 185.2 228.51 185.2 229.03 185.077 229.49 184.83 229.89 184.583 230.29 184.12 230.78 183.44 231.36L183 231.74C182.073 232.52 181.537 233.27 181.39 233.99L185.16 233.99 185.16 235Z"/></g></g><g clip-path="url(#clip86)"><g stroke="none" fill="#000000" fill-rule="nonzero" fill-opacity="1"><path d="M233.22 234.94 233.22 233.86C234.047 234.187 234.7 234.35 235.18 234.35 235.727 234.35 236.173 234.19 236.52 233.87 236.867 233.543 237.04 233.127 237.04 232.62 237.04 231.4 236.187 230.79 234.48 230.79L234.02 230.79 234.02 230.01 234.43 230C236.03 230 236.83 229.437 236.83 228.31 236.83 227.423 236.303 226.98 235.25 226.98 234.67 226.98 234.033 227.14 233.34 227.46L233.34 226.46C234.02 226.227 234.683 226.11 235.33 226.11 237.103 226.11 237.99 226.78 237.99 228.12 237.99 229.14 237.387 229.867 236.18 230.3 237.58 230.627 238.28 231.393 238.28 232.6 238.28 233.413 238.01 234.053 237.47 234.52 236.93 234.987 236.19 235.22 235.25 235.22 234.71 235.22 234.033 235.127 233.22 234.94Z"/></g></g><g clip-path="url(#clip87)"><g stroke="none" fill="#000000" fill-rule="nonzero" fill-opacity="1"><path d="M289.52 235 289.52 232.54 285.62 232.54 285.62 231.67 289.52 226.33 290.6 226.33 290.6 231.6 291.76 231.6 291.76 232.54 290.6 232.54 290.6 235ZM286.75 231.6 289.59 231.6 289.59 227.75Z"/></g></g><g clip-path="url(#clip88)"><g stroke="none" fill="#000000" fill-rule="nonzero" fill-opacity="1"><path d="M339.46 235.04 339.46 234C340.033 234.233 340.58 234.35 341.1 234.35 341.673 234.35 342.12 234.183 342.44 233.85 342.767 233.51 342.93 233.047 342.93 232.46 342.93 231.16 342.033 230.51 340.24 230.51 340.04 230.51 339.83 230.523 339.61 230.55L339.61 226.33 343.99 226.33 343.99 227.34 340.62 227.34 340.62 229.62C341.733 229.62 342.603 229.877 343.23 230.39 343.85 230.903 344.16 231.613 344.16 232.52 344.16 233.36 343.877 234.02 343.31 234.5 342.743 234.98 341.957 235.22 340.95 235.22 340.51 235.22 340.013 235.16 339.46 235.04Z"/></g></g><g clip-path="url(#clip89)"><g stroke="none" fill="#000000" fill-rule="nonzero" fill-opacity="1"><path d="M54.615 379.82 54.615 379.02 59.385 379.02 59.385 379.82ZM61.219 382.94 61.219 381.86C62.047 382.187 62.6993 382.35 63.176 382.35 63.7267 382.35 64.175 382.19 64.521 381.87 64.8663 381.543 65.039 381.127 65.039 380.62 65.039 379.4 64.1857 378.79 62.479 378.79L62.021 378.79 62.021 378.01 62.426 378C64.0273 378 64.828 377.437 64.828 376.31 64.828 375.423 64.3007 374.98 63.246 374.98 62.668 374.98 62.0313 375.14 61.336 375.46L61.336 374.46C62.0193 374.227 62.6833 374.11 63.328 374.11 65.1013 374.11 65.988 374.78 65.988 376.12 65.988 377.14 65.3847 377.867 64.178 378.3 65.576 378.627 66.275 379.393 66.275 380.6 66.275 381.413 66.0057 382.053 65.467 382.52 64.9277 382.987 64.1873 383.22 63.246 383.22 62.7107 383.22 62.035 383.127 61.219 382.94Z"/></g></g><g clip-path="url(#clip90)"><g stroke="none" fill="#000000" fill-rule="nonzero" fill-opacity="1"><path d="M54.615 326.82 54.615 326.02 59.385 326.02 59.385 326.82ZM60.996 330 60.996 328.99C61.332 328.203 62.0117 327.347 63.035 326.42L63.697 325.83C64.549 325.057 64.975 324.293 64.975 323.54 64.975 323.053 64.8293 322.67 64.538 322.39 64.2473 322.117 63.848 321.98 63.34 321.98 62.7387 321.98 62.0297 322.213 61.213 322.68L61.213 321.66C61.9823 321.293 62.746 321.11 63.504 321.11 64.3167 321.11 64.969 321.33 65.461 321.77 65.953 322.203 66.199 322.783 66.199 323.51 66.199 324.03 66.075 324.49 65.827 324.89 65.579 325.29 65.117 325.78 64.441 326.36L63.996 326.74C63.07 327.52 62.535 328.27 62.391 328.99L66.158 328.99 66.158 330Z"/></g></g><g clip-path="url(#clip91)"><g stroke="none" fill="#000000" fill-rule="nonzero" fill-opacity="1"><path d="M54.615 273.82 54.615 273.02 59.385 273.02 59.385 273.82ZM61.805 277 61.805 276.13 63.539 276.13 63.539 269.29 61.805 269.72 61.805 268.83 64.699 268.11 64.699 276.13 66.434 276.13 66.434 277Z"/></g></g><g clip-path="url(#clip92)"><g stroke="none" fill="#000000" fill-rule="nonzero" fill-opacity="1"><path d="M61.805 171 61.805 170.13 63.539 170.13 63.539 163.29 61.805 163.72 61.805 162.83 64.699 162.11 64.699 170.13 66.434 170.13 66.434 171Z"/></g></g><g clip-path="url(#clip93)"><g stroke="none" fill="#000000" fill-rule="nonzero" fill-opacity="1"><path d="M60.996 117 60.996 115.99C61.332 115.203 62.0117 114.347 63.035 113.42L63.697 112.83C64.549 112.057 64.975 111.293 64.975 110.54 64.975 110.053 64.8293 109.67 64.538 109.39 64.2473 109.117 63.848 108.98 63.34 108.98 62.7387 108.98 62.0297 109.213 61.213 109.68L61.213 108.66C61.9823 108.293 62.746 108.11 63.504 108.11 64.3167 108.11 64.969 108.33 65.461 108.77 65.953 109.203 66.199 109.783 66.199 110.51 66.199 111.03 66.075 111.49 65.827 111.89 65.579 112.29 65.117 112.78 64.441 113.36L63.996 113.74C63.07 114.52 62.535 115.27 62.391 115.99L66.158 115.99 66.158 117Z"/></g></g><g clip-path="url(#clip94)"><g stroke="none" fill="#000000" fill-rule="nonzero" fill-opacity="1"><path d="M61.219 63.936 61.219 62.857C62.047 63.1857 62.6993 63.35 63.176 63.35 63.7267 63.35 64.175 63.1887 64.521 62.866 64.8663 62.544 65.039 62.127 65.039 61.615 65.039 60.3963 64.1857 59.787 62.479 59.787L62.021 59.787 62.021 59.008 62.426 59.002C64.0273 59.002 64.828 58.4377 64.828 57.309 64.828 56.4223 64.3007 55.979 63.246 55.979 62.668 55.979 62.0313 56.141 61.336 56.465L61.336 55.457C62.0193 55.2263 62.6833 55.111 63.328 55.111 65.1013 55.111 65.988 55.781 65.988 57.121 65.988 58.1403 65.3847 58.867 64.178 59.301 65.576 59.625 66.275 60.3907 66.275 61.598 66.275 62.414 66.0057 63.0547 65.467 63.52 64.9277 63.9847 64.1873 64.217 63.246 64.217 62.7107 64.217 62.035 64.1233 61.219 63.936Z"/></g></g><g clip-path="url(#clip95)"><g stroke="none" fill="#000000" fill-rule="nonzero" fill-opacity="1"><path d="M63.762 235.22C62.8673 235.22 62.1437 234.797 61.591 233.95 61.0383 233.11 60.762 232.013 60.762 230.66 60.762 229.293 61.0403 228.193 61.597 227.36 62.1537 226.527 62.887 226.11 63.797 226.11 64.707 226.11 65.4403 226.527 65.997 227.36 66.5537 228.193 66.832 229.287 66.832 230.64 66.832 232.033 66.5537 233.143 65.997 233.97 65.4403 234.803 64.6953 235.22 63.762 235.22ZM63.773 234.35C64.9957 234.35 65.607 233.107 65.607 230.62 65.607 228.193 65.0037 226.98 63.797 226.98 62.5937 226.98 61.992 228.207 61.992 230.66 61.992 233.12 62.5857 234.35 63.773 234.35Z"/></g></g><g id="misc"></g><g id="layer0"><clipPath id="clipbc851cf0-b94f-4b87-8e22-fdfa1e7ab9df"><path d="M0 0 0 397 398 397 398 0Z"/></clipPath><clipPath id="clipa82111a2-13e8-4583-807b-ce69791de607"><path d="M0 0 0 397 398 397 398 0Z"/></clipPath><clipPath id="clip29a3d521-0119-4d8c-86fb-93b4a3eeeb87"><path d="M0 0 0 397 398 397 398 0Z"/></clipPath><clipPath id="clip0394dd96-6d0c-4d71-a4a5-38c2171a01f3"><path d="M0 0 0 397 398 397 398 0Z"/></clipPath><clipPath id="clipf3c0c4bc-7554-419b-a438-3d9c3d2ebb4e"><path d="M0 0 0 397 398 397 398 0Z"/></clipPath><clipPath id="clip65586351-3162-4a54-9149-2b6dccdc3fe5"><path d="M0 0 0 397 398 397 398 0Z"/></clipPath><g clip-path="url(#clip96)"><g stroke="#000000" stroke-width="2.5" stroke-linecap="round" stroke-linejoin="round" stroke-opacity="0.69804" fill="none"><path d="M74.861 325.7 77.734 325.2M77.734 325.2 80.844 324.59M80.844 324.59 83.953 323.93 87.062 323.2M87.062 323.2 90.172 322.42 93.281 321.57 96.391 320.66 99.5 319.69M99.5 319.69 102.61 318.66 105.72 317.58 108.83 316.43 111.94 315.22 115.05 313.94 118.16 312.61 121.27 311.22 124.38 309.77 127.48 308.25 130.59 306.68 133.7 305.05 136.81 303.35 139.92 301.6 143.03 299.78 146.14 297.9 149.25 295.96 152.36 293.97 155.47 291.91 158.58 289.79 161.69 287.61 164.8 285.37 167.91 283.07 171.02 280.71 174.12 278.28 177.23 275.8 180.34 273.26 183.45 270.65 186.56 267.99 189.67 265.26 192.78 262.48 195.89 259.63 199 256.72M199 256.72 202.11 253.76 205.22 250.73 208.33 247.64 211.44 244.49 214.55 241.28 217.66 238.01 220.77 234.68 223.88 231.29 226.98 227.83 230.09 224.32 233.2 220.75 236.31 217.11 239.42 213.42 242.53 209.66 245.64 205.85 248.75 201.97 251.86 198.04 254.97 194.04 258.08 189.98 261.19 185.86 264.3 181.68 267.41 177.44 270.52 173.14 273.62 168.78 276.73 164.36 279.84 159.88 282.95 155.33 286.06 150.73 289.17 146.06 292.28 141.34 295.39 136.55 298.5 131.71M298.5 131.71 301.61 126.8 304.72 121.84 307.83 116.81 310.94 111.72 314.05 106.57 317.16 101.36 320.27 96.091 323.38 90.761M323.38 90.761 326.48 85.369 329.59 79.918 332.7 74.405 335.81 68.832M335.81 68.832 338.92 63.199M338.92 63.199 340.8 59.76"/></g></g><g clip-path="url(#clip97)"><g stroke="none" fill="#000000" fill-rule="nonzero" fill-opacity="1"><path d="M77.861 325.7C77.861 327.36 76.518 328.7 74.861 328.7 73.205 328.7 71.861 327.36 71.861 325.7 71.861 324.05 73.205 322.7 74.861 322.7 76.518 322.7 77.861 324.05 77.861 325.7Z"/></g></g><g clip-path="url(#clip98)"><g stroke="none" fill="#000000" fill-rule="nonzero" fill-opacity="1"><path d="M343.8 59.76C343.8 61.417 342.46 62.76 340.8 62.76 339.15 62.76 337.8 61.417 337.8 59.76 337.8 58.103 339.15 56.76 340.8 56.76 342.46 56.76 343.8 58.103 343.8 59.76Z"/></g></g><g clip-path="url(#clip99)"><g stroke="none" fill="#000000" fill-rule="nonzero" fill-opacity="1"><path d="M237.43 219.33C237.43 220.98 236.08 222.33 234.43 222.33 232.77 222.33 231.43 220.98 231.43 219.33 231.43 217.67 232.77 216.33 234.43 216.33 236.08 216.33 237.43 217.67 237.43 219.33Z"/></g></g><g clip-path="url(#clip100)"><g stroke="none" fill="#000000" fill-rule="nonzero" fill-opacity="1"><path d="M307.45 79.289C305.65 79.289 304.26 78.7617 303.28 77.707 302.3 76.6523 301.81 75.159 301.81 73.227 301.81 71.2997 302.31 69.8047 303.31 68.742 304.303 67.6793 305.707 67.148 307.52 67.148 308.56 67.148 309.773 67.3173 311.16 67.656L311.16 69.195C309.58 68.6483 308.36 68.375 307.5 68.375 306.247 68.375 305.277 68.7993 304.59 69.648 303.897 70.4973 303.55 71.6953 303.55 73.242 303.55 74.716 303.92 75.8787 304.66 76.73 305.393 77.582 306.393 78.008 307.66 78.008 308.753 78.008 309.927 77.672 311.18 77L311.18 78.406C310.04 78.9947 308.797 79.289 307.45 79.289Z"/></g></g><g clip-path="url(#clip101)"><g stroke="none" fill="#000000" fill-rule="nonzero" fill-opacity="1"><path d="M315.02 79.588 315.02 86 313.67 86 313.67 79.588 312.62 79.588 312.62 78.576 313.67 78.576 313.67 77.688C313.67 75.9193 314.477 75.035 316.09 75.035 316.543 75.035 317.057 75.1103 317.63 75.261L317.63 76.327C317.023 76.1403 316.537 76.047 316.17 76.047 315.73 76.047 315.43 76.153 315.27 76.365 315.103 76.577 315.02 76.97 315.02 77.544L315.02 78.576 316.88 78.576 316.88 79.588ZM319.92 77.229 321.35 74.365 322.91 74.365 320.85 77.229Z"/></g></g><g transform="matrix(0.19 0 0 0.19 50 14.189)"><clipPath id="clipf3a2b123-05e6-43a1-bef8-59e10678c8b0"><path d="M-263.16-74.679-263.16 2014.8 1831.6 2014.8 1831.6-74.679Z"/></clipPath><g clip-path="url(#clip102)"><g stroke="none" fill="#000000" fill-rule="nonzero" fill-opacity="1"><path d="M48.594-38.094 39 0.09375C37.396 6.63538 33.8283 11.9375 28.297 16 24.2343 19 20 20.5 15.594 20.5 11.1355 20.5 7.96873 18.9687 6.0938 15.906 5.3646 14.6353 5 13.2657 5 11.797 5 8.40107 6.3646 6.30207 9.0938 5.5 9.6354 5.3646 10.1355 5.2969 10.594 5.2969 12.7293 5.2969 13.9323 6.2292 14.203 8.0938 14.2657 8.30207 14.297 8.53643 14.297 8.7969 14.297 10.3283 13.6303 11.698 12.297 12.906 11.3697 13.698 9.93733 14.094 8 14.094 9.19793 16.896 11.7293 18.297 15.594 18.297 19.7293 18.297 23.396 16.198 26.594 12 29.198 8.53127 31.2657 3.83333 32.797-2.0938 32.8697-2.3646 32.9687-2.80207 33.094-3.4062 30.094-0.4062 26.7293 1.0938 23 1.0938 17.6667 1.0938 14.0313-0.869767 12.094-4.7969 11.2293-6.53643 10.797-8.53647 10.797-10.797 10.797-14.4637 12.5627-21.0313 16.094-30.5 16.2293-30.896 16.396-31.3283 16.594-31.797 17.7293-34.8697 18.297-37.203 18.297-38.797 18.297-40.9323 17.4637-42 15.797-42 12.1303-42 9.1303-38.9687 6.7969-32.906L6.7969-32.797C6.40103-31.797 6.03643-30.7293 5.7031-29.594 4.96357-28.4687 4.42713-27.8697 4.0938-27.797 3.30207-27.797 2.9062-28.1303 2.9062-28.797 2.9062-29.995 3.60413-32.094 5-35.094 7.93747-41.1667 11.6355-44.203 16.094-44.203 19.6353-44.203 22.104-42.703 23.5-39.703 24.0313-38.5677 24.297-37.3333 24.297-36 24.297-34.604 23.6303-32.203 22.297-28.797 18.901-19.995 17.203-13.4637 17.203-9.2031 17.203-3.7969 19.2707-1.0938 23.406-1.0938 27.2707-1.0938 30.6353-3.1615 33.5-7.2969 34.1667-8.2969 34.5677-9.06253 34.703-9.5938L39.203-27.594C39.6717-29.802 40.3383-32.4687 41.203-35.594 41.8697-38.4687 42.3333-40.2707 42.594-41 43.4687-42.396 44.6353-43.094 46.094-43.094 47.7607-42.7607 48.7293-41.8647 49-40.406 49-39.802 48.8647-39.0313 48.594-38.094Z"/></g></g></g><g transform="matrix(0.19 0 0 0.19 376 239.44)"><clipPath id="clipcbcf278f-b98c-4fe6-a434-ca962061b09f"><path d="M-1978.9-1260.2-1978.9 829.28 115.79 829.28 115.79-1260.2Z"/></clipPath><g clip-path="url(#clip103)"><g stroke="none" fill="#000000" fill-rule="nonzero" fill-opacity="1"><path d="M26-22.906 46 -0 37.703 -0 22.703-18.797 8.2031 -0 0 -0 19.406-22.906 0.59375-44.406 8.9062-44.406 22.703-27.906 36.094-44.406 44.297-44.406 26-22.906Z"/></g></g></g></g></g></svg>