<svg width="275.71" height="289.922" viewBox="0 0 386 407" xmlns="http://www.w3.org/2000/svg" xmlns:xlink="http://www.w3.org/1999/xlink" overflow="hidden"><g stroke-width="1" stroke-linecap="square" stroke-linejoin="miter" stroke-miterlimit="10" stroke-dasharray="" stroke-dashoffset="0"><clipPath id="clip2a3ed347-009e-4450-a40e-c10900b20f3f"><path d="M0 0 0 408 388 408 388 0Z"/></clipPath><clipPath id="clip66da2af5-faac-440f-9e42-0c680821eaa0"><path d="M0 0 0 408 388 408 388 0Z"/></clipPath><clipPath id="clip7a3f81d8-c2f7-400a-a051-9855432f6aa0"><path d="M0 0 0 408 388 408 388 0Z"/></clipPath><clipPath id="clipe54e6c56-7378-4ea2-993f-a0829a8190c8"><path d="M0 0 0 408 388 408 388 0Z"/></clipPath><clipPath id="clipaf4bb015-2477-48b2-a017-30b406274501"><path d="M0 0 0 408 388 408 388 0Z"/></clipPath><clipPath id="clip1cff930c-f510-43da-a2f4-7a91d59779a6"><path d="M0 0 0 408 388 408 388 0Z"/></clipPath><clipPath id="clip2a2a94dc-aca0-4aac-9841-7dd981bee1e1"><path d="M0 0 0 408 388 408 388 0Z"/></clipPath><clipPath id="clip84217c04-eb6b-42f5-b4ae-d7dba40f34ac"><path d="M0 0 0 408 388 408 388 0Z"/></clipPath><clipPath id="clipcb17b9d5-31db-4b44-925b-e7043be925c5"><path d="M0 0 0 408 388 408 388 0Z"/></clipPath><clipPath id="clip65c25d25-73ba-4caf-a9f0-1ae2a7263788"><path d="M0 0 0 408 388 408 388 0Z"/></clipPath><clipPath id="clipa2d55d7a-d600-4d2e-99b0-b48141872326"><path d="M0 0 0 408 388 408 388 0Z"/></clipPath><clipPath id="clip1fc9d46b-fd0a-4e17-a29e-1b7c4f795932"><path d="M0 0 0 408 388 408 388 0Z"/></clipPath><clipPath id="clip3253c720-2caf-4bed-bc1d-5fd8fa889257"><path d="M0 0 0 408 388 408 388 0Z"/></clipPath><clipPath id="clip7805dfc4-4654-43be-bc8f-fdb478c055f3"><path d="M0 0 0 408 388 408 388 0Z"/></clipPath><clipPath id="clip8d875951-eba1-40e8-9205-42ba9f0a782f"><path d="M0 0 0 408 388 408 388 0Z"/></clipPath><clipPath id="clip44c28571-cd77-4024-ab55-869c62243c66"><path d="M0 0 0 408 388 408 388 0Z"/></clipPath><clipPath id="clip99d61cb5-e78a-4e0f-b5ac-50ac3fcaa7a1"><path d="M0 0 0 408 388 408 388 0Z"/></clipPath><clipPath id="clip9680592d-63f2-4d9f-a614-d4dfeb2657fb"><path d="M0 0 0 408 388 408 388 0Z"/></clipPath><clipPath id="clipec907542-5eea-4565-9f40-9e28da9d182b"><path d="M0 0 0 408 388 408 388 0Z"/></clipPath><clipPath id="clip4108429b-4842-487c-bb09-89e79a70ca0d"><path d="M0 0 0 408 388 408 388 0Z"/></clipPath><clipPath id="clip46cf0504-c895-4ad6-bcbd-46799520c025"><path d="M0 0 0 408 388 408 388 0Z"/></clipPath><clipPath id="clip68b67318-dffd-4f53-96c9-03577cbf2a45"><path d="M0 0 0 408 388 408 388 0Z"/></clipPath><clipPath id="clipc070e767-5d27-45ca-9ab5-a4d57272397d"><path d="M0 0 0 408 388 408 388 0Z"/></clipPath><clipPath id="clip2795e3c5-fe00-446d-912f-f1bc2dbdb761"><path d="M0 0 0 408 388 408 388 0Z"/></clipPath><clipPath id="clipb4ff6ab9-3f38-4eb5-8589-383ad0ee1809"><path d="M0 0 0 408 388 408 388 0Z"/></clipPath><clipPath id="clipa70155f4-abef-407e-a0f5-ab27371d7c26"><path d="M0 0 0 408 388 408 388 0Z"/></clipPath><clipPath id="clip3c9c8312-5088-4914-b619-7e14513ecb76"><path d="M0 0 0 408 388 408 388 0Z"/></clipPath><clipPath id="clipcd6b96c4-0b0e-4e1d-9fc5-0a4b0863a19d"><path d="M0 0 0 408 388 408 388 0Z"/></clipPath><clipPath id="clip81109b09-a0a2-487c-a759-479bd5aa85b3"><path d="M0 0 0 408 388 408 388 0Z"/></clipPath><clipPath id="clipf67e032a-731c-4c16-af14-f80d07632e86"><path d="M0 0 0 408 388 408 388 0Z"/></clipPath><clipPath id="clipde183ed5-f31a-4a01-8c51-18e975f60f0f"><path d="M0 0 0 408 388 408 388 0Z"/></clipPath><clipPath id="clipc836d533-5cdf-4d83-bf52-32c2b27bb460"><path d="M0 0 0 408 388 408 388 0Z"/></clipPath><clipPath id="clipcaab15a0-f28d-4cdb-a028-790d824c16e5"><path d="M0 0 0 408 388 408 388 0Z"/></clipPath><clipPath id="clipf5e98e6b-8db8-49ef-a9f8-142b4f04dbe7"><path d="M0 0 0 408 388 408 388 0Z"/></clipPath><clipPath id="clip0fa128e0-f917-4e4f-bafa-6fa1f5cfea6d"><path d="M0 0 0 408 388 408 388 0Z"/></clipPath><clipPath id="clipa367079b-a9fb-42d2-bac0-ae9ec6b049c3"><path d="M0 0 0 408 388 408 388 0Z"/></clipPath><clipPath id="clip7a781014-892a-4780-88ab-854aa6cd509e"><path d="M0 0 0 408 388 408 388 0Z"/></clipPath><clipPath id="clip28087e7d-c06f-40a7-9032-d8bbc75cd06f"><path d="M0 0 0 408 388 408 388 0Z"/></clipPath><clipPath id="clipfe562f25-85a4-4fdd-a9e3-73db96bda877"><path d="M0 0 0 408 388 408 388 0Z"/></clipPath><clipPath id="clip52fc701e-167e-40d0-8ef3-bc4b5d4585b1"><path d="M0 0 0 408 388 408 388 0Z"/></clipPath><clipPath id="clip12391ce8-c4f5-4c7b-8283-335ccfb965fc"><path d="M0 0 0 408 388 408 388 0Z"/></clipPath><clipPath id="clipb0bb0a10-2d22-4c4e-8d12-ad1375709e6c"><path d="M0 0 0 408 388 408 388 0Z"/></clipPath><clipPath id="clipbf9f9214-8d29-43fa-827b-2b5f7eb9d1c9"><path d="M0 0 0 408 388 408 388 0Z"/></clipPath><clipPath id="clip3350dc68-25f2-489a-9c33-24159202b5ed"><path d="M0 0 0 408 388 408 388 0Z"/></clipPath><clipPath id="clip5d55cd5b-bdf7-4abf-9bc3-10de40cd79a8"><path d="M0 0 0 408 388 408 388 0Z"/></clipPath><clipPath id="clipd26113cb-a5b4-4348-a79e-c242a10eea2e"><path d="M0 0 0 408 388 408 388 0Z"/></clipPath><clipPath id="clipb25607d7-064f-45b9-afb1-d478ec3d42aa"><path d="M0 0 0 408 388 408 388 0Z"/></clipPath><clipPath id="clip1ee8e4ce-e75e-4a46-9bdd-66f94c309cce"><path d="M0 0 0 408 388 408 388 0Z"/></clipPath><clipPath id="clipda770d5f-3bff-462d-a4b9-18b4479fa27e"><path d="M0 0 0 408 388 408 388 0Z"/></clipPath><clipPath id="clip20aede0b-04d7-4c7e-8a28-2d691d56220d"><path d="M0 0 0 408 388 408 388 0Z"/></clipPath><clipPath id="clip9edaca9a-fe24-425a-850a-df1986afa48a"><path d="M0 0 0 408 388 408 388 0Z"/></clipPath><clipPath id="clip1890ddd8-1ed3-4994-9555-0c07af4c1469"><path d="M0 0 0 408 388 408 388 0Z"/></clipPath><clipPath id="clipfd341c78-104e-4b70-b3bf-88acb128083e"><path d="M0 0 0 408 388 408 388 0Z"/></clipPath><clipPath id="clip1b108ebb-46da-4045-b97b-c9566eba633c"><path d="M0 0 0 408 388 408 388 0Z"/></clipPath><clipPath id="clip2c64999e-0d79-4175-9a78-03b98fa75f1d"><path d="M0 0 0 408 388 408 388 0Z"/></clipPath><clipPath id="clipa16109d7-24e4-4f23-bfb1-02f493a12bbd"><path d="M0 0 0 408 388 408 388 0Z"/></clipPath><clipPath id="clip1f018016-6678-485b-917a-d0ee12858cec"><path d="M0 0 0 408 388 408 388 0Z"/></clipPath><clipPath id="clip44299777-094d-47b1-a648-46c834612fd8"><path d="M0 0 0 408 388 408 388 0Z"/></clipPath><clipPath id="clip4cd8c361-ef0b-4145-8fa4-26c62d577dad"><path d="M0 0 0 408 388 408 388 0Z"/></clipPath><clipPath id="clip1aaa341c-c69d-4ac6-ae4c-d26e6726bd96"><path d="M0 0 0 408 388 408 388 0Z"/></clipPath><clipPath id="clipeb63a7d1-f4cc-4911-be05-094c710bf6a6"><path d="M0 0 0 408 388 408 388 0Z"/></clipPath><clipPath id="clip95ee3ce8-7120-4ce7-a5ec-f7eef7419fe9"><path d="M0 0 0 408 388 408 388 0Z"/></clipPath><clipPath id="clip41cf6c8e-a200-43ef-ad0a-f5a2e7a4817a"><path d="M0 0 0 408 388 408 388 0Z"/></clipPath><clipPath id="clip06a3e5a0-8af9-4907-ab5d-5b579db59399"><path d="M0 0 0 408 388 408 388 0Z"/></clipPath><clipPath id="clipf7795293-db5c-4e94-b9a3-3744f8754950"><path d="M0 0 0 408 388 408 388 0Z"/></clipPath><clipPath id="clip36b2bc4b-5b4d-4fbf-99ca-a444befb7764"><path d="M0 0 0 408 388 408 388 0Z"/></clipPath><clipPath id="clipbaa3c5d4-abfe-4256-b2d6-e399d60e9fee"><path d="M0 0 0 408 388 408 388 0Z"/></clipPath><clipPath id="clip2498fd54-a8fd-4589-9b6d-02a2d3b6c145"><path d="M0 0 0 408 388 408 388 0Z"/></clipPath><clipPath id="clip4ed65bd9-5e1e-4181-9ec7-bd21e90745c4"><path d="M0 0 0 408 388 408 388 0Z"/></clipPath><clipPath id="clipc41f9a85-8831-401e-9d9d-0d6462a70733"><path d="M0 0 0 408 388 408 388 0Z"/></clipPath><clipPath id="clip51a3e142-4f60-490f-a750-8f7084d671c7"><path d="M0 0 0 408 388 408 388 0Z"/></clipPath><clipPath id="clip36f2dd9b-2a05-439a-ab24-be23b8910dbe"><path d="M0 0 0 408 388 408 388 0Z"/></clipPath><clipPath id="clip6bde8fcb-bc57-4213-ac6e-fffaa133d0fe"><path d="M0 0 0 408 388 408 388 0Z"/></clipPath><clipPath id="clipadd98f7f-6076-4aa4-a14c-0f750075f51e"><path d="M0 0 0 408 388 408 388 0Z"/></clipPath><clipPath id="clipa73c1580-94b0-4818-ba89-afa222c2475e"><path d="M0 0 0 408 388 408 388 0Z"/></clipPath><clipPath id="clipccf90a50-dd1d-4309-bb38-caa792d150d3"><path d="M0 0 0 408 388 408 388 0Z"/></clipPath><clipPath id="clip9fd4341e-e177-4a91-b8b0-83aca399e538"><path d="M0 0 0 408 388 408 388 0Z"/></clipPath><clipPath id="clip1fbeb65a-6b35-4b76-a394-fc9a866feeea"><path d="M0 0 0 408 388 408 388 0Z"/></clipPath><clipPath id="clipb027f428-db5a-475a-9edc-fe4fec41b168"><path d="M0 0 0 408 388 408 388 0Z"/></clipPath><clipPath id="clip6de97d00-8040-4030-9b50-58677f988b4d"><path d="M0 0 0 408 388 408 388 0Z"/></clipPath><clipPath id="clip40e72f4d-ae98-4216-aa2f-562027c5ef29"><path d="M0 0 0 408 388 408 388 0Z"/></clipPath><clipPath id="clipd69fb91b-ba5a-4952-b766-1549f859e592"><path d="M0 0 0 408 388 408 388 0Z"/></clipPath><clipPath id="clip5dbf3579-50bd-44cd-b134-6a8aa811745e"><path d="M0 0 0 408 388 408 388 0Z"/></clipPath><clipPath id="clipccf8dc26-21d6-4745-a513-d313e620d2bf"><path d="M0 0 0 408 388 408 388 0Z"/></clipPath><clipPath id="clip27bcc984-a2f8-405c-a631-f7b5478b758f"><path d="M0 0 0 408 388 408 388 0Z"/></clipPath><clipPath id="clip11bf02b6-b091-490d-9f53-886b67d2414e"><path d="M0 0 0 408 388 408 388 0Z"/></clipPath><clipPath id="clip2546dd4c-97df-4ceb-8020-0b52185e8706"><path d="M0 0 0 408 388 408 388 0Z"/></clipPath><clipPath id="clip152dff29-7fe6-43fe-8940-9f5487a83cd2"><path d="M0 0 0 408 388 408 388 0Z"/></clipPath><clipPath id="clip95bc623c-cae5-4a66-a0df-fd5fda9b7a1a"><path d="M0 0 0 408 388 408 388 0Z"/></clipPath><clipPath id="clipee822a6a-ede3-48e6-af7e-e94a950b708f"><path d="M0 0 0 408 388 408 388 0Z"/></clipPath><clipPath id="clip4505e6fa-292c-4a1f-8d8c-882de6dcbbf9"><path d="M0 0 0 408 388 408 388 0Z"/></clipPath><clipPath id="clipd5844e51-f13c-45e0-975a-1392a0d9e1a5"><path d="M0 0 0 408 388 408 388 0Z"/></clipPath><clipPath id="clip7ac3b8eb-2239-4f7a-999d-491184e0e523"><path d="M0 0 0 408 388 408 388 0Z"/></clipPath><clipPath id="clip64bac494-9924-400c-93fe-771219501e00"><path d="M0 0 0 408 388 408 388 0Z"/></clipPath><clipPath id="clipbcf18e1b-bf6d-4a0d-8b83-5047f0d03a54"><path d="M0 0 0 408 388 408 388 0Z"/></clipPath><g clip-path="url(#clip1)"><g stroke="#C0C0C0" stroke-linecap="round" stroke-linejoin="round" stroke-opacity="1" fill="none"><path d="M21.673 0 21.673 408"/></g></g><g clip-path="url(#clip2)"><g stroke="#C0C0C0" stroke-linecap="round" stroke-linejoin="round" stroke-opacity="1" fill="none"><path d="M21.673 0 21.673 408"/></g></g><g clip-path="url(#clip3)"><g stroke="#C0C0C0" stroke-linecap="round" stroke-linejoin="round" stroke-opacity="1" fill="none"><path d="M128.05 0 128.05 408"/></g></g><g clip-path="url(#clip4)"><g stroke="#C0C0C0" stroke-linecap="round" stroke-linejoin="round" stroke-opacity="1" fill="none"><path d="M181.24 0 181.24 408"/></g></g><g clip-path="url(#clip5)"><g stroke="#C0C0C0" stroke-linecap="round" stroke-linejoin="round" stroke-opacity="1" fill="none"><path d="M234.43 0 234.43 408"/></g></g><g clip-path="url(#clip6)"><g stroke="#C0C0C0" stroke-linecap="round" stroke-linejoin="round" stroke-opacity="1" fill="none"><path d="M287.62 0 287.62 408"/></g></g><g clip-path="url(#clip7)"><g stroke="#C0C0C0" stroke-linecap="round" stroke-linejoin="round" stroke-opacity="1" fill="none"><path d="M340.8 0 340.8 408"/></g></g><g clip-path="url(#clip8)"><g stroke="#C0C0C0" stroke-linecap="round" stroke-linejoin="round" stroke-opacity="0.23529" fill="none"><path d="M0.39764 0 0.39764 408"/></g></g><g clip-path="url(#clip9)"><g stroke="#C0C0C0" stroke-linecap="round" stroke-linejoin="round" stroke-opacity="0.23529" fill="none"><path d="M11.035 0 11.035 408"/></g></g><g clip-path="url(#clip10)"><g stroke="#C0C0C0" stroke-linecap="round" stroke-linejoin="round" stroke-opacity="0.23529" fill="none"><path d="M32.311 0 32.311 408"/></g></g><g clip-path="url(#clip11)"><g stroke="#C0C0C0" stroke-linecap="round" stroke-linejoin="round" stroke-opacity="0.23529" fill="none"><path d="M42.948 0 42.948 408"/></g></g><g clip-path="url(#clip12)"><g stroke="#C0C0C0" stroke-linecap="round" stroke-linejoin="round" stroke-opacity="0.23529" fill="none"><path d="M53.586 0 53.586 408"/></g></g><g clip-path="url(#clip13)"><g stroke="#C0C0C0" stroke-linecap="round" stroke-linejoin="round" stroke-opacity="0.23529" fill="none"><path d="M64.224 0 64.224 408"/></g></g><g clip-path="url(#clip14)"><g stroke="#C0C0C0" stroke-linecap="round" stroke-linejoin="round" stroke-opacity="0.23529" fill="none"><path d="M85.499 0 85.499 408"/></g></g><g clip-path="url(#clip15)"><g stroke="#C0C0C0" stroke-linecap="round" stroke-linejoin="round" stroke-opacity="0.23529" fill="none"><path d="M96.137 0 96.137 408"/></g></g><g clip-path="url(#clip16)"><g stroke="#C0C0C0" stroke-linecap="round" stroke-linejoin="round" stroke-opacity="0.23529" fill="none"><path d="M106.77 0 106.77 408"/></g></g><g clip-path="url(#clip17)"><g stroke="#C0C0C0" stroke-linecap="round" stroke-linejoin="round" stroke-opacity="0.23529" fill="none"><path d="M117.41 0 117.41 408"/></g></g><g clip-path="url(#clip18)"><g stroke="#C0C0C0" stroke-linecap="round" stroke-linejoin="round" stroke-opacity="0.23529" fill="none"><path d="M138.69 0 138.69 408"/></g></g><g clip-path="url(#clip19)"><g stroke="#C0C0C0" stroke-linecap="round" stroke-linejoin="round" stroke-opacity="0.23529" fill="none"><path d="M149.33 0 149.33 408"/></g></g><g clip-path="url(#clip20)"><g stroke="#C0C0C0" stroke-linecap="round" stroke-linejoin="round" stroke-opacity="0.23529" fill="none"><path d="M159.96 0 159.96 408"/></g></g><g clip-path="url(#clip21)"><g stroke="#C0C0C0" stroke-linecap="round" stroke-linejoin="round" stroke-opacity="0.23529" fill="none"><path d="M170.6 0 170.6 408"/></g></g><g clip-path="url(#clip22)"><g stroke="#C0C0C0" stroke-linecap="round" stroke-linejoin="round" stroke-opacity="0.23529" fill="none"><path d="M191.88 0 191.88 408"/></g></g><g clip-path="url(#clip23)"><g stroke="#C0C0C0" stroke-linecap="round" stroke-linejoin="round" stroke-opacity="0.23529" fill="none"><path d="M202.51 0 202.51 408"/></g></g><g clip-path="url(#clip24)"><g stroke="#C0C0C0" stroke-linecap="round" stroke-linejoin="round" stroke-opacity="0.23529" fill="none"><path d="M213.15 0 213.15 408"/></g></g><g clip-path="url(#clip25)"><g stroke="#C0C0C0" stroke-linecap="round" stroke-linejoin="round" stroke-opacity="0.23529" fill="none"><path d="M223.79 0 223.79 408"/></g></g><g clip-path="url(#clip26)"><g stroke="#C0C0C0" stroke-linecap="round" stroke-linejoin="round" stroke-opacity="0.23529" fill="none"><path d="M245.06 0 245.06 408"/></g></g><g clip-path="url(#clip27)"><g stroke="#C0C0C0" stroke-linecap="round" stroke-linejoin="round" stroke-opacity="0.23529" fill="none"><path d="M255.7 0 255.7 408"/></g></g><g clip-path="url(#clip28)"><g stroke="#C0C0C0" stroke-linecap="round" stroke-linejoin="round" stroke-opacity="0.23529" fill="none"><path d="M266.34 0 266.34 408"/></g></g><g clip-path="url(#clip29)"><g stroke="#C0C0C0" stroke-linecap="round" stroke-linejoin="round" stroke-opacity="0.23529" fill="none"><path d="M276.98 0 276.98 408"/></g></g><g clip-path="url(#clip30)"><g stroke="#C0C0C0" stroke-linecap="round" stroke-linejoin="round" stroke-opacity="0.23529" fill="none"><path d="M298.25 0 298.25 408"/></g></g><g clip-path="url(#clip31)"><g stroke="#C0C0C0" stroke-linecap="round" stroke-linejoin="round" stroke-opacity="0.23529" fill="none"><path d="M308.89 0 308.89 408"/></g></g><g clip-path="url(#clip32)"><g stroke="#C0C0C0" stroke-linecap="round" stroke-linejoin="round" stroke-opacity="0.23529" fill="none"><path d="M319.53 0 319.53 408"/></g></g><g clip-path="url(#clip33)"><g stroke="#C0C0C0" stroke-linecap="round" stroke-linejoin="round" stroke-opacity="0.23529" fill="none"><path d="M330.17 0 330.17 408"/></g></g><g clip-path="url(#clip34)"><g stroke="#C0C0C0" stroke-linecap="round" stroke-linejoin="round" stroke-opacity="0.23529" fill="none"><path d="M351.44 0 351.44 408"/></g></g><g clip-path="url(#clip35)"><g stroke="#C0C0C0" stroke-linecap="round" stroke-linejoin="round" stroke-opacity="0.23529" fill="none"><path d="M362.08 0 362.08 408"/></g></g><g clip-path="url(#clip36)"><g stroke="#C0C0C0" stroke-linecap="round" stroke-linejoin="round" stroke-opacity="0.23529" fill="none"><path d="M372.72 0 372.72 408"/></g></g><g clip-path="url(#clip37)"><g stroke="#C0C0C0" stroke-linecap="round" stroke-linejoin="round" stroke-opacity="0.23529" fill="none"><path d="M383.35 0 383.35 408"/></g></g><g clip-path="url(#clip38)"><g stroke="#C0C0C0" stroke-linecap="round" stroke-linejoin="round" stroke-opacity="1" fill="none"><path d="M0 8.7601 388 8.7601"/></g></g><g clip-path="url(#clip39)"><g stroke="#C0C0C0" stroke-linecap="round" stroke-linejoin="round" stroke-opacity="1" fill="none"><path d="M0 8.7601 388 8.7601"/></g></g><g clip-path="url(#clip40)"><g stroke="#C0C0C0" stroke-linecap="round" stroke-linejoin="round" stroke-opacity="1" fill="none"><path d="M0 61.948 388 61.948"/></g></g><g clip-path="url(#clip41)"><g stroke="#C0C0C0" stroke-linecap="round" stroke-linejoin="round" stroke-opacity="1" fill="none"><path d="M0 115.14 388 115.14"/></g></g><g clip-path="url(#clip42)"><g stroke="#C0C0C0" stroke-linecap="round" stroke-linejoin="round" stroke-opacity="1" fill="none"><path d="M0 221.51 388 221.51"/></g></g><g clip-path="url(#clip43)"><g stroke="#C0C0C0" stroke-linecap="round" stroke-linejoin="round" stroke-opacity="1" fill="none"><path d="M0 274.7 388 274.7"/></g></g><g clip-path="url(#clip44)"><g stroke="#C0C0C0" stroke-linecap="round" stroke-linejoin="round" stroke-opacity="1" fill="none"><path d="M0 327.89 388 327.89"/></g></g><g clip-path="url(#clip45)"><g stroke="#C0C0C0" stroke-linecap="round" stroke-linejoin="round" stroke-opacity="1" fill="none"><path d="M0 381.08 388 381.08"/></g></g><g clip-path="url(#clip46)"><g stroke="#C0C0C0" stroke-linecap="round" stroke-linejoin="round" stroke-opacity="0.23529" fill="none"><path d="M0 8.7601 388 8.7601"/></g></g><g clip-path="url(#clip47)"><g stroke="#C0C0C0" stroke-linecap="round" stroke-linejoin="round" stroke-opacity="0.23529" fill="none"><path d="M0 19.398 388 19.398"/></g></g><g clip-path="url(#clip48)"><g stroke="#C0C0C0" stroke-linecap="round" stroke-linejoin="round" stroke-opacity="0.23529" fill="none"><path d="M0 30.035 388 30.035"/></g></g><g clip-path="url(#clip49)"><g stroke="#C0C0C0" stroke-linecap="round" stroke-linejoin="round" stroke-opacity="0.23529" fill="none"><path d="M0 40.673 388 40.673"/></g></g><g clip-path="url(#clip50)"><g stroke="#C0C0C0" stroke-linecap="round" stroke-linejoin="round" stroke-opacity="0.23529" fill="none"><path d="M0 51.311 388 51.311"/></g></g><g clip-path="url(#clip51)"><g stroke="#C0C0C0" stroke-linecap="round" stroke-linejoin="round" stroke-opacity="0.23529" fill="none"><path d="M0 72.586 388 72.586"/></g></g><g clip-path="url(#clip52)"><g stroke="#C0C0C0" stroke-linecap="round" stroke-linejoin="round" stroke-opacity="0.23529" fill="none"><path d="M0 83.224 388 83.224"/></g></g><g clip-path="url(#clip53)"><g stroke="#C0C0C0" stroke-linecap="round" stroke-linejoin="round" stroke-opacity="0.23529" fill="none"><path d="M0 93.862 388 93.862"/></g></g><g clip-path="url(#clip54)"><g stroke="#C0C0C0" stroke-linecap="round" stroke-linejoin="round" stroke-opacity="0.23529" fill="none"><path d="M0 104.5 388 104.5"/></g></g><g clip-path="url(#clip55)"><g stroke="#C0C0C0" stroke-linecap="round" stroke-linejoin="round" stroke-opacity="0.23529" fill="none"><path d="M0 125.77 388 125.77"/></g></g><g clip-path="url(#clip56)"><g stroke="#C0C0C0" stroke-linecap="round" stroke-linejoin="round" stroke-opacity="0.23529" fill="none"><path d="M0 136.41 388 136.41"/></g></g><g clip-path="url(#clip57)"><g stroke="#C0C0C0" stroke-linecap="round" stroke-linejoin="round" stroke-opacity="0.23529" fill="none"><path d="M0 147.05 388 147.05"/></g></g><g clip-path="url(#clip58)"><g stroke="#C0C0C0" stroke-linecap="round" stroke-linejoin="round" stroke-opacity="0.23529" fill="none"><path d="M0 157.69 388 157.69"/></g></g><g clip-path="url(#clip59)"><g stroke="#C0C0C0" stroke-linecap="round" stroke-linejoin="round" stroke-opacity="0.23529" fill="none"><path d="M0 178.96 388 178.96"/></g></g><g clip-path="url(#clip60)"><g stroke="#C0C0C0" stroke-linecap="round" stroke-linejoin="round" stroke-opacity="0.23529" fill="none"><path d="M0 189.6 388 189.6"/></g></g><g clip-path="url(#clip61)"><g stroke="#C0C0C0" stroke-linecap="round" stroke-linejoin="round" stroke-opacity="0.23529" fill="none"><path d="M0 200.24 388 200.24"/></g></g><g clip-path="url(#clip62)"><g stroke="#C0C0C0" stroke-linecap="round" stroke-linejoin="round" stroke-opacity="0.23529" fill="none"><path d="M0 210.88 388 210.88"/></g></g><g clip-path="url(#clip63)"><g stroke="#C0C0C0" stroke-linecap="round" stroke-linejoin="round" stroke-opacity="0.23529" fill="none"><path d="M0 232.15 388 232.15"/></g></g><g clip-path="url(#clip64)"><g stroke="#C0C0C0" stroke-linecap="round" stroke-linejoin="round" stroke-opacity="0.23529" fill="none"><path d="M0 242.79 388 242.79"/></g></g><g clip-path="url(#clip65)"><g stroke="#C0C0C0" stroke-linecap="round" stroke-linejoin="round" stroke-opacity="0.23529" fill="none"><path d="M0 253.43 388 253.43"/></g></g><g clip-path="url(#clip66)"><g stroke="#C0C0C0" stroke-linecap="round" stroke-linejoin="round" stroke-opacity="0.23529" fill="none"><path d="M0 264.06 388 264.06"/></g></g><g clip-path="url(#clip67)"><g stroke="#C0C0C0" stroke-linecap="round" stroke-linejoin="round" stroke-opacity="0.23529" fill="none"><path d="M0 285.34 388 285.34"/></g></g><g clip-path="url(#clip68)"><g stroke="#C0C0C0" stroke-linecap="round" stroke-linejoin="round" stroke-opacity="0.23529" fill="none"><path d="M0 295.98 388 295.98"/></g></g><g clip-path="url(#clip69)"><g stroke="#C0C0C0" stroke-linecap="round" stroke-linejoin="round" stroke-opacity="0.23529" fill="none"><path d="M0 306.62 388 306.62"/></g></g><g clip-path="url(#clip70)"><g stroke="#C0C0C0" stroke-linecap="round" stroke-linejoin="round" stroke-opacity="0.23529" fill="none"><path d="M0 317.25 388 317.25"/></g></g><g clip-path="url(#clip71)"><g stroke="#C0C0C0" stroke-linecap="round" stroke-linejoin="round" stroke-opacity="0.23529" fill="none"><path d="M0 338.53 388 338.53"/></g></g><g clip-path="url(#clip72)"><g stroke="#C0C0C0" stroke-linecap="round" stroke-linejoin="round" stroke-opacity="0.23529" fill="none"><path d="M0 349.17 388 349.17"/></g></g><g clip-path="url(#clip73)"><g stroke="#C0C0C0" stroke-linecap="round" stroke-linejoin="round" stroke-opacity="0.23529" fill="none"><path d="M0 359.8 388 359.8"/></g></g><g clip-path="url(#clip74)"><g stroke="#C0C0C0" stroke-linecap="round" stroke-linejoin="round" stroke-opacity="0.23529" fill="none"><path d="M0 370.44 388 370.44"/></g></g><g clip-path="url(#clip75)"><g stroke="#C0C0C0" stroke-linecap="round" stroke-linejoin="round" stroke-opacity="0.23529" fill="none"><path d="M0 391.72 388 391.72"/></g></g><g clip-path="url(#clip76)"><g stroke="#C0C0C0" stroke-linecap="round" stroke-linejoin="round" stroke-opacity="0.23529" fill="none"><path d="M0 402.35 388 402.35"/></g></g><g clip-path="url(#clip77)"><g stroke="#000000" stroke-linecap="butt" stroke-opacity="1" fill="none"><path d="M74.861 2 74.861 408"/></g></g><g clip-path="url(#clip78)"><g stroke="#000000" stroke-linecap="butt" stroke-opacity="1" fill="none"><path d="M74.861 1 70.861 5"/></g></g><g clip-path="url(#clip79)"><g stroke="#000000" stroke-linecap="butt" stroke-opacity="1" fill="none"><path d="M74.861 1 78.861 5"/></g></g><g clip-path="url(#clip80)"><g stroke="#000000" stroke-linecap="butt" stroke-opacity="1" fill="none"><path d="M0 168.33 386 168.33"/></g></g><g clip-path="url(#clip81)"><g stroke="#000000" stroke-linecap="butt" stroke-opacity="1" fill="none"><path d="M387 168.33 383 164.33"/></g></g><g clip-path="url(#clip82)"><g stroke="#000000" stroke-linecap="butt" stroke-opacity="1" fill="none"><path d="M387 168.33 383 172.33"/></g></g><g clip-path="url(#clip83)"><g stroke="none" fill="#000000" fill-rule="nonzero" fill-opacity="1"><path d="M16.615 180.82 16.615 180.02 21.385 180.02 21.385 180.82ZM23.805 184 23.805 183.13 25.539 183.13 25.539 176.29 23.805 176.72 23.805 175.83 26.699 175.11 26.699 183.13 28.434 183.13 28.434 184Z"/></g></g><g clip-path="url(#clip84)"><g stroke="none" fill="#000000" fill-rule="nonzero" fill-opacity="1"><path d="M127.8 184 127.8 183.13 129.54 183.13 129.54 176.29 127.8 176.72 127.8 175.83 130.7 175.11 130.7 183.13 132.43 183.13 132.43 184Z"/></g></g><g clip-path="url(#clip85)"><g stroke="none" fill="#000000" fill-rule="nonzero" fill-opacity="1"><path d="M180 184 180 182.99C180.333 182.203 181.013 181.347 182.04 180.42L182.7 179.83C183.547 179.057 183.97 178.293 183.97 177.54 183.97 177.053 183.827 176.67 183.54 176.39 183.247 176.117 182.847 175.98 182.34 175.98 181.74 175.98 181.03 176.213 180.21 176.68L180.21 175.66C180.983 175.293 181.747 175.11 182.5 175.11 183.313 175.11 183.967 175.33 184.46 175.77 184.953 176.203 185.2 176.783 185.2 177.51 185.2 178.03 185.077 178.49 184.83 178.89 184.583 179.29 184.12 179.78 183.44 180.36L183 180.74C182.073 181.52 181.537 182.27 181.39 182.99L185.16 182.99 185.16 184Z"/></g></g><g clip-path="url(#clip86)"><g stroke="none" fill="#000000" fill-rule="nonzero" fill-opacity="1"><path d="M233.22 183.94 233.22 182.86C234.047 183.187 234.7 183.35 235.18 183.35 235.727 183.35 236.173 183.19 236.52 182.87 236.867 182.543 237.04 182.127 237.04 181.62 237.04 180.4 236.187 179.79 234.48 179.79L234.02 179.79 234.02 179.01 234.43 179C236.03 179 236.83 178.437 236.83 177.31 236.83 176.423 236.303 175.98 235.25 175.98 234.67 175.98 234.033 176.14 233.34 176.46L233.34 175.46C234.02 175.227 234.683 175.11 235.33 175.11 237.103 175.11 237.99 175.78 237.99 177.12 237.99 178.14 237.387 178.867 236.18 179.3 237.58 179.627 238.28 180.393 238.28 181.6 238.28 182.413 238.01 183.053 237.47 183.52 236.93 183.987 236.19 184.22 235.25 184.22 234.71 184.22 234.033 184.127 233.22 183.94Z"/></g></g><g clip-path="url(#clip87)"><g stroke="none" fill="#000000" fill-rule="nonzero" fill-opacity="1"><path d="M289.52 184 289.52 181.54 285.62 181.54 285.62 180.67 289.52 175.33 290.6 175.33 290.6 180.6 291.76 180.6 291.76 181.54 290.6 181.54 290.6 184ZM286.75 180.6 289.59 180.6 289.59 176.75Z"/></g></g><g clip-path="url(#clip88)"><g stroke="none" fill="#000000" fill-rule="nonzero" fill-opacity="1"><path d="M339.46 184.04 339.46 183C340.033 183.233 340.58 183.35 341.1 183.35 341.673 183.35 342.12 183.183 342.44 182.85 342.767 182.51 342.93 182.047 342.93 181.46 342.93 180.16 342.033 179.51 340.24 179.51 340.04 179.51 339.83 179.523 339.61 179.55L339.61 175.33 343.99 175.33 343.99 176.34 340.62 176.34 340.62 178.62C341.733 178.62 342.603 178.877 343.23 179.39 343.85 179.903 344.16 180.613 344.16 181.52 344.16 182.36 343.877 183.02 343.31 183.5 342.743 183.98 341.957 184.22 340.95 184.22 340.51 184.22 340.013 184.16 339.46 184.04Z"/></g></g><g clip-path="url(#clip89)"><g stroke="none" fill="#000000" fill-rule="nonzero" fill-opacity="1"><path d="M54.615 382.82 54.615 382.02 59.385 382.02 59.385 382.82ZM64.518 386 64.518 383.54 60.615 383.54 60.615 382.67 64.518 377.33 65.602 377.33 65.602 382.6 66.762 382.6 66.762 383.54 65.602 383.54 65.602 386ZM61.746 382.6 64.594 382.6 64.594 378.75Z"/></g></g><g clip-path="url(#clip90)"><g stroke="none" fill="#000000" fill-rule="nonzero" fill-opacity="1"><path d="M54.615 328.82 54.615 328.02 59.385 328.02 59.385 328.82ZM61.219 331.94 61.219 330.86C62.047 331.187 62.6993 331.35 63.176 331.35 63.7267 331.35 64.175 331.19 64.521 330.87 64.8663 330.543 65.039 330.127 65.039 329.62 65.039 328.4 64.1857 327.79 62.479 327.79L62.021 327.79 62.021 327.01 62.426 327C64.0273 327 64.828 326.437 64.828 325.31 64.828 324.423 64.3007 323.98 63.246 323.98 62.668 323.98 62.0313 324.14 61.336 324.46L61.336 323.46C62.0193 323.227 62.6833 323.11 63.328 323.11 65.1013 323.11 65.988 323.78 65.988 325.12 65.988 326.14 65.3847 326.867 64.178 327.3 65.576 327.627 66.275 328.393 66.275 329.6 66.275 330.413 66.0057 331.053 65.467 331.52 64.9277 331.987 64.1873 332.22 63.246 332.22 62.7107 332.22 62.035 332.127 61.219 331.94Z"/></g></g><g clip-path="url(#clip91)"><g stroke="none" fill="#000000" fill-rule="nonzero" fill-opacity="1"><path d="M54.615 275.82 54.615 275.02 59.385 275.02 59.385 275.82ZM60.996 279 60.996 277.99C61.332 277.203 62.0117 276.347 63.035 275.42L63.697 274.83C64.549 274.057 64.975 273.293 64.975 272.54 64.975 272.053 64.8293 271.67 64.538 271.39 64.2473 271.117 63.848 270.98 63.34 270.98 62.7387 270.98 62.0297 271.213 61.213 271.68L61.213 270.66C61.9823 270.293 62.746 270.11 63.504 270.11 64.3167 270.11 64.969 270.33 65.461 270.77 65.953 271.203 66.199 271.783 66.199 272.51 66.199 273.03 66.075 273.49 65.827 273.89 65.579 274.29 65.117 274.78 64.441 275.36L63.996 275.74C63.07 276.52 62.535 277.27 62.391 277.99L66.158 277.99 66.158 279Z"/></g></g><g clip-path="url(#clip92)"><g stroke="none" fill="#000000" fill-rule="nonzero" fill-opacity="1"><path d="M54.615 222.82 54.615 222.02 59.385 222.02 59.385 222.82ZM61.805 226 61.805 225.13 63.539 225.13 63.539 218.29 61.805 218.72 61.805 217.83 64.699 217.11 64.699 225.13 66.434 225.13 66.434 226Z"/></g></g><g clip-path="url(#clip93)"><g stroke="none" fill="#000000" fill-rule="nonzero" fill-opacity="1"><path d="M61.805 120 61.805 119.13 63.539 119.13 63.539 112.29 61.805 112.72 61.805 111.83 64.699 111.11 64.699 119.13 66.434 119.13 66.434 120Z"/></g></g><g clip-path="url(#clip94)"><g stroke="none" fill="#000000" fill-rule="nonzero" fill-opacity="1"><path d="M60.996 66 60.996 64.986C61.332 64.2013 62.0117 63.346 63.035 62.42L63.697 61.828C64.549 61.0587 64.975 60.295 64.975 59.537 64.975 59.053 64.8293 58.6723 64.538 58.395 64.2473 58.1177 63.848 57.979 63.34 57.979 62.7387 57.979 62.0297 58.2113 61.213 58.676L61.213 57.656C61.9823 57.2927 62.746 57.111 63.504 57.111 64.3167 57.111 64.969 57.33 65.461 57.768 65.953 58.2053 66.199 58.7853 66.199 59.508 66.199 60.0273 66.075 60.4883 65.827 60.891 65.579 61.293 65.117 61.781 64.441 62.355L63.996 62.736C63.07 63.5213 62.535 64.2713 62.391 64.986L66.158 64.986 66.158 66Z"/></g></g><g clip-path="url(#clip95)"><g stroke="none" fill="#000000" fill-rule="nonzero" fill-opacity="1"><path d="M63.762 184.22C62.8673 184.22 62.1437 183.797 61.591 182.95 61.0383 182.11 60.762 181.013 60.762 179.66 60.762 178.293 61.0403 177.193 61.597 176.36 62.1537 175.527 62.887 175.11 63.797 175.11 64.707 175.11 65.4403 175.527 65.997 176.36 66.5537 177.193 66.832 178.287 66.832 179.64 66.832 181.033 66.5537 182.143 65.997 182.97 65.4403 183.803 64.6953 184.22 63.762 184.22ZM63.773 183.35C64.9957 183.35 65.607 182.107 65.607 179.62 65.607 177.193 65.0037 175.98 63.797 175.98 62.5937 175.98 61.992 177.207 61.992 179.66 61.992 182.12 62.5857 183.35 63.773 183.35Z"/></g></g><g id="misc"></g><g id="layer0"><clipPath id="clip34cbac73-c314-4333-8134-37185e6730f2"><path d="M0 0 0 408 388 408 388 0Z"/></clipPath><clipPath id="clipa911fc55-e32c-447c-a466-a7292d8c64d2"><path d="M0 0 0 408 388 408 388 0Z"/></clipPath><clipPath id="clip0230909c-0629-46e5-9092-2b1bb37c6505"><path d="M0 0 0 408 388 408 388 0Z"/></clipPath><clipPath id="clipdb4dbad8-f898-4de7-80f3-b16ba6400979"><path d="M0 0 0 408 388 408 388 0Z"/></clipPath><clipPath id="clip7a0a340a-6141-4aae-a2f4-8376793c1518"><path d="M0 0 0 408 388 408 388 0Z"/></clipPath><clipPath id="clip9f81d044-93d5-4722-afaf-ca0e0022335a"><path d="M0 0 0 408 388 408 388 0Z"/></clipPath><clipPath id="clip25fb379d-b0b7-47f2-86ec-52b8fd095298"><path d="M0 0 0 408 388 408 388 0Z"/></clipPath><clipPath id="clipe1a88a84-5500-4428-af68-39c8cbc0463a"><path d="M0 0 0 408 388 408 388 0Z"/></clipPath><clipPath id="clip1acc204b-cd9c-4484-b9b4-450196f6b70f"><path d="M0 0 0 408 388 408 388 0Z"/></clipPath><clipPath id="clipc9b4dfe5-a3fc-454c-aecf-e0311f2926bc"><path d="M0 0 0 408 388 408 388 0Z"/></clipPath><clipPath id="clipd71209d4-7c8a-454d-8f5b-332dcb5870cd"><path d="M0 0 0 408 388 408 388 0Z"/></clipPath><clipPath id="clip137e8329-e7b5-459a-8e03-41f7b6a16bee"><path d="M0 0 0 408 388 408 388 0Z"/></clipPath><clipPath id="clip91e0d40b-c4e4-43d0-9f18-290e8a700734"><path d="M0 0 0 408 388 408 388 0Z"/></clipPath><clipPath id="clipd8cd9255-26a2-458e-96f3-741ad9f28ad1"><path d="M0 0 0 408 388 408 388 0Z"/></clipPath><clipPath id="clip48f84ee9-1978-4b1b-8129-d8c0c648ba2f"><path d="M0 0 0 408 388 408 388 0Z"/></clipPath><clipPath id="clip32f0d94d-1330-43c9-bcf2-368640d3749b"><path d="M0 0 0 408 388 408 388 0Z"/></clipPath><clipPath id="clip02021e8b-f1ba-41c1-8010-81fd800f0865"><path d="M0 0 0 408 388 408 388 0Z"/></clipPath><clipPath id="clip5e5442b0-84dd-4335-bec6-d2a5cf0cc343"><path d="M0 0 0 408 388 408 388 0Z"/></clipPath><clipPath id="clip7932bd74-eefb-4e17-b11e-d6897c04f32d"><path d="M0 0 0 408 388 408 388 0Z"/></clipPath><clipPath id="clip0e49b5db-9b0d-42b3-8ba3-e11e0aca05c3"><path d="M0 0 0 408 388 408 388 0Z"/></clipPath><g clip-path="url(#clip96)"><g stroke="#000000" stroke-width="2.5" stroke-linecap="round" stroke-linejoin="round" stroke-opacity="0.69804" fill="none"><path d="M74.861 274.7 75.781 274.55M75.781 274.55 78.812 273.99M78.812 273.99 81.844 273.39 84.875 272.72M84.875 272.72 87.906 271.99 90.938 271.21 93.969 270.37 97 269.48M97 269.48 100.03 268.52 103.06 267.51 106.09 266.44 109.12 265.31 112.16 264.13 115.19 262.89 118.22 261.59 121.25 260.23 124.28 258.81 127.31 257.34 130.34 255.81 133.38 254.22 136.41 252.58 139.44 250.87 142.47 249.11 145.5 247.29 148.53 245.42 151.56 243.48 154.59 241.49 157.62 239.44 160.66 237.34 163.69 235.17 166.72 232.95 169.75 230.67 172.78 228.34 175.81 225.94 178.84 223.49 181.88 220.98 184.91 218.42 187.94 215.79 190.97 213.11 194 210.37M194 210.37 197.03 207.57 200.06 204.72 203.09 201.8 206.12 198.83 209.16 195.81 212.19 192.72 215.22 189.58 218.25 186.38 221.28 183.12 224.31 179.8 227.34 176.43 230.38 173 233.41 169.51 236.44 165.97 239.47 162.36 242.5 158.7M242.5 158.7 245.53 154.98 248.56 151.21 251.59 147.37 254.62 143.48 257.66 139.53 260.69 135.53 263.72 131.46 266.75 127.34M266.75 127.34 269.78 123.16 272.81 118.92 275.84 114.63 278.88 110.28M278.88 110.28 281.91 105.87 284.94 101.4M284.94 101.4 287.62 97.407"/></g></g><g clip-path="url(#clip97)"><g stroke="#9933FF" stroke-width="2.5" stroke-linecap="round" stroke-linejoin="round" stroke-opacity="0.69804" fill="none"><path d="M74.861 168.33 75.781 170.16M75.781 170.16 78.812 176.2M78.812 176.2 81.844 182.21 84.875 188.18M84.875 188.18 87.906 194.1 90.938 199.99 93.969 205.83 97 211.62M97 211.62 100.03 217.36 103.06 223.04 106.09 228.66 109.12 234.22 112.16 239.72 115.19 245.14 118.22 250.49 121.25 255.77 124.28 260.97 127.31 266.08 130.34 271.11 133.38 276.05 136.41 280.9 139.44 285.66 142.47 290.31 145.5 294.86 148.53 299.31 151.56 303.65 154.59 307.88 157.62 311.99 160.66 315.98 163.69 319.85 166.72 323.6 169.75 327.22 172.78 330.7 175.81 334.06 178.84 337.27 181.88 340.34 184.91 343.27 187.94 346.05 190.97 348.68 194 351.16M194 351.16 197.03 353.47 200.06 355.63 203.09 357.62 206.12 359.44 209.16 361.1 212.19 362.57 215.22 363.87 218.25 365 221.28 365.93 224.31 366.68 227.34 367.24 230.38 367.6 233.41 367.77 236.44 367.74 239.47 367.5 242.5 367.06M242.5 367.06 245.53 366.4 248.56 365.54 251.59 364.45 254.62 363.15 257.66 361.62 260.69 359.86 263.72 357.88 266.75 355.66M266.75 355.66 269.78 353.21 272.81 350.51 275.84 347.57 278.88 344.39M278.88 344.39 281.91 340.96 284.94 337.27M284.94 337.27 287.62 333.8"/></g></g><g clip-path="url(#clip98)"><g stroke="#000000" stroke-width="1.5" stroke-linecap="butt" stroke-linejoin="round" stroke-dasharray="5.5 4" stroke-opacity="0.69804" fill="none"><path d="M74.861 339.71 181.24 339.71"/></g></g><g clip-path="url(#clip99)"><g stroke="#000000" stroke-width="1.5" stroke-linecap="butt" stroke-linejoin="round" stroke-dasharray="5.5 4" stroke-opacity="0.69804" fill="none"><path d="M181.24 339.71 181.24 168.33"/></g></g><g clip-path="url(#clip100)"><g stroke="#000000" stroke-width="1.5" stroke-linecap="butt" stroke-linejoin="round" stroke-dasharray="5.5 4" stroke-opacity="0.69804" fill="none"><path d="M74.861 221.51 181.24 221.51"/></g></g><g clip-path="url(#clip101)"><g stroke="none" fill="#000000" fill-rule="nonzero" fill-opacity="1"><path d="M77.861 274.7C77.861 276.36 76.518 277.7 74.861 277.7 73.205 277.7 71.861 276.36 71.861 274.7 71.861 273.05 73.205 271.7 74.861 271.7 76.518 271.7 77.861 273.05 77.861 274.7Z"/></g></g><g clip-path="url(#clip102)"><g stroke="none" fill="#000000" fill-rule="nonzero" fill-opacity="1"><path d="M290.62 97.407C290.62 99.064 289.27 100.41 287.62 100.41 285.96 100.41 284.62 99.064 284.62 97.407 284.62 95.751 285.96 94.407 287.62 94.407 289.27 94.407 290.62 95.751 290.62 97.407Z"/></g></g><g clip-path="url(#clip103)"><g stroke="none" fill="#000000" fill-rule="nonzero" fill-opacity="1"><path d="M237.43 168.33C237.43 169.98 236.08 171.33 234.43 171.33 232.77 171.33 231.43 169.98 231.43 168.33 231.43 166.67 232.77 165.33 234.43 165.33 236.08 165.33 237.43 166.67 237.43 168.33Z"/></g></g><g clip-path="url(#clip104)"><g stroke="none" fill="#404040" fill-rule="nonzero" fill-opacity="1"><path d="M237.43 168.33C237.43 169.98 236.08 171.33 234.43 171.33 232.77 171.33 231.43 169.98 231.43 168.33 231.43 166.67 232.77 165.33 234.43 165.33 236.08 165.33 237.43 166.67 237.43 168.33Z"/></g></g><g clip-path="url(#clip105)"><g stroke="none" fill="#404040" fill-rule="nonzero" fill-opacity="1"><path d="M77.861 168.33C77.861 169.98 76.518 171.33 74.861 171.33 73.205 171.33 71.861 169.98 71.861 168.33 71.861 166.67 73.205 165.33 74.861 165.33 76.518 165.33 77.861 166.67 77.861 168.33Z"/></g></g><g clip-path="url(#clip106)"><g stroke="none" fill="#404040" fill-rule="nonzero" fill-opacity="1"><path d="M290.62 333.8C290.62 335.46 289.27 336.8 287.62 336.8 285.96 336.8 284.62 335.46 284.62 333.8 284.62 332.14 285.96 330.8 287.62 330.8 289.27 330.8 290.62 332.14 290.62 333.8Z"/></g></g><g clip-path="url(#clip107)"><g stroke="none" fill="#000000" fill-rule="nonzero" fill-opacity="1"><path d="M77.861 339.71C77.861 341.37 76.518 342.71 74.861 342.71 73.205 342.71 71.861 341.37 71.861 339.71 71.861 338.05 73.205 336.71 74.861 336.71 76.518 336.71 77.861 338.05 77.861 339.71Z"/></g></g><g clip-path="url(#clip108)"><g stroke="none" fill="#000000" fill-rule="nonzero" fill-opacity="1"><path d="M184.24 339.71C184.24 341.37 182.9 342.71 181.24 342.71 179.58 342.71 178.24 341.37 178.24 339.71 178.24 338.05 179.58 336.71 181.24 336.71 182.9 336.71 184.24 338.05 184.24 339.71Z"/></g></g><g clip-path="url(#clip109)"><g stroke="none" fill="#000000" fill-rule="nonzero" fill-opacity="1"><path d="M184.24 168.33C184.24 169.98 182.9 171.33 181.24 171.33 179.58 171.33 178.24 169.98 178.24 168.33 178.24 166.67 179.58 165.33 181.24 165.33 182.9 165.33 184.24 166.67 184.24 168.33Z"/></g></g><g clip-path="url(#clip110)"><g stroke="none" fill="#000000" fill-rule="nonzero" fill-opacity="1"><path d="M77.861 221.51C77.861 223.17 76.518 224.51 74.861 224.51 73.205 224.51 71.861 223.17 71.861 221.51 71.861 219.86 73.205 218.51 74.861 218.51 76.518 218.51 77.861 219.86 77.861 221.51Z"/></g></g><g clip-path="url(#clip111)"><g stroke="none" fill="#000000" fill-rule="nonzero" fill-opacity="1"><path d="M184.24 221.51C184.24 223.17 182.9 224.51 181.24 224.51 179.58 224.51 178.24 223.17 178.24 221.51 178.24 219.86 179.58 218.51 181.24 218.51 182.9 218.51 184.24 219.86 184.24 221.51Z"/></g></g><g clip-path="url(#clip112)"><g stroke="none" fill="#000000" fill-rule="nonzero" fill-opacity="1"><path d="M241.45 117.29C239.65 117.29 238.26 116.763 237.28 115.71 236.3 114.65 235.81 113.157 235.81 111.23 235.81 109.303 236.31 107.807 237.31 106.74 238.303 105.68 239.707 105.15 241.52 105.15 242.56 105.15 243.773 105.32 245.16 105.66L245.16 107.2C243.58 106.653 242.36 106.38 241.5 106.38 240.247 106.38 239.277 106.803 238.59 107.65 237.897 108.497 237.55 109.693 237.55 111.24 237.55 112.713 237.92 113.877 238.66 114.73 239.393 115.583 240.393 116.01 241.66 116.01 242.753 116.01 243.927 115.673 245.18 115L245.18 116.41C244.04 116.997 242.797 117.29 241.45 117.29Z"/></g></g><g clip-path="url(#clip113)"><g stroke="none" fill="#000000" fill-rule="nonzero" fill-opacity="1"><path d="M249.02 117.59 249.02 124 247.67 124 247.67 117.59 246.62 117.59 246.62 116.58 247.67 116.58 247.67 115.69C247.67 113.923 248.477 113.04 250.09 113.04 250.543 113.04 251.057 113.113 251.63 113.26L251.63 114.33C251.023 114.143 250.537 114.05 250.17 114.05 249.73 114.05 249.43 114.153 249.27 114.36 249.103 114.573 249.02 114.967 249.02 115.54L249.02 116.58 250.88 116.58 250.88 117.59ZM253.92 115.23 255.35 112.37 256.91 112.37 254.85 115.23Z"/></g></g><g transform="matrix(0.19 0 0 0.19 85 17.189)"><clipPath id="clip9b1e165d-dc8a-43b7-808c-452ba29f6058"><path d="M-447.37-90.468-447.37 2056.9 1594.7 2056.9 1594.7-90.468Z"/></clipPath><g clip-path="url(#clip114)"><g stroke="none" fill="#000000" fill-rule="nonzero" fill-opacity="1"><path d="M48.594-38.094 39 0.09375C37.396 6.63538 33.8283 11.9375 28.297 16 24.2343 19 20 20.5 15.594 20.5 11.1355 20.5 7.96873 18.9687 6.0938 15.906 5.3646 14.6353 5 13.2657 5 11.797 5 8.40107 6.3646 6.30207 9.0938 5.5 9.6354 5.3646 10.1355 5.2969 10.594 5.2969 12.7293 5.2969 13.9323 6.2292 14.203 8.0938 14.2657 8.30207 14.297 8.53643 14.297 8.7969 14.297 10.3283 13.6303 11.698 12.297 12.906 11.3697 13.698 9.93733 14.094 8 14.094 9.19793 16.896 11.7293 18.297 15.594 18.297 19.7293 18.297 23.396 16.198 26.594 12 29.198 8.53127 31.2657 3.83333 32.797-2.0938 32.8697-2.3646 32.9687-2.80207 33.094-3.4062 30.094-0.4062 26.7293 1.0938 23 1.0938 17.6667 1.0938 14.0313-0.869767 12.094-4.7969 11.2293-6.53643 10.797-8.53647 10.797-10.797 10.797-14.4637 12.5627-21.0313 16.094-30.5 16.2293-30.896 16.396-31.3283 16.594-31.797 17.7293-34.8697 18.297-37.203 18.297-38.797 18.297-40.9323 17.4637-42 15.797-42 12.1303-42 9.1303-38.9687 6.7969-32.906L6.7969-32.797C6.40103-31.797 6.03643-30.7293 5.7031-29.594 4.96357-28.4687 4.42713-27.8697 4.0938-27.797 3.30207-27.797 2.9062-28.1303 2.9062-28.797 2.9062-29.995 3.60413-32.094 5-35.094 7.93747-41.1667 11.6355-44.203 16.094-44.203 19.6353-44.203 22.104-42.703 23.5-39.703 24.0313-38.5677 24.297-37.3333 24.297-36 24.297-34.604 23.6303-32.203 22.297-28.797 18.901-19.995 17.203-13.4637 17.203-9.2031 17.203-3.7969 19.2707-1.0938 23.406-1.0938 27.2707-1.0938 30.6353-3.1615 33.5-7.2969 34.1667-8.2969 34.5677-9.06253 34.703-9.5938L39.203-27.594C39.6717-29.802 40.3383-32.4687 41.203-35.594 41.8697-38.4687 42.3333-40.2707 42.594-41 43.4687-42.396 44.6353-43.094 46.094-43.094 47.7607-42.7607 48.7293-41.8647 49-40.406 49-39.802 48.8647-39.0313 48.594-38.094Z"/></g></g></g><g transform="matrix(0.19 0 0 0.19 367 157.44)"><clipPath id="clipd5272fc1-4722-462b-a182-77233240a1e1"><path d="M-1931.6-828.61-1931.6 1318.8 110.53 1318.8 110.53-828.61Z"/></clipPath><g clip-path="url(#clip115)"><g stroke="none" fill="#000000" fill-rule="nonzero" fill-opacity="1"><path d="M26-22.906 46 -0 37.703 -0 22.703-18.797 8.2031 -0 0 -0 19.406-22.906 0.59375-44.406 8.9062-44.406 22.703-27.906 36.094-44.406 44.297-44.406 26-22.906Z"/></g></g></g><g clip-path="url(#clip116)"><g stroke="none" fill="#000000" fill-rule="nonzero" fill-opacity="1"><path d="M261.45 327.29C259.65 327.29 258.26 326.763 257.28 325.71 256.3 324.65 255.81 323.157 255.81 321.23 255.81 319.303 256.31 317.807 257.31 316.74 258.303 315.68 259.707 315.15 261.52 315.15 262.56 315.15 263.773 315.32 265.16 315.66L265.16 317.2C263.58 316.653 262.36 316.38 261.5 316.38 260.247 316.38 259.277 316.803 258.59 317.65 257.897 318.497 257.55 319.693 257.55 321.24 257.55 322.713 257.92 323.877 258.66 324.73 259.393 325.583 260.393 326.01 261.66 326.01 262.753 326.01 263.927 325.673 265.18 325L265.18 326.41C264.04 326.997 262.797 327.29 261.45 327.29Z"/></g></g><g clip-path="url(#clip117)"><g stroke="none" fill="#000000" fill-rule="nonzero" fill-opacity="1"><path d="M269.02 327.59 269.02 334 267.67 334 267.67 327.59 266.62 327.59 266.62 326.58 267.67 326.58 267.67 325.69C267.67 323.923 268.477 323.04 270.09 323.04 270.543 323.04 271.057 323.113 271.63 323.26L271.63 324.33C271.023 324.143 270.537 324.05 270.17 324.05 269.73 324.05 269.43 324.153 269.27 324.36 269.103 324.573 269.02 324.967 269.02 325.54L269.02 326.58 270.88 326.58 270.88 327.59Z"/></g></g><g transform="matrix(0.14 0 0 0.14 41 355.66)"><clipPath id="clip238785d3-84aa-4a2d-9cec-48c6abbd33f8"><path d="M-292.86-2540.4-292.86 373.89 2478.6 373.89 2478.6-2540.4Z"/></clipPath><g clip-path="url(#clip118)"><g stroke="none" fill="#000000" fill-rule="nonzero" fill-opacity="1"><path d="M66.094-23 11.594-23C9.4688-23 8.36977-23.6667 8.2969-25 8.2969-26.3333 9.39593-27 11.594-27L66.094-27C68.2293-27 69.3333-26.3333 69.406-25 69.406-23.6667 68.302-23 66.094-23Z"/></g></g></g><g transform="matrix(0.14 0 0 0.14 55.421 346.18)"><clipPath id="clipbd2ee6a4-5722-4c44-89ef-9e96672a15b2"><path d="M-395.86-2472.7-395.86 441.54 2375.6 441.54 2375.6-2472.7Z"/></clipPath><g clip-path="url(#clip119)"><g stroke="none" fill="#000000" fill-rule="nonzero" fill-opacity="1"><path d="M17.406-18.797 25.094-25.906C27.094-27.9687 28.5783-29.5157 29.547-30.547 30.5157-31.5783 31.6667-33.0287 33-34.898 34.3333-36.768 35.284-38.6013 35.852-40.398 36.4193-42.1953 36.703-44.094 36.703-46.094 36.703-50.2293 35.4037-53.8153 32.805-56.852 30.2057-59.888 26.6717-61.406 22.203-61.406 18.1303-61.406 15.112-60.039 13.148-57.305 11.1847-54.5703 9.56763-50.7707 8.2969-45.906 7.1615-47.5727 6.42713-48.5363 6.0938-48.797 6.03127-48.8697 5.8177-49.156 5.4531-49.656 5.0885-50.156 4.67183-50.7393 4.2031-51.406 7.26563-62.3333 13.7293-67.797 23.594-67.797 30-67.797 35.1537-65.7137 39.055-61.547 42.9557-57.3803 44.906-52.297 44.906-46.297 44.906-43.703 44.3227-41.156 43.156-38.656 41.9893-36.156 40.8723-34.289 39.805-33.055 38.737-31.8203 37.1353-30.1353 35-28 34.3333-27.396 32.849-26.094 30.547-24.094 28.245-22.094 26.7607-20.797 26.094-20.203 25.6353-19.797 23.5207-17.7607 19.75-14.094 15.9793-10.4272 13.4637-8.06253 12.203-7L23.094-7C23.5-7 24.1013-7.01563 24.898-7.0469 25.6953-7.07817 26.297-7.0938 26.703-7.0938L44.906-7.0938 44.906 -0 5 -0 5-6.4062 17.406-18.797Z"/></g></g></g><g transform="matrix(0.14 0 0 0.14 62.421 346.18)"><clipPath id="clip062c60fc-efd3-4871-b06d-adc9978bfdb3"><path d="M-445.86-2472.7-445.86 441.54 2325.6 441.54 2325.6-2472.7Z"/></clipPath><g clip-path="url(#clip120)"><g stroke="none" fill="#000000" fill-rule="nonzero" fill-opacity="1"><path d="M7.2031-2.4062 10.297-7.7031C13.3697-5.17183 16.802-3.9062 20.594-3.9062 24.8647-3.9062 28.5833-5.9558 31.75-10.055 34.9167-14.1537 36.7657-20.0363 37.297-27.703 35.1617-25.0363 32.594-22.987 29.594-21.555 26.594-20.1223 23.5313-19.406 20.406-19.406 15.7393-19.406 11.8722-21.755 8.8047-26.453 5.73697-31.151 4.2031-36.802 4.2031-43.406 4.2031-50.5313 6.36973-56.4273 10.703-61.094 14.901-65.5627 19.7657-67.797 25.297-67.797 27.703-67.797 29.9893-67.297 32.156-66.297 34.3227-65.297 36.4713-63.6147 38.602-61.25 40.732-58.8853 42.448-55.3203 43.75-50.555 45.052-45.789 45.703-40.104 45.703-33.5 45.703-22.9687 43.203-14.3853 38.203-7.75 33.203-1.1146 27.302 2.2031 20.5 2.2031 15.8333 2.2031 11.401 0.666667 7.2031-2.4062ZM37-43.5C36.9373-45.1667 36.7393-46.8673 36.406-48.602 36.0727-50.336 35.539-52.302 34.805-54.5 34.0703-56.698 32.8697-58.4973 31.203-59.898 29.5363-61.2993 27.5677-62 25.297-62 21.2343-62 17.901-60.099 15.297-56.297 13.3697-53.2343 12.406-48.9373 12.406-43.406 12.406-38.198 13.1717-34.2293 14.703-31.5 16.9637-27.5 20.1617-25.5 24.297-25.5 28.099-25.5 31.1823-27.034 33.547-30.102 35.9117-33.1693 37.094-36.8333 37.094-41.094 37.094-42.2293 37.0627-43.0313 37-43.5Z"/></g></g></g><g transform="scale(14 14)"><clipPath id="clip838c5a22-2d1a-401c-bdd1-2369cab17bd9"><path d="M0 0 0 29.143 27.714 29.143 27.714 0Z"/></clipPath><g clip-path="url(#clip121)"><g stroke="none" fill="#000000" fill-rule="nonzero" fill-opacity="1"><path d="M3.9586 25.134 4.9586 25.134 4.9586 25.174 3.9586 25.174 3.9586 25.134Z"/></g></g></g><g transform="matrix(0.14 0 0 0.14 58.921 365.26)"><clipPath id="clip2dba502b-6325-4729-a941-09717a3aacef"><path d="M-420.86-2609-420.86 305.3 2350.6 305.3 2350.6-2609Z"/></clipPath><g clip-path="url(#clip122)"><g stroke="none" fill="#000000" fill-rule="nonzero" fill-opacity="1"><path d="M7.2031-2.4062 10.297-7.7031C13.3697-5.17183 16.802-3.9062 20.594-3.9062 24.8647-3.9062 28.5833-5.9558 31.75-10.055 34.9167-14.1537 36.7657-20.0363 37.297-27.703 35.1617-25.0363 32.594-22.987 29.594-21.555 26.594-20.1223 23.5313-19.406 20.406-19.406 15.7393-19.406 11.8722-21.755 8.8047-26.453 5.73697-31.151 4.2031-36.802 4.2031-43.406 4.2031-50.5313 6.36973-56.4273 10.703-61.094 14.901-65.5627 19.7657-67.797 25.297-67.797 27.703-67.797 29.9893-67.297 32.156-66.297 34.3227-65.297 36.4713-63.6147 38.602-61.25 40.732-58.8853 42.448-55.3203 43.75-50.555 45.052-45.789 45.703-40.104 45.703-33.5 45.703-22.9687 43.203-14.3853 38.203-7.75 33.203-1.1146 27.302 2.2031 20.5 2.2031 15.8333 2.2031 11.401 0.666667 7.2031-2.4062ZM37-43.5C36.9373-45.1667 36.7393-46.8673 36.406-48.602 36.0727-50.336 35.539-52.302 34.805-54.5 34.0703-56.698 32.8697-58.4973 31.203-59.898 29.5363-61.2993 27.5677-62 25.297-62 21.2343-62 17.901-60.099 15.297-56.297 13.3697-53.2343 12.406-48.9373 12.406-43.406 12.406-38.198 13.1717-34.2293 14.703-31.5 16.9637-27.5 20.1617-25.5 24.297-25.5 28.099-25.5 31.1823-27.034 33.547-30.102 35.9117-33.1693 37.094-36.8333 37.094-41.094 37.094-42.2293 37.0627-43.0313 37-43.5Z"/></g></g></g></g></g></svg>