<svg width="1059.69" height="416.28" viewBox="0 0 1337 525" xmlns="http://www.w3.org/2000/svg" xmlns:xlink="http://www.w3.org/1999/xlink" overflow="hidden"><g stroke-linecap="square" stroke-miterlimit="10"><clipPath id="clip6c05f40a-c744-4f80-9a38-7e1b6db381e0"><path d="M0 0 0 526 1339 526 1339 0Z"/></clipPath><clipPath id="clipe1be573e-ec4a-4bd8-a91f-835c7143bd64"><path d="M0 0 0 526 1339 526 1339 0Z"/></clipPath><clipPath id="clipd52dc8f3-3a02-4eab-b294-0fae80c20714"><path d="M0 0 0 526 1339 526 1339 0Z"/></clipPath><clipPath id="clip8cccf576-2e53-4d97-a8ba-f8f722dba79e"><path d="M0 0 0 526 1339 526 1339 0Z"/></clipPath><clipPath id="clip2aac0b1d-3121-4fc6-984d-82e8267253b3"><path d="M0 0 0 526 1339 526 1339 0Z"/></clipPath><clipPath id="clipe5eba2e5-d646-45e4-ab07-804f388db931"><path d="M0 0 0 526 1339 526 1339 0Z"/></clipPath><clipPath id="clip1f87c7ec-eed3-499b-80ae-49caca851b4a"><path d="M0 0 0 526 1339 526 1339 0Z"/></clipPath><clipPath id="clipec2fbfb2-0d21-405c-ba75-fffed723307e"><path d="M0 0 0 526 1339 526 1339 0Z"/></clipPath><g clip-path="url(#clip1)"><g stroke="#000000" stroke-linecap="butt" fill="none"><path d="M1076.8 2 1076.8 526"/></g></g><g clip-path="url(#clip2)"><g stroke="#000000" stroke-linecap="butt" fill="none"><path d="M1076.8 1 1071.8 6"/></g></g><g clip-path="url(#clip3)"><g stroke="#000000" stroke-linecap="butt" fill="none"><path d="M1076.8 1 1081.8 6"/></g></g><g clip-path="url(#clip4)"><g><path d="M1319.1 352 1322.9 346.61 1319.4 341.62 1321.6 341.62 1323.2 344.06C1323.53 344.52 1323.77 344.907 1323.9 345.22 1324.23 344.793 1324.5 344.413 1324.7 344.08L1326.5 341.62 1328.6 341.62 1325 346.52 1328.9 352 1326.7 352 1324.6 348.78 1324 347.91 1321.3 352 1319.1 352Z"/></g></g><g clip-path="url(#clip5)"><g stroke="#000000" stroke-linecap="butt" fill="none"><path d="M0 356.48 1337 356.48"/></g></g><g clip-path="url(#clip6)"><g stroke="#000000" stroke-linecap="butt" fill="none"><path d="M1338 356.48 1333 351.48"/></g></g><g clip-path="url(#clip7)"><g stroke="#000000" stroke-linecap="butt" fill="none"><path d="M1338 356.48 1333 361.48"/></g></g><g clip-path="url(#clip8)"><g><path d="M1082.2 29 1082 27.344C1082.4 27.448 1082.73 27.5 1083 27.5 1083.4 27.5 1083.73 27.435 1084 27.305 1084.2 27.1743 1084.4 26.9947 1084.6 26.766 1084.67 26.5887 1084.83 26.151 1085.1 25.453 1085.17 25.349 1085.23 25.2033 1085.3 25.016L1081.3 14.625 1083.2 14.625 1085.4 20.641C1085.67 21.401 1085.9 22.1977 1086.1 23.031 1086.3 22.229 1086.53 21.4427 1086.8 20.672L1089.1 14.625 1090.8 14.625 1086.9 25.172C1086.43 26.318 1086.1 27.1043 1085.9 27.531 1085.57 28.1143 1085.2 28.539 1084.8 28.805 1084.4 29.0703 1083.93 29.203 1083.4 29.203 1083.07 29.203 1082.67 29.1353 1082.2 29Z"/></g></g><g id="misc"></g><g id="layer0"><clipPath id="clip4c8dcb5e-8960-47fa-89fe-90761af2ddd8"><path d="M0 0 0 526 1339 526 1339 0Z"/></clipPath><clipPath id="clip408e2f34-49d6-410b-ba95-38e35972f60c"><path d="M0 0 0 526 1339 526 1339 0Z"/></clipPath><clipPath id="clip5d944795-a78a-4ac1-8665-73eb56945b4a"><path d="M0 0 0 526 1339 526 1339 0Z"/></clipPath><clipPath id="clip4c8495ba-b69a-4260-a409-010547f5c160"><path d="M0 0 0 526 1339 526 1339 0Z"/></clipPath><clipPath id="clip6c469f43-8d60-4b1f-93b4-127ec08e34a7"><path d="M0 0 0 526 1339 526 1339 0Z"/></clipPath><clipPath id="clip9e6e6031-2665-4d13-bc55-d2dd64549f38"><path d="M0 0 0 526 1339 526 1339 0Z"/></clipPath><clipPath id="clipe8dc041f-ada6-43a9-ac25-c4bafaad607e"><path d="M0 0 0 526 1339 526 1339 0Z"/></clipPath><clipPath id="clipf7539ac9-ce5e-4922-9d1a-5353c3732952"><path d="M0 0 0 526 1339 526 1339 0Z"/></clipPath><clipPath id="clipe31f32ab-3b4a-4bc3-9472-364eca10d6a5"><path d="M0 0 0 526 1339 526 1339 0Z"/></clipPath><clipPath id="clip0edcf3fb-5aad-4e7e-b686-4dc1a90ebdff"><path d="M0 0 0 526 1339 526 1339 0Z"/></clipPath><clipPath id="clipeeda850c-df8f-4972-b6dd-f37cee262fe9"><path d="M0 0 0 526 1339 526 1339 0Z"/></clipPath><g clip-path="url(#clip9)"><g stroke="#000000" stroke-width="3.5" stroke-linecap="round" stroke-linejoin="round" stroke-opacity="0.69804" fill="none"><path d="M957.59-12 958-5.5445 958-5.5445 959 9.6646 959 9.6646 960 24.491 960 24.491 961 38.942 961 38.942 962 53.024 962 53.024 963 66.742 963 66.742 964 80.103 964 80.103 965 93.114 965 93.114 966 105.78 966 105.78 967 118.11 967 118.11 968 130.1 968 130.1 969 141.77 969 141.77 970 153.12 970 153.12 971 164.16 971 164.16 972 174.89 972 174.89 973 185.31 973 185.31 974 195.44 974 195.44 975 205.27 975 205.27 976 214.82 976 214.82 977 224.09 977 224.09 978 233.09 978 233.09 979 241.82 979 241.82 980 250.28 980 250.28 981 258.49 981 258.49 982 266.44 982 266.44 983 274.14 983 274.14 984 281.61 984 281.61 985 288.83 985 288.83 986 295.82 986 295.82 987 302.59 987 302.59 988 309.13 988 309.13 989 315.46 989 315.46 990 321.57 990 321.57 991 327.48 991 327.48 992 333.18 992 333.18 993 338.68 993 338.68 994 344 994 344 995 349.12 995 349.12 996 354.06 996 354.06 997 358.81 997 358.81 998 363.4 998 363.4 999 367.81 999 367.81 1000 372.05 1000 372.05 1001 376.13 1001 376.13 1002 380.06 1002 380.06 1003 383.83 1003 383.83 1004 387.45 1004 387.45 1005 390.92 1005 390.92 1006 394.25 1006 394.25 1007 397.44 1007 397.44 1008 400.5 1008 400.5 1009 403.43 1009 403.43 1010 406.23 1010 406.23 1011 408.91 1011 408.91 1012 411.47 1012 411.47 1013 413.91 1013 413.91 1014 416.25 1014 416.25 1015 418.47 1015 418.47 1016 420.59 1016 420.59 1017 422.6 1017 422.6 1018 424.52 1018 424.52 1019 426.34 1019 426.34 1020 428.07 1020 428.07 1021 429.71 1021 429.71 1022 431.26 1022 431.26 1023 432.74 1023 432.74 1024 434.13 1024 434.13 1025 435.44 1025 435.44 1026 436.69 1026 436.69 1027 437.86 1027 437.86 1028 438.96 1028 438.96 1029 439.99 1029 439.99 1030 440.97 1030 440.97 1031 441.88 1031 441.88 1032 442.73 1032 442.73 1033 443.53 1033 443.53 1034 444.28 1034 444.28 1035 444.98 1035 444.98 1036 445.62 1036 445.62 1037 446.23 1037 446.23 1038 446.78 1038 446.78 1039 447.3 1039 447.3 1040 447.78 1040 447.78 1041 448.22 1041 448.22 1042 448.62 1042 448.62 1043 448.99 1043 448.99 1044 449.33 1044 449.33 1045 449.64 1045 449.64 1046 449.93 1046 449.93 1047 450.18 1047 450.18 1048 450.41 1048 450.41 1049 450.62 1049 450.62 1050 450.81 1050 450.81 1051 450.98 1051 450.98 1052 451.13 1052 451.13 1053 451.26 1053 451.26 1054 451.38 1054 451.38 1055 451.48 1055 451.48 1056 451.57 1056 451.57 1057 451.64 1057 451.64 1058 451.71 1058 451.71 1059 451.77 1059 451.77 1060 451.81 1060 451.81 1061 451.85 1061 451.85 1062 451.89 1062 451.89 1063 451.91 1063 451.91 1064 451.94 1064 451.94 1065 451.95 1065 451.95 1066 451.97 1066 451.97 1067 451.98 1067 451.98 1068 451.98 1068 451.98 1069 451.99 1069 451.99 1070 451.99 1070 451.99 1071 452 1071 452 1072 452 1072 452 1073 452 1073 452 1074 452 1074 452 1075 452 1075 452 1076 452 1076 452 1077 452 1077 452 1078 452 1078 452 1079 452 1079 452 1080 452 1080 452 1081 452 1081 452 1082 452 1082 452 1083 452 1083 452 1084 451.99 1084 451.99 1085 451.99 1085 451.99 1086 451.98 1086 451.98 1087 451.97 1087 451.97 1088 451.96 1088 451.96 1089 451.95 1089 451.95 1090 451.93 1090 451.93 1091 451.91 1091 451.91 1092 451.88 1092 451.88 1093 451.84 1093 451.84 1094 451.8 1094 451.8 1095 451.75 1095 451.75 1096 451.69 1096 451.69 1097 451.62 1097 451.62 1098 451.54 1098 451.54 1099 451.44 1099 451.44 1100 451.34 1100 451.34 1101 451.21 1101 451.21 1102 451.08 1102 451.08 1103 450.92 1103 450.92 1104 450.75 1104 450.75 1105 450.55 1105 450.55 1106 450.34 1106 450.34 1107 450.1 1107 450.1 1108 449.83 1108 449.83 1109 449.54 1109 449.54 1110 449.22 1110 449.22 1111 448.87 1111 448.87 1112 448.48 1112 448.48 1113 448.07 1113 448.07 1114 447.61 1114 447.61 1115 447.12 1115 447.12 1116 446.59 1116 446.59 1117 446.02 1117 446.02 1118 445.4 1118 445.4 1119 444.74 1119 444.74 1120 444.02 1120 444.02 1121 443.26 1121 443.26 1122 442.44 1122 442.44 1123 441.56 1123 441.56 1124 440.63 1124 440.63 1125 439.63 1125 439.63 1126 438.58 1126 438.58 1127 437.45 1127 437.45 1128 436.25 1128 436.25 1129 434.99 1129 434.99 1130 433.65 1130 433.65 1131 432.23 1131 432.23 1132 430.72 1132 430.72 1133 429.14 1133 429.14 1134 427.47 1134 427.47 1135 425.71 1135 425.71 1136 423.85 1136 423.85 1137 421.9 1137 421.9 1138 419.85 1138 419.85 1139 417.69 1139 417.69 1140 415.43 1140 415.43 1141 413.06 1141 413.06 1142 410.58 1142 410.58 1143 407.98 1143 407.98 1144 405.26 1144 405.26 1145 402.41 1145 402.41 1146 399.44 1146 399.44 1147 396.33 1147 396.33 1148 393.09 1148 393.09 1149 389.71 1149 389.71 1150 386.18 1150 386.18 1151 382.51 1151 382.51 1152 378.69 1152 378.69 1153 374.71 1153 374.71 1154 370.57 1154 370.57 1155 366.27 1155 366.27 1156 361.8 1156 361.8 1157 357.15 1157 357.15 1158 352.33 1158 352.33 1159 347.33 1159 347.33 1160 342.14 1160 342.14 1161 336.76 1161 336.76 1162 331.19 1162 331.19 1163 325.41 1163 325.41 1164 319.43 1164 319.43 1165 313.24 1165 313.24 1166 306.84 1166 306.84 1167 300.22 1167 300.22 1168 293.38 1168 293.38 1169 286.3 1169 286.3 1170 278.99 1170 278.99 1171 271.45 1171 271.45 1172 263.65 1172 263.65 1173 255.61 1173 255.61 1174 247.32 1174 247.32 1175 238.76 1175 238.76 1176 229.94 1176 229.94 1177 220.85 1177 220.85 1178 211.48 1178 211.48 1179 201.83 1179 201.83 1180 191.89 1180 191.89 1181 181.66 1181 181.66 1182 171.13 1182 171.13 1183 160.29 1183 160.29 1184 149.15 1184 149.15 1185 137.68 1185 137.68 1186 125.9 1186 125.9 1187 113.79 1187 113.79 1188 101.34 1188 101.34 1189 88.553 1189 88.553 1190 75.419 1190 75.419 1191 61.932 1191 61.932 1192 48.086 1192 48.086 1193 33.875 1193 33.875 1194 19.292 1194 19.292 1195 4.3303 1195 4.3303 1196-11.016 1196-11.016 1196.1-12"/></g></g><g clip-path="url(#clip10)"><g><path d="M899.23 66 899.05 64.344C899.43 64.448 899.763 64.5 900.05 64.5 900.443 64.5 900.757 64.435 900.99 64.305 901.223 64.1743 901.413 63.9947 901.56 63.766 901.673 63.5887 901.857 63.151 902.11 62.453 902.143 62.349 902.197 62.2033 902.27 62.016L898.33 51.625 900.22 51.625 902.38 57.641C902.66 58.401 902.907 59.1977 903.12 60.031 903.333 59.229 903.573 58.4427 903.84 57.672L906.06 51.625 907.83 51.625 903.88 62.172C903.46 63.318 903.13 64.1043 902.89 64.531 902.577 65.1143 902.22 65.539 901.82 65.805 901.42 66.0703 900.94 66.203 900.38 66.203 900.033 66.203 899.65 66.1353 899.23 66ZM918.56 53.578 909.11 53.578 909.11 51.938 918.56 51.938 918.56 53.578ZM918.56 57.922 909.11 57.922 909.11 56.281 918.56 56.281 918.56 57.922ZM921.41 62 921.41 53 919.87 53 919.87 51.625 921.41 51.625 921.41 50.531C921.41 49.833 921.473 49.3123 921.6 48.969 921.767 48.5103 922.063 48.1403 922.49 47.859 922.917 47.5783 923.517 47.438 924.29 47.438 924.79 47.438 925.337 47.495 925.93 47.609L925.66 49.141C925.3 49.0783 924.957 49.047 924.63 49.047 924.103 49.047 923.727 49.1617 923.5 49.391 923.273 49.6197 923.16 50.0467 923.16 50.672L923.16 51.625 925.2 51.625 925.2 53 923.16 53 923.16 62 921.41 62ZM929.91 66.203C928.943 64.9843 928.127 63.5547 927.46 61.914 926.793 60.2733 926.46 58.5727 926.46 56.812 926.46 55.26 926.71 53.7757 927.21 52.359 927.79 50.7137 928.69 49.0733 929.91 47.438L931.17 47.438C930.383 48.792 929.863 49.7607 929.61 50.344 929.217 51.24 928.903 52.1773 928.67 53.156 928.39 54.3747 928.25 55.5987 928.25 56.828 928.25 59.9533 929.223 63.0783 931.17 66.203L929.91 66.203ZM932.04 62 935.83 56.609 932.33 51.625 934.52 51.625 936.12 54.062C936.42 54.5207 936.657 54.9063 936.83 55.219 937.123 54.7917 937.39 54.4113 937.63 54.078L939.38 51.625 941.47 51.625 937.9 56.516 941.76 62 939.6 62 937.46 58.781 936.9 57.906 934.18 62 932.04 62ZM944.37 66.203 943.12 66.203C945.053 63.0783 946.02 59.9533 946.02 56.828 946.02 55.5987 945.887 54.3853 945.62 53.188 945.387 52.2087 945.073 51.271 944.68 50.375 944.427 49.781 943.907 48.802 943.12 47.438L944.37 47.438C945.597 49.0733 946.5 50.7137 947.08 52.359 947.58 53.7757 947.83 55.26 947.83 56.812 947.83 58.5727 947.497 60.2733 946.83 61.914 946.157 63.5547 945.337 64.9843 944.37 66.203Z"/></g></g><g clip-path="url(#clip11)"><g><path d="M1178.3 260.97C1178.3 264.28 1175.7 266.97 1172.3 266.97 1169 266.97 1166.3 264.28 1166.3 260.97 1166.3 257.66 1169 254.97 1172.3 254.97 1175.7 254.97 1178.3 257.66 1178.3 260.97Z"/></g></g><g clip-path="url(#clip12)"><g stroke="#000000" stroke-linecap="round" stroke-linejoin="round" fill="none"><path d="M1178.3 260.97C1178.3 264.28 1175.7 266.97 1172.3 266.97 1169 266.97 1166.3 264.28 1166.3 260.97 1166.3 257.66 1169 254.97 1172.3 254.97 1175.7 254.97 1178.3 257.66 1178.3 260.97Z"/></g></g><g clip-path="url(#clip13)"><g><path d="M1186 268 1191.5 253.69 1193.5 253.69 1199.4 268 1197.2 268 1195.5 263.66 1189.6 263.66 1188 268 1186 268ZM1190.1 262.12 1195 262.12 1193.5 258.16C1193.03 256.947 1192.7 255.957 1192.5 255.19 1192.3 256.103 1192.03 257.013 1191.7 257.92L1190.1 262.12ZM1204 272.2C1203.07 270.987 1202.27 269.557 1201.6 267.91 1200.93 266.27 1200.6 264.57 1200.6 262.81 1200.6 261.257 1200.83 259.773 1201.3 258.36 1201.9 256.713 1202.8 255.073 1204 253.44L1205.3 253.44C1204.5 254.793 1203.97 255.76 1203.7 256.34 1203.3 257.24 1203 258.18 1202.8 259.16 1202.53 260.373 1202.4 261.597 1202.4 262.83 1202.4 265.957 1203.37 269.08 1205.3 272.2L1204 272.2ZM1216.1 266.31 1216.1 268 1206.6 268C1206.6 267.573 1206.67 267.167 1206.8 266.78 1207.07 266.133 1207.47 265.5 1208 264.88 1208.53 264.253 1209.3 263.527 1210.3 262.7 1211.83 261.433 1212.87 260.427 1213.4 259.68 1213.93 258.933 1214.2 258.227 1214.2 257.56 1214.2 256.867 1213.97 256.28 1213.5 255.8 1213.03 255.32 1212.37 255.08 1211.5 255.08 1210.7 255.08 1210.03 255.333 1209.5 255.84 1209.03 256.353 1208.8 257.057 1208.8 257.95L1206.9 257.77C1207.03 256.423 1207.5 255.397 1208.3 254.69 1209.1 253.977 1210.2 253.62 1211.6 253.62 1212.93 253.62 1214 254.003 1214.8 254.77 1215.6 255.53 1216 256.47 1216 257.59 1216 258.163 1215.9 258.73 1215.7 259.29 1215.43 259.843 1215.03 260.427 1214.5 261.04 1213.97 261.647 1213.07 262.487 1211.8 263.56 1210.73 264.447 1210.07 265.047 1209.8 265.36 1209.47 265.673 1209.2 265.99 1209 266.31L1216.1 266.31ZM1218.9 268 1218.9 266 1220.9 266 1220.9 268C1220.9 268.74 1220.77 269.337 1220.5 269.79 1220.23 270.243 1219.83 270.59 1219.3 270.83L1218.8 270.08C1219.13 269.92 1219.4 269.683 1219.6 269.37 1219.8 269.05 1219.9 268.593 1219.9 268L1218.9 268ZM1232.7 266.31 1232.7 268 1223.3 268C1223.3 267.573 1223.37 267.167 1223.5 266.78 1223.77 266.133 1224.13 265.5 1224.6 264.88 1225.13 264.253 1225.9 263.527 1226.9 262.7 1228.5 261.433 1229.57 260.427 1230.1 259.68 1230.63 258.933 1230.9 258.227 1230.9 257.56 1230.9 256.867 1230.67 256.28 1230.2 255.8 1229.67 255.32 1229 255.08 1228.2 255.08 1227.4 255.08 1226.73 255.333 1226.2 255.84 1225.67 256.353 1225.4 257.057 1225.4 257.95L1223.6 257.77C1223.73 256.423 1224.2 255.397 1225 254.69 1225.8 253.977 1226.9 253.62 1228.3 253.62 1229.63 253.62 1230.7 254.003 1231.5 254.77 1232.3 255.53 1232.7 256.47 1232.7 257.59 1232.7 258.163 1232.6 258.73 1232.4 259.29 1232.13 259.843 1231.73 260.427 1231.2 261.04 1230.67 261.647 1229.77 262.487 1228.5 263.56 1227.43 264.447 1226.77 265.047 1226.5 265.36 1226.17 265.673 1225.9 265.99 1225.7 266.31L1232.7 266.31ZM1236.3 272.2 1235 272.2C1236.93 269.08 1237.9 265.957 1237.9 262.83 1237.9 261.597 1237.77 260.383 1237.5 259.19 1237.3 258.21 1237 257.273 1236.6 256.38 1236.33 255.78 1235.8 254.8 1235 253.44L1236.3 253.44C1237.5 255.073 1238.4 256.713 1239 258.36 1239.47 259.773 1239.7 261.257 1239.7 262.81 1239.7 264.57 1239.37 266.27 1238.7 267.91 1238.03 269.557 1237.23 270.987 1236.3 272.2Z"/></g></g><g clip-path="url(#clip14)"><g><path d="M987.31 260.97C987.31 264.28 984.62 266.97 981.31 266.97 978 266.97 975.31 264.28 975.31 260.97 975.31 257.66 978 254.97 981.31 254.97 984.62 254.97 987.31 257.66 987.31 260.97Z"/></g></g><g clip-path="url(#clip15)"><g stroke="#000000" stroke-linecap="round" stroke-linejoin="round" fill="none"><path d="M987.31 260.97C987.31 264.28 984.62 266.97 981.31 266.97 978 266.97 975.31 264.28 975.31 260.97 975.31 257.66 978 254.97 981.31 254.97 984.62 254.97 987.31 257.66 987.31 260.97Z"/></g></g><g clip-path="url(#clip16)"><g><path d="M908.47 267 908.47 252.69 913.84 252.69C914.933 252.69 915.81 252.833 916.47 253.12 917.123 253.407 917.64 253.85 918.02 254.45 918.393 255.057 918.58 255.687 918.58 256.34 918.58 256.96 918.417 257.54 918.09 258.08 917.757 258.62 917.253 259.053 916.58 259.38 917.447 259.64 918.113 260.073 918.58 260.68 919.047 261.287 919.28 262.007 919.28 262.84 919.28 263.52 919.137 264.147 918.85 264.72 918.563 265.293 918.213 265.737 917.8 266.05 917.38 266.363 916.857 266.6 916.23 266.76 915.61 266.92 914.84 267 913.92 267L908.47 267ZM910.36 258.7 913.45 258.7C914.297 258.7 914.903 258.643 915.27 258.53 915.743 258.383 916.103 258.147 916.35 257.82 916.597 257.493 916.72 257.073 916.72 256.56 916.72 256.093 916.607 255.677 916.38 255.31 916.147 254.95 915.82 254.703 915.4 254.57 914.98 254.443 914.253 254.38 913.22 254.38L910.36 254.38 910.36 258.7ZM910.36 265.31 913.92 265.31C914.533 265.31 914.967 265.283 915.22 265.23 915.66 265.157 916.023 265.03 916.31 264.85 916.603 264.67 916.843 264.403 917.03 264.05 917.217 263.703 917.31 263.3 917.31 262.84 917.31 262.313 917.177 261.85 916.91 261.45 916.637 261.057 916.257 260.78 915.77 260.62 915.277 260.467 914.577 260.39 913.67 260.39L910.36 260.39 910.36 265.31ZM925.01 271.2C924.043 269.987 923.227 268.557 922.56 266.91 921.893 265.27 921.56 263.57 921.56 261.81 921.56 260.257 921.81 258.773 922.31 257.36 922.89 255.713 923.79 254.073 925.01 252.44L926.28 252.44C925.487 253.793 924.963 254.76 924.71 255.34 924.317 256.24 924.007 257.18 923.78 258.16 923.5 259.373 923.36 260.597 923.36 261.83 923.36 264.957 924.333 268.08 926.28 271.2L925.01 271.2ZM927.64 262.7 927.64 260.94 933.03 260.94 933.03 262.7 927.64 262.7ZM943.72 265.31 943.72 267 934.27 267C934.257 266.573 934.323 266.167 934.47 265.78 934.71 265.133 935.097 264.5 935.63 263.88 936.163 263.253 936.93 262.527 937.93 261.7 939.49 260.433 940.543 259.427 941.09 258.68 941.637 257.933 941.91 257.227 941.91 256.56 941.91 255.867 941.66 255.28 941.16 254.8 940.66 254.32 940.01 254.08 939.21 254.08 938.363 254.08 937.687 254.333 937.18 254.84 936.667 255.353 936.41 256.057 936.41 256.95L934.6 256.77C934.727 255.423 935.193 254.397 936 253.69 936.807 252.977 937.89 252.62 939.25 252.62 940.617 252.62 941.7 253.003 942.5 253.77 943.307 254.53 943.71 255.47 943.71 256.59 943.71 257.163 943.593 257.73 943.36 258.29 943.12 258.843 942.73 259.427 942.19 260.04 941.65 260.647 940.75 261.487 939.49 262.56 938.423 263.447 937.743 264.047 937.45 264.36 937.15 264.673 936.903 264.99 936.71 265.31L943.72 265.31ZM946.56 267 946.56 265 948.56 265 948.56 267C948.56 267.74 948.43 268.337 948.17 268.79 947.91 269.243 947.5 269.59 946.94 269.83L946.44 269.08C946.813 268.92 947.09 268.683 947.27 268.37 947.443 268.05 947.54 267.593 947.56 267L946.56 267ZM960.4 265.31 960.4 267 950.95 267C950.937 266.573 951.003 266.167 951.15 265.78 951.39 265.133 951.777 264.5 952.31 263.88 952.843 263.253 953.61 262.527 954.61 261.7 956.17 260.433 957.223 259.427 957.77 258.68 958.317 257.933 958.59 257.227 958.59 256.56 958.59 255.867 958.34 255.28 957.84 254.8 957.34 254.32 956.69 254.08 955.89 254.08 955.043 254.08 954.367 254.333 953.86 254.84 953.347 255.353 953.09 256.057 953.09 256.95L951.28 256.77C951.4 255.423 951.867 254.397 952.68 253.69 953.487 252.977 954.57 252.62 955.93 252.62 957.297 252.62 958.38 253.003 959.18 253.77 959.987 254.53 960.39 255.47 960.39 256.59 960.39 257.163 960.273 257.73 960.04 258.29 959.8 258.843 959.41 259.427 958.87 260.04 958.33 260.647 957.43 261.487 956.17 262.56 955.103 263.447 954.423 264.047 954.13 264.36 953.83 264.673 953.583 264.99 953.39 265.31L960.4 265.31ZM963.93 271.2 962.68 271.2C964.62 268.08 965.59 264.957 965.59 261.83 965.59 260.597 965.453 259.383 965.18 258.19 964.953 257.21 964.64 256.273 964.24 255.38 963.993 254.78 963.473 253.8 962.68 252.44L963.93 252.44C965.163 254.073 966.07 255.713 966.65 257.36 967.15 258.773 967.4 260.257 967.4 261.81 967.4 263.57 967.063 265.27 966.39 266.91 965.717 268.557 964.897 269.987 963.93 271.2Z"/></g></g><g clip-path="url(#clip17)"><g><path d="M1082.8 452C1082.8 455.31 1080.1 458 1076.8 458 1073.5 458 1070.8 455.31 1070.8 452 1070.8 448.68 1073.5 446 1076.8 446 1080.1 446 1082.8 448.68 1082.8 452Z"/></g></g><g clip-path="url(#clip18)"><g stroke="#000000" stroke-linecap="round" stroke-linejoin="round" fill="none"><path d="M1082.8 452C1082.8 455.31 1080.1 458 1076.8 458 1073.5 458 1070.8 455.31 1070.8 452 1070.8 448.68 1073.5 446 1076.8 446 1080.1 446 1082.8 448.68 1082.8 452Z"/></g></g><g clip-path="url(#clip19)"><g><path d="M1083.6 463.69 1092.5 463.69 1092.5 465.38 1085.5 465.38 1085.5 478 1083.6 478 1083.6 463.69ZM1097.7 482.2C1096.7 480.987 1095.87 479.557 1095.2 477.91 1094.53 476.27 1094.2 474.57 1094.2 472.81 1094.2 471.257 1094.47 469.773 1095 468.36 1095.6 466.713 1096.5 465.073 1097.7 463.44L1099 463.44C1098.2 464.793 1097.67 465.76 1097.4 466.34 1097 467.24 1096.7 468.18 1096.5 469.16 1096.17 470.373 1096 471.597 1096 472.83 1096 475.957 1097 479.08 1099 482.2L1097.7 482.2ZM1100.5 470.94C1100.5 469.253 1100.67 467.89 1101 466.85 1101.4 465.817 1101.93 465.02 1102.6 464.46 1103.27 463.9 1104.13 463.62 1105.2 463.62 1105.93 463.62 1106.6 463.777 1107.2 464.09 1107.8 464.397 1108.27 464.84 1108.6 465.42 1109 466.007 1109.3 466.717 1109.5 467.55 1109.7 468.39 1109.8 469.52 1109.8 470.94 1109.8 472.613 1109.63 473.967 1109.3 475 1108.97 476.033 1108.47 476.833 1107.8 477.4 1107.13 477.967 1106.27 478.25 1105.2 478.25 1103.8 478.25 1102.7 477.757 1101.9 476.77 1100.97 475.57 1100.5 473.627 1100.5 470.94ZM1102.3 470.94C1102.3 473.293 1102.57 474.857 1103.1 475.63 1103.7 476.41 1104.4 476.8 1105.2 476.8 1106 476.8 1106.67 476.407 1107.2 475.62 1107.73 474.84 1108 473.28 1108 470.94 1108 468.587 1107.73 467.02 1107.2 466.24 1106.67 465.467 1106 465.08 1105.2 465.08 1104.33 465.08 1103.67 465.423 1103.2 466.11 1102.6 466.977 1102.3 468.587 1102.3 470.94ZM1112.6 478 1112.6 476 1114.6 476 1114.6 478C1114.6 478.74 1114.47 479.337 1114.2 479.79 1113.93 480.243 1113.53 480.59 1113 480.83L1112.5 480.08C1112.83 479.92 1113.1 479.683 1113.3 479.37 1113.43 479.05 1113.53 478.593 1113.6 478L1112.6 478ZM1117 473.7 1117 471.94 1122.4 471.94 1122.4 473.7 1117 473.7ZM1133.1 476.31 1133.1 478 1123.6 478C1123.6 477.573 1123.67 477.167 1123.8 476.78 1124.07 476.133 1124.47 475.5 1125 474.88 1125.53 474.253 1126.3 473.527 1127.3 472.7 1128.83 471.433 1129.87 470.427 1130.4 469.68 1131 468.933 1131.3 468.227 1131.3 467.56 1131.3 466.867 1131.03 466.28 1130.5 465.8 1130.03 465.32 1129.4 465.08 1128.6 465.08 1127.73 465.08 1127.03 465.333 1126.5 465.84 1126.03 466.353 1125.8 467.057 1125.8 467.95L1124 467.77C1124.07 466.423 1124.53 465.397 1125.4 464.69 1126.2 463.977 1127.27 463.62 1128.6 463.62 1130 463.62 1131.1 464.003 1131.9 464.77 1132.7 465.53 1133.1 466.47 1133.1 467.59 1133.1 468.163 1132.97 468.73 1132.7 469.29 1132.5 469.843 1132.1 470.427 1131.5 471.04 1130.97 471.647 1130.07 472.487 1128.8 473.56 1127.73 474.447 1127.07 475.047 1126.8 475.36 1126.53 475.673 1126.3 475.99 1126.1 476.31L1133.1 476.31ZM1136.6 482.2 1135.4 482.2C1137.33 479.08 1138.3 475.957 1138.3 472.83 1138.3 471.597 1138.17 470.383 1137.9 469.19 1137.63 468.21 1137.3 467.273 1136.9 466.38 1136.63 465.78 1136.13 464.8 1135.4 463.44L1136.6 463.44C1137.87 465.073 1138.77 466.713 1139.3 468.36 1139.83 469.773 1140.1 471.257 1140.1 472.81 1140.1 474.57 1139.77 476.27 1139.1 477.91 1138.43 479.557 1137.6 480.987 1136.6 482.2Z"/></g></g></g></g></svg>