<svg width="1199.07" height="481.397" viewBox="0 0 1354 543" xmlns="http://www.w3.org/2000/svg" xmlns:xlink="http://www.w3.org/1999/xlink" overflow="hidden"><g stroke-linecap="square" stroke-miterlimit="10"><clipPath id="clipbca5f558-ec00-442d-b941-c3a72fce9a93"><path d="M0 0 0 544 1355 544 1355 0Z"/></clipPath><clipPath id="clip43fb6505-2a24-4184-8cca-0d354c7d76bb"><path d="M0 0 0 544 1355 544 1355 0Z"/></clipPath><clipPath id="clip49250490-53e2-4e73-90c5-0ab884cfc15f"><path d="M0 0 0 544 1355 544 1355 0Z"/></clipPath><clipPath id="clipdc781e40-3bfa-4501-a984-1b98e45b9a13"><path d="M0 0 0 544 1355 544 1355 0Z"/></clipPath><clipPath id="clipe0da9d7f-c896-4bbc-b9b9-c924f898296e"><path d="M0 0 0 544 1355 544 1355 0Z"/></clipPath><clipPath id="clipe2748787-b034-41a9-be7e-9b043ad2eeac"><path d="M0 0 0 544 1355 544 1355 0Z"/></clipPath><clipPath id="clip379169d7-ca75-45e2-af60-41317522eaae"><path d="M0 0 0 544 1355 544 1355 0Z"/></clipPath><clipPath id="clip62b585b4-cefe-4248-894a-6a4a5dee8e4b"><path d="M0 0 0 544 1355 544 1355 0Z"/></clipPath><g clip-path="url(#clip1)"><g stroke="#000000" stroke-linecap="butt" fill="none"><path d="M1086.7 2 1086.7 544"/></g></g><g clip-path="url(#clip2)"><g stroke="#000000" stroke-linecap="butt" fill="none"><path d="M1086.7 1 1081.7 6"/></g></g><g clip-path="url(#clip3)"><g stroke="#000000" stroke-linecap="butt" fill="none"><path d="M1086.7 1 1091.7 6"/></g></g><g clip-path="url(#clip4)"><g><path d="M1335.1 427 1338.9 421.61 1335.4 416.62 1337.6 416.62 1339.2 419.06C1339.53 419.52 1339.77 419.907 1339.9 420.22 1340.23 419.793 1340.5 419.413 1340.7 419.08L1342.5 416.62 1344.6 416.62 1341 421.52 1344.9 427 1342.7 427 1340.6 423.78 1340 422.91 1337.3 427 1335.1 427Z"/></g></g><g clip-path="url(#clip5)"><g stroke="#000000" stroke-linecap="butt" fill="none"><path d="M0 431.21 1353 431.21"/></g></g><g clip-path="url(#clip6)"><g stroke="#000000" stroke-linecap="butt" fill="none"><path d="M1354 431.21 1349 426.21"/></g></g><g clip-path="url(#clip7)"><g stroke="#000000" stroke-linecap="butt" fill="none"><path d="M1354 431.21 1349 436.21"/></g></g><g clip-path="url(#clip8)"><g><path d="M1092.2 29 1092 27.344C1092.4 27.448 1092.73 27.5 1093 27.5 1093.4 27.5 1093.73 27.435 1094 27.305 1094.2 27.1743 1094.4 26.9947 1094.6 26.766 1094.67 26.5887 1094.83 26.151 1095.1 25.453 1095.17 25.349 1095.23 25.2033 1095.3 25.016L1091.3 14.625 1093.2 14.625 1095.4 20.641C1095.67 21.401 1095.9 22.1977 1096.1 23.031 1096.3 22.229 1096.53 21.4427 1096.8 20.672L1099.1 14.625 1100.8 14.625 1096.9 25.172C1096.43 26.318 1096.1 27.1043 1095.9 27.531 1095.57 28.1143 1095.2 28.539 1094.8 28.805 1094.4 29.0703 1093.93 29.203 1093.4 29.203 1093.07 29.203 1092.67 29.1353 1092.2 29Z"/></g></g><g id="misc"></g><g id="layer0"><clipPath id="clipb7df1a2c-d74f-474f-a595-92cdc10e9fc7"><path d="M0 0 0 544 1355 544 1355 0Z"/></clipPath><clipPath id="clip055d9602-8fd0-40f5-9f44-d441bd9c6d59"><path d="M0 0 0 544 1355 544 1355 0Z"/></clipPath><g clip-path="url(#clip9)"><g stroke="#000000" stroke-width="3.5" stroke-linecap="round" stroke-linejoin="round" stroke-opacity="0.69804" fill="none"><path d="M955.38-8.6037 956.7-3.3107 958.03 1.9822 959.35 7.2752 960.67 12.568 962 17.861 963.32 23.154 964.64 28.447 965.97 33.74 967.29 39.033 968.61 44.326 969.94 49.619 971.26 54.912 972.58 60.205 973.91 65.498 975.23 70.791 976.55 76.084 977.88 81.377 979.2 86.67 980.52 91.963 981.85 97.256 983.17 102.55 984.49 107.84 985.82 113.13 987.14 118.43 988.46 123.72 989.79 129.01 991.11 134.31 992.43 139.6 993.75 144.89 995.08 150.19 996.4 155.48 997.72 160.77 999.05 166.06 1000.4 171.36 1001.7 176.65 1003 181.94 1004.3 187.24 1005.7 192.53 1007 197.82 1008.3 203.12 1009.6 208.41 1011 213.7 1012.3 218.99 1013.6 224.29 1014.9 229.58 1016.2 234.87 1017.6 240.17 1018.9 245.46 1020.2 250.75 1021.5 256.04 1022.9 261.34 1024.2 266.63 1025.5 271.92 1026.8 277.22 1028.2 282.51 1029.5 287.8 1030.8 293.1 1032.1 298.39 1033.5 303.68 1034.8 308.97 1036.1 314.27 1037.4 319.56 1038.7 324.85 1040.1 330.15 1041.4 335.44 1042.7 340.73 1044 346.03 1045.4 351.32 1046.7 356.61 1048 361.9 1049.3 367.2 1050.7 372.49 1052 377.78 1053.3 383.08 1054.6 388.37 1055.9 393.66 1057.3 398.95 1058.6 404.25 1059.9 409.54 1061.2 414.83 1062.6 420.13 1063.9 425.42 1065.2 430.71 1066.5 436.01 1067.9 441.3 1069.2 446.59 1070.5 451.88 1071.8 457.18 1073.1 462.47 1074.5 467.76 1075.8 473.06 1077.1 478.35 1078.4 483.64 1079.8 488.94 1081.1 494.23 1082.4 499.52 1083.7 504.81 1085.1 510.11 1086.4 515.4 1086.7 516.54 1086.9 515.88 1087 515.22 1087.7 512.57 1089 507.28 1090.4 501.99 1091.7 496.69 1093 491.4 1094.3 486.11 1095.6 480.82 1097 475.52 1098.3 470.23 1099.6 464.94 1100.9 459.64 1102.3 454.35 1103.6 449.06 1104.9 443.76 1106.2 438.47 1107.6 433.18 1108.9 427.89 1110.2 422.59 1111.5 417.3 1112.8 412.01 1114.2 406.71 1115.5 401.42 1116.8 396.13 1118.1 390.84 1119.5 385.54 1120.8 380.25 1122.1 374.96 1123.4 369.66 1124.8 364.37 1126.1 359.08 1127.4 353.78 1128.7 348.49 1130 343.2 1131.4 337.91 1132.7 332.61 1134 327.32 1135.3 322.03 1136.7 316.73 1138 311.44 1139.3 306.15 1140.6 300.85 1142 295.56 1143.3 290.27 1144.6 284.98 1145.9 279.68 1147.3 274.39 1148.6 269.1 1149.9 263.8 1151.2 258.51 1152.5 253.22 1153.9 247.92 1155.2 242.63 1156.5 237.34 1157.8 232.05 1159.2 226.75 1160.5 221.46 1161.8 216.17 1163.1 210.87 1164.5 205.58 1165.8 200.29 1167.1 195 1168.4 189.7 1169.7 184.41 1171.1 179.12 1172.4 173.82 1173.7 168.53 1175 163.24 1176.4 157.94 1177.7 152.65 1179 147.36 1180.3 142.07 1181.7 136.77 1183 131.48 1184.3 126.19 1185.6 120.89 1186.9 115.6 1188.3 110.31 1189.6 105.01 1190.9 99.722 1192.2 94.429 1193.6 89.136 1194.9 83.843 1196.2 78.55 1197.5 73.257 1198.9 67.964 1200.2 62.671 1201.5 57.378 1202.8 52.085 1204.2 46.792 1205.5 41.499 1206.8 36.206 1208.1 30.913 1209.4 25.62 1210.8 20.327 1212.1 15.034 1213.4 9.7414 1214.7 4.4484 1216.1-0.84457 1217.4-6.1375"/></g></g><g clip-path="url(#clip10)"><g><path d="M906.23 65 906.05 63.344C906.43 63.448 906.763 63.5 907.05 63.5 907.443 63.5 907.757 63.435 907.99 63.305 908.223 63.1743 908.413 62.9947 908.56 62.766 908.673 62.5887 908.857 62.151 909.11 61.453 909.143 61.349 909.197 61.2033 909.27 61.016L905.33 50.625 907.22 50.625 909.38 56.641C909.66 57.401 909.907 58.1977 910.12 59.031 910.333 58.229 910.573 57.4427 910.84 56.672L913.06 50.625 914.83 50.625 910.88 61.172C910.46 62.318 910.13 63.1043 909.89 63.531 909.577 64.1143 909.22 64.539 908.82 64.805 908.42 65.0703 907.94 65.203 907.38 65.203 907.033 65.203 906.65 65.1353 906.23 65ZM925.56 52.578 916.11 52.578 916.11 50.938 925.56 50.938 925.56 52.578ZM925.56 56.922 916.11 56.922 916.11 55.281 925.56 55.281 925.56 56.922ZM928.41 61 928.41 52 926.87 52 926.87 50.625 928.41 50.625 928.41 49.531C928.41 48.833 928.473 48.3123 928.6 47.969 928.767 47.5103 929.063 47.1403 929.49 46.859 929.917 46.5783 930.517 46.438 931.29 46.438 931.79 46.438 932.337 46.495 932.93 46.609L932.66 48.141C932.3 48.0783 931.957 48.047 931.63 48.047 931.103 48.047 930.727 48.1617 930.5 48.391 930.273 48.6197 930.16 49.0467 930.16 49.672L930.16 50.625 932.2 50.625 932.2 52 930.16 52 930.16 61 928.41 61ZM933.56 51.75 933.11 49.078 933.11 46.688 935.11 46.688 935.11 49.078 934.64 51.75 933.56 51.75ZM940.73 65.203C939.757 63.9843 938.937 62.5547 938.27 60.914 937.603 59.2733 937.27 57.5727 937.27 55.812 937.27 54.26 937.52 52.7757 938.02 51.359 938.607 49.7137 939.51 48.0733 940.73 46.438L941.99 46.438C941.197 47.792 940.677 48.7607 940.43 49.344 940.037 50.24 939.723 51.1773 939.49 52.156 939.21 53.3747 939.07 54.5987 939.07 55.828 939.07 58.9533 940.043 62.0783 941.99 65.203L940.73 65.203ZM942.86 61 946.65 55.609 943.15 50.625 945.34 50.625 946.93 53.062C947.237 53.5207 947.477 53.9063 947.65 54.219 947.943 53.7917 948.21 53.4113 948.45 53.078L950.2 50.625 952.29 50.625 948.71 55.516 952.57 61 950.42 61 948.28 57.781 947.71 56.906 945 61 942.86 61ZM955.18 65.203 953.93 65.203C955.87 62.0783 956.84 58.9533 956.84 55.828 956.84 54.5987 956.703 53.3853 956.43 52.188 956.203 51.2087 955.893 50.271 955.5 49.375 955.247 48.781 954.723 47.802 953.93 46.438L955.18 46.438C956.413 48.0733 957.32 49.7137 957.9 51.359 958.4 52.7757 958.65 54.26 958.65 55.812 958.65 57.5727 958.313 59.2733 957.64 60.914 956.973 62.5547 956.153 63.9843 955.18 65.203Z"/></g></g></g><g id="layer2"><clipPath id="clip723b40b7-d86e-420f-a858-7ae198871419"><path d="M0 0 0 544 1355 544 1355 0Z"/></clipPath><clipPath id="clip0cce8d65-0296-4f0e-bb51-6f0fdab0adbc"><path d="M0 0 0 544 1355 544 1355 0Z"/></clipPath><clipPath id="clipb37cef78-8113-488a-9c8d-ed48b43a2055"><path d="M0 0 0 544 1355 544 1355 0Z"/></clipPath><clipPath id="clip176e9d1a-ad6f-42a3-9bed-eac495bf6f91"><path d="M0 0 0 544 1355 544 1355 0Z"/></clipPath><clipPath id="clipe2a23c7d-f3eb-46e4-a77c-938b3795a371"><path d="M0 0 0 544 1355 544 1355 0Z"/></clipPath><clipPath id="clip7c9ab9b4-5e23-4734-8845-10701560b710"><path d="M0 0 0 544 1355 544 1355 0Z"/></clipPath><clipPath id="clipd0fa0f87-8813-4396-8096-8b6a5096d219"><path d="M0 0 0 544 1355 544 1355 0Z"/></clipPath><clipPath id="clip44939eda-8d57-4bcd-afc1-cbcd4409390f"><path d="M0 0 0 544 1355 544 1355 0Z"/></clipPath><clipPath id="clip422c66d8-eac0-4913-b8a4-e95ca90a7a44"><path d="M0 0 0 544 1355 544 1355 0Z"/></clipPath><clipPath id="clip52d6cb0c-cebf-4514-b18c-0f129e84db5d"><path d="M0 0 0 544 1355 544 1355 0Z"/></clipPath><clipPath id="clipf61e12b0-a3de-4626-894c-d7c89aa6f5cc"><path d="M0 0 0 544 1355 544 1355 0Z"/></clipPath><clipPath id="clipb83ca54a-a116-4079-a8f0-8c261e250e35"><path d="M0 0 0 544 1355 544 1355 0Z"/></clipPath><g clip-path="url(#clip11)"><g><path d="M1090.7 516.63C1090.7 518.84 1088.9 520.63 1086.7 520.63 1084.5 520.63 1082.7 518.84 1082.7 516.63 1082.7 514.42 1084.5 512.63 1086.7 512.63 1088.9 512.63 1090.7 514.42 1090.7 516.63Z"/></g></g><g clip-path="url(#clip12)"><g stroke="#000000" stroke-linecap="round" stroke-linejoin="round" fill="none"><path d="M1090.7 516.63C1090.7 518.84 1088.9 520.63 1086.7 520.63 1084.5 520.63 1082.7 518.84 1082.7 516.63 1082.7 514.42 1084.5 512.63 1086.7 512.63 1088.9 512.63 1090.7 514.42 1090.7 516.63Z"/></g></g><g clip-path="url(#clip13)"><g><path d="M1097 526 1102.5 511.69 1104.5 511.69 1110.4 526 1108.2 526 1106.5 521.66 1100.6 521.66 1099 526 1097 526ZM1101.1 520.12 1106 520.12 1104.5 516.16C1104.03 514.947 1103.7 513.957 1103.5 513.19 1103.3 514.103 1103.03 515.013 1102.7 515.92L1101.1 520.12ZM1115 530.2C1114.07 528.987 1113.27 527.557 1112.6 525.91 1111.93 524.27 1111.6 522.57 1111.6 520.81 1111.6 519.257 1111.83 517.773 1112.3 516.36 1112.9 514.713 1113.8 513.073 1115 511.44L1116.3 511.44C1115.5 512.793 1114.97 513.76 1114.7 514.34 1114.3 515.24 1114 516.18 1113.8 517.16 1113.53 518.373 1113.4 519.597 1113.4 520.83 1113.4 523.957 1114.37 527.08 1116.3 530.2L1115 530.2ZM1117.8 518.94C1117.8 517.253 1118 515.89 1118.4 514.85 1118.73 513.817 1119.23 513.02 1119.9 512.46 1120.57 511.9 1121.43 511.62 1122.5 511.62 1123.3 511.62 1123.97 511.777 1124.5 512.09 1125.1 512.397 1125.6 512.84 1126 513.42 1126.33 514.007 1126.6 514.717 1126.8 515.55 1127.07 516.39 1127.2 517.52 1127.2 518.94 1127.2 520.613 1127 521.967 1126.6 523 1126.27 524.033 1125.77 524.833 1125.1 525.4 1124.43 525.967 1123.57 526.25 1122.5 526.25 1121.1 526.25 1120 525.757 1119.2 524.77 1118.27 523.57 1117.8 521.627 1117.8 518.94ZM1119.6 518.94C1119.6 521.293 1119.9 522.857 1120.5 523.63 1121.03 524.41 1121.7 524.8 1122.5 524.8 1123.3 524.8 1123.97 524.407 1124.5 523.62 1125.1 522.84 1125.4 521.28 1125.4 518.94 1125.4 516.587 1125.1 515.02 1124.5 514.24 1123.97 513.467 1123.3 513.08 1122.5 513.08 1121.7 513.08 1121.03 513.423 1120.5 514.11 1119.9 514.977 1119.6 516.587 1119.6 518.94ZM1129.9 526 1129.9 524 1131.9 524 1131.9 526C1131.9 526.74 1131.77 527.337 1131.5 527.79 1131.23 528.243 1130.83 528.59 1130.3 528.83L1129.8 528.08C1130.13 527.92 1130.4 527.683 1130.6 527.37 1130.8 527.05 1130.9 526.593 1130.9 526L1129.9 526ZM1139.9 521.7 1139.9 519.94 1145.3 519.94 1145.3 521.7 1139.9 521.7ZM1156 524.31 1156 526 1146.5 526C1146.5 525.573 1146.57 525.167 1146.7 524.78 1146.97 524.133 1147.37 523.5 1147.9 522.88 1148.43 522.253 1149.2 521.527 1150.2 520.7 1151.73 519.433 1152.77 518.427 1153.3 517.68 1153.83 516.933 1154.1 516.227 1154.1 515.56 1154.1 514.867 1153.87 514.28 1153.4 513.8 1152.87 513.32 1152.2 513.08 1151.4 513.08 1150.6 513.08 1149.93 513.333 1149.4 513.84 1148.87 514.353 1148.6 515.057 1148.6 515.95L1146.8 515.77C1146.93 514.423 1147.4 513.397 1148.2 512.69 1149 511.977 1150.1 511.62 1151.5 511.62 1152.83 511.62 1153.9 512.003 1154.7 512.77 1155.5 513.53 1155.9 514.47 1155.9 515.59 1155.9 516.163 1155.8 516.73 1155.6 517.29 1155.33 517.843 1154.93 518.427 1154.4 519.04 1153.87 519.647 1152.97 520.487 1151.7 521.56 1150.63 522.447 1149.97 523.047 1149.7 523.36 1149.37 523.673 1149.1 523.99 1148.9 524.31L1156 524.31ZM1159.5 530.2 1158.2 530.2C1160.13 527.08 1161.1 523.957 1161.1 520.83 1161.1 519.597 1160.97 518.383 1160.7 517.19 1160.5 516.21 1160.2 515.273 1159.8 514.38 1159.53 513.78 1159 512.8 1158.2 511.44L1159.5 511.44C1160.7 513.073 1161.6 514.713 1162.2 516.36 1162.73 517.773 1163 519.257 1163 520.81 1163 522.57 1162.63 524.27 1161.9 525.91 1161.23 527.557 1160.43 528.987 1159.5 530.2Z"/></g></g><g clip-path="url(#clip14)"><g><path d="M1048 345.79C1048 348 1046.2 349.79 1044 349.79 1041.8 349.79 1040 348 1040 345.79 1040 343.58 1041.8 341.79 1044 341.79 1046.2 341.79 1048 343.58 1048 345.79Z"/></g></g><g clip-path="url(#clip15)"><g stroke="#000000" stroke-linecap="round" stroke-linejoin="round" fill="none"><path d="M1048 345.79C1048 348 1046.2 349.79 1044 349.79 1041.8 349.79 1040 348 1040 345.79 1040 343.58 1041.8 341.79 1044 341.79 1046.2 341.79 1048 343.58 1048 345.79Z"/></g></g><g clip-path="url(#clip16)"><g><path d="M970.61 335.69 979.55 335.69 979.55 337.38 972.5 337.38 972.5 350 970.61 350 970.61 335.69ZM984.69 354.2C983.717 352.987 982.897 351.557 982.23 349.91 981.563 348.27 981.23 346.57 981.23 344.81 981.23 343.257 981.48 341.773 981.98 340.36 982.567 338.713 983.47 337.073 984.69 335.44L985.95 335.44C985.163 336.793 984.643 337.76 984.39 338.34 983.997 339.24 983.683 340.18 983.45 341.16 983.17 342.373 983.03 343.597 983.03 344.83 983.03 347.957 984.003 351.08 985.95 354.2L984.69 354.2ZM987.32 345.7 987.32 343.94 992.71 343.94 992.71 345.7 987.32 345.7ZM1000.8 350 999.02 350 999.02 338.8C998.607 339.207 998.057 339.61 997.37 340.01 996.683 340.41 996.063 340.713 995.51 340.92L995.51 339.22C996.497 338.76 997.357 338.2 998.09 337.54 998.83 336.88 999.35 336.24 999.65 335.62L1000.8 335.62 1000.8 350ZM1006.2 350 1006.2 348 1008.2 348 1008.2 350C1008.2 350.74 1008.07 351.337 1007.8 351.79 1007.6 352.243 1007.2 352.59 1006.6 352.83L1006.1 352.08C1006.5 351.92 1006.77 351.683 1006.9 351.37 1007.1 351.05 1007.2 350.593 1007.2 350L1006.2 350ZM1025.6 348.31 1025.6 350 1016.2 350C1016.2 349.573 1016.27 349.167 1016.4 348.78 1016.6 348.133 1016.97 347.5 1017.5 346.88 1018.03 346.253 1018.8 345.527 1019.8 344.7 1021.4 343.433 1022.47 342.427 1023 341.68 1023.53 340.933 1023.8 340.227 1023.8 339.56 1023.8 338.867 1023.57 338.28 1023.1 337.8 1022.57 337.32 1021.9 337.08 1021.1 337.08 1020.3 337.08 1019.63 337.333 1019.1 337.84 1018.57 338.353 1018.3 339.057 1018.3 339.95L1016.5 339.77C1016.63 338.423 1017.1 337.397 1017.9 336.69 1018.7 335.977 1019.8 335.62 1021.2 335.62 1022.53 335.62 1023.6 336.003 1024.4 336.77 1025.2 337.53 1025.6 338.47 1025.6 339.59 1025.6 340.163 1025.5 340.73 1025.3 341.29 1025.03 341.843 1024.63 342.427 1024.1 343.04 1023.57 343.647 1022.67 344.487 1021.4 345.56 1020.33 346.447 1019.67 347.047 1019.4 347.36 1019.07 347.673 1018.8 347.99 1018.6 348.31L1025.6 348.31ZM1029.2 354.2 1027.9 354.2C1029.83 351.08 1030.8 347.957 1030.8 344.83 1030.8 343.597 1030.67 342.383 1030.4 341.19 1030.2 340.21 1029.9 339.273 1029.5 338.38 1029.23 337.78 1028.7 336.8 1027.9 335.44L1029.2 335.44C1030.4 337.073 1031.3 338.713 1031.9 340.36 1032.37 341.773 1032.6 343.257 1032.6 344.81 1032.6 346.57 1032.27 348.27 1031.6 349.91 1030.93 351.557 1030.13 352.987 1029.2 354.2Z"/></g></g><g clip-path="url(#clip17)"><g><path d="M1133.4 345.79C1133.4 348 1131.6 349.79 1129.4 349.79 1127.2 349.79 1125.4 348 1125.4 345.79 1125.4 343.58 1127.2 341.79 1129.4 341.79 1131.6 341.79 1133.4 343.58 1133.4 345.79Z"/></g></g><g clip-path="url(#clip18)"><g stroke="#000000" stroke-linecap="round" stroke-linejoin="round" fill="none"><path d="M1133.4 345.79C1133.4 348 1131.6 349.79 1129.4 349.79 1127.2 349.79 1125.4 348 1125.4 345.79 1125.4 343.58 1127.2 341.79 1129.4 341.79 1131.6 341.79 1133.4 343.58 1133.4 345.79Z"/></g></g><g clip-path="url(#clip19)"><g><path d="M1142.5 350 1142.5 335.69 1147.8 335.69C1148.93 335.69 1149.83 335.833 1150.5 336.12 1151.17 336.407 1151.67 336.85 1152 337.45 1152.4 338.057 1152.6 338.687 1152.6 339.34 1152.6 339.96 1152.43 340.54 1152.1 341.08 1151.77 341.62 1151.27 342.053 1150.6 342.38 1151.47 342.64 1152.13 343.073 1152.6 343.68 1153.07 344.287 1153.3 345.007 1153.3 345.84 1153.3 346.52 1153.17 347.147 1152.9 347.72 1152.57 348.293 1152.2 348.737 1151.8 349.05 1151.4 349.363 1150.87 349.6 1150.2 349.76 1149.6 349.92 1148.83 350 1147.9 350L1142.5 350ZM1144.4 341.7 1147.5 341.7C1148.3 341.7 1148.9 341.643 1149.3 341.53 1149.77 341.383 1150.13 341.147 1150.4 340.82 1150.6 340.493 1150.7 340.073 1150.7 339.56 1150.7 339.093 1150.6 338.677 1150.4 338.31 1150.13 337.95 1149.8 337.703 1149.4 337.57 1149 337.443 1148.27 337.38 1147.2 337.38L1144.4 337.38 1144.4 341.7ZM1144.4 348.31 1147.9 348.31C1148.5 348.31 1148.93 348.283 1149.2 348.23 1149.67 348.157 1150.03 348.03 1150.3 347.85 1150.63 347.67 1150.87 347.403 1151 347.05 1151.2 346.703 1151.3 346.3 1151.3 345.84 1151.3 345.313 1151.17 344.85 1150.9 344.45 1150.63 344.057 1150.27 343.78 1149.8 343.62 1149.27 343.467 1148.57 343.39 1147.7 343.39L1144.4 343.39 1144.4 348.31ZM1159 354.2C1158.07 352.987 1157.27 351.557 1156.6 349.91 1155.93 348.27 1155.6 346.57 1155.6 344.81 1155.6 343.257 1155.83 341.773 1156.3 340.36 1156.9 338.713 1157.8 337.073 1159 335.44L1160.3 335.44C1159.5 336.793 1158.97 337.76 1158.7 338.34 1158.3 339.24 1158 340.18 1157.8 341.16 1157.53 342.373 1157.4 343.597 1157.4 344.83 1157.4 347.957 1158.37 351.08 1160.3 354.2L1159 354.2ZM1168.5 350 1166.7 350 1166.7 338.8C1166.3 339.207 1165.73 339.61 1165 340.01 1164.33 340.41 1163.73 340.713 1163.2 340.92L1163.2 339.22C1164.2 338.76 1165.07 338.2 1165.8 337.54 1166.53 336.88 1167.03 336.24 1167.3 335.62L1168.5 335.62 1168.5 350ZM1173.9 350 1173.9 348 1175.9 348 1175.9 350C1175.9 350.74 1175.77 351.337 1175.5 351.79 1175.23 352.243 1174.83 352.59 1174.3 352.83L1173.8 352.08C1174.13 351.92 1174.4 351.683 1174.6 351.37 1174.8 351.05 1174.9 350.593 1174.9 350L1173.9 350ZM1193.3 348.31 1193.3 350 1183.8 350C1183.8 349.573 1183.87 349.167 1184 348.78 1184.27 348.133 1184.67 347.5 1185.2 346.88 1185.73 346.253 1186.5 345.527 1187.5 344.7 1189.03 343.433 1190.1 342.427 1190.7 341.68 1191.23 340.933 1191.5 340.227 1191.5 339.56 1191.5 338.867 1191.23 338.28 1190.7 337.8 1190.23 337.32 1189.6 337.08 1188.8 337.08 1187.93 337.08 1187.27 337.333 1186.8 337.84 1186.27 338.353 1186 339.057 1186 339.95L1184.2 339.77C1184.33 338.423 1184.8 337.397 1185.6 336.69 1186.4 335.977 1187.47 335.62 1188.8 335.62 1190.2 335.62 1191.3 336.003 1192.1 336.77 1192.9 337.53 1193.3 338.47 1193.3 339.59 1193.3 340.163 1193.17 340.73 1192.9 341.29 1192.7 341.843 1192.33 342.427 1191.8 343.04 1191.27 343.647 1190.37 344.487 1189.1 345.56 1188.03 346.447 1187.33 347.047 1187 347.36 1186.73 347.673 1186.5 347.99 1186.3 348.31L1193.3 348.31ZM1196.8 354.2 1195.6 354.2C1197.53 351.08 1198.5 347.957 1198.5 344.83 1198.5 343.597 1198.37 342.383 1198.1 341.19 1197.83 340.21 1197.5 339.273 1197.1 338.38 1196.9 337.78 1196.4 336.8 1195.6 335.44L1196.8 335.44C1198.07 337.073 1198.97 338.713 1199.5 340.36 1200.03 341.773 1200.3 343.257 1200.3 344.81 1200.3 346.57 1199.97 348.27 1199.3 349.91 1198.63 351.557 1197.8 352.987 1196.8 354.2Z"/></g></g><g clip-path="url(#clip20)"><g fill="#444444"><path d="M1090.7 431.21C1090.7 433.42 1088.9 435.21 1086.7 435.21 1084.5 435.21 1082.7 433.42 1082.7 431.21 1082.7 429 1084.5 427.21 1086.7 427.21 1088.9 427.21 1090.7 429 1090.7 431.21Z"/></g></g><g clip-path="url(#clip21)"><g stroke="#000000" stroke-linecap="round" stroke-linejoin="round" fill="none"><path d="M1090.7 431.21C1090.7 433.42 1088.9 435.21 1086.7 435.21 1084.5 435.21 1082.7 433.42 1082.7 431.21 1082.7 429 1084.5 427.21 1086.7 427.21 1088.9 427.21 1090.7 429 1090.7 431.21Z"/></g></g><g clip-path="url(#clip22)"><g fill="#444444"><path d="M1091.8 412.94C1091.8 411.253 1092 409.89 1092.4 408.85 1092.73 407.817 1093.23 407.02 1093.9 406.46 1094.57 405.9 1095.43 405.62 1096.5 405.62 1097.3 405.62 1097.97 405.777 1098.5 406.09 1099.1 406.397 1099.6 406.84 1100 407.42 1100.33 408.007 1100.6 408.717 1100.8 409.55 1101.07 410.39 1101.2 411.52 1101.2 412.94 1101.2 414.613 1101 415.967 1100.6 417 1100.27 418.033 1099.77 418.833 1099.1 419.4 1098.43 419.967 1097.57 420.25 1096.5 420.25 1095.1 420.25 1094 419.757 1093.2 418.77 1092.27 417.57 1091.8 415.627 1091.8 412.94ZM1093.6 412.94C1093.6 415.293 1093.9 416.857 1094.5 417.63 1095.03 418.41 1095.7 418.8 1096.5 418.8 1097.3 418.8 1097.97 418.407 1098.5 417.62 1099.1 416.84 1099.4 415.28 1099.4 412.94 1099.4 410.587 1099.1 409.02 1098.5 408.24 1097.97 407.467 1097.3 407.08 1096.5 407.08 1095.7 407.08 1095.03 407.423 1094.5 408.11 1093.9 408.977 1093.6 410.587 1093.6 412.94Z"/></g></g></g></g></svg>