<svg width="696.589" height="262.716" viewBox="0 0 1337 504" xmlns="http://www.w3.org/2000/svg" xmlns:xlink="http://www.w3.org/1999/xlink" overflow="hidden"><g stroke-linecap="square" stroke-miterlimit="10"><clipPath id="clipf1a19626-484b-4a82-a9cf-44246a0c4f04"><path d="M0 0 0 505 1339 505 1339 0Z"/></clipPath><clipPath id="clip3d873d52-c421-4de3-b977-fb0b1b8ea57f"><path d="M0 0 0 505 1339 505 1339 0Z"/></clipPath><clipPath id="clipcc5bafa5-9e40-49d5-a9cf-fe010c974c74"><path d="M0 0 0 505 1339 505 1339 0Z"/></clipPath><clipPath id="clipe566b4fb-dcb7-42c9-b483-80cf19a09dc0"><path d="M0 0 0 505 1339 505 1339 0Z"/></clipPath><clipPath id="clipbb84898b-a55a-48d1-8467-3bd8d44b3e5f"><path d="M0 0 0 505 1339 505 1339 0Z"/></clipPath><clipPath id="clip5b8ee45b-8006-4f1d-a2be-15169fd2848f"><path d="M0 0 0 505 1339 505 1339 0Z"/></clipPath><clipPath id="clip63a60aff-6f4d-4365-863b-16d3cb821079"><path d="M0 0 0 505 1339 505 1339 0Z"/></clipPath><clipPath id="clip7ec35a33-277e-407e-b684-e3327abd3ff8"><path d="M0 0 0 505 1339 505 1339 0Z"/></clipPath><clipPath id="clip5d2df024-5031-43af-93ef-f32992d24157"><path d="M0 0 0 505 1339 505 1339 0Z"/></clipPath><clipPath id="clip65dad228-6dfe-4408-b6db-b994205d8d0e"><path d="M0 0 0 505 1339 505 1339 0Z"/></clipPath><clipPath id="clip10f9a5b3-a85e-4f48-a9e4-9950a981f191"><path d="M0 0 0 505 1339 505 1339 0Z"/></clipPath><clipPath id="clip01d458a0-ae10-4839-b9e0-57dfbe996b7c"><path d="M0 0 0 505 1339 505 1339 0Z"/></clipPath><clipPath id="clip97bc8459-9d3e-400b-880e-c6bafccdc675"><path d="M0 0 0 505 1339 505 1339 0Z"/></clipPath><clipPath id="clipd774df37-e7b9-4fa0-85ad-226ea4bf73c1"><path d="M0 0 0 505 1339 505 1339 0Z"/></clipPath><clipPath id="clip986eaf4f-cc37-49eb-9953-41182c0f72fb"><path d="M0 0 0 505 1339 505 1339 0Z"/></clipPath><clipPath id="clipa447fcdc-a2ae-413a-840e-d00ec278eaf9"><path d="M0 0 0 505 1339 505 1339 0Z"/></clipPath><clipPath id="clip91df523c-536a-4f72-a93a-1039a4c7fed2"><path d="M0 0 0 505 1339 505 1339 0Z"/></clipPath><clipPath id="clip4b226d80-c2ef-4ccb-baf2-cbce9e482ecd"><path d="M0 0 0 505 1339 505 1339 0Z"/></clipPath><clipPath id="clipbea5f7d2-a9d5-4246-9e26-2c8aa7464f1d"><path d="M0 0 0 505 1339 505 1339 0Z"/></clipPath><clipPath id="clipb0e3d3d9-c3bf-4819-8ba6-6adbe1cbb321"><path d="M0 0 0 505 1339 505 1339 0Z"/></clipPath><clipPath id="clip21568741-1b99-4848-8a8e-569fb31eff06"><path d="M0 0 0 505 1339 505 1339 0Z"/></clipPath><clipPath id="clip42b01213-f3d8-4b5f-a10e-52a084058306"><path d="M0 0 0 505 1339 505 1339 0Z"/></clipPath><clipPath id="clipfad7a36e-feb8-4d7d-95bb-0161beec10c0"><path d="M0 0 0 505 1339 505 1339 0Z"/></clipPath><clipPath id="clip1389aecb-455c-4ea8-8529-e11fe922b68c"><path d="M0 0 0 505 1339 505 1339 0Z"/></clipPath><clipPath id="clip424daa9f-0c59-4577-b199-85c19b32ba69"><path d="M0 0 0 505 1339 505 1339 0Z"/></clipPath><clipPath id="clipe6894ee5-4462-4724-a42a-4a32110dcdf7"><path d="M0 0 0 505 1339 505 1339 0Z"/></clipPath><clipPath id="clipf91e2e54-bb2c-42e4-a8e9-5ed4178dc277"><path d="M0 0 0 505 1339 505 1339 0Z"/></clipPath><clipPath id="clip4ca4bcd1-8845-4c2f-90a4-deb645c852a0"><path d="M0 0 0 505 1339 505 1339 0Z"/></clipPath><clipPath id="clip2e77b4fb-5df0-4381-b229-a3791b100258"><path d="M0 0 0 505 1339 505 1339 0Z"/></clipPath><clipPath id="clip9762e921-b16e-4dc9-8bad-ac8c011d6f6a"><path d="M0 0 0 505 1339 505 1339 0Z"/></clipPath><clipPath id="clipb47fea7a-3d63-4f86-9f6c-9b1fa11773b2"><path d="M0 0 0 505 1339 505 1339 0Z"/></clipPath><clipPath id="clipc01dfb84-999e-455d-a68c-c74248a4da44"><path d="M0 0 0 505 1339 505 1339 0Z"/></clipPath><clipPath id="clipba4a97f5-0877-48cf-8d33-0c50493779d2"><path d="M0 0 0 505 1339 505 1339 0Z"/></clipPath><clipPath id="clip1763641c-1108-4f72-9db1-cf0d3c2d5f9e"><path d="M0 0 0 505 1339 505 1339 0Z"/></clipPath><clipPath id="clipdb2e4f94-e83a-4777-a996-eef4f2042d7f"><path d="M0 0 0 505 1339 505 1339 0Z"/></clipPath><clipPath id="clip316d997a-94f8-4ee4-b980-3d7ab1d7a7d2"><path d="M0 0 0 505 1339 505 1339 0Z"/></clipPath><clipPath id="clipb764218e-7998-42ab-b895-4c99dfd5b7c3"><path d="M0 0 0 505 1339 505 1339 0Z"/></clipPath><clipPath id="clip0cc91695-f4ac-4969-9797-3d6e712d1a3a"><path d="M0 0 0 505 1339 505 1339 0Z"/></clipPath><clipPath id="clip4a3f3710-0c05-4d98-8e6d-7229ce68a736"><path d="M0 0 0 505 1339 505 1339 0Z"/></clipPath><clipPath id="clip56c7151e-4a7b-4b86-95fe-093540bd8ad0"><path d="M0 0 0 505 1339 505 1339 0Z"/></clipPath><clipPath id="clip050776d8-86f4-4ae1-86b5-e28322acc4fe"><path d="M0 0 0 505 1339 505 1339 0Z"/></clipPath><clipPath id="clip9b87d71b-2e42-48d2-ac16-6946acc4740c"><path d="M0 0 0 505 1339 505 1339 0Z"/></clipPath><clipPath id="clip5b4d93d7-6a8e-4ac3-9c91-6a8dbd8443f2"><path d="M0 0 0 505 1339 505 1339 0Z"/></clipPath><clipPath id="clip88a86636-1c56-42b2-ac7f-d88a3d946d19"><path d="M0 0 0 505 1339 505 1339 0Z"/></clipPath><clipPath id="clipb0ed3176-580b-48b5-85dc-5ab66406b98c"><path d="M0 0 0 505 1339 505 1339 0Z"/></clipPath><clipPath id="clip6ff52a6b-d44e-46e5-900f-35a5343ec583"><path d="M0 0 0 505 1339 505 1339 0Z"/></clipPath><clipPath id="clip93c3648e-8c41-4b00-ac03-70a17231a4ea"><path d="M0 0 0 505 1339 505 1339 0Z"/></clipPath><clipPath id="clipd58d877d-7fc5-45de-a30f-4ce0ec4cc41a"><path d="M0 0 0 505 1339 505 1339 0Z"/></clipPath><clipPath id="clip4452de9f-7145-43df-8720-fdb74eb26a4f"><path d="M0 0 0 505 1339 505 1339 0Z"/></clipPath><clipPath id="clip90cde9ad-8702-45a9-a366-92771370b7a5"><path d="M0 0 0 505 1339 505 1339 0Z"/></clipPath><clipPath id="clipd0c803b8-10d9-4390-8c44-6aec938b07a7"><path d="M0 0 0 505 1339 505 1339 0Z"/></clipPath><clipPath id="clipccdb6828-fcbb-4f09-a996-6024504b38aa"><path d="M0 0 0 505 1339 505 1339 0Z"/></clipPath><clipPath id="clip5781a68a-b0d8-400d-97c4-540213b8da72"><path d="M0 0 0 505 1339 505 1339 0Z"/></clipPath><clipPath id="clip1815319b-6732-4e9e-9918-73aa5f887ae6"><path d="M0 0 0 505 1339 505 1339 0Z"/></clipPath><clipPath id="clipe5b739fe-b7c1-40b2-83b2-ec7b0f3bd2e9"><path d="M0 0 0 505 1339 505 1339 0Z"/></clipPath><clipPath id="clipe9fe21d5-3c12-444b-9f82-5f4aef1ea18f"><path d="M0 0 0 505 1339 505 1339 0Z"/></clipPath><g clip-path="url(#clip1)"><g stroke="#C0C0C0" stroke-width="2" stroke-linecap="round" stroke-linejoin="round" fill="none"><path d="M56.463 0 56.463 505"/></g></g><g clip-path="url(#clip2)"><g stroke="#C0C0C0" stroke-width="2" stroke-linecap="round" stroke-linejoin="round" fill="none"><path d="M56.463 0 56.463 505"/></g></g><g clip-path="url(#clip3)"><g stroke="#C0C0C0" stroke-width="2" stroke-linecap="round" stroke-linejoin="round" fill="none"><path d="M129.11 0 129.11 505"/></g></g><g clip-path="url(#clip4)"><g stroke="#C0C0C0" stroke-width="2" stroke-linecap="round" stroke-linejoin="round" fill="none"><path d="M201.77 0 201.77 505"/></g></g><g clip-path="url(#clip5)"><g stroke="#C0C0C0" stroke-width="2" stroke-linecap="round" stroke-linejoin="round" fill="none"><path d="M274.42 0 274.42 505"/></g></g><g clip-path="url(#clip6)"><g stroke="#C0C0C0" stroke-width="2" stroke-linecap="round" stroke-linejoin="round" fill="none"><path d="M347.07 0 347.07 505"/></g></g><g clip-path="url(#clip7)"><g stroke="#C0C0C0" stroke-width="2" stroke-linecap="round" stroke-linejoin="round" fill="none"><path d="M419.72 0 419.72 505"/></g></g><g clip-path="url(#clip8)"><g stroke="#C0C0C0" stroke-width="2" stroke-linecap="round" stroke-linejoin="round" fill="none"><path d="M492.37 0 492.37 505"/></g></g><g clip-path="url(#clip9)"><g stroke="#C0C0C0" stroke-width="2" stroke-linecap="round" stroke-linejoin="round" fill="none"><path d="M565.02 0 565.02 505"/></g></g><g clip-path="url(#clip10)"><g stroke="#C0C0C0" stroke-width="2" stroke-linecap="round" stroke-linejoin="round" fill="none"><path d="M637.67 0 637.67 505"/></g></g><g clip-path="url(#clip11)"><g stroke="#C0C0C0" stroke-width="2" stroke-linecap="round" stroke-linejoin="round" fill="none"><path d="M710.32 0 710.32 505"/></g></g><g clip-path="url(#clip12)"><g stroke="#C0C0C0" stroke-width="2" stroke-linecap="round" stroke-linejoin="round" fill="none"><path d="M782.97 0 782.97 505"/></g></g><g clip-path="url(#clip13)"><g stroke="#C0C0C0" stroke-width="2" stroke-linecap="round" stroke-linejoin="round" fill="none"><path d="M855.62 0 855.62 505"/></g></g><g clip-path="url(#clip14)"><g stroke="#C0C0C0" stroke-width="2" stroke-linecap="round" stroke-linejoin="round" fill="none"><path d="M928.28 0 928.28 505"/></g></g><g clip-path="url(#clip15)"><g stroke="#C0C0C0" stroke-width="2" stroke-linecap="round" stroke-linejoin="round" fill="none"><path d="M1073.6 0 1073.6 505"/></g></g><g clip-path="url(#clip16)"><g stroke="#C0C0C0" stroke-width="2" stroke-linecap="round" stroke-linejoin="round" fill="none"><path d="M1146.2 0 1146.2 505"/></g></g><g clip-path="url(#clip17)"><g stroke="#C0C0C0" stroke-width="2" stroke-linecap="round" stroke-linejoin="round" fill="none"><path d="M1218.9 0 1218.9 505"/></g></g><g clip-path="url(#clip18)"><g stroke="#C0C0C0" stroke-width="2" stroke-linecap="round" stroke-linejoin="round" fill="none"><path d="M1291.5 0 1291.5 505"/></g></g><g clip-path="url(#clip19)"><g stroke="#C0C0C0" stroke-width="2" stroke-linecap="round" stroke-linejoin="round" fill="none"><path d="M0 61.089 1339 61.089"/></g></g><g clip-path="url(#clip20)"><g stroke="#C0C0C0" stroke-width="2" stroke-linecap="round" stroke-linejoin="round" fill="none"><path d="M0 61.089 1339 61.089"/></g></g><g clip-path="url(#clip21)"><g stroke="#C0C0C0" stroke-width="2" stroke-linecap="round" stroke-linejoin="round" fill="none"><path d="M0 133.74 1339 133.74"/></g></g><g clip-path="url(#clip22)"><g stroke="#C0C0C0" stroke-width="2" stroke-linecap="round" stroke-linejoin="round" fill="none"><path d="M0 206.39 1339 206.39"/></g></g><g clip-path="url(#clip23)"><g stroke="#C0C0C0" stroke-width="2" stroke-linecap="round" stroke-linejoin="round" fill="none"><path d="M0 279.04 1339 279.04"/></g></g><g clip-path="url(#clip24)"><g stroke="#C0C0C0" stroke-width="2" stroke-linecap="round" stroke-linejoin="round" fill="none"><path d="M0 424.34 1339 424.34"/></g></g><g clip-path="url(#clip25)"><g stroke="#C0C0C0" stroke-width="2" stroke-linecap="round" stroke-linejoin="round" fill="none"><path d="M0 496.99 1339 496.99"/></g></g><g clip-path="url(#clip26)"><g stroke="#000000" stroke-linecap="butt" fill="none"><path d="M1000.9 2 1000.9 505"/></g></g><g clip-path="url(#clip27)"><g stroke="#000000" stroke-linecap="butt" fill="none"><path d="M1000.9 1 994.93 7"/></g></g><g clip-path="url(#clip28)"><g stroke="#000000" stroke-linecap="butt" fill="none"><path d="M1000.9 1 1006.9 7"/></g></g><g clip-path="url(#clip29)"><g><path d="M1317.2 347 1321.7 340.53 1317.5 334.55 1320.2 334.55 1322.1 337.47C1322.43 338.023 1322.7 338.487 1322.9 338.86 1323.3 338.347 1323.63 337.893 1323.9 337.5L1326 334.55 1328.5 334.55 1324.2 340.41 1328.8 347 1326.2 347 1323.7 343.12 1323 342.09 1319.7 347 1317.2 347Z"/></g></g><g clip-path="url(#clip30)"><g stroke="#000000" stroke-linecap="butt" fill="none"><path d="M0 351.69 1337 351.69"/></g></g><g clip-path="url(#clip31)"><g stroke="#000000" stroke-linecap="butt" fill="none"><path d="M1338 351.69 1332 345.69"/></g></g><g clip-path="url(#clip32)"><g stroke="#000000" stroke-linecap="butt" fill="none"><path d="M1338 351.69 1332 357.69"/></g></g><g clip-path="url(#clip33)"><g><path d="M43.922 368.23 43.922 367.03 51.078 367.03 51.078 368.23 43.922 368.23ZM58.703 373 57.125 373 57.125 362.92C56.7397 363.287 56.2397 363.65 55.625 364.01 55.0103 364.37 54.453 364.643 53.953 364.83L53.953 363.3C54.8383 362.88 55.6143 362.373 56.281 361.78 56.9477 361.187 57.4167 360.613 57.688 360.06L58.703 360.06 58.703 373ZM62.761 369.59 64.354 369.39C64.5313 370.283 64.8387 370.93 65.276 371.33 65.714 371.723 66.2453 371.92 66.87 371.92 67.62 371.92 68.2503 371.663 68.761 371.15 69.271 370.637 69.526 369.997 69.526 369.23 69.526 368.503 69.289 367.903 68.815 367.43 68.341 366.957 67.7397 366.72 67.011 366.72 66.709 366.72 66.334 366.783 65.886 366.91L66.058 365.52C66.162 365.527 66.2503 365.53 66.323 365.53 66.9897 365.53 67.594 365.353 68.136 365 68.6773 364.647 68.948 364.107 68.948 363.38 68.948 362.793 68.75 362.31 68.354 361.93 67.9587 361.55 67.4537 361.36 66.839 361.36 66.2243 361.36 65.7113 361.553 65.3 361.94 64.8887 362.327 64.6257 362.91 64.511 363.69L62.933 363.41C63.1203 362.343 63.5577 361.52 64.245 360.94 64.9323 360.353 65.7867 360.06 66.808 360.06 67.5053 360.06 68.151 360.213 68.745 360.52 69.339 360.82 69.792 361.23 70.104 361.75 70.4167 362.27 70.573 362.823 70.573 363.41 70.573 363.97 70.4247 364.477 70.128 364.93 69.8313 365.383 69.386 365.747 68.792 366.02 69.5527 366.193 70.1437 366.56 70.565 367.12 70.987 367.673 71.198 368.363 71.198 369.19 71.198 370.317 70.7893 371.27 69.972 372.05 69.154 372.837 68.12 373.23 66.87 373.23 65.7347 373.23 64.7947 372.893 64.05 372.22 63.3053 371.54 62.8757 370.663 62.761 369.59Z"/></g></g><g clip-path="url(#clip34)"><g><path d="M116.92 368.23 116.92 367.03 124.08 367.03 124.08 368.23 116.92 368.23ZM131.7 373 130.12 373 130.12 362.92C129.74 363.287 129.24 363.65 128.62 364.01 128.007 364.37 127.45 364.643 126.95 364.83L126.95 363.3C127.837 362.88 128.613 362.373 129.28 361.78 129.947 361.187 130.417 360.613 130.69 360.06L131.7 360.06 131.7 373ZM144.07 371.48 144.07 373 135.56 373C135.547 372.613 135.61 372.25 135.75 371.91 135.963 371.323 136.307 370.75 136.78 370.19 137.26 369.623 137.95 368.97 138.85 368.23 140.25 367.09 141.197 366.183 141.69 365.51 142.183 364.837 142.43 364.203 142.43 363.61 142.43 362.977 142.207 362.447 141.76 362.02 141.313 361.593 140.73 361.38 140.01 361.38 139.237 361.38 138.623 361.607 138.17 362.06 137.723 362.52 137.493 363.15 137.48 363.95L135.85 363.78C135.97 362.573 136.39 361.653 137.11 361.02 137.837 360.38 138.813 360.06 140.04 360.06 141.273 360.06 142.25 360.403 142.97 361.09 143.697 361.777 144.06 362.627 144.06 363.64 144.06 364.153 143.953 364.66 143.74 365.16 143.527 365.66 143.173 366.183 142.68 366.73 142.193 367.283 141.383 368.04 140.25 369 139.297 369.8 138.687 370.34 138.42 370.62 138.147 370.907 137.927 371.193 137.76 371.48L144.07 371.48Z"/></g></g><g clip-path="url(#clip35)"><g><path d="M189.92 368.23 189.92 367.03 197.08 367.03 197.08 368.23 189.92 368.23ZM204.7 373 203.12 373 203.12 362.92C202.74 363.287 202.24 363.65 201.62 364.01 201.007 364.37 200.45 364.643 199.95 364.83L199.95 363.3C200.837 362.88 201.613 362.373 202.28 361.78 202.947 361.187 203.417 360.613 203.69 360.06L204.7 360.06 204.7 373ZM214.71 373 213.14 373 213.14 362.92C212.753 363.287 212.253 363.65 211.64 364.01 211.02 364.37 210.46 364.643 209.96 364.83L209.96 363.3C210.847 362.88 211.623 362.373 212.29 361.78 212.957 361.187 213.427 360.613 213.7 360.06L214.71 360.06 214.71 373Z"/></g></g><g clip-path="url(#clip36)"><g><path d="M261.92 368.23 261.92 367.03 269.08 367.03 269.08 368.23 261.92 368.23ZM276.7 373 275.12 373 275.12 362.92C274.74 363.287 274.24 363.65 273.62 364.01 273.007 364.37 272.45 364.643 271.95 364.83L271.95 363.3C272.837 362.88 273.613 362.373 274.28 361.78 274.947 361.187 275.417 360.613 275.69 360.06L276.7 360.06 276.7 373ZM280.76 366.64C280.76 365.12 280.917 363.897 281.23 362.97 281.543 362.043 282.01 361.327 282.63 360.82 283.25 360.313 284.027 360.06 284.96 360.06 285.653 360.06 286.26 360.2 286.78 360.48 287.3 360.753 287.73 361.153 288.07 361.68 288.403 362.207 288.67 362.847 288.87 363.6 289.07 364.353 289.17 365.367 289.17 366.64 289.17 368.153 289.013 369.373 288.7 370.3 288.387 371.233 287.92 371.953 287.3 372.46 286.68 372.967 285.9 373.22 284.96 373.22 283.713 373.22 282.737 372.777 282.03 371.89 281.183 370.817 280.76 369.067 280.76 366.64ZM282.39 366.64C282.39 368.753 282.637 370.163 283.13 370.87 283.623 371.57 284.233 371.92 284.96 371.92 285.68 371.92 286.29 371.57 286.79 370.87 287.29 370.163 287.54 368.753 287.54 366.64 287.54 364.527 287.29 363.12 286.79 362.42 286.29 361.727 285.677 361.38 284.95 361.38 284.217 361.38 283.633 361.687 283.2 362.3 282.66 363.08 282.39 364.527 282.39 366.64Z"/></g></g><g clip-path="url(#clip37)"><g><path d="M339.92 368.23 339.92 367.03 347.08 367.03 347.08 368.23 339.92 368.23ZM348.98 370.02 350.5 369.88C350.633 370.593 350.88 371.113 351.24 371.44 351.6 371.76 352.067 371.92 352.64 371.92 353.133 371.92 353.56 371.81 353.92 371.59 354.287 371.363 354.587 371.067 354.82 370.7 355.053 370.327 355.25 369.823 355.41 369.19 355.563 368.55 355.64 367.903 355.64 367.25 355.64 367.177 355.64 367.073 355.64 366.94 355.32 367.44 354.887 367.847 354.34 368.16 353.793 368.467 353.2 368.62 352.56 368.62 351.5 368.62 350.6 368.237 349.86 367.47 349.12 366.697 348.75 365.677 348.75 364.41 348.75 363.103 349.137 362.053 349.91 361.26 350.677 360.46 351.64 360.06 352.8 360.06 353.64 360.06 354.407 360.287 355.1 360.74 355.793 361.193 356.32 361.837 356.68 362.67 357.04 363.503 357.22 364.713 357.22 366.3 357.22 367.947 357.04 369.257 356.68 370.23 356.32 371.203 355.79 371.943 355.09 372.45 354.383 372.963 353.557 373.22 352.61 373.22 351.597 373.22 350.77 372.94 350.13 372.38 349.49 371.827 349.107 371.04 348.98 370.02ZM355.47 364.33C355.47 363.423 355.227 362.703 354.74 362.17 354.26 361.643 353.68 361.38 353 361.38 352.293 361.38 351.68 361.663 351.16 362.23 350.64 362.803 350.38 363.55 350.38 364.47 350.38 365.29 350.627 365.957 351.12 366.47 351.613 366.977 352.223 367.23 352.95 367.23 353.683 367.23 354.287 366.977 354.76 366.47 355.233 365.957 355.47 365.243 355.47 364.33Z"/></g></g><g clip-path="url(#clip38)"><g><path d="M411.92 368.23 411.92 367.03 419.08 367.03 419.08 368.23 411.92 368.23ZM423.19 366.02C422.53 365.78 422.043 365.433 421.73 364.98 421.41 364.533 421.25 364.003 421.25 363.39 421.25 362.45 421.587 361.66 422.26 361.02 422.933 360.38 423.83 360.06 424.95 360.06 426.077 360.06 426.98 360.387 427.66 361.04 428.347 361.693 428.69 362.487 428.69 363.42 428.69 364.027 428.533 364.55 428.22 364.99 427.907 365.437 427.433 365.78 426.8 366.02 427.587 366.28 428.187 366.697 428.6 367.27 429.013 367.837 429.22 368.517 429.22 369.31 429.22 370.417 428.83 371.343 428.05 372.09 427.27 372.843 426.243 373.22 424.97 373.22 423.697 373.22 422.673 372.843 421.9 372.09 421.12 371.33 420.73 370.39 420.73 369.27 420.73 368.437 420.943 367.733 421.37 367.16 421.79 366.593 422.397 366.213 423.19 366.02ZM422.86 363.33C422.86 363.943 423.057 364.443 423.45 364.83 423.85 365.217 424.36 365.41 424.98 365.41 425.587 365.41 426.087 365.217 426.48 364.83 426.867 364.443 427.06 363.973 427.06 363.42 427.06 362.84 426.86 362.35 426.46 361.95 426.06 361.557 425.563 361.36 424.97 361.36 424.363 361.36 423.86 361.553 423.46 361.94 423.06 362.327 422.86 362.79 422.86 363.33ZM422.36 369.28C422.36 369.727 422.467 370.163 422.68 370.59 422.893 371.01 423.21 371.337 423.63 371.57 424.057 371.803 424.513 371.92 425 371.92 425.747 371.92 426.37 371.677 426.87 371.19 427.363 370.697 427.61 370.077 427.61 369.33 427.61 368.57 427.353 367.943 426.84 367.45 426.333 366.95 425.7 366.7 424.94 366.7 424.2 366.7 423.583 366.947 423.09 367.44 422.603 367.927 422.36 368.54 422.36 369.28Z"/></g></g><g clip-path="url(#clip39)"><g><path d="M484.92 368.23 484.92 367.03 492.08 367.03 492.08 368.23 484.92 368.23ZM493.86 361.8 493.86 360.28 502.19 360.28 502.19 361.52C501.377 362.393 500.567 363.55 499.76 364.99 498.953 366.437 498.33 367.923 497.89 369.45 497.57 370.537 497.367 371.72 497.28 373L495.66 373C495.68 371.987 495.88 370.763 496.26 369.33 496.64 367.89 497.183 366.503 497.89 365.17 498.597 363.837 499.353 362.713 500.16 361.8L493.86 361.8Z"/></g></g><g clip-path="url(#clip40)"><g><path d="M557.92 368.23 557.92 367.03 565.08 367.03 565.08 368.23 557.92 368.23ZM574.95 363.27 573.39 363.39C573.243 362.777 573.04 362.33 572.78 362.05 572.353 361.59 571.827 361.36 571.2 361.36 570.7 361.36 570.26 361.5 569.88 361.78 569.373 362.147 568.98 362.68 568.7 363.38 568.413 364.073 568.263 365.067 568.25 366.36 568.637 365.773 569.103 365.34 569.65 365.06 570.197 364.78 570.773 364.64 571.38 364.64 572.44 364.64 573.34 365.027 574.08 365.8 574.82 366.58 575.19 367.583 575.19 368.81 575.19 369.623 575.013 370.377 574.66 371.07 574.313 371.763 573.837 372.293 573.23 372.66 572.617 373.033 571.927 373.22 571.16 373.22 569.833 373.22 568.753 372.737 567.92 371.77 567.087 370.797 566.67 369.197 566.67 366.97 566.67 364.477 567.133 362.663 568.06 361.53 568.867 360.55 569.947 360.06 571.3 360.06 572.32 360.06 573.153 360.343 573.8 360.91 574.447 361.483 574.83 362.27 574.95 363.27ZM568.5 368.83C568.5 369.37 568.613 369.89 568.84 370.39 569.073 370.89 569.397 371.27 569.81 371.53 570.23 371.79 570.667 371.92 571.12 371.92 571.787 371.92 572.36 371.65 572.84 371.11 573.32 370.57 573.56 369.837 573.56 368.91 573.56 368.023 573.323 367.32 572.85 366.8 572.377 366.287 571.78 366.03 571.06 366.03 570.34 366.03 569.733 366.287 569.24 366.8 568.747 367.32 568.5 367.997 568.5 368.83Z"/></g></g><g clip-path="url(#clip41)"><g><path d="M629.92 368.23 629.92 367.03 637.08 367.03 637.08 368.23 629.92 368.23ZM638.75 369.62 640.41 369.48C640.53 370.293 640.817 370.903 641.27 371.31 641.717 371.717 642.257 371.92 642.89 371.92 643.65 371.92 644.293 371.633 644.82 371.06 645.347 370.487 645.61 369.723 645.61 368.77 645.61 367.87 645.357 367.16 644.85 366.64 644.343 366.12 643.68 365.86 642.86 365.86 642.347 365.86 641.887 365.973 641.48 366.2 641.067 366.433 640.747 366.737 640.52 367.11L639.03 366.91 640.28 360.3 646.69 360.3 646.69 361.8 641.55 361.8 640.84 365.27C641.627 364.723 642.44 364.45 643.28 364.45 644.407 364.45 645.357 364.84 646.13 365.62 646.91 366.407 647.3 367.407 647.3 368.62 647.3 369.793 646.957 370.807 646.27 371.66 645.443 372.7 644.317 373.22 642.89 373.22 641.71 373.22 640.753 372.89 640.02 372.23 639.28 371.577 638.857 370.707 638.75 369.62Z"/></g></g><g clip-path="url(#clip42)"><g><path d="M702.92 368.23 702.92 367.03 710.08 367.03 710.08 368.23 702.92 368.23ZM716.81 373 716.81 369.92 711.23 369.92 711.23 368.47 717.11 360.11 718.41 360.11 718.41 368.47 720.14 368.47 720.14 369.92 718.41 369.92 718.41 373 716.81 373ZM716.81 368.47 716.81 362.66 712.78 368.47 716.81 368.47Z"/></g></g><g clip-path="url(#clip43)"><g><path d="M774.92 368.23 774.92 367.03 782.08 367.03 782.08 368.23 774.92 368.23ZM783.75 369.59 785.34 369.39C785.52 370.283 785.83 370.93 786.27 371.33 786.703 371.723 787.233 371.92 787.86 371.92 788.607 371.92 789.237 371.663 789.75 371.15 790.263 370.637 790.52 369.997 790.52 369.23 790.52 368.503 790.28 367.903 789.8 367.43 789.327 366.957 788.727 366.72 788 366.72 787.7 366.72 787.327 366.783 786.88 366.91L787.05 365.52C787.15 365.527 787.237 365.53 787.31 365.53 787.977 365.53 788.58 365.353 789.12 365 789.667 364.647 789.94 364.107 789.94 363.38 789.94 362.793 789.74 362.31 789.34 361.93 788.947 361.55 788.443 361.36 787.83 361.36 787.217 361.36 786.703 361.553 786.29 361.94 785.877 362.327 785.613 362.91 785.5 363.69L783.92 363.41C784.107 362.343 784.543 361.52 785.23 360.94 785.923 360.353 786.78 360.06 787.8 360.06 788.493 360.06 789.137 360.213 789.73 360.52 790.323 360.82 790.777 361.23 791.09 361.75 791.403 362.27 791.56 362.823 791.56 363.41 791.56 363.97 791.413 364.477 791.12 364.93 790.82 365.383 790.373 365.747 789.78 366.02 790.54 366.193 791.13 366.56 791.55 367.12 791.977 367.673 792.19 368.363 792.19 369.19 792.19 370.317 791.78 371.27 790.96 372.05 790.14 372.837 789.107 373.23 787.86 373.23 786.727 373.23 785.787 372.893 785.04 372.22 784.293 371.54 783.863 370.663 783.75 369.59Z"/></g></g><g clip-path="url(#clip44)"><g><path d="M847.92 368.23 847.92 367.03 855.08 367.03 855.08 368.23 847.92 368.23ZM865.06 371.48 865.06 373 856.55 373C856.537 372.613 856.597 372.25 856.73 371.91 856.95 371.323 857.297 370.75 857.77 370.19 858.243 369.623 858.933 368.97 859.84 368.23 861.24 367.09 862.187 366.183 862.68 365.51 863.173 364.837 863.42 364.203 863.42 363.61 863.42 362.977 863.197 362.447 862.75 362.02 862.303 361.593 861.72 361.38 861 361.38 860.227 361.38 859.613 361.607 859.16 362.06 858.707 362.52 858.477 363.15 858.47 363.95L856.84 363.78C856.96 362.573 857.38 361.653 858.1 361.02 858.827 360.38 859.803 360.06 861.03 360.06 862.263 360.06 863.24 360.403 863.96 361.09 864.687 361.777 865.05 362.627 865.05 363.64 865.05 364.153 864.943 364.66 864.73 365.16 864.517 365.66 864.163 366.183 863.67 366.73 863.183 367.283 862.37 368.04 861.23 369 860.283 369.8 859.677 370.34 859.41 370.62 859.137 370.907 858.917 371.193 858.75 371.48L865.06 371.48Z"/></g></g><g clip-path="url(#clip45)"><g><path d="M920.92 368.23 920.92 367.03 928.08 367.03 928.08 368.23 920.92 368.23ZM935.7 373 934.12 373 934.12 362.92C933.74 363.287 933.24 363.65 932.62 364.01 932.007 364.37 931.45 364.643 930.95 364.83L930.95 363.3C931.837 362.88 932.613 362.373 933.28 361.78 933.947 361.187 934.417 360.613 934.69 360.06L935.7 360.06 935.7 373Z"/></g></g><g clip-path="url(#clip46)"><g><path d="M1076.7 373 1075.1 373 1075.1 362.92C1074.7 363.287 1074.2 363.65 1073.6 364.01 1073 364.37 1072.47 364.643 1072 364.83L1072 363.3C1072.87 362.88 1073.63 362.373 1074.3 361.78 1074.97 361.187 1075.43 360.613 1075.7 360.06L1076.7 360.06 1076.7 373Z"/></g></g><g clip-path="url(#clip47)"><g><path d="M1151.1 371.48 1151.1 373 1142.5 373C1142.5 372.613 1142.57 372.25 1142.7 371.91 1142.97 371.323 1143.33 370.75 1143.8 370.19 1144.27 369.623 1144.93 368.97 1145.8 368.23 1147.2 367.09 1148.17 366.183 1148.7 365.51 1149.17 364.837 1149.4 364.203 1149.4 363.61 1149.4 362.977 1149.2 362.447 1148.8 362.02 1148.33 361.593 1147.73 361.38 1147 361.38 1146.2 361.38 1145.6 361.607 1145.2 362.06 1144.73 362.52 1144.5 363.15 1144.5 363.95L1142.8 363.78C1142.93 362.573 1143.37 361.653 1144.1 361.02 1144.83 360.38 1145.8 360.06 1147 360.06 1148.27 360.06 1149.27 360.403 1150 361.09 1150.67 361.777 1151 362.627 1151 363.64 1151 364.153 1150.9 364.66 1150.7 365.16 1150.5 365.66 1150.17 366.183 1149.7 366.73 1149.17 367.283 1148.33 368.04 1147.2 369 1146.27 369.8 1145.67 370.34 1145.4 370.62 1145.13 370.907 1144.93 371.193 1144.8 371.48L1151.1 371.48Z"/></g></g><g clip-path="url(#clip48)"><g><path d="M1215.8 369.59 1217.3 369.39C1217.5 370.283 1217.83 370.93 1218.3 371.33 1218.7 371.723 1219.23 371.92 1219.9 371.92 1220.63 371.92 1221.27 371.663 1221.8 371.15 1222.27 370.637 1222.5 369.997 1222.5 369.23 1222.5 368.503 1222.27 367.903 1221.8 367.43 1221.33 366.957 1220.73 366.72 1220 366.72 1219.67 366.72 1219.3 366.783 1218.9 366.91L1219 365.52C1219.13 365.527 1219.23 365.53 1219.3 365.53 1219.97 365.53 1220.57 365.353 1221.1 365 1221.63 364.647 1221.9 364.107 1221.9 363.38 1221.9 362.793 1221.7 362.31 1221.3 361.93 1220.97 361.55 1220.47 361.36 1219.8 361.36 1219.2 361.36 1218.7 361.553 1218.3 361.94 1217.9 362.327 1217.63 362.91 1217.5 363.69L1215.9 363.41C1216.1 362.343 1216.53 361.52 1217.2 360.94 1217.93 360.353 1218.8 360.06 1219.8 360.06 1220.47 360.06 1221.1 360.213 1221.7 360.52 1222.3 360.82 1222.77 361.23 1223.1 361.75 1223.43 362.27 1223.6 362.823 1223.6 363.41 1223.6 363.97 1223.43 364.477 1223.1 364.93 1222.83 365.383 1222.4 365.747 1221.8 366.02 1222.53 366.193 1223.13 366.56 1223.6 367.12 1224 367.673 1224.2 368.363 1224.2 369.19 1224.2 370.317 1223.8 371.27 1223 372.05 1222.13 372.837 1221.1 373.23 1219.9 373.23 1218.77 373.23 1217.8 372.893 1217 372.22 1216.27 371.54 1215.87 370.663 1215.8 369.59Z"/></g></g><g clip-path="url(#clip49)"><g><path d="M1293.8 373 1293.8 369.92 1288.2 369.92 1288.2 368.47 1294.1 360.11 1295.4 360.11 1295.4 368.47 1297.1 368.47 1297.1 369.92 1295.4 369.92 1295.4 373 1293.8 373ZM1293.8 368.47 1293.8 362.66 1289.8 368.47 1293.8 368.47Z"/></g></g><g clip-path="url(#clip50)"><g><path d="M1006.5 33.797 1006.2 31.812C1006.73 31.9373 1007.17 32 1007.5 32 1007.97 32 1008.33 31.922 1008.6 31.766 1008.87 31.6093 1009.1 31.3903 1009.3 31.109 1009.43 30.901 1009.63 30.3803 1009.9 29.547 1009.97 29.4217 1010.03 29.2497 1010.1 29.031L1005.4 16.547 1007.7 16.547 1010.2 23.766C1010.6 24.672 1010.93 25.6303 1011.2 26.641 1011.4 25.6723 1011.67 24.7293 1012 23.812L1014.7 16.547 1016.8 16.547 1012.1 29.219C1011.57 30.5837 1011.17 31.521 1010.9 32.031 1010.5 32.729 1010.07 33.2393 1009.6 33.562 1009.13 33.8853 1008.53 34.047 1007.8 34.047 1007.4 34.047 1006.97 33.9637 1006.5 33.797Z"/></g></g><g clip-path="url(#clip51)"><g><path d="M973.92 427.23 973.92 426.03 981.08 426.03 981.08 427.23 973.92 427.23ZM988.7 432 987.12 432 987.12 421.92C986.74 422.287 986.24 422.65 985.62 423.01 985.007 423.37 984.45 423.643 983.95 423.83L983.95 422.3C984.837 421.88 985.613 421.373 986.28 420.78 986.947 420.187 987.417 419.613 987.69 419.06L988.7 419.06 988.7 432Z"/></g></g><g clip-path="url(#clip52)"><g><path d="M988.7 287 987.12 287 987.12 276.92C986.74 277.287 986.24 277.65 985.62 278.01 985.007 278.37 984.45 278.643 983.95 278.83L983.95 277.3C984.837 276.88 985.613 276.373 986.28 275.78 986.947 275.187 987.417 274.613 987.69 274.06L988.7 274.06 988.7 287Z"/></g></g><g clip-path="url(#clip53)"><g><path d="M991.06 212.48 991.06 214 982.55 214C982.537 213.613 982.597 213.25 982.73 212.91 982.95 212.323 983.297 211.75 983.77 211.19 984.243 210.623 984.933 209.97 985.84 209.23 987.24 208.09 988.187 207.183 988.68 206.51 989.173 205.837 989.42 205.203 989.42 204.61 989.42 203.977 989.197 203.447 988.75 203.02 988.303 202.593 987.72 202.38 987 202.38 986.227 202.38 985.613 202.607 985.16 203.06 984.707 203.52 984.477 204.15 984.47 204.95L982.84 204.78C982.96 203.573 983.38 202.653 984.1 202.02 984.827 201.38 985.803 201.06 987.03 201.06 988.263 201.06 989.24 201.403 989.96 202.09 990.687 202.777 991.05 203.627 991.05 204.64 991.05 205.153 990.943 205.66 990.73 206.16 990.517 206.66 990.163 207.183 989.67 207.73 989.183 208.283 988.37 209.04 987.23 210 986.283 210.8 985.677 211.34 985.41 211.62 985.137 211.907 984.917 212.193 984.75 212.48L991.06 212.48Z"/></g></g><g clip-path="url(#clip54)"><g><path d="M982.75 137.59 984.34 137.39C984.52 138.283 984.83 138.93 985.27 139.33 985.703 139.723 986.233 139.92 986.86 139.92 987.607 139.92 988.237 139.663 988.75 139.15 989.263 138.637 989.52 137.997 989.52 137.23 989.52 136.503 989.28 135.903 988.8 135.43 988.327 134.957 987.727 134.72 987 134.72 986.7 134.72 986.327 134.783 985.88 134.91L986.05 133.52C986.15 133.527 986.237 133.53 986.31 133.53 986.977 133.53 987.58 133.353 988.12 133 988.667 132.647 988.94 132.107 988.94 131.38 988.94 130.793 988.74 130.31 988.34 129.93 987.947 129.55 987.443 129.36 986.83 129.36 986.217 129.36 985.703 129.553 985.29 129.94 984.877 130.327 984.613 130.91 984.5 131.69L982.92 131.41C983.107 130.343 983.543 129.52 984.23 128.94 984.923 128.353 985.78 128.06 986.8 128.06 987.493 128.06 988.137 128.213 988.73 128.52 989.323 128.82 989.777 129.23 990.09 129.75 990.403 130.27 990.56 130.823 990.56 131.41 990.56 131.97 990.413 132.477 990.12 132.93 989.82 133.383 989.373 133.747 988.78 134.02 989.54 134.193 990.13 134.56 990.55 135.12 990.977 135.673 991.19 136.363 991.19 137.19 991.19 138.317 990.78 139.27 989.96 140.05 989.14 140.837 988.107 141.23 986.86 141.23 985.727 141.23 984.787 140.893 984.04 140.22 983.293 139.54 982.863 138.663 982.75 137.59Z"/></g></g><g clip-path="url(#clip55)"><g><path d="M987.81 69 987.81 65.922 982.23 65.922 982.23 64.469 988.11 56.109 989.41 56.109 989.41 64.469 991.14 64.469 991.14 65.922 989.41 65.922 989.41 69 987.81 69ZM987.81 64.469 987.81 58.656 983.78 64.469 987.81 64.469Z"/></g></g><g clip-path="url(#clip56)"><g><path d="M982.75 366.64C982.75 365.12 982.907 363.897 983.22 362.97 983.533 362.043 984 361.327 984.62 360.82 985.24 360.313 986.017 360.06 986.95 360.06 987.637 360.06 988.243 360.2 988.77 360.48 989.29 360.753 989.717 361.153 990.05 361.68 990.39 362.207 990.66 362.847 990.86 363.6 991.06 364.353 991.16 365.367 991.16 366.64 991.16 368.153 991.003 369.373 990.69 370.3 990.377 371.233 989.91 371.953 989.29 372.46 988.67 372.967 987.89 373.22 986.95 373.22 985.703 373.22 984.727 372.777 984.02 371.89 983.173 370.817 982.75 369.067 982.75 366.64ZM984.38 366.64C984.38 368.753 984.627 370.163 985.12 370.87 985.613 371.57 986.223 371.92 986.95 371.92 987.67 371.92 988.28 371.57 988.78 370.87 989.28 370.163 989.53 368.753 989.53 366.64 989.53 364.527 989.28 363.12 988.78 362.42 988.28 361.727 987.667 361.38 986.94 361.38 986.207 361.38 985.623 361.687 985.19 362.3 984.65 363.08 984.38 364.527 984.38 366.64Z"/></g></g><g id="misc"></g><g id="layer0"><clipPath id="clip34fc525f-b129-4212-aa7f-a41fa456c1d0"><path d="M0 0 0 505 1339 505 1339 0Z"/></clipPath><clipPath id="clip0bc7ab7d-5811-46f3-b290-63b68b7cd5a7"><path d="M0 0 0 505 1339 505 1339 0Z"/></clipPath><clipPath id="clip3295d4bf-7907-4e8c-9a85-72a79e1e82b7"><path d="M0 0 0 505 1339 505 1339 0Z"/></clipPath><clipPath id="clip8eef776c-22e8-4c68-975c-bd9fb499e36a"><path d="M0 0 0 505 1339 505 1339 0Z"/></clipPath><clipPath id="clip560a8ea8-65b8-46ae-8040-2ff7be835d30"><path d="M0 0 0 505 1339 505 1339 0Z"/></clipPath><clipPath id="clip49c3dc65-f555-4641-826f-f876d8250f73"><path d="M0 0 0 505 1339 505 1339 0Z"/></clipPath><clipPath id="clipce1fd07a-34a5-48c7-b91a-8cd3cd73127d"><path d="M0 0 0 505 1339 505 1339 0Z"/></clipPath><clipPath id="clip7bebad8a-6118-46ce-a04a-053a66a9ef12"><path d="M0 0 0 505 1339 505 1339 0Z"/></clipPath><clipPath id="clipf0cdcc55-15c4-4b0e-b3f2-79f832e2de2f"><path d="M0 0 0 505 1339 505 1339 0Z"/></clipPath><clipPath id="clip25653989-f8c4-4697-879e-bd392ff275d9"><path d="M0 0 0 505 1339 505 1339 0Z"/></clipPath><clipPath id="clipcd7dbedd-9c2a-4f71-b776-d8c9a163989c"><path d="M0 0 0 505 1339 505 1339 0Z"/></clipPath><clipPath id="clip734f3159-5a8f-4e1c-90bd-87ef02357477"><path d="M0 0 0 505 1339 505 1339 0Z"/></clipPath><g clip-path="url(#clip57)"><g stroke="#000000" stroke-width="3.5" stroke-linecap="round" stroke-linejoin="round" stroke-opacity="0.69804" fill="none"><path d="M928.28 424.34 931.02 417.09M931.02 417.09 933.64 410.34 936.25 403.72 938.87 397.23 941.48 390.88M941.48 390.88 944.1 384.67 946.71 378.58 949.33 372.63 951.95 366.8 954.56 361.1 957.18 355.52 959.79 350.06 962.41 344.73M962.41 344.73 965.02 339.51 967.64 334.41 972.87 324.56 978.1 315.16 983.33 306.19 988.56 297.65 993.79 289.51 999.02 281.77 1004.2 274.41M1004.2 274.41 1009.5 267.42 1014.7 260.78 1019.9 254.48 1025.2 248.51 1030.4 242.86 1035.6 237.5 1040.9 232.44 1046.1 227.64 1051.3 223.1 1056.6 218.81 1061.8 214.76 1067 210.92 1072.2 207.28 1077.5 203.84 1082.7 200.58 1087.9 197.48 1093.2 194.53 1098.4 191.72 1103.6 189.04 1108.9 186.46 1114.1 183.98 1119.3 181.58 1124.6 179.26 1129.8 176.99 1135 174.76 1140.2 172.56 1145.5 170.38 1150.7 168.2 1155.9 166.01 1161.2 163.79 1166.4 161.53 1171.6 159.22M1171.6 159.22 1176.9 156.85 1182.1 154.4 1187.3 151.85 1192.5 149.2 1197.8 146.42 1203 143.52 1208.2 140.46 1213.5 137.25 1218.7 133.86 1223.9 130.28 1229.2 126.5 1234.4 122.51 1239.6 118.29 1244.9 113.83 1250.1 109.11 1255.3 104.12M1255.3 104.12 1260.5 98.849 1265.8 93.281 1271 87.404 1276.2 81.204M1276.2 81.204 1281.5 74.667 1286.7 67.779M1286.7 67.779 1291.5 61.089"/></g></g><g clip-path="url(#clip58)"><g><path d="M950.48 406.8 950.25 404.81C950.717 404.937 951.123 405 951.47 405 951.937 405 952.31 404.923 952.59 404.77 952.877 404.61 953.107 404.39 953.28 404.11 953.413 403.903 953.627 403.383 953.92 402.55 953.96 402.423 954.023 402.25 954.11 402.03L949.39 389.55 951.66 389.55 954.25 396.77C954.583 397.67 954.887 398.627 955.16 399.64 955.4 398.673 955.687 397.73 956.02 396.81L958.69 389.55 960.8 389.55 956.06 402.22C955.553 403.587 955.16 404.523 954.88 405.03 954.5 405.73 954.07 406.24 953.59 406.56 953.103 406.887 952.52 407.05 951.84 407.05 951.433 407.05 950.98 406.967 950.48 406.8ZM973.69 391.89 962.34 391.89 962.34 389.92 973.69 389.92 973.69 391.89ZM973.69 397.11 962.34 397.11 962.34 395.14 973.69 395.14 973.69 397.11ZM977.11 402 977.11 391.19 975.23 391.19 975.23 389.55 977.11 389.55 977.11 388.23C977.11 387.39 977.183 386.767 977.33 386.36 977.523 385.82 977.88 385.38 978.4 385.04 978.913 384.7 979.63 384.53 980.55 384.53 981.143 384.53 981.8 384.597 982.52 384.73L982.2 386.58C981.767 386.493 981.35 386.45 980.95 386.45 980.317 386.45 979.867 386.59 979.6 386.87 979.333 387.143 979.2 387.657 979.2 388.41L979.2 389.55 981.62 389.55 981.62 391.19 979.2 391.19 979.2 402 977.11 402ZM987.29 407.05C986.137 405.577 985.157 403.857 984.35 401.89 983.543 399.923 983.14 397.887 983.14 395.78 983.14 393.913 983.44 392.133 984.04 390.44 984.74 388.46 985.823 386.49 987.29 384.53L988.81 384.53C987.863 386.157 987.237 387.313 986.93 388 986.45 389.08 986.077 390.207 985.81 391.38 985.477 392.847 985.31 394.313 985.31 395.78 985.31 399.54 986.477 403.297 988.81 407.05L987.29 407.05ZM989.85 402 994.39 395.53 990.19 389.55 992.83 389.55 994.74 392.47C995.107 393.023 995.397 393.487 995.61 393.86 995.957 393.347 996.27 392.893 996.55 392.5L998.66 389.55 1001.2 389.55 996.88 395.41 1001.5 402 998.91 402 996.36 398.12 995.68 397.09 992.41 402 989.85 402ZM1004.6 407.05 1003.1 407.05C1005.43 403.297 1006.6 399.54 1006.6 395.78 1006.6 394.313 1006.43 392.86 1006.1 391.42 1005.83 390.247 1005.47 389.123 1005 388.05 1004.73 387.337 1004.1 386.163 1003.1 384.53L1004.6 384.53C1006.07 386.49 1007.17 388.46 1007.9 390.44 1008.5 392.133 1008.8 393.913 1008.8 395.78 1008.8 397.887 1008.4 399.923 1007.6 401.89 1006.8 403.857 1005.8 405.577 1004.6 407.05Z"/></g></g><g clip-path="url(#clip59)"><g><path d="M933.28 424.34C933.28 427.1 931.04 429.34 928.28 429.34 925.51 429.34 923.28 427.1 923.28 424.34 923.28 421.58 925.51 419.34 928.28 419.34 931.04 419.34 933.28 421.58 933.28 424.34Z"/></g></g><g clip-path="url(#clip60)"><g stroke="#000000" stroke-linecap="round" stroke-linejoin="round" fill="none"><path d="M933.28 424.34C933.28 427.1 931.04 429.34 928.28 429.34 925.51 429.34 923.28 427.1 923.28 424.34 923.28 421.58 925.51 419.34 928.28 419.34 931.04 419.34 933.28 421.58 933.28 424.34Z"/></g></g><g clip-path="url(#clip61)"><g><path d="M1005.9 279.04C1005.9 281.8 1003.7 284.04 1000.9 284.04 998.16 284.04 995.93 281.8 995.93 279.04 995.93 276.28 998.16 274.04 1000.9 274.04 1003.7 274.04 1005.9 276.28 1005.9 279.04Z"/></g></g><g clip-path="url(#clip62)"><g stroke="#000000" stroke-linecap="round" stroke-linejoin="round" fill="none"><path d="M1005.9 279.04C1005.9 281.8 1003.7 284.04 1000.9 284.04 998.16 284.04 995.93 281.8 995.93 279.04 995.93 276.28 998.16 274.04 1000.9 274.04 1003.7 274.04 1005.9 276.28 1005.9 279.04Z"/></g></g><g clip-path="url(#clip63)"><g><path d="M1078.6 206.39C1078.6 209.15 1076.3 211.39 1073.6 211.39 1070.8 211.39 1068.6 209.15 1068.6 206.39 1068.6 203.63 1070.8 201.39 1073.6 201.39 1076.3 201.39 1078.6 203.63 1078.6 206.39Z"/></g></g><g clip-path="url(#clip64)"><g stroke="#000000" stroke-linecap="round" stroke-linejoin="round" fill="none"><path d="M1078.6 206.39C1078.6 209.15 1076.3 211.39 1073.6 211.39 1070.8 211.39 1068.6 209.15 1068.6 206.39 1068.6 203.63 1070.8 201.39 1073.6 201.39 1076.3 201.39 1078.6 203.63 1078.6 206.39Z"/></g></g><g clip-path="url(#clip65)"><g><path d="M1223.9 133.74C1223.9 136.5 1221.6 138.74 1218.9 138.74 1216.1 138.74 1213.9 136.5 1213.9 133.74 1213.9 130.98 1216.1 128.74 1218.9 128.74 1221.6 128.74 1223.9 130.98 1223.9 133.74Z"/></g></g><g clip-path="url(#clip66)"><g stroke="#000000" stroke-linecap="round" stroke-linejoin="round" fill="none"><path d="M1223.9 133.74C1223.9 136.5 1221.6 138.74 1218.9 138.74 1216.1 138.74 1213.9 136.5 1213.9 133.74 1213.9 130.98 1216.1 128.74 1218.9 128.74 1221.6 128.74 1223.9 130.98 1223.9 133.74Z"/></g></g><g clip-path="url(#clip67)"><g><path d="M1296.5 61.089C1296.5 63.85 1294.3 66.089 1291.5 66.089 1288.8 66.089 1286.5 63.85 1286.5 61.089 1286.5 58.327 1288.8 56.089 1291.5 56.089 1294.3 56.089 1296.5 58.327 1296.5 61.089Z"/></g></g><g clip-path="url(#clip68)"><g stroke="#000000" stroke-linecap="round" stroke-linejoin="round" fill="none"><path d="M1296.5 61.089C1296.5 63.85 1294.3 66.089 1291.5 66.089 1288.8 66.089 1286.5 63.85 1286.5 61.089 1286.5 58.327 1288.8 56.089 1291.5 56.089 1294.3 56.089 1296.5 58.327 1296.5 61.089Z"/></g></g></g></g></svg>