<svg width="323.528" height="341.669" viewBox="0 0 426 451" xmlns="http://www.w3.org/2000/svg" xmlns:xlink="http://www.w3.org/1999/xlink" overflow="hidden"><g stroke-width="1" stroke-linecap="square" stroke-linejoin="miter" stroke-miterlimit="10" stroke-dasharray="" stroke-dashoffset="0"><clipPath id="clip2b3cc695-0680-4262-925d-3afdee363918"><path d="M0 0 0 452 428 452 428 0Z"/></clipPath><clipPath id="clipb9c1b337-ac88-4504-a002-2a48e2fff37c"><path d="M0 0 0 452 428 452 428 0Z"/></clipPath><clipPath id="clipd592c268-e567-4e33-a7ef-1286868ac6ca"><path d="M0 0 0 452 428 452 428 0Z"/></clipPath><clipPath id="clip9b074e03-fdb5-439f-909c-ec92b0558cbc"><path d="M0 0 0 452 428 452 428 0Z"/></clipPath><clipPath id="clip0c862577-b192-4821-b9a3-2fabab3f91b4"><path d="M0 0 0 452 428 452 428 0Z"/></clipPath><clipPath id="clip69f22ebf-d789-41c5-9a77-dece84e41354"><path d="M0 0 0 452 428 452 428 0Z"/></clipPath><clipPath id="clip21489eb6-a298-4ae7-a3ef-f467703e48df"><path d="M0 0 0 452 428 452 428 0Z"/></clipPath><clipPath id="clip94e0d522-f744-4fa2-8036-e7993d95f51f"><path d="M0 0 0 452 428 452 428 0Z"/></clipPath><clipPath id="clipfbb5fd9e-6d7b-4ec7-b2c6-64ab6117fbff"><path d="M0 0 0 452 428 452 428 0Z"/></clipPath><clipPath id="clip7c559375-9c56-47df-a38f-de24b123d045"><path d="M0 0 0 452 428 452 428 0Z"/></clipPath><clipPath id="clipcbe2fc68-cb50-4221-8508-4a1085ab3fd2"><path d="M0 0 0 452 428 452 428 0Z"/></clipPath><clipPath id="clip2a7b8535-66fa-4b4e-8843-bde95b652f9d"><path d="M0 0 0 452 428 452 428 0Z"/></clipPath><clipPath id="clipe175ebb1-2d8a-48fe-bf59-30b0b0c4f462"><path d="M0 0 0 452 428 452 428 0Z"/></clipPath><clipPath id="clipdab94b4c-6eed-45fb-a275-51526fa1001b"><path d="M0 0 0 452 428 452 428 0Z"/></clipPath><clipPath id="clipd93de9f0-cf7b-4f72-8f77-dfaf4f95a7b3"><path d="M0 0 0 452 428 452 428 0Z"/></clipPath><clipPath id="clip45e3552b-3115-439d-8810-e10805e2096d"><path d="M0 0 0 452 428 452 428 0Z"/></clipPath><clipPath id="clip75c0bdda-11d5-4b25-afe8-ad8b800fe9f6"><path d="M0 0 0 452 428 452 428 0Z"/></clipPath><clipPath id="clipfc9e17eb-72d5-45b8-b02d-fd319682cc86"><path d="M0 0 0 452 428 452 428 0Z"/></clipPath><clipPath id="clip97ae61e6-05d0-4e0e-962a-3afc41fc0833"><path d="M0 0 0 452 428 452 428 0Z"/></clipPath><clipPath id="clip588b7cf2-2830-496b-9ac5-0e0fa91684be"><path d="M0 0 0 452 428 452 428 0Z"/></clipPath><clipPath id="clipbb59b239-0384-4b15-ab1c-c890ca070124"><path d="M0 0 0 452 428 452 428 0Z"/></clipPath><clipPath id="clipffc57844-b4ef-46bb-af37-98fd5a93cfbc"><path d="M0 0 0 452 428 452 428 0Z"/></clipPath><clipPath id="clipf1de80ff-6def-42f5-b89b-3f10393761bf"><path d="M0 0 0 452 428 452 428 0Z"/></clipPath><clipPath id="clip77f64a12-443f-4fc5-8f2b-3f1b6e5b581f"><path d="M0 0 0 452 428 452 428 0Z"/></clipPath><clipPath id="clipd08616f7-08c1-4db3-beec-afcb8b5af253"><path d="M0 0 0 452 428 452 428 0Z"/></clipPath><clipPath id="clip154a0364-d99f-45ae-be0c-711e8483d986"><path d="M0 0 0 452 428 452 428 0Z"/></clipPath><clipPath id="clip007fc360-9e15-469d-a77d-fb0fc63cdf02"><path d="M0 0 0 452 428 452 428 0Z"/></clipPath><clipPath id="clip68259161-2983-428d-a530-a34f21e0b743"><path d="M0 0 0 452 428 452 428 0Z"/></clipPath><clipPath id="clipd5ab21ae-9f12-489a-982d-e5006a0d5e7b"><path d="M0 0 0 452 428 452 428 0Z"/></clipPath><clipPath id="clipf5eb1ed0-3371-4590-b13d-875138b403d7"><path d="M0 0 0 452 428 452 428 0Z"/></clipPath><clipPath id="clipe89756c2-666a-4328-b1b7-527794ed9de9"><path d="M0 0 0 452 428 452 428 0Z"/></clipPath><clipPath id="clip025b4f1e-6f59-4e9e-bf49-1cd2cc2d5b7c"><path d="M0 0 0 452 428 452 428 0Z"/></clipPath><clipPath id="clip5b748cfd-c5bf-449e-aa26-0979cc7970b7"><path d="M0 0 0 452 428 452 428 0Z"/></clipPath><clipPath id="clipffaf6ec3-0213-4e78-abd9-1006e70fb183"><path d="M0 0 0 452 428 452 428 0Z"/></clipPath><clipPath id="clip8d51cb54-d6b6-4ecd-a2e0-67bbb93cbc15"><path d="M0 0 0 452 428 452 428 0Z"/></clipPath><clipPath id="clipe8de6630-e47f-440a-b4cc-46a0373e7d60"><path d="M0 0 0 452 428 452 428 0Z"/></clipPath><clipPath id="clip9dc048e4-69e3-4cbe-b3d7-8765c0df71fc"><path d="M0 0 0 452 428 452 428 0Z"/></clipPath><clipPath id="clip0354a1fa-f370-42cf-a753-2b258481d542"><path d="M0 0 0 452 428 452 428 0Z"/></clipPath><clipPath id="clipc24d85b7-0603-471c-9fc5-9c6f20cd48d5"><path d="M0 0 0 452 428 452 428 0Z"/></clipPath><clipPath id="clipc49c2bb6-4589-4e43-9293-8c72ff6fb90f"><path d="M0 0 0 452 428 452 428 0Z"/></clipPath><clipPath id="clipc2163943-2196-4c3c-a92d-dcf691e756bc"><path d="M0 0 0 452 428 452 428 0Z"/></clipPath><clipPath id="clip5e0dacfd-b178-4a71-a9c6-36a4f0566d63"><path d="M0 0 0 452 428 452 428 0Z"/></clipPath><clipPath id="clip9ee07485-7e97-42b5-b58e-068aec7fed95"><path d="M0 0 0 452 428 452 428 0Z"/></clipPath><clipPath id="clip23aa9d29-50d5-4556-9cb8-7b5d9f4efd1e"><path d="M0 0 0 452 428 452 428 0Z"/></clipPath><clipPath id="clip0a860e94-222f-49a3-90b6-9f2464301872"><path d="M0 0 0 452 428 452 428 0Z"/></clipPath><clipPath id="clip58f346ba-daff-498a-8d45-c75b4895cb1a"><path d="M0 0 0 452 428 452 428 0Z"/></clipPath><clipPath id="clip100c09cc-df31-4d32-a8ef-1c68609f3323"><path d="M0 0 0 452 428 452 428 0Z"/></clipPath><clipPath id="clip3f8dc64a-8164-4543-9c67-ccf0ba6c8890"><path d="M0 0 0 452 428 452 428 0Z"/></clipPath><clipPath id="clipb7e342d1-576a-412d-a118-2c37e664ada0"><path d="M0 0 0 452 428 452 428 0Z"/></clipPath><clipPath id="clipaabe6995-d208-47c3-8280-3ec5ed4878e6"><path d="M0 0 0 452 428 452 428 0Z"/></clipPath><clipPath id="clip3edd61d4-97f8-419b-844b-b684eba94e70"><path d="M0 0 0 452 428 452 428 0Z"/></clipPath><clipPath id="clip32af35bc-39c6-4c3d-81c6-57c055066aa5"><path d="M0 0 0 452 428 452 428 0Z"/></clipPath><clipPath id="clip48716bb6-8491-43ef-a627-23aafaa6b0cb"><path d="M0 0 0 452 428 452 428 0Z"/></clipPath><clipPath id="clip96771035-e926-482f-91f5-8552b94c32fc"><path d="M0 0 0 452 428 452 428 0Z"/></clipPath><clipPath id="clip97fa54d6-1d95-4487-b3b0-202d179b5dd0"><path d="M0 0 0 452 428 452 428 0Z"/></clipPath><clipPath id="clip9071d5ed-eb79-49c4-89bc-bfd996a0e091"><path d="M0 0 0 452 428 452 428 0Z"/></clipPath><clipPath id="clipa9c67d89-f0a1-4018-b3f2-36c484f26385"><path d="M0 0 0 452 428 452 428 0Z"/></clipPath><clipPath id="clip167f6e64-895b-41b7-ab64-3ba28db7f9be"><path d="M0 0 0 452 428 452 428 0Z"/></clipPath><clipPath id="clip8d92fda1-a6a4-4833-a529-417e869725aa"><path d="M0 0 0 452 428 452 428 0Z"/></clipPath><clipPath id="clip21093d9b-a140-48f1-aa2c-012deeb40916"><path d="M0 0 0 452 428 452 428 0Z"/></clipPath><clipPath id="clip1a651fff-d4ae-4972-8d3b-dafa2fe42408"><path d="M0 0 0 452 428 452 428 0Z"/></clipPath><clipPath id="clip02838087-4b94-46ed-bb6d-a922509849d1"><path d="M0 0 0 452 428 452 428 0Z"/></clipPath><clipPath id="clip3f877f25-44b8-4d88-bd85-f5e0997c1d0c"><path d="M0 0 0 452 428 452 428 0Z"/></clipPath><clipPath id="clip32c7a041-b7a8-43c4-b2ce-d172b88ab0c3"><path d="M0 0 0 452 428 452 428 0Z"/></clipPath><clipPath id="clip19e10dbb-22fc-4a81-8279-daaffc84f666"><path d="M0 0 0 452 428 452 428 0Z"/></clipPath><clipPath id="clipa68ab100-39ae-45a3-93b8-8b40db3b2177"><path d="M0 0 0 452 428 452 428 0Z"/></clipPath><clipPath id="clip8c51f977-6c6e-48a8-94a0-0b7a888987c0"><path d="M0 0 0 452 428 452 428 0Z"/></clipPath><clipPath id="clipa3ac0bd3-1652-4422-a2a8-768a2a4a7cdb"><path d="M0 0 0 452 428 452 428 0Z"/></clipPath><clipPath id="clip6a387479-b11a-4b0e-9cd6-c8afd9982cf5"><path d="M0 0 0 452 428 452 428 0Z"/></clipPath><clipPath id="clipa8228e47-754f-4da6-b70e-0f6b5bf72197"><path d="M0 0 0 452 428 452 428 0Z"/></clipPath><clipPath id="clipf6a1b117-fea6-4c62-a618-6410d4a0e29d"><path d="M0 0 0 452 428 452 428 0Z"/></clipPath><clipPath id="clip0f8e4675-c726-46cf-a11f-ace4c6824ffa"><path d="M0 0 0 452 428 452 428 0Z"/></clipPath><clipPath id="clipffc96dfc-15b9-41d1-9073-155f4978c711"><path d="M0 0 0 452 428 452 428 0Z"/></clipPath><clipPath id="clipef9d8254-d9c3-477d-9b72-fb9c5a328f1a"><path d="M0 0 0 452 428 452 428 0Z"/></clipPath><clipPath id="clipe453c377-7bae-4299-8e7c-c89f62405ac2"><path d="M0 0 0 452 428 452 428 0Z"/></clipPath><clipPath id="clipc5536cc1-68ef-4079-bd10-909441a2bd09"><path d="M0 0 0 452 428 452 428 0Z"/></clipPath><clipPath id="clipf558e428-2a54-45b0-95b7-f21188fa959c"><path d="M0 0 0 452 428 452 428 0Z"/></clipPath><clipPath id="clip0950b627-c2d9-44c5-acf0-884d42a6a344"><path d="M0 0 0 452 428 452 428 0Z"/></clipPath><clipPath id="clip25ae0426-0d38-4cc2-b3ef-1c071aca8e4a"><path d="M0 0 0 452 428 452 428 0Z"/></clipPath><clipPath id="clipca03d414-c94d-41ba-8949-ced3b037b507"><path d="M0 0 0 452 428 452 428 0Z"/></clipPath><clipPath id="clip18a4bdc3-b283-4bdd-9c83-29c5c2cc5e80"><path d="M0 0 0 452 428 452 428 0Z"/></clipPath><clipPath id="clip60c4579a-83c3-4885-a623-a2f056adae23"><path d="M0 0 0 452 428 452 428 0Z"/></clipPath><clipPath id="clip10d45390-790d-416a-bb94-8958dede9d03"><path d="M0 0 0 452 428 452 428 0Z"/></clipPath><clipPath id="clip0fe91a80-ef67-44ce-9753-d94be14e370b"><path d="M0 0 0 452 428 452 428 0Z"/></clipPath><clipPath id="clipef91c1a8-72ee-42d8-996c-d1085852220f"><path d="M0 0 0 452 428 452 428 0Z"/></clipPath><clipPath id="clipc8b90109-c5eb-4862-a5b9-d08ca50072a7"><path d="M0 0 0 452 428 452 428 0Z"/></clipPath><clipPath id="clipcbcfdc2f-e4e1-4c90-87f8-73e4d75452ca"><path d="M0 0 0 452 428 452 428 0Z"/></clipPath><clipPath id="clipdf073a82-9010-44fb-8194-cb489269bedd"><path d="M0 0 0 452 428 452 428 0Z"/></clipPath><clipPath id="clipe9c5003f-1d4c-4323-8a8e-af411244d325"><path d="M0 0 0 452 428 452 428 0Z"/></clipPath><clipPath id="clipb0617e6a-4ed7-4ae5-a784-305d59cc3b52"><path d="M0 0 0 452 428 452 428 0Z"/></clipPath><clipPath id="clip842e0143-f1fc-4865-87c6-97dd27b48895"><path d="M0 0 0 452 428 452 428 0Z"/></clipPath><clipPath id="clipe7a3b6a8-7369-4a3c-b14c-3a28adc3af33"><path d="M0 0 0 452 428 452 428 0Z"/></clipPath><clipPath id="clip8b182a48-ae04-4f96-8871-c6df47f03ad8"><path d="M0 0 0 452 428 452 428 0Z"/></clipPath><clipPath id="clip8a28931a-3255-42dc-8f7d-459ac0ad6fd8"><path d="M0 0 0 452 428 452 428 0Z"/></clipPath><clipPath id="clipc3036aef-04ac-4bfc-a49e-aefbfef10ce2"><path d="M0 0 0 452 428 452 428 0Z"/></clipPath><clipPath id="clipce46c3ba-a727-465e-b8a5-e1bf65579d9f"><path d="M0 0 0 452 428 452 428 0Z"/></clipPath><clipPath id="clip0561e5f4-b964-43c6-b090-f6d1ccd7b368"><path d="M0 0 0 452 428 452 428 0Z"/></clipPath><clipPath id="clip5e73af71-d959-4b08-96bd-e9eabe5fc6aa"><path d="M0 0 0 452 428 452 428 0Z"/></clipPath><clipPath id="clip715a046e-59ed-41e4-adcd-5a238a3b6eab"><path d="M0 0 0 452 428 452 428 0Z"/></clipPath><clipPath id="clip312a5d5e-ef90-4a8d-9632-f19bdf79889d"><path d="M0 0 0 452 428 452 428 0Z"/></clipPath><clipPath id="clip053ef034-3f5d-46a0-8003-b98e10c751cc"><path d="M0 0 0 452 428 452 428 0Z"/></clipPath><clipPath id="clip0a6d0448-4c69-4f5d-92f9-2f5694bd1ec9"><path d="M0 0 0 452 428 452 428 0Z"/></clipPath><clipPath id="clip0f48ef7e-75df-47c0-a244-4dfc8bb940dc"><path d="M0 0 0 452 428 452 428 0Z"/></clipPath><g clip-path="url(#clip1)"><g stroke="#C0C0C0" stroke-linecap="round" stroke-linejoin="round" stroke-opacity="1" fill="none"><path d="M21 0 21 452"/></g></g><g clip-path="url(#clip2)"><g stroke="#C0C0C0" stroke-linecap="round" stroke-linejoin="round" stroke-opacity="1" fill="none"><path d="M21 0 21 452"/></g></g><g clip-path="url(#clip3)"><g stroke="#C0C0C0" stroke-linecap="round" stroke-linejoin="round" stroke-opacity="1" fill="none"><path d="M71 0 71 452"/></g></g><g clip-path="url(#clip4)"><g stroke="#C0C0C0" stroke-linecap="round" stroke-linejoin="round" stroke-opacity="1" fill="none"><path d="M171 0 171 452"/></g></g><g clip-path="url(#clip5)"><g stroke="#C0C0C0" stroke-linecap="round" stroke-linejoin="round" stroke-opacity="1" fill="none"><path d="M221 0 221 452"/></g></g><g clip-path="url(#clip6)"><g stroke="#C0C0C0" stroke-linecap="round" stroke-linejoin="round" stroke-opacity="1" fill="none"><path d="M271 0 271 452"/></g></g><g clip-path="url(#clip7)"><g stroke="#C0C0C0" stroke-linecap="round" stroke-linejoin="round" stroke-opacity="1" fill="none"><path d="M321 0 321 452"/></g></g><g clip-path="url(#clip8)"><g stroke="#C0C0C0" stroke-linecap="round" stroke-linejoin="round" stroke-opacity="1" fill="none"><path d="M371 0 371 452"/></g></g><g clip-path="url(#clip9)"><g stroke="#C0C0C0" stroke-linecap="round" stroke-linejoin="round" stroke-opacity="1" fill="none"><path d="M421 0 421 452"/></g></g><g clip-path="url(#clip10)"><g stroke="#C0C0C0" stroke-linecap="round" stroke-linejoin="round" stroke-opacity="0.23529" fill="none"><path d="M1 0 1 452"/></g></g><g clip-path="url(#clip11)"><g stroke="#C0C0C0" stroke-linecap="round" stroke-linejoin="round" stroke-opacity="0.23529" fill="none"><path d="M11 0 11 452"/></g></g><g clip-path="url(#clip12)"><g stroke="#C0C0C0" stroke-linecap="round" stroke-linejoin="round" stroke-opacity="0.23529" fill="none"><path d="M31 0 31 452"/></g></g><g clip-path="url(#clip13)"><g stroke="#C0C0C0" stroke-linecap="round" stroke-linejoin="round" stroke-opacity="0.23529" fill="none"><path d="M41 0 41 452"/></g></g><g clip-path="url(#clip14)"><g stroke="#C0C0C0" stroke-linecap="round" stroke-linejoin="round" stroke-opacity="0.23529" fill="none"><path d="M51 0 51 452"/></g></g><g clip-path="url(#clip15)"><g stroke="#C0C0C0" stroke-linecap="round" stroke-linejoin="round" stroke-opacity="0.23529" fill="none"><path d="M61 0 61 452"/></g></g><g clip-path="url(#clip16)"><g stroke="#C0C0C0" stroke-linecap="round" stroke-linejoin="round" stroke-opacity="0.23529" fill="none"><path d="M81 0 81 452"/></g></g><g clip-path="url(#clip17)"><g stroke="#C0C0C0" stroke-linecap="round" stroke-linejoin="round" stroke-opacity="0.23529" fill="none"><path d="M91 0 91 452"/></g></g><g clip-path="url(#clip18)"><g stroke="#C0C0C0" stroke-linecap="round" stroke-linejoin="round" stroke-opacity="0.23529" fill="none"><path d="M101 0 101 452"/></g></g><g clip-path="url(#clip19)"><g stroke="#C0C0C0" stroke-linecap="round" stroke-linejoin="round" stroke-opacity="0.23529" fill="none"><path d="M111 0 111 452"/></g></g><g clip-path="url(#clip20)"><g stroke="#C0C0C0" stroke-linecap="round" stroke-linejoin="round" stroke-opacity="0.23529" fill="none"><path d="M131 0 131 452"/></g></g><g clip-path="url(#clip21)"><g stroke="#C0C0C0" stroke-linecap="round" stroke-linejoin="round" stroke-opacity="0.23529" fill="none"><path d="M141 0 141 452"/></g></g><g clip-path="url(#clip22)"><g stroke="#C0C0C0" stroke-linecap="round" stroke-linejoin="round" stroke-opacity="0.23529" fill="none"><path d="M151 0 151 452"/></g></g><g clip-path="url(#clip23)"><g stroke="#C0C0C0" stroke-linecap="round" stroke-linejoin="round" stroke-opacity="0.23529" fill="none"><path d="M161 0 161 452"/></g></g><g clip-path="url(#clip24)"><g stroke="#C0C0C0" stroke-linecap="round" stroke-linejoin="round" stroke-opacity="0.23529" fill="none"><path d="M181 0 181 452"/></g></g><g clip-path="url(#clip25)"><g stroke="#C0C0C0" stroke-linecap="round" stroke-linejoin="round" stroke-opacity="0.23529" fill="none"><path d="M191 0 191 452"/></g></g><g clip-path="url(#clip26)"><g stroke="#C0C0C0" stroke-linecap="round" stroke-linejoin="round" stroke-opacity="0.23529" fill="none"><path d="M201 0 201 452"/></g></g><g clip-path="url(#clip27)"><g stroke="#C0C0C0" stroke-linecap="round" stroke-linejoin="round" stroke-opacity="0.23529" fill="none"><path d="M211 0 211 452"/></g></g><g clip-path="url(#clip28)"><g stroke="#C0C0C0" stroke-linecap="round" stroke-linejoin="round" stroke-opacity="0.23529" fill="none"><path d="M231 0 231 452"/></g></g><g clip-path="url(#clip29)"><g stroke="#C0C0C0" stroke-linecap="round" stroke-linejoin="round" stroke-opacity="0.23529" fill="none"><path d="M241 0 241 452"/></g></g><g clip-path="url(#clip30)"><g stroke="#C0C0C0" stroke-linecap="round" stroke-linejoin="round" stroke-opacity="0.23529" fill="none"><path d="M251 0 251 452"/></g></g><g clip-path="url(#clip31)"><g stroke="#C0C0C0" stroke-linecap="round" stroke-linejoin="round" stroke-opacity="0.23529" fill="none"><path d="M261 0 261 452"/></g></g><g clip-path="url(#clip32)"><g stroke="#C0C0C0" stroke-linecap="round" stroke-linejoin="round" stroke-opacity="0.23529" fill="none"><path d="M281 0 281 452"/></g></g><g clip-path="url(#clip33)"><g stroke="#C0C0C0" stroke-linecap="round" stroke-linejoin="round" stroke-opacity="0.23529" fill="none"><path d="M291 0 291 452"/></g></g><g clip-path="url(#clip34)"><g stroke="#C0C0C0" stroke-linecap="round" stroke-linejoin="round" stroke-opacity="0.23529" fill="none"><path d="M301 0 301 452"/></g></g><g clip-path="url(#clip35)"><g stroke="#C0C0C0" stroke-linecap="round" stroke-linejoin="round" stroke-opacity="0.23529" fill="none"><path d="M311 0 311 452"/></g></g><g clip-path="url(#clip36)"><g stroke="#C0C0C0" stroke-linecap="round" stroke-linejoin="round" stroke-opacity="0.23529" fill="none"><path d="M331 0 331 452"/></g></g><g clip-path="url(#clip37)"><g stroke="#C0C0C0" stroke-linecap="round" stroke-linejoin="round" stroke-opacity="0.23529" fill="none"><path d="M341 0 341 452"/></g></g><g clip-path="url(#clip38)"><g stroke="#C0C0C0" stroke-linecap="round" stroke-linejoin="round" stroke-opacity="0.23529" fill="none"><path d="M351 0 351 452"/></g></g><g clip-path="url(#clip39)"><g stroke="#C0C0C0" stroke-linecap="round" stroke-linejoin="round" stroke-opacity="0.23529" fill="none"><path d="M361 0 361 452"/></g></g><g clip-path="url(#clip40)"><g stroke="#C0C0C0" stroke-linecap="round" stroke-linejoin="round" stroke-opacity="0.23529" fill="none"><path d="M381 0 381 452"/></g></g><g clip-path="url(#clip41)"><g stroke="#C0C0C0" stroke-linecap="round" stroke-linejoin="round" stroke-opacity="0.23529" fill="none"><path d="M391 0 391 452"/></g></g><g clip-path="url(#clip42)"><g stroke="#C0C0C0" stroke-linecap="round" stroke-linejoin="round" stroke-opacity="0.23529" fill="none"><path d="M401 0 401 452"/></g></g><g clip-path="url(#clip43)"><g stroke="#C0C0C0" stroke-linecap="round" stroke-linejoin="round" stroke-opacity="0.23529" fill="none"><path d="M411 0 411 452"/></g></g><g clip-path="url(#clip44)"><g stroke="#C0C0C0" stroke-linecap="round" stroke-linejoin="round" stroke-opacity="1" fill="none"><path d="M0 25 428 25"/></g></g><g clip-path="url(#clip45)"><g stroke="#C0C0C0" stroke-linecap="round" stroke-linejoin="round" stroke-opacity="1" fill="none"><path d="M0 25 428 25"/></g></g><g clip-path="url(#clip46)"><g stroke="#C0C0C0" stroke-linecap="round" stroke-linejoin="round" stroke-opacity="1" fill="none"><path d="M0 75 428 75"/></g></g><g clip-path="url(#clip47)"><g stroke="#C0C0C0" stroke-linecap="round" stroke-linejoin="round" stroke-opacity="1" fill="none"><path d="M0 125 428 125"/></g></g><g clip-path="url(#clip48)"><g stroke="#C0C0C0" stroke-linecap="round" stroke-linejoin="round" stroke-opacity="1" fill="none"><path d="M0 175 428 175"/></g></g><g clip-path="url(#clip49)"><g stroke="#C0C0C0" stroke-linecap="round" stroke-linejoin="round" stroke-opacity="1" fill="none"><path d="M0 275 428 275"/></g></g><g clip-path="url(#clip50)"><g stroke="#C0C0C0" stroke-linecap="round" stroke-linejoin="round" stroke-opacity="1" fill="none"><path d="M0 325 428 325"/></g></g><g clip-path="url(#clip51)"><g stroke="#C0C0C0" stroke-linecap="round" stroke-linejoin="round" stroke-opacity="1" fill="none"><path d="M0 375 428 375"/></g></g><g clip-path="url(#clip52)"><g stroke="#C0C0C0" stroke-linecap="round" stroke-linejoin="round" stroke-opacity="1" fill="none"><path d="M0 425 428 425"/></g></g><g clip-path="url(#clip53)"><g stroke="#C0C0C0" stroke-linecap="round" stroke-linejoin="round" stroke-opacity="0.23529" fill="none"><path d="M0 5 428 5"/></g></g><g clip-path="url(#clip54)"><g stroke="#C0C0C0" stroke-linecap="round" stroke-linejoin="round" stroke-opacity="0.23529" fill="none"><path d="M0 5 428 5"/></g></g><g clip-path="url(#clip55)"><g stroke="#C0C0C0" stroke-linecap="round" stroke-linejoin="round" stroke-opacity="0.23529" fill="none"><path d="M0 15 428 15"/></g></g><g clip-path="url(#clip56)"><g stroke="#C0C0C0" stroke-linecap="round" stroke-linejoin="round" stroke-opacity="0.23529" fill="none"><path d="M0 35 428 35"/></g></g><g clip-path="url(#clip57)"><g stroke="#C0C0C0" stroke-linecap="round" stroke-linejoin="round" stroke-opacity="0.23529" fill="none"><path d="M0 45 428 45"/></g></g><g clip-path="url(#clip58)"><g stroke="#C0C0C0" stroke-linecap="round" stroke-linejoin="round" stroke-opacity="0.23529" fill="none"><path d="M0 55 428 55"/></g></g><g clip-path="url(#clip59)"><g stroke="#C0C0C0" stroke-linecap="round" stroke-linejoin="round" stroke-opacity="0.23529" fill="none"><path d="M0 65 428 65"/></g></g><g clip-path="url(#clip60)"><g stroke="#C0C0C0" stroke-linecap="round" stroke-linejoin="round" stroke-opacity="0.23529" fill="none"><path d="M0 85 428 85"/></g></g><g clip-path="url(#clip61)"><g stroke="#C0C0C0" stroke-linecap="round" stroke-linejoin="round" stroke-opacity="0.23529" fill="none"><path d="M0 95 428 95"/></g></g><g clip-path="url(#clip62)"><g stroke="#C0C0C0" stroke-linecap="round" stroke-linejoin="round" stroke-opacity="0.23529" fill="none"><path d="M0 105 428 105"/></g></g><g clip-path="url(#clip63)"><g stroke="#C0C0C0" stroke-linecap="round" stroke-linejoin="round" stroke-opacity="0.23529" fill="none"><path d="M0 115 428 115"/></g></g><g clip-path="url(#clip64)"><g stroke="#C0C0C0" stroke-linecap="round" stroke-linejoin="round" stroke-opacity="0.23529" fill="none"><path d="M0 135 428 135"/></g></g><g clip-path="url(#clip65)"><g stroke="#C0C0C0" stroke-linecap="round" stroke-linejoin="round" stroke-opacity="0.23529" fill="none"><path d="M0 145 428 145"/></g></g><g clip-path="url(#clip66)"><g stroke="#C0C0C0" stroke-linecap="round" stroke-linejoin="round" stroke-opacity="0.23529" fill="none"><path d="M0 155 428 155"/></g></g><g clip-path="url(#clip67)"><g stroke="#C0C0C0" stroke-linecap="round" stroke-linejoin="round" stroke-opacity="0.23529" fill="none"><path d="M0 165 428 165"/></g></g><g clip-path="url(#clip68)"><g stroke="#C0C0C0" stroke-linecap="round" stroke-linejoin="round" stroke-opacity="0.23529" fill="none"><path d="M0 185 428 185"/></g></g><g clip-path="url(#clip69)"><g stroke="#C0C0C0" stroke-linecap="round" stroke-linejoin="round" stroke-opacity="0.23529" fill="none"><path d="M0 195 428 195"/></g></g><g clip-path="url(#clip70)"><g stroke="#C0C0C0" stroke-linecap="round" stroke-linejoin="round" stroke-opacity="0.23529" fill="none"><path d="M0 205 428 205"/></g></g><g clip-path="url(#clip71)"><g stroke="#C0C0C0" stroke-linecap="round" stroke-linejoin="round" stroke-opacity="0.23529" fill="none"><path d="M0 215 428 215"/></g></g><g clip-path="url(#clip72)"><g stroke="#C0C0C0" stroke-linecap="round" stroke-linejoin="round" stroke-opacity="0.23529" fill="none"><path d="M0 235 428 235"/></g></g><g clip-path="url(#clip73)"><g stroke="#C0C0C0" stroke-linecap="round" stroke-linejoin="round" stroke-opacity="0.23529" fill="none"><path d="M0 245 428 245"/></g></g><g clip-path="url(#clip74)"><g stroke="#C0C0C0" stroke-linecap="round" stroke-linejoin="round" stroke-opacity="0.23529" fill="none"><path d="M0 255 428 255"/></g></g><g clip-path="url(#clip75)"><g stroke="#C0C0C0" stroke-linecap="round" stroke-linejoin="round" stroke-opacity="0.23529" fill="none"><path d="M0 265 428 265"/></g></g><g clip-path="url(#clip76)"><g stroke="#C0C0C0" stroke-linecap="round" stroke-linejoin="round" stroke-opacity="0.23529" fill="none"><path d="M0 285 428 285"/></g></g><g clip-path="url(#clip77)"><g stroke="#C0C0C0" stroke-linecap="round" stroke-linejoin="round" stroke-opacity="0.23529" fill="none"><path d="M0 295 428 295"/></g></g><g clip-path="url(#clip78)"><g stroke="#C0C0C0" stroke-linecap="round" stroke-linejoin="round" stroke-opacity="0.23529" fill="none"><path d="M0 305 428 305"/></g></g><g clip-path="url(#clip79)"><g stroke="#C0C0C0" stroke-linecap="round" stroke-linejoin="round" stroke-opacity="0.23529" fill="none"><path d="M0 315 428 315"/></g></g><g clip-path="url(#clip80)"><g stroke="#C0C0C0" stroke-linecap="round" stroke-linejoin="round" stroke-opacity="0.23529" fill="none"><path d="M0 335 428 335"/></g></g><g clip-path="url(#clip81)"><g stroke="#C0C0C0" stroke-linecap="round" stroke-linejoin="round" stroke-opacity="0.23529" fill="none"><path d="M0 345 428 345"/></g></g><g clip-path="url(#clip82)"><g stroke="#C0C0C0" stroke-linecap="round" stroke-linejoin="round" stroke-opacity="0.23529" fill="none"><path d="M0 355 428 355"/></g></g><g clip-path="url(#clip83)"><g stroke="#C0C0C0" stroke-linecap="round" stroke-linejoin="round" stroke-opacity="0.23529" fill="none"><path d="M0 365 428 365"/></g></g><g clip-path="url(#clip84)"><g stroke="#C0C0C0" stroke-linecap="round" stroke-linejoin="round" stroke-opacity="0.23529" fill="none"><path d="M0 385 428 385"/></g></g><g clip-path="url(#clip85)"><g stroke="#C0C0C0" stroke-linecap="round" stroke-linejoin="round" stroke-opacity="0.23529" fill="none"><path d="M0 395 428 395"/></g></g><g clip-path="url(#clip86)"><g stroke="#C0C0C0" stroke-linecap="round" stroke-linejoin="round" stroke-opacity="0.23529" fill="none"><path d="M0 405 428 405"/></g></g><g clip-path="url(#clip87)"><g stroke="#C0C0C0" stroke-linecap="round" stroke-linejoin="round" stroke-opacity="0.23529" fill="none"><path d="M0 415 428 415"/></g></g><g clip-path="url(#clip88)"><g stroke="#C0C0C0" stroke-linecap="round" stroke-linejoin="round" stroke-opacity="0.23529" fill="none"><path d="M0 435 428 435"/></g></g><g clip-path="url(#clip89)"><g stroke="#C0C0C0" stroke-linecap="round" stroke-linejoin="round" stroke-opacity="0.23529" fill="none"><path d="M0 445 428 445"/></g></g><g clip-path="url(#clip90)"><g stroke="#000000" stroke-linecap="butt" stroke-opacity="1" fill="none"><path d="M121 2 121 452"/></g></g><g clip-path="url(#clip91)"><g stroke="#000000" stroke-linecap="butt" stroke-opacity="1" fill="none"><path d="M121 1 117 5"/></g></g><g clip-path="url(#clip92)"><g stroke="#000000" stroke-linecap="butt" stroke-opacity="1" fill="none"><path d="M121 1 125 5"/></g></g><g clip-path="url(#clip93)"><g stroke="#000000" stroke-linecap="butt" stroke-opacity="1" fill="none"><path d="M0 225 426 225"/></g></g><g clip-path="url(#clip94)"><g stroke="#000000" stroke-linecap="butt" stroke-opacity="1" fill="none"><path d="M427 225 423 221"/></g></g><g clip-path="url(#clip95)"><g stroke="#000000" stroke-linecap="butt" stroke-opacity="1" fill="none"><path d="M427 225 423 229"/></g></g><g clip-path="url(#clip96)"><g stroke="none" fill="#000000" fill-rule="nonzero" fill-opacity="1"><path d="M15.615 237.82 15.615 237.02 20.385 237.02 20.385 237.82ZM21.996 241 21.996 239.99C22.332 239.203 23.0117 238.347 24.035 237.42L24.697 236.83C25.549 236.057 25.975 235.293 25.975 234.54 25.975 234.053 25.8293 233.67 25.538 233.39 25.2473 233.117 24.848 232.98 24.34 232.98 23.7387 232.98 23.0297 233.213 22.213 233.68L22.213 232.66C22.9823 232.293 23.746 232.11 24.504 232.11 25.3167 232.11 25.969 232.33 26.461 232.77 26.953 233.203 27.199 233.783 27.199 234.51 27.199 235.03 27.075 235.49 26.827 235.89 26.579 236.29 26.117 236.78 25.441 237.36L24.996 237.74C24.07 238.52 23.535 239.27 23.391 239.99L27.158 239.99 27.158 241Z"/></g></g><g clip-path="url(#clip97)"><g stroke="none" fill="#000000" fill-rule="nonzero" fill-opacity="1"><path d="M66.615 237.82 66.615 237.02 71.385 237.02 71.385 237.82ZM73.805 241 73.805 240.13 75.539 240.13 75.539 233.29 73.805 233.72 73.805 232.83 76.699 232.11 76.699 240.13 78.434 240.13 78.434 241Z"/></g></g><g clip-path="url(#clip98)"><g stroke="none" fill="#000000" fill-rule="nonzero" fill-opacity="1"><path d="M170.8 241 170.8 240.13 172.54 240.13 172.54 233.29 170.8 233.72 170.8 232.83 173.7 232.11 173.7 240.13 175.43 240.13 175.43 241Z"/></g></g><g clip-path="url(#clip99)"><g stroke="none" fill="#000000" fill-rule="nonzero" fill-opacity="1"><path d="M220 241 220 239.99C220.333 239.203 221.013 238.347 222.04 237.42L222.7 236.83C223.547 236.057 223.97 235.293 223.97 234.54 223.97 234.053 223.827 233.67 223.54 233.39 223.247 233.117 222.847 232.98 222.34 232.98 221.74 232.98 221.03 233.213 220.21 233.68L220.21 232.66C220.983 232.293 221.747 232.11 222.5 232.11 223.313 232.11 223.967 232.33 224.46 232.77 224.953 233.203 225.2 233.783 225.2 234.51 225.2 235.03 225.077 235.49 224.83 235.89 224.583 236.29 224.12 236.78 223.44 237.36L223 237.74C222.073 238.52 221.537 239.27 221.39 239.99L225.16 239.99 225.16 241Z"/></g></g><g clip-path="url(#clip100)"><g stroke="none" fill="#000000" fill-rule="nonzero" fill-opacity="1"><path d="M270.22 240.94 270.22 239.86C271.047 240.187 271.7 240.35 272.18 240.35 272.727 240.35 273.173 240.19 273.52 239.87 273.867 239.543 274.04 239.127 274.04 238.62 274.04 237.4 273.187 236.79 271.48 236.79L271.02 236.79 271.02 236.01 271.43 236C273.03 236 273.83 235.437 273.83 234.31 273.83 233.423 273.303 232.98 272.25 232.98 271.67 232.98 271.033 233.14 270.34 233.46L270.34 232.46C271.02 232.227 271.683 232.11 272.33 232.11 274.103 232.11 274.99 232.78 274.99 234.12 274.99 235.14 274.387 235.867 273.18 236.3 274.58 236.627 275.28 237.393 275.28 238.6 275.28 239.413 275.01 240.053 274.47 240.52 273.93 240.987 273.19 241.22 272.25 241.22 271.71 241.22 271.033 241.127 270.22 240.94Z"/></g></g><g clip-path="url(#clip101)"><g stroke="none" fill="#000000" fill-rule="nonzero" fill-opacity="1"><path d="M323.52 241 323.52 238.54 319.62 238.54 319.62 237.67 323.52 232.33 324.6 232.33 324.6 237.6 325.76 237.6 325.76 238.54 324.6 238.54 324.6 241ZM320.75 237.6 323.59 237.6 323.59 233.75Z"/></g></g><g clip-path="url(#clip102)"><g stroke="none" fill="#000000" fill-rule="nonzero" fill-opacity="1"><path d="M370.46 241.04 370.46 240C371.033 240.233 371.58 240.35 372.1 240.35 372.673 240.35 373.12 240.183 373.44 239.85 373.767 239.51 373.93 239.047 373.93 238.46 373.93 237.16 373.033 236.51 371.24 236.51 371.04 236.51 370.83 236.523 370.61 236.55L370.61 232.33 374.99 232.33 374.99 233.34 371.62 233.34 371.62 235.62C372.733 235.62 373.603 235.877 374.23 236.39 374.85 236.903 375.16 237.613 375.16 238.52 375.16 239.36 374.877 240.02 374.31 240.5 373.743 240.98 372.957 241.22 371.95 241.22 371.51 241.22 371.013 241.16 370.46 241.04Z"/></g></g><g clip-path="url(#clip103)"><g stroke="none" fill="#000000" fill-rule="nonzero" fill-opacity="1"><path d="M109.76 241.22C108.867 241.22 108.143 240.797 107.59 239.95 107.037 239.11 106.76 238.013 106.76 236.66 106.76 235.293 107.04 234.193 107.6 233.36 108.153 232.527 108.887 232.11 109.8 232.11 110.707 232.11 111.44 232.527 112 233.36 112.553 234.193 112.83 235.287 112.83 236.64 112.83 238.033 112.553 239.143 112 239.97 111.44 240.803 110.693 241.22 109.76 241.22ZM109.77 240.35C110.997 240.35 111.61 239.107 111.61 236.62 111.61 234.193 111.007 232.98 109.8 232.98 108.593 232.98 107.99 234.207 107.99 236.66 107.99 239.12 108.583 240.35 109.77 240.35Z"/></g></g><g id="misc"></g><g id="layer0"><clipPath id="clip840917a9-5eb7-4748-b9c7-3b9a1a7442d0"><path d="M0 0 0 452 428 452 428 0Z"/></clipPath><clipPath id="clip6a92e991-e14d-4f1f-8c8d-61e54c159415"><path d="M0 0 0 452 428 452 428 0Z"/></clipPath><clipPath id="clipae8cd8a4-bdfe-4624-8a27-1e45d94be321"><path d="M0 0 0 452 428 452 428 0Z"/></clipPath><clipPath id="clipba7ab04c-c8a0-46f3-b107-5ee2521117fb"><path d="M0 0 0 452 428 452 428 0Z"/></clipPath><clipPath id="clip499de6e0-2f13-49c5-a368-21ed894f1655"><path d="M0 0 0 452 428 452 428 0Z"/></clipPath><g clip-path="url(#clip104)"><g stroke="#000000" stroke-width="2.5" stroke-linecap="round" stroke-linejoin="round" stroke-opacity="0.69804" fill="none"><path d="M-29 825C121-75 271-75 421 825"/></g></g><g clip-path="url(#clip105)"><g stroke="none" fill="#000000" fill-rule="nonzero" fill-opacity="1"><path d="M124 225C124 226.66 122.66 228 121 228 119.34 228 118 226.66 118 225 118 223.34 119.34 222 121 222 122.66 222 124 223.34 124 225Z"/></g></g><g clip-path="url(#clip106)"><g stroke="none" fill="#000000" fill-rule="nonzero" fill-opacity="1"><path d="M274 225C274 226.66 272.66 228 271 228 269.34 228 268 226.66 268 225 268 223.34 269.34 222 271 222 272.66 222 274 223.34 274 225Z"/></g></g><g transform="matrix(0.19 0 0 0.19 401 213.19)"><clipPath id="clipf11a711d-87be-4480-a78a-7a1a32d972a6"><path d="M-2110.5-1122-2110.5 1256.9 142.11 1256.9 142.11-1122Z"/></clipPath><g clip-path="url(#clip107)"><g stroke="none" fill="#000000" fill-rule="nonzero" fill-opacity="1"><path d="M33.406-30.203 30-16.5C28.8647-11.9687 28.297-9.03643 28.297-7.7031 28.297-4.23437 29.5313-2.1354 32-1.4062 32.5313-1.19793 33.1303-1.0938 33.797-1.0938 37.1303-1.0938 40.1667-2.76047 42.906-6.0938 44.698-8.2292 46.094-10.9323 47.094-14.203 47.302-14.9323 47.7393-15.297 48.406-15.297 49.198-15.297 49.594-14.9637 49.594-14.297 49.594-12.6303 48.5627-10.2293 46.5-7.0938 42.896-1.6354 38.594 1.0938 33.594 1.0938 29.0627 1.0938 25.7657-0.802067 23.703-4.5938 23.297-5.19793 22.995-5.83333 22.797-6.5 21.203-3.30207 19.005-1.06769 16.203 0.20312 14.9323 0.796907 13.6303 1.0938 12.297 1.0938 8.29693 1.0938 5.5-0.0728667 3.9062-2.4062 3.23953-3.2708 2.9062-4.30207 2.9062-5.5 2.9062-7.96873 3.96873-9.70307 6.0938-10.703 6.83333-11.099 7.60413-11.297 8.4062-11.297 10.4061-11.297 11.604-10.4636 12-8.7969 12.0627-8.46357 12.094-8.13023 12.094-7.7969 12.094-5.53643 10.9637-3.86977 8.7031-2.7969 8.2969-2.59897 7.8646-2.46873 7.4062-2.4062 8.80207-1.53127 10.4687-1.0938 12.406-1.0938 15.9373-1.0938 18.7343-3.46357 20.797-8.2031 21.203-9.2031 21.5727-10.3021 21.906-11.5 25.5-25.104 27.297-33.0363 27.297-35.297 26.901-39.4323 25.104-41.6667 21.906-42 18.4373-42 15.2707-40.2343 12.406-36.703L12.406-36.594C12.406-36.5313 12.3697-36.5 12.297-36.5 11.297-35.1667 10.3959-33.6353 9.5938-31.906 9.26047-31.104 8.96357-30.302 8.7031-29.5L8.5-28.906C8.3646-28.1667 7.9323-27.797 7.2031-27.797 6.40103-27.797 6-28.1303 6-28.797 6-30.4637 7.0677-32.8647 9.2031-36 12.797-41.4687 17.094-44.203 22.094-44.203 27.2293-44.203 30.8333-41.6667 32.906-36.594 35.0313-40.7293 37.8647-43.198 41.406-44 42.0727-44.1353 42.7393-44.203 43.406-44.203 47.3333-44.203 50.099-43.104 51.703-40.906 52.3697-39.9687 52.703-38.8647 52.703-37.594 52.703-34.8647 51.4687-33.0313 49-32.094 48.396-31.896 47.8283-31.797 47.297-31.797 45.2343-31.797 44-32.698 43.594-34.5 43.5313-34.7707 43.5-35.0363 43.5-35.297 43.5-37.297 44.4687-38.8647 46.406-40 47-40.3333 47.6303-40.5677 48.297-40.703 46.901-41.5677 45.2343-42 43.297-42 38.7657-42 35.5677-38.4687 33.703-31.406 33.5677-31 33.4687-30.599 33.406-30.203Z"/></g></g></g><g transform="matrix(0.19 0 0 0.19 131 11.189)"><clipPath id="clipe34f66e3-fe8e-46b3-9bed-d4b6f4f7319a"><path d="M-689.47-58.889-689.47 2320.1 1563.2 2320.1 1563.2-58.889Z"/></clipPath><g clip-path="url(#clip108)"><g stroke="none" fill="#000000" fill-rule="nonzero" fill-opacity="1"><path d="M48.594-38.094 39 0.09375C37.396 6.63538 33.8283 11.9375 28.297 16 24.2343 19 20 20.5 15.594 20.5 11.1355 20.5 7.96873 18.9687 6.0938 15.906 5.3646 14.6353 5 13.2657 5 11.797 5 8.40107 6.3646 6.30207 9.0938 5.5 9.6354 5.3646 10.1355 5.2969 10.594 5.2969 12.7293 5.2969 13.9323 6.2292 14.203 8.0938 14.2657 8.30207 14.297 8.53643 14.297 8.7969 14.297 10.3283 13.6303 11.698 12.297 12.906 11.3697 13.698 9.93733 14.094 8 14.094 9.19793 16.896 11.7293 18.297 15.594 18.297 19.7293 18.297 23.396 16.198 26.594 12 29.198 8.53127 31.2657 3.83333 32.797-2.0938 32.8697-2.3646 32.9687-2.80207 33.094-3.4062 30.094-0.4062 26.7293 1.0938 23 1.0938 17.6667 1.0938 14.0313-0.869767 12.094-4.7969 11.2293-6.53643 10.797-8.53647 10.797-10.797 10.797-14.4637 12.5627-21.0313 16.094-30.5 16.2293-30.896 16.396-31.3283 16.594-31.797 17.7293-34.8697 18.297-37.203 18.297-38.797 18.297-40.9323 17.4637-42 15.797-42 12.1303-42 9.1303-38.9687 6.7969-32.906L6.7969-32.797C6.40103-31.797 6.03643-30.7293 5.7031-29.594 4.96357-28.4687 4.42713-27.8697 4.0938-27.797 3.30207-27.797 2.9062-28.1303 2.9062-28.797 2.9062-29.995 3.60413-32.094 5-35.094 7.93747-41.1667 11.6355-44.203 16.094-44.203 19.6353-44.203 22.104-42.703 23.5-39.703 24.0313-38.5677 24.297-37.3333 24.297-36 24.297-34.604 23.6303-32.203 22.297-28.797 18.901-19.995 17.203-13.4637 17.203-9.2031 17.203-3.7969 19.2707-1.0938 23.406-1.0938 27.2707-1.0938 30.6353-3.1615 33.5-7.2969 34.1667-8.2969 34.5677-9.06253 34.703-9.5938L39.203-27.594C39.6717-29.802 40.3383-32.4687 41.203-35.594 41.8697-38.4687 42.3333-40.2707 42.594-41 43.4687-42.396 44.6353-43.094 46.094-43.094 47.7607-42.7607 48.7293-41.8647 49-40.406 49-39.802 48.8647-39.0313 48.594-38.094Z"/></g></g></g><g clip-path="url(#clip109)"><g stroke="none" fill="#000000" fill-rule="nonzero" fill-opacity="1"><path d="M309.45 426.29C307.65 426.29 306.26 425.763 305.28 424.71 304.3 423.65 303.81 422.157 303.81 420.23 303.81 418.303 304.31 416.807 305.31 415.74 306.303 414.68 307.707 414.15 309.52 414.15 310.56 414.15 311.773 414.32 313.16 414.66L313.16 416.2C311.58 415.653 310.36 415.38 309.5 415.38 308.247 415.38 307.277 415.803 306.59 416.65 305.897 417.497 305.55 418.693 305.55 420.24 305.55 421.713 305.92 422.877 306.66 423.73 307.393 424.583 308.393 425.01 309.66 425.01 310.753 425.01 311.927 424.673 313.18 424L313.18 425.41C312.04 425.997 310.797 426.29 309.45 426.29Z"/></g></g><g clip-path="url(#clip110)"><g stroke="none" fill="#000000" fill-rule="nonzero" fill-opacity="1"><path d="M317.02 426.59 317.02 433 315.67 433 315.67 426.59 314.62 426.59 314.62 425.58 315.67 425.58 315.67 424.69C315.67 422.923 316.477 422.04 318.09 422.04 318.543 422.04 319.057 422.113 319.63 422.26L319.63 423.33C319.023 423.143 318.537 423.05 318.17 423.05 317.73 423.05 317.43 423.153 317.27 423.36 317.103 423.573 317.02 423.967 317.02 424.54L317.02 425.58 318.88 425.58 318.88 426.59ZM321.92 424.23 323.35 421.37 324.91 421.37 322.85 424.23Z"/></g></g></g></g></svg>