<svg width="3944.36" height="1555.36" viewBox="0 0 1338 527" xmlns="http://www.w3.org/2000/svg" xmlns:xlink="http://www.w3.org/1999/xlink" overflow="hidden"><g stroke-linecap="square" stroke-miterlimit="10"><clipPath id="clip1b3e8e0f-b9c7-4548-b35e-7e949f714dde"><path d="M0 0 0 528 1339 528 1339 0Z"/></clipPath><clipPath id="clip4815876f-4e4e-49e3-b8d9-4237c75175fa"><path d="M0 0 0 528 1339 528 1339 0Z"/></clipPath><clipPath id="clip2bdcd693-ab23-4a2b-8709-db6b246e0b6e"><path d="M0 0 0 528 1339 528 1339 0Z"/></clipPath><clipPath id="clip4a80504b-f2bd-4cdc-8bbc-974cd0004427"><path d="M0 0 0 528 1339 528 1339 0Z"/></clipPath><clipPath id="clipa609ff0e-4285-4ea8-93c1-7f09c1708099"><path d="M0 0 0 528 1339 528 1339 0Z"/></clipPath><clipPath id="clipa31f862f-7d41-4a3d-a1a5-4fb6421d32bc"><path d="M0 0 0 528 1339 528 1339 0Z"/></clipPath><clipPath id="clipd8ecc894-13b7-48c2-a4c6-ad6a4960ae44"><path d="M0 0 0 528 1339 528 1339 0Z"/></clipPath><clipPath id="clipe2c76907-e3a9-4a24-9614-e82e0c5f1b0e"><path d="M0 0 0 528 1339 528 1339 0Z"/></clipPath><g clip-path="url(#clip1)"><g stroke="#000000" stroke-linecap="butt" fill="none"><path d="M860.24 2 860.24 528"/></g></g><g clip-path="url(#clip2)"><g stroke="#000000" stroke-linecap="butt" fill="none"><path d="M860.24 1 855.24 6"/></g></g><g clip-path="url(#clip3)"><g stroke="#000000" stroke-linecap="butt" fill="none"><path d="M860.24 1 865.24 6"/></g></g><g clip-path="url(#clip4)"><g><path d="M1319.1 385 1322.9 379.61 1319.4 374.62 1321.6 374.62 1323.2 377.06C1323.53 377.52 1323.77 377.907 1323.9 378.22 1324.23 377.793 1324.5 377.413 1324.7 377.08L1326.5 374.62 1328.6 374.62 1325 379.52 1328.9 385 1326.7 385 1324.6 381.78 1324 380.91 1321.3 385 1319.1 385Z"/></g></g><g clip-path="url(#clip5)"><g stroke="#000000" stroke-linecap="butt" fill="none"><path d="M0 389.53 1337 389.53"/></g></g><g clip-path="url(#clip6)"><g stroke="#000000" stroke-linecap="butt" fill="none"><path d="M1338 389.53 1333 384.53"/></g></g><g clip-path="url(#clip7)"><g stroke="#000000" stroke-linecap="butt" fill="none"><path d="M1338 389.53 1333 394.53"/></g></g><g clip-path="url(#clip8)"><g><path d="M866.23 29 866.05 27.344C866.43 27.448 866.763 27.5 867.05 27.5 867.443 27.5 867.757 27.435 867.99 27.305 868.223 27.1743 868.413 26.9947 868.56 26.766 868.673 26.5887 868.857 26.151 869.11 25.453 869.143 25.349 869.197 25.2033 869.27 25.016L865.33 14.625 867.22 14.625 869.38 20.641C869.66 21.401 869.907 22.1977 870.12 23.031 870.333 22.229 870.573 21.4427 870.84 20.672L873.06 14.625 874.83 14.625 870.88 25.172C870.46 26.318 870.13 27.1043 869.89 27.531 869.577 28.1143 869.22 28.539 868.82 28.805 868.42 29.0703 867.94 29.203 867.38 29.203 867.033 29.203 866.65 29.1353 866.23 29Z"/></g></g><g id="misc"></g><g id="layer0"><clipPath id="clip8080c0b2-8068-4030-9026-76461aceca61"><path d="M0 0 0 528 1339 528 1339 0Z"/></clipPath><clipPath id="clipa32a8b02-31c8-4dc2-9c1f-774318dd5611"><path d="M0 0 0 528 1339 528 1339 0Z"/></clipPath><clipPath id="clipe039b4c0-f75a-462b-94c6-d8813df78a4f"><path d="M0 0 0 528 1339 528 1339 0Z"/></clipPath><clipPath id="clip48f0bc86-4c17-4e4e-944d-28d87a12736e"><path d="M0 0 0 528 1339 528 1339 0Z"/></clipPath><clipPath id="clipeb62ee92-4b7c-48ab-afc3-181dd49a68be"><path d="M0 0 0 528 1339 528 1339 0Z"/></clipPath><clipPath id="clip2b250b3d-ba0e-45b7-bb21-c8a2fd61dab1"><path d="M0 0 0 528 1339 528 1339 0Z"/></clipPath><clipPath id="clip79900109-3147-41b7-b76b-6d3058c3a02e"><path d="M0 0 0 528 1339 528 1339 0Z"/></clipPath><clipPath id="clip26feeeb2-d400-4d0f-92e5-cd9e2afb90cb"><path d="M0 0 0 528 1339 528 1339 0Z"/></clipPath><clipPath id="clipeec39a61-6cd5-4524-9103-e887e3afd47c"><path d="M0 0 0 528 1339 528 1339 0Z"/></clipPath><clipPath id="clip0c6a87b5-2315-4f98-b232-b86e0e5144f3"><path d="M0 0 0 528 1339 528 1339 0Z"/></clipPath><clipPath id="clipbb66d719-3576-4f31-b719-19f759115052"><path d="M0 0 0 528 1339 528 1339 0Z"/></clipPath><clipPath id="clip4403e86c-f159-448f-9ed3-cc2d188a9b44"><path d="M0 0 0 528 1339 528 1339 0Z"/></clipPath><clipPath id="clip3df52bc7-516f-480c-90db-c2446e8dcf17"><path d="M0 0 0 528 1339 528 1339 0Z"/></clipPath><clipPath id="clip57a2fec7-318b-4ccf-9d8b-45c9f7fdae77"><path d="M0 0 0 528 1339 528 1339 0Z"/></clipPath><clipPath id="clip7db4fa61-36ba-4bc8-8d9d-da9f0e815692"><path d="M0 0 0 528 1339 528 1339 0Z"/></clipPath><clipPath id="clipa03dc140-c7b6-4b32-bf9b-465b8b97ea00"><path d="M0 0 0 528 1339 528 1339 0Z"/></clipPath><clipPath id="clip2cec918a-c001-41c2-8f82-5ec4d74f9f45"><path d="M0 0 0 528 1339 528 1339 0Z"/></clipPath><clipPath id="clip40bdbd19-7ceb-48f8-a27d-9a7f7ced439f"><path d="M0 0 0 528 1339 528 1339 0Z"/></clipPath><clipPath id="clip3c8816de-b209-4dcf-bc6f-be4041fe97c2"><path d="M0 0 0 528 1339 528 1339 0Z"/></clipPath><clipPath id="clip6dab7640-d0bb-4b3c-a41a-3ca354aa50ed"><path d="M0 0 0 528 1339 528 1339 0Z"/></clipPath><clipPath id="clip30da8035-5215-405b-8dbe-bd4a9a679e1e"><path d="M0 0 0 528 1339 528 1339 0Z"/></clipPath><clipPath id="clip179de5a6-65e1-4e84-8439-cd7cfbb73c41"><path d="M0 0 0 528 1339 528 1339 0Z"/></clipPath><clipPath id="clip27420fb2-b39b-477f-b376-85b233742570"><path d="M0 0 0 528 1339 528 1339 0Z"/></clipPath><clipPath id="clip3770f283-27ca-40c8-a6b7-b747b9e56ed3"><path d="M0 0 0 528 1339 528 1339 0Z"/></clipPath><clipPath id="clip29642e3d-c825-44da-b9e8-973dec8000f2"><path d="M0 0 0 528 1339 528 1339 0Z"/></clipPath><clipPath id="clipf7d0aa23-447c-410a-ae48-4f8e52481ab8"><path d="M0 0 0 528 1339 528 1339 0Z"/></clipPath><clipPath id="clip4ba80728-12a5-4b12-8f13-07ec72057fba"><path d="M0 0 0 528 1339 528 1339 0Z"/></clipPath><g clip-path="url(#clip9)"><g fill-rule="evenodd" fill-opacity="0.18824"><path d="M901 213.24 1114.1 213.24 1114.1 389.53 901 389.53Z"/></g></g><g clip-path="url(#clip10)"><g stroke="#000000" stroke-width="3.5" stroke-linecap="round" stroke-linejoin="round" stroke-opacity="0.69804" fill="none"><path d="M0 389.37 5.2305 389.36 10.461 389.36 15.691 389.35 20.922 389.34 26.152 389.33 31.383 389.32 36.613 389.32 41.844 389.31 47.074 389.3 52.305 389.29 57.535 389.28 62.766 389.27 67.996 389.26 73.227 389.25 78.457 389.24 83.688 389.22 88.918 389.21 94.148 389.2 99.379 389.18 104.61 389.17 109.84 389.16 115.07 389.14 120.3 389.12 125.53 389.11 130.76 389.09 135.99 389.07 141.22 389.05 146.45 389.03 151.68 389.01 156.91 388.99 162.14 388.97 167.38 388.95 172.61 388.92 177.84 388.9 183.07 388.87 188.3 388.84 193.53 388.82 198.76 388.79 203.99 388.75 209.22 388.72 214.45 388.69 219.68 388.65 224.91 388.62 230.14 388.58 235.37 388.54 240.6 388.5 245.83 388.46 251.06 388.41 256.29 388.37 261.52 388.32 266.75 388.27 271.98 388.22 277.21 388.16 282.45 388.11 287.68 388.05 292.91 387.98 298.14 387.92 303.37 387.85 308.6 387.78 313.83 387.71 319.06 387.64 324.29 387.56 329.52 387.48 334.75 387.39 339.98 387.3 345.21 387.21 350.44 387.11 355.67 387.01 360.9 386.91 366.13 386.8 371.36 386.68 376.59 386.57 381.82 386.44 387.05 386.32 392.29 386.18 397.52 386.04 402.75 385.9 407.98 385.75 413.21 385.59 418.44 385.43 423.67 385.25 428.9 385.08 434.13 384.89 439.36 384.7 444.59 384.5 449.82 384.29 455.05 384.07 460.28 383.84 465.51 383.61 470.74 383.36 475.97 383.11 481.2 382.84 486.43 382.56 491.66 382.27 496.89 381.97 502.12 381.65 507.36 381.33 512.59 380.99 517.82 380.63 523.05 380.26 528.28 379.87 533.51 379.47 538.74 379.05 543.97 378.62 549.2 378.16 554.43 377.69 559.66 377.2 564.89 376.69 570.12 376.15 575.35 375.6 580.58 375.02 585.81 374.41 591.04 373.78 596.27 373.13 601.5 372.45 606.73 371.74 611.96 371 617.2 370.22 622.43 369.42 627.66 368.58 632.89 367.71 638.12 366.81 643.35 365.86 648.58 364.88 653.81 363.85 659.04 362.78 664.27 361.67 669.5 360.51M669.5 360.51 674.73 359.3 679.96 358.05 685.19 356.74 690.42 355.37 695.65 353.95 700.88 352.47 706.11 350.93 711.34 349.32 716.57 347.65 721.8 345.91 727.04 344.09 732.27 342.2 737.5 340.23 742.73 338.18 747.96 336.05 753.19 333.82 758.42 331.5 763.65 329.09 768.88 326.57 774.11 323.95 779.34 321.23 784.57 318.38 789.8 315.42 795.03 312.34 800.26 309.13 805.49 305.78 810.72 302.3 815.95 298.67 821.18 294.89 826.41 290.95 831.64 286.85 836.88 282.58M836.88 282.58 842.11 278.13 847.34 273.49 852.57 268.67 857.8 263.64 863.03 258.4 868.26 252.94 873.49 247.26 878.72 241.34 883.95 235.17 889.18 228.75 894.41 222.06 899.64 215.09 904.87 207.84 910.1 200.28 915.33 192.4 920.56 184.2M920.56 184.2 925.79 175.66 931.02 166.76 936.25 157.49 941.48 147.84 944.1 142.86 946.71 137.78 949.33 132.59 951.95 127.3 954.56 121.9 957.18 116.39 959.79 110.77 962.41 105.03M962.41 105.03 965.02 99.17 967.64 93.191 970.25 87.089 972.87 80.861 975.48 74.505 978.1 68.018 980.71 61.398 983.33 54.641M983.33 54.641 985.93 47.77 988.54 40.758"/></g></g><g clip-path="url(#clip11)"><g stroke="#000000" stroke-width="3.5" stroke-linecap="round" stroke-linejoin="round" stroke-opacity="0.69804" fill="none"><path d="M988.54 40.758 988.56 40.809M988.56 40.809 991.17 47.774 993.79 54.466M993.79 54.466 996.4 60.901 999.02 67.094 1001.6 73.057 1004.2 78.804M1004.2 78.804 1006.9 84.346 1009.5 89.694 1012.1 94.857 1014.7 99.846 1019.9 109.33 1025.2 118.22 1030.4 126.56 1035.6 134.4 1040.9 141.79 1046.1 148.76 1051.3 155.35 1056.6 161.59 1061.8 167.5 1067 173.12 1072.2 178.46 1077.5 183.54 1082.7 188.38 1087.9 193 1093.2 197.42 1098.4 201.64 1103.6 205.67 1108.9 209.54 1114.1 213.25 1119.3 216.81 1124.6 220.23 1129.8 223.51 1135 226.67 1140.2 229.71 1145.5 232.64 1150.7 235.47 1155.9 238.19 1161.2 240.82 1166.4 243.36 1171.6 245.82 1176.9 248.19 1182.1 250.49 1187.3 252.71 1192.5 254.87 1197.8 256.95 1203 258.98 1208.2 260.94 1213.5 262.84 1218.7 264.69 1223.9 266.49 1229.2 268.23 1234.4 269.93 1239.6 271.58 1244.9 273.18 1250.1 274.74 1255.3 276.26 1260.5 277.74 1265.8 279.18 1271 280.59 1276.2 281.96 1281.5 283.29 1286.7 284.6 1291.9 285.87 1297.2 287.11 1302.4 288.32 1307.6 289.5 1312.8 290.66 1318.1 291.79 1323.3 292.89 1328.5 293.97 1333.8 295.03 1339 296.06"/></g></g><g clip-path="url(#clip12)"><g stroke="#000000" stroke-width="3" stroke-linecap="round" stroke-linejoin="round" stroke-opacity="0.69804" fill="none"><path d="M901 213.24 1114.1 213.24"/></g></g><g clip-path="url(#clip13)"><g stroke="#000000" stroke-width="3" stroke-linecap="round" stroke-linejoin="round" stroke-opacity="0.69804" fill="none"><path d="M1114.1 213.24 1114.1 389.53"/></g></g><g clip-path="url(#clip14)"><g stroke="#000000" stroke-width="3" stroke-linecap="round" stroke-linejoin="round" stroke-opacity="0.69804" fill="none"><path d="M1114.1 389.53 901 389.53"/></g></g><g clip-path="url(#clip15)"><g stroke="#000000" stroke-width="3" stroke-linecap="round" stroke-linejoin="round" stroke-opacity="0.69804" fill="none"><path d="M901 389.53 901 213.24"/></g></g><g clip-path="url(#clip16)"><g stroke="#000000" stroke-width="2.5" stroke-linecap="butt" stroke-linejoin="round" stroke-dasharray="10.5 8" stroke-opacity="0.69804" fill="none"><path d="M988.54 40.758 988.54 389.53"/></g></g><g clip-path="url(#clip17)"><g stroke="#000000" stroke-width="2" fill="none"><path d="M992.54 40.758C992.54 42.967 990.75 44.758 988.54 44.758 986.33 44.758 984.54 42.967 984.54 40.758 984.54 38.549 986.33 36.758 988.54 36.758 990.75 36.758 992.54 38.549 992.54 40.758Z"/></g></g><g clip-path="url(#clip18)"><g><path d="M906 213.24C906 216 903.76 218.24 901 218.24 898.24 218.24 896 216 896 213.24 896 210.48 898.24 208.24 901 208.24 903.76 208.24 906 210.48 906 213.24Z"/></g></g><g clip-path="url(#clip19)"><g stroke="#000000" stroke-linecap="round" stroke-linejoin="round" fill="none"><path d="M906 213.24C906 216 903.76 218.24 901 218.24 898.24 218.24 896 216 896 213.24 896 210.48 898.24 208.24 901 208.24 903.76 208.24 906 210.48 906 213.24Z"/></g></g><g clip-path="url(#clip20)"><g><path d="M890.47 203 890.47 188.69 895.84 188.69C896.933 188.69 897.81 188.833 898.47 189.12 899.123 189.407 899.64 189.85 900.02 190.45 900.393 191.057 900.58 191.687 900.58 192.34 900.58 192.96 900.417 193.54 900.09 194.08 899.757 194.62 899.253 195.053 898.58 195.38 899.447 195.64 900.113 196.073 900.58 196.68 901.047 197.287 901.28 198.007 901.28 198.84 901.28 199.52 901.137 200.147 900.85 200.72 900.563 201.293 900.213 201.737 899.8 202.05 899.38 202.363 898.857 202.6 898.23 202.76 897.61 202.92 896.84 203 895.92 203L890.47 203ZM892.36 194.7 895.45 194.7C896.297 194.7 896.903 194.643 897.27 194.53 897.743 194.383 898.103 194.147 898.35 193.82 898.597 193.493 898.72 193.073 898.72 192.56 898.72 192.093 898.607 191.677 898.38 191.31 898.147 190.95 897.82 190.703 897.4 190.57 896.98 190.443 896.253 190.38 895.22 190.38L892.36 190.38 892.36 194.7ZM892.36 201.31 895.92 201.31C896.533 201.31 896.967 201.283 897.22 201.23 897.66 201.157 898.023 201.03 898.31 200.85 898.603 200.67 898.843 200.403 899.03 200.05 899.217 199.703 899.31 199.3 899.31 198.84 899.31 198.313 899.177 197.85 898.91 197.45 898.637 197.057 898.257 196.78 897.77 196.62 897.277 196.467 896.577 196.39 895.67 196.39L892.36 196.39 892.36 201.31Z"/></g></g><g clip-path="url(#clip21)"><g><path d="M906 389.53C906 392.29 903.76 394.53 901 394.53 898.24 394.53 896 392.29 896 389.53 896 386.76 898.24 384.53 901 384.53 903.76 384.53 906 386.76 906 389.53Z"/></g></g><g clip-path="url(#clip22)"><g stroke="#000000" stroke-linecap="round" stroke-linejoin="round" fill="none"><path d="M906 389.53C906 392.29 903.76 394.53 901 394.53 898.24 394.53 896 392.29 896 389.53 896 386.76 898.24 384.53 901 384.53 903.76 384.53 906 386.76 906 389.53Z"/></g></g><g clip-path="url(#clip23)"><g><path d="M886.97 419 892.47 404.69 894.52 404.69 900.38 419 898.22 419 896.55 414.66 890.56 414.66 888.98 419 886.97 419ZM891.11 413.12 895.95 413.12 894.47 409.16C894.01 407.947 893.67 406.957 893.45 406.19 893.263 407.103 893.003 408.013 892.67 408.92L891.11 413.12ZM905.01 423.2C904.043 421.987 903.227 420.557 902.56 418.91 901.893 417.27 901.56 415.57 901.56 413.81 901.56 412.257 901.81 410.773 902.31 409.36 902.89 407.713 903.79 406.073 905.01 404.44L906.28 404.44C905.487 405.793 904.963 406.76 904.71 407.34 904.317 408.24 904.007 409.18 903.78 410.16 903.5 411.373 903.36 412.597 903.36 413.83 903.36 416.957 904.333 420.08 906.28 423.2L905.01 423.2ZM916.02 408.62 917.81 408.62C917.35 410.06 916.93 411.79 916.55 413.81 917.003 416.323 917.423 418.053 917.81 419L916.06 419C915.78 418.347 915.567 417.717 915.42 417.11 914.887 418.523 913.763 419.23 912.05 419.23 910.743 419.23 909.693 418.743 908.9 417.77 908.1 416.79 907.7 415.467 907.7 413.8 907.7 412.08 908.1 410.747 908.9 409.8 909.693 408.86 910.747 408.39 912.06 408.39 912.887 408.39 913.553 408.553 914.06 408.88 914.573 409.213 915.053 409.717 915.5 410.39 915.54 410.163 915.713 409.573 916.02 408.62ZM912.36 409.84C911.527 409.84 910.867 410.18 910.38 410.86 909.887 411.54 909.64 412.52 909.64 413.8 909.64 415.04 909.873 416.013 910.34 416.72 910.8 417.427 911.443 417.78 912.27 417.78 913.07 417.78 913.74 417.43 914.28 416.73 914.82 416.037 915.09 415.033 915.09 413.72 915.09 412.44 914.84 411.473 914.34 410.82 913.833 410.167 913.173 409.84 912.36 409.84ZM920.34 419 920.34 417 922.34 417 922.34 419C922.34 419.74 922.21 420.337 921.95 420.79 921.69 421.243 921.28 421.59 920.72 421.83L920.22 421.08C920.593 420.92 920.87 420.683 921.05 420.37 921.223 420.05 921.32 419.593 921.34 419L920.34 419ZM924.95 411.94C924.95 410.253 925.123 408.89 925.47 407.85 925.817 406.817 926.337 406.02 927.03 405.46 927.717 404.9 928.58 404.62 929.62 404.62 930.393 404.62 931.067 404.777 931.64 405.09 932.22 405.397 932.697 405.84 933.07 406.42 933.443 407.007 933.74 407.717 933.96 408.55 934.18 409.39 934.29 410.52 934.29 411.94 934.29 413.613 934.117 414.967 933.77 416 933.417 417.033 932.9 417.833 932.22 418.4 931.54 418.967 930.673 419.25 929.62 419.25 928.233 419.25 927.15 418.757 926.37 417.77 925.423 416.57 924.95 414.627 924.95 411.94ZM926.76 411.94C926.76 414.293 927.033 415.857 927.58 416.63 928.127 417.41 928.807 417.8 929.62 417.8 930.42 417.8 931.097 417.407 931.65 416.62 932.203 415.84 932.48 414.28 932.48 411.94 932.48 409.587 932.203 408.02 931.65 407.24 931.097 406.467 930.413 406.08 929.6 406.08 928.787 406.08 928.143 406.423 927.67 407.11 927.063 407.977 926.76 409.587 926.76 411.94ZM937.71 423.2 936.46 423.2C938.4 420.08 939.37 416.957 939.37 413.83 939.37 412.597 939.233 411.383 938.96 410.19 938.733 409.21 938.42 408.273 938.02 407.38 937.773 406.78 937.253 405.8 936.46 404.44L937.71 404.44C938.937 406.073 939.843 407.713 940.43 409.36 940.93 410.773 941.18 412.257 941.18 413.81 941.18 415.57 940.843 417.27 940.17 418.91 939.497 420.557 938.677 421.987 937.71 423.2Z"/></g></g><g clip-path="url(#clip24)"><g><path d="M1119.1 213.24C1119.1 216 1116.8 218.24 1114.1 218.24 1111.3 218.24 1109.1 216 1109.1 213.24 1109.1 210.48 1111.3 208.24 1114.1 208.24 1116.8 208.24 1119.1 210.48 1119.1 213.24Z"/></g></g><g clip-path="url(#clip25)"><g stroke="#000000" stroke-linecap="round" stroke-linejoin="round" fill="none"><path d="M1119.1 213.24C1119.1 216 1116.8 218.24 1114.1 218.24 1111.3 218.24 1109.1 216 1109.1 213.24 1109.1 210.48 1111.3 208.24 1114.1 208.24 1116.8 208.24 1119.1 210.48 1119.1 213.24Z"/></g></g><g clip-path="url(#clip26)"><g><path d="M1119.6 188.69 1128.5 188.69 1128.5 190.38 1121.5 190.38 1121.5 203 1119.6 203 1119.6 188.69Z"/></g></g><g clip-path="url(#clip27)"><g><path d="M1119.1 389.53C1119.1 392.29 1116.8 394.53 1114.1 394.53 1111.3 394.53 1109.1 392.29 1109.1 389.53 1109.1 386.76 1111.3 384.53 1114.1 384.53 1116.8 384.53 1119.1 386.76 1119.1 389.53Z"/></g></g><g clip-path="url(#clip28)"><g stroke="#000000" stroke-linecap="round" stroke-linejoin="round" fill="none"><path d="M1119.1 389.53C1119.1 392.29 1116.8 394.53 1114.1 394.53 1111.3 394.53 1109.1 392.29 1109.1 389.53 1109.1 386.76 1111.3 384.53 1114.1 384.53 1116.8 384.53 1119.1 386.76 1119.1 389.53Z"/></g></g><g clip-path="url(#clip29)"><g><path d="M1109 417 1114.5 402.69 1116.5 402.69 1122.4 417 1109 417ZM1111.6 415.31 1119.6 415.31 1116.5 407.16C1116.03 405.927 1115.7 404.937 1115.5 404.19 1115.3 405.077 1115.03 405.987 1114.7 406.92L1111.6 415.31Z"/></g></g><g clip-path="url(#clip30)"><g stroke="#444444" stroke-width="2" fill="none"><path d="M992.54 389.53C992.54 391.73 990.75 393.53 988.54 393.53 986.33 393.53 984.54 391.73 984.54 389.53 984.54 387.32 986.33 385.53 988.54 385.53 990.75 385.53 992.54 387.32 992.54 389.53Z"/></g></g><g clip-path="url(#clip31)"><g fill="#444444"><path d="M987.45 418 985.69 418 985.69 406.8C985.27 407.207 984.717 407.61 984.03 408.01 983.343 408.41 982.723 408.713 982.17 408.92L982.17 407.22C983.163 406.76 984.027 406.2 984.76 405.54 985.493 404.88 986.01 404.24 986.31 403.62L987.45 403.62 987.45 418Z"/></g></g><g clip-path="url(#clip32)"><g fill="#444444"><path d="M864.24 389.53C864.24 391.73 862.44 393.53 860.24 393.53 858.03 393.53 856.24 391.73 856.24 389.53 856.24 387.32 858.03 385.53 860.24 385.53 862.44 385.53 864.24 387.32 864.24 389.53Z"/></g></g><g clip-path="url(#clip33)"><g stroke="#000000" stroke-linecap="round" stroke-linejoin="round" fill="none"><path d="M864.24 389.53C864.24 391.73 862.44 393.53 860.24 393.53 858.03 393.53 856.24 391.73 856.24 389.53 856.24 387.32 858.03 385.53 860.24 385.53 862.44 385.53 864.24 387.32 864.24 389.53Z"/></g></g><g clip-path="url(#clip34)"><g fill="#444444"><path d="M837.97 403.03C837.97 400.657 838.607 398.797 839.88 397.45 841.16 396.097 842.81 395.42 844.83 395.42 846.15 395.42 847.34 395.74 848.4 396.38 849.453 397.013 850.26 397.893 850.82 399.02 851.38 400.153 851.66 401.433 851.66 402.86 851.66 404.307 851.367 405.603 850.78 406.75 850.2 407.897 849.37 408.767 848.29 409.36 847.21 409.953 846.05 410.25 844.81 410.25 843.47 410.25 842.267 409.923 841.2 409.27 840.14 408.623 839.337 407.733 838.79 406.6 838.243 405.473 837.97 404.283 837.97 403.03ZM839.92 403.06C839.92 404.78 840.383 406.137 841.31 407.13 842.237 408.123 843.4 408.62 844.8 408.62 846.227 408.62 847.4 408.12 848.32 407.12 849.24 406.113 849.7 404.687 849.7 402.84 849.7 401.687 849.507 400.673 849.12 399.8 848.727 398.933 848.15 398.26 847.39 397.78 846.63 397.3 845.777 397.06 844.83 397.06 843.497 397.06 842.347 397.523 841.38 398.45 840.407 399.37 839.92 400.907 839.92 403.06Z"/></g></g><g transform="matrix(0.23 0 0 0.23 860 147.64)"><clipPath id="clip1651a23e-e282-4da4-b7f9-ad059a2e4c88"><path d="M-3739.1-641.93-3739.1 1653.7 2082.6 1653.7 2082.6-641.93Z"/></clipPath><g clip-path="url(#clip35)"><g><path d="M57.703-37.703 48.297 0.09375C46.8283 6.03125 43.344 10.8673 37.844 14.602 32.344 18.336 26.5627 20.203 20.5 20.203 16.5 20.203 13.2657 19.4037 10.797 17.805 8.3282 16.2057 7.0938 14.104 7.0938 11.5 7.0938 9.3646 7.81253 7.56513 9.25 6.1016 10.6873 4.638 12.3697 3.9062 14.297 3.9062 15.5677 3.9062 16.703 4.2708 17.703 5 18.703 5.7292 19.203 6.89587 19.203 8.5 19.203 11.6353 17.604 13.8697 14.406 15.203 15.9373 16.1303 17.9687 16.594 20.5 16.594 24.1667 16.594 27.6173 14.9273 30.852 11.594 34.086 8.26053 36.3697 3.6615 37.703-2.2031 34.8383-0.203113 31.6353 0.79688 28.094 0.79688 26.302 0.79688 24.6223 0.64844 23.055 0.35156 21.487 0.0546867 19.8203-0.510433 18.055-1.3438 16.289-2.17713 14.8723-3.52867 13.805-5.3984 12.737-7.2682 12.203-9.5364 12.203-12.203 12.203-14.5363 12.6537-17.1537 13.555-20.055 14.4557-22.9557 16.005-27.2707 18.203-33 19.3383-36 19.906-38.1667 19.906-39.5 19.906-40.1667 19.8047-40.6667 19.602-41 19.3987-41.3333 19.198-41.5157 19-41.547 18.802-41.5783 18.5363-41.594 18.203-41.594 17.6717-41.594 17.0547-41.461 16.352-41.195 15.6487-40.9297 14.7813-40.448 13.75-39.75 12.7187-39.052 11.6693-37.8203 10.602-36.055 9.534-34.289 8.6354-32.104 7.9062-29.5 7.6354-28.6353 6.8646-28.203 5.5938-28.203 4-28.203 3.2031-28.6667 3.2031-29.594 3.2031-30.2607 3.53643-31.3777 4.2031-32.945 4.86977-34.513 5.80207-36.2473 7-38.148 8.19793-40.0493 9.84627-41.7007 11.945-43.102 14.0443-44.5027 16.3283-45.203 18.797-45.203 21.797-45.203 24.4297-44.3853 26.695-42.75 28.961-41.1147 30.094-38.9323 30.094-36.203 30.094-35.1303 29.6617-33.4637 28.797-31.203 24.8697-21.0677 22.906-14.0313 22.906-10.094 22.906-5.22927 24.906-2.7969 28.906-2.7969 30.906-2.7969 33.1717-3.59897 35.703-5.2031 35.901-5.3385 36.25-5.60413 36.75-6 37.25-6.39587 37.8177-6.99483 38.453-7.7969 39.0883-8.59897 39.4687-9.33333 39.594-10 40.0627-11.802 41.4637-17.3333 43.797-26.594L46.406-37C46.6667-38 46.8987-38.7993 47.102-39.398 47.3047-39.9973 47.6717-40.7473 48.203-41.648 48.7343-42.5493 49.4507-43.2343 50.352-43.703 51.2527-44.1717 52.302-44.406 53.5-44.406 54.9687-44.406 56.1197-43.9713 56.953-43.102 57.7863-42.232 58.203-41.198 58.203-40 58.203-39.6667 58.0363-38.901 57.703-37.703Z"/></g></g></g><g transform="matrix(0.23 0 0 0.23 880.81 147.64)"><clipPath id="clip031b9db5-aef9-4cdd-80a4-f936f79ec390"><path d="M-3829.6-641.93-3829.6 1653.7 1992.1 1653.7 1992.1-641.93Z"/></clipPath><g clip-path="url(#clip36)"><g><path d="M78.797-33.203 10.5-33.203C7.7708-33.203 6.4062-34.203 6.4062-36.203 6.4062-38.2657 7.93747-39.297 11-39.297L78.297-39.297C81.3697-39.297 82.906-38.2657 82.906-36.203 82.906-34.203 81.5363-33.203 78.797-33.203ZM78.297-10.797 11-10.797C7.93747-10.797 6.4062-11.8333 6.4062-13.906 6.4062-15.906 7.7708-16.906 10.5-16.906L78.797-16.906C81.5363-16.906 82.906-15.906 82.906-13.906 82.906-11.8333 81.3697-10.797 78.297-10.797Z"/></g></g></g><g transform="matrix(0.23 0 0 0.23 907.76 147.64)"><clipPath id="clipaacce19c-8163-4576-acd0-9d2177ef97eb"><path d="M-3946.8-641.93-3946.8 1653.7 1875 1653.7 1875-641.93Z"/></clipPath><g clip-path="url(#clip37)"><g><path d="M22.203-21.797 17.797-21.797C16.797-18.0677 16.297-14.9687 16.297-12.5 16.297-6.03127 19.5627-2.7969 26.094-2.7969 35.094-2.7969 42.094-5.43227 47.094-10.703 47.7607-11.4323 48.2607-11.797 48.594-11.797 49.0627-11.797 49.5963-11.4637 50.195-10.797 50.7943-10.1303 51.094-9.59897 51.094-9.2031 51.094-8.46357 50.1277-7.27867 48.195-5.6484 46.263-4.0182 43.9637-2.66667 41.297-1.5938 37.099-1.33162e-05 31.9323 0.79688 25.797 0.79688 19.203 0.79688 14.0727-0.768213 10.406-3.8984 6.73947-7.02867 4.9062-11.4635 4.9062-17.203 4.9062-25.0677 7.8228-31.7007 13.656-37.102 19.4893-42.5027 26.8697-45.203 35.797-45.203 39.9323-45.203 43.25-44.3203 45.75-42.555 48.25-40.789 49.5-38.4687 49.5-35.594 49.5-30 46.198-26.0677 39.594-23.797 35.594-22.4637 29.797-21.797 22.203-21.797ZM18.703-25.406C20.6303-25.406 22.1277-25.406 23.195-25.406 24.263-25.406 25.797-25.4713 27.797-25.602 29.797-25.732 31.3987-25.914 32.602-26.148 33.8047-26.3827 35.1717-26.75 36.703-27.25 38.2343-27.75 39.4323-28.349 40.297-29.047 41.1617-29.745 41.9117-30.646 42.547-31.75 43.1823-32.854 43.5-34.104 43.5-35.5 43.5-37.5627 42.7343-39.094 41.203-40.094 39.6717-41.094 37.8697-41.594 35.797-41.594 31.401-41.594 27.6667-40.0627 24.594-37 21.9273-34.5313 19.9637-30.6667 18.703-25.406Z"/></g></g></g><g transform="matrix(0.161 0 0 0.161 920.5 138.15)"><clipPath id="clip8a72f9ac-0fc4-46fa-9661-da0c4b0acf60"><path d="M-5717.4-858.06-5717.4 2421.4 2599.4 2421.4 2599.4-858.06Z"/></clipPath><g clip-path="url(#clip38)"><g><path d="M53.594-40.094C52.2607-41.094 50.6617-41.594 48.797-41.594 46.995-41.594 45.3127-40.7943 43.75-39.195 42.1873-37.5963 41.0363-35.3647 40.297-32.5 40.099-31.896 39.5-29.6277 38.5-25.695 37.5-21.763 36.9323-19.5 36.797-18.906 35.3283-12.9061 34.594-9.2031 34.594-7.7969 34.594-4.46357 36.4637-2.7969 40.203-2.7969 42.7343-2.7969 45.401-3.78127 48.203-5.75 51.005-7.71873 53.0727-10.7707 54.406-14.906 54.6667-15.7707 55.4323-16.203 56.703-16.203 58.297-16.203 59.094-15.737 59.094-14.805 59.094-13.8723 58.6617-12.5883 57.797-10.953 56.9323-9.31767 55.7343-7.59897 54.203-5.7969 52.6717-3.99483 50.604-2.44533 48-1.1484 45.396 0.148453 42.6303 0.79688 39.703 0.79688 32.901 0.79688 28.302-1.23438 25.906-5.2969 22.9687-1.23438 19.401 0.79688 15.203 0.79688 12.0677 0.79688 9.3828-0.0182133 7.1484-1.6484 4.91407-3.27867 3.7969-5.39587 3.7969-8 3.7969-10.3333 4.53127-12.216 6-13.648 7.46873-15.0807 9.1354-15.797 11-15.797 12.5313-15.797 13.7473-15.3307 14.648-14.398 15.5493-13.466 16-12.401 16-11.203 16-9.79687 15.5157-8.4115 14.547-7.0469 13.5783-5.6823 12.2607-4.76563 10.594-4.2969 11.9273-3.2969 13.5313-2.7969 15.406-2.7969 17.198-2.7969 18.8777-3.58073 20.445-5.1484 22.013-6.71613 23.1667-8.96867 23.906-11.906L27.297-25.594C28.8283-31.7293 29.594-35.396 29.594-36.594 29.594-39.9273 27.7293-41.594 24-41.594 21.4687-41.594 18.802-40.612 16-38.648 13.198-36.6847 11.1303-33.6353 9.7969-29.5 9.53643-28.6353 8.7708-28.203 7.5-28.203 5.89587-28.203 5.0938-28.6693 5.0938-29.602 5.0938-30.534 5.52867-31.8177 6.3984-33.453 7.2682-35.0883 8.46873-36.8047 10-38.602 11.5313-40.3987 13.5963-41.948 16.195-43.25 18.7943-44.552 21.5627-45.203 24.5-45.203 31.302-45.203 35.901-43.1667 38.297-39.094 41.2343-43.1667 44.802-45.203 49-45.203 52.1353-45.203 54.8203-44.3853 57.055-42.75 59.289-41.1147 60.406-39 60.406-36.406 60.406-34.0727 59.6717-32.1873 58.203-30.75 56.7343-29.3127 55.0677-28.594 53.203-28.594 51.6717-28.594 50.4557-29.0627 49.555-30 48.6537-30.9373 48.203-32.005 48.203-33.203 48.203-34.599 48.6847-35.982 49.648-37.352 50.612-38.7213 51.9273-39.6353 53.594-40.094Z"/></g></g></g><g transform="matrix(0.23 0 0 0.23 1058 147.77)"><clipPath id="clip96b7cbad-0912-47e4-a7ec-ddc00425e45d"><path d="M-4600-642.49-4600 1653.2 1221.7 1653.2 1221.7-642.49Z"/></clipPath><g clip-path="url(#clip39)"><g><path d="M57.703-37.703 48.297 0.09375C46.8283 6.03125 43.344 10.8673 37.844 14.602 32.344 18.336 26.5627 20.203 20.5 20.203 16.5 20.203 13.2657 19.4037 10.797 17.805 8.3282 16.2057 7.0938 14.104 7.0938 11.5 7.0938 9.3646 7.81253 7.56513 9.25 6.1016 10.6873 4.638 12.3697 3.9062 14.297 3.9062 15.5677 3.9062 16.703 4.2708 17.703 5 18.703 5.7292 19.203 6.89587 19.203 8.5 19.203 11.6353 17.604 13.8697 14.406 15.203 15.9373 16.1303 17.9687 16.594 20.5 16.594 24.1667 16.594 27.6173 14.9273 30.852 11.594 34.086 8.26053 36.3697 3.6615 37.703-2.2031 34.8383-0.203113 31.6353 0.79688 28.094 0.79688 26.302 0.79688 24.6223 0.64844 23.055 0.35156 21.487 0.0546867 19.8203-0.510433 18.055-1.3438 16.289-2.17713 14.8723-3.52867 13.805-5.3984 12.737-7.2682 12.203-9.5364 12.203-12.203 12.203-14.5363 12.6537-17.1537 13.555-20.055 14.4557-22.9557 16.005-27.2707 18.203-33 19.3383-36 19.906-38.1667 19.906-39.5 19.906-40.1667 19.8047-40.6667 19.602-41 19.3987-41.3333 19.198-41.5157 19-41.547 18.802-41.5783 18.5363-41.594 18.203-41.594 17.6717-41.594 17.0547-41.461 16.352-41.195 15.6487-40.9297 14.7813-40.448 13.75-39.75 12.7187-39.052 11.6693-37.8203 10.602-36.055 9.534-34.289 8.6354-32.104 7.9062-29.5 7.6354-28.6353 6.8646-28.203 5.5938-28.203 4-28.203 3.2031-28.6667 3.2031-29.594 3.2031-30.2607 3.53643-31.3777 4.2031-32.945 4.86977-34.513 5.80207-36.2473 7-38.148 8.19793-40.0493 9.84627-41.7007 11.945-43.102 14.0443-44.5027 16.3283-45.203 18.797-45.203 21.797-45.203 24.4297-44.3853 26.695-42.75 28.961-41.1147 30.094-38.9323 30.094-36.203 30.094-35.1303 29.6617-33.4637 28.797-31.203 24.8697-21.0677 22.906-14.0313 22.906-10.094 22.906-5.22927 24.906-2.7969 28.906-2.7969 30.906-2.7969 33.1717-3.59897 35.703-5.2031 35.901-5.3385 36.25-5.60413 36.75-6 37.25-6.39587 37.8177-6.99483 38.453-7.7969 39.0883-8.59897 39.4687-9.33333 39.594-10 40.0627-11.802 41.4637-17.3333 43.797-26.594L46.406-37C46.6667-38 46.8987-38.7993 47.102-39.398 47.3047-39.9973 47.6717-40.7473 48.203-41.648 48.7343-42.5493 49.4507-43.2343 50.352-43.703 51.2527-44.1717 52.302-44.406 53.5-44.406 54.9687-44.406 56.1197-43.9713 56.953-43.102 57.7863-42.232 58.203-41.198 58.203-40 58.203-39.6667 58.0363-38.901 57.703-37.703Z"/></g></g></g><g transform="matrix(0.23 0 0 0.23 1078.8 147.77)"><clipPath id="clip4bfe441c-6d83-4c7d-9d46-d17acf99ab1d"><path d="M-4690.5-642.49-4690.5 1653.2 1131.3 1653.2 1131.3-642.49Z"/></clipPath><g clip-path="url(#clip40)"><g><path d="M78.797-33.203 10.5-33.203C7.7708-33.203 6.4062-34.203 6.4062-36.203 6.4062-38.2657 7.93747-39.297 11-39.297L78.297-39.297C81.3697-39.297 82.906-38.2657 82.906-36.203 82.906-34.203 81.5363-33.203 78.797-33.203ZM78.297-10.797 11-10.797C7.93747-10.797 6.4062-11.8333 6.4062-13.906 6.4062-15.906 7.7708-16.906 10.5-16.906L78.797-16.906C81.5363-16.906 82.906-15.906 82.906-13.906 82.906-11.8333 81.3697-10.797 78.297-10.797Z"/></g></g></g><g transform="matrix(0.23 0 0 0.23 1108.2 132.21)"><clipPath id="clipf336fc01-b7cd-4720-9f16-fbd04946c8cb"><path d="M-4818.1-574.83-4818.1 1720.8 1003.6 1720.8 1003.6-574.83Z"/></clipPath><g clip-path="url(#clip41)"><g><path d="M22.203-21.797 17.797-21.797C16.797-18.0677 16.297-14.9687 16.297-12.5 16.297-6.03127 19.5627-2.7969 26.094-2.7969 35.094-2.7969 42.094-5.43227 47.094-10.703 47.7607-11.4323 48.2607-11.797 48.594-11.797 49.0627-11.797 49.5963-11.4637 50.195-10.797 50.7943-10.1303 51.094-9.59897 51.094-9.2031 51.094-8.46357 50.1277-7.27867 48.195-5.6484 46.263-4.0182 43.9637-2.66667 41.297-1.5938 37.099-1.33162e-05 31.9323 0.79688 25.797 0.79688 19.203 0.79688 14.0727-0.768213 10.406-3.8984 6.73947-7.02867 4.9062-11.4635 4.9062-17.203 4.9062-25.0677 7.8228-31.7007 13.656-37.102 19.4893-42.5027 26.8697-45.203 35.797-45.203 39.9323-45.203 43.25-44.3203 45.75-42.555 48.25-40.789 49.5-38.4687 49.5-35.594 49.5-30 46.198-26.0677 39.594-23.797 35.594-22.4637 29.797-21.797 22.203-21.797ZM18.703-25.406C20.6303-25.406 22.1277-25.406 23.195-25.406 24.263-25.406 25.797-25.4713 27.797-25.602 29.797-25.732 31.3987-25.914 32.602-26.148 33.8047-26.3827 35.1717-26.75 36.703-27.25 38.2343-27.75 39.4323-28.349 40.297-29.047 41.1617-29.745 41.9117-30.646 42.547-31.75 43.1823-32.854 43.5-34.104 43.5-35.5 43.5-37.5627 42.7343-39.094 41.203-40.094 39.6717-41.094 37.8697-41.594 35.797-41.594 31.401-41.594 27.6667-40.0627 24.594-37 21.9273-34.5313 19.9637-30.6667 18.703-25.406Z"/></g></g></g><g transform="scale(23 23)"><clipPath id="clip28709593-5dab-49f1-adf7-1b57961ecfc4"><path d="M0 0 0 22.957 58.217 22.957 58.217 0Z"/></clipPath><g clip-path="url(#clip42)"><g><path d="M48.129 6.1549 48.788 6.1549 48.788 6.1949 48.129 6.1949 48.129 6.1549Z"/></g></g></g><g transform="matrix(0.23 0 0 0.23 1107 163.55)"><clipPath id="clip06501067-043d-4408-8cb8-3c14c38d61a1"><path d="M-4812.9-711.08-4812.9 1584.6 1008.9 1584.6 1008.9-711.08Z"/></clipPath><g clip-path="url(#clip43)"><g><path d="M53.594-40.094C52.2607-41.094 50.6617-41.594 48.797-41.594 46.995-41.594 45.3127-40.7943 43.75-39.195 42.1873-37.5963 41.0363-35.3647 40.297-32.5 40.099-31.896 39.5-29.6277 38.5-25.695 37.5-21.763 36.9323-19.5 36.797-18.906 35.3283-12.9061 34.594-9.2031 34.594-7.7969 34.594-4.46357 36.4637-2.7969 40.203-2.7969 42.7343-2.7969 45.401-3.78127 48.203-5.75 51.005-7.71873 53.0727-10.7707 54.406-14.906 54.6667-15.7707 55.4323-16.203 56.703-16.203 58.297-16.203 59.094-15.737 59.094-14.805 59.094-13.8723 58.6617-12.5883 57.797-10.953 56.9323-9.31767 55.7343-7.59897 54.203-5.7969 52.6717-3.99483 50.604-2.44533 48-1.1484 45.396 0.148453 42.6303 0.79688 39.703 0.79688 32.901 0.79688 28.302-1.23438 25.906-5.2969 22.9687-1.23438 19.401 0.79688 15.203 0.79688 12.0677 0.79688 9.3828-0.0182133 7.1484-1.6484 4.91407-3.27867 3.7969-5.39587 3.7969-8 3.7969-10.3333 4.53127-12.216 6-13.648 7.46873-15.0807 9.1354-15.797 11-15.797 12.5313-15.797 13.7473-15.3307 14.648-14.398 15.5493-13.466 16-12.401 16-11.203 16-9.79687 15.5157-8.4115 14.547-7.0469 13.5783-5.6823 12.2607-4.76563 10.594-4.2969 11.9273-3.2969 13.5313-2.7969 15.406-2.7969 17.198-2.7969 18.8777-3.58073 20.445-5.1484 22.013-6.71613 23.1667-8.96867 23.906-11.906L27.297-25.594C28.8283-31.7293 29.594-35.396 29.594-36.594 29.594-39.9273 27.7293-41.594 24-41.594 21.4687-41.594 18.802-40.612 16-38.648 13.198-36.6847 11.1303-33.6353 9.7969-29.5 9.53643-28.6353 8.7708-28.203 7.5-28.203 5.89587-28.203 5.0938-28.6693 5.0938-29.602 5.0938-30.534 5.52867-31.8177 6.3984-33.453 7.2682-35.0883 8.46873-36.8047 10-38.602 11.5313-40.3987 13.5963-41.948 16.195-43.25 18.7943-44.552 21.5627-45.203 24.5-45.203 31.302-45.203 35.901-43.1667 38.297-39.094 41.2343-43.1667 44.802-45.203 49-45.203 52.1353-45.203 54.8203-44.3853 57.055-42.75 59.289-41.1147 60.406-39 60.406-36.406 60.406-34.0727 59.6717-32.1873 58.203-30.75 56.7343-29.3127 55.0677-28.594 53.203-28.594 51.6717-28.594 50.4557-29.0627 49.555-30 48.6537-30.9373 48.203-32.005 48.203-33.203 48.203-34.599 48.6847-35.982 49.648-37.352 50.612-38.7213 51.9273-39.6353 53.594-40.094Z"/></g></g></g><g clip-path="url(#clip44)"><g><path d="M542.12 413 545.86 407.66 542.28 402.62 545.62 402.62 547.45 405.48 549.39 402.62 552.61 402.62 549.09 407.55 552.94 413 549.56 413 547.45 409.78 545.33 413 542.12 413ZM554.54 403.77 554.03 401.11 554.03 398.69 557.01 398.69 557.01 401.11 556.56 403.77 554.54 403.77Z"/></g></g></g></g></svg>