<svg width="1414.51" height="644.015" viewBox="0 0 1095 498" xmlns="http://www.w3.org/2000/svg" xmlns:xlink="http://www.w3.org/1999/xlink" overflow="hidden"><g stroke-linecap="square" stroke-miterlimit="10"><clipPath id="clipb0f309d1-2b54-4ee4-9c3d-3a680f49eeeb"><path d="M0 0 0 499 1096 499 1096 0Z"/></clipPath><clipPath id="clipc08a40d6-6f35-45d0-903a-6114bc9d6db2"><path d="M0 0 0 499 1096 499 1096 0Z"/></clipPath><clipPath id="clip9479ba2c-c035-4c72-ba1b-fe8f89652942"><path d="M0 0 0 499 1096 499 1096 0Z"/></clipPath><clipPath id="clip64ec9f4d-0a36-4459-baf7-cb8e5e3fda71"><path d="M0 0 0 499 1096 499 1096 0Z"/></clipPath><clipPath id="clip50785240-6b79-49e5-b231-8067f1e73a05"><path d="M0 0 0 499 1096 499 1096 0Z"/></clipPath><clipPath id="clip692b09b6-bc24-42e1-ae62-393895de3897"><path d="M0 0 0 499 1096 499 1096 0Z"/></clipPath><clipPath id="clipf62a5a7f-ed37-4f61-9721-9cd067fad19b"><path d="M0 0 0 499 1096 499 1096 0Z"/></clipPath><clipPath id="clipaaa1e5e0-141c-41d6-bd65-e16203d8e4a3"><path d="M0 0 0 499 1096 499 1096 0Z"/></clipPath><g clip-path="url(#clip1)"><g stroke="#252525" stroke-linecap="butt" fill="none"><path d="M802.06 2 802.06 499"/></g></g><g clip-path="url(#clip2)"><g stroke="#252525" stroke-linecap="butt" fill="none"><path d="M802.06 1 797.06 6"/></g></g><g clip-path="url(#clip3)"><g stroke="#252525" stroke-linecap="butt" fill="none"><path d="M802.06 1 807.06 6"/></g></g><g clip-path="url(#clip4)"><g fill="#252525"><path d="M1076.1 254 1079.9 248.61 1076.4 243.62 1078.6 243.62 1080.2 246.06C1080.53 246.52 1080.77 246.907 1080.9 247.22 1081.23 246.793 1081.5 246.413 1081.7 246.08L1083.5 243.62 1085.6 243.62 1082 248.52 1085.9 254 1083.7 254 1081.6 250.78 1081 249.91 1078.3 254 1076.1 254Z"/></g></g><g clip-path="url(#clip5)"><g stroke="#252525" stroke-linecap="butt" fill="none"><path d="M0 258.3 1094 258.3"/></g></g><g clip-path="url(#clip6)"><g stroke="#252525" stroke-linecap="butt" fill="none"><path d="M1095 258.3 1090 253.3"/></g></g><g clip-path="url(#clip7)"><g stroke="#252525" stroke-linecap="butt" fill="none"><path d="M1095 258.3 1090 263.3"/></g></g><g clip-path="url(#clip8)"><g fill="#252525"><path d="M808.23 29 808.05 27.344C808.43 27.448 808.763 27.5 809.05 27.5 809.443 27.5 809.757 27.435 809.99 27.305 810.223 27.1743 810.413 26.9947 810.56 26.766 810.673 26.5887 810.857 26.151 811.11 25.453 811.143 25.349 811.197 25.2033 811.27 25.016L807.33 14.625 809.22 14.625 811.38 20.641C811.66 21.401 811.907 22.1977 812.12 23.031 812.333 22.229 812.573 21.4427 812.84 20.672L815.06 14.625 816.83 14.625 812.88 25.172C812.46 26.318 812.13 27.1043 811.89 27.531 811.577 28.1143 811.22 28.539 810.82 28.805 810.42 29.0703 809.94 29.203 809.38 29.203 809.033 29.203 808.65 29.1353 808.23 29Z"/></g></g><g id="misc"></g><g id="layer0"><clipPath id="clip412e70c3-e208-4f97-9b84-cc88049c4292"><path d="M0 0 0 499 1096 499 1096 0Z"/></clipPath><clipPath id="clip14580516-6c76-4a2f-aaf1-0d44cf632449"><path d="M0 0 0 499 1096 499 1096 0Z"/></clipPath><clipPath id="clipcda2df43-b7b0-4ec1-8d78-941bc907f4db"><path d="M0 0 0 499 1096 499 1096 0Z"/></clipPath><clipPath id="clip69b4cb54-9f43-496e-8bf9-a8c6a51f3719"><path d="M0 0 0 499 1096 499 1096 0Z"/></clipPath><clipPath id="clip4afb5c97-44b8-47a0-acca-35ee2f6cfe05"><path d="M0 0 0 499 1096 499 1096 0Z"/></clipPath><clipPath id="clipe2efb9a5-f186-493b-bef8-18605f475e7a"><path d="M0 0 0 499 1096 499 1096 0Z"/></clipPath><clipPath id="clip1198d479-a072-47e8-bf4a-533b708ddf9b"><path d="M0 0 0 499 1096 499 1096 0Z"/></clipPath><clipPath id="clipf0e100d5-122d-44ae-b5bf-554a88bdee6f"><path d="M0 0 0 499 1096 499 1096 0Z"/></clipPath><clipPath id="clipab90b3de-4e29-4ca8-9abe-ab27e18da40c"><path d="M0 0 0 499 1096 499 1096 0Z"/></clipPath><clipPath id="clipbc28f00a-0d9e-4c93-83c5-5cdf7268ffca"><path d="M0 0 0 499 1096 499 1096 0Z"/></clipPath><clipPath id="clip5c72bd1d-2669-494c-98cf-fddeb088fd02"><path d="M0 0 0 499 1096 499 1096 0Z"/></clipPath><g clip-path="url(#clip9)"><g stroke="#0000FF" stroke-width="3" stroke-linecap="round" stroke-linejoin="round" stroke-opacity="0.69804" fill="none"><path d="M550.14 507.71 552.28 502.46 554.42 497.29 556.56 492.2 560.84 482.26 565.12 472.63 569.41 463.31 573.69 454.28 577.97 445.54 582.25 437.09 586.53 428.93 590.81 421.04 595.09 413.42 599.38 406.06 603.66 398.97 607.94 392.13 612.22 385.54 616.5 379.19 620.78 373.08 625.06 367.21 629.34 361.56 633.62 356.13 637.91 350.92 642.19 345.92 646.47 341.12 650.75 336.52 655.03 332.12 659.31 327.9 663.59 323.87 667.88 320.02 672.16 316.34 676.44 312.82 680.72 309.47 685 306.27 689.28 303.22 693.56 300.32 697.84 297.55 702.12 294.92 706.41 292.42 710.69 290.04 714.97 287.77 719.25 285.62 723.53 283.58 727.81 281.63 732.09 279.78 736.38 278.02 740.66 276.35 744.94 274.75 749.22 273.23 753.5 271.77 757.78 270.38 762.06 269.04 766.34 267.76 770.62 266.52 774.91 265.32 779.19 264.16 783.47 263.02 787.75 261.91 792.03 260.82 796.31 259.74 800.59 258.67 804.88 257.59 809.16 256.52 813.44 255.44 817.72 254.34 822 253.22 826.28 252.08 830.56 250.9 834.84 249.69 839.12 248.44 843.41 247.14 847.69 245.78 851.97 244.37 856.25 242.9 860.53 241.35 864.81 239.73 869.09 238.03 873.38 236.24 877.66 234.36 881.94 232.39 886.22 230.31 890.5 228.12 894.78 225.82 899.06 223.41 903.34 220.86 907.62 218.19 911.91 215.38 916.19 212.43 920.47 209.34 924.75 206.09 929.03 202.69 933.31 199.12 937.59 195.39 941.88 191.48 946.16 187.39 950.44 183.11 954.72 178.65 959 173.99 963.28 169.13 967.56 164.06 971.84 158.79 976.12 153.29 980.41 147.57 984.69 141.62 988.97 135.44 993.25 129.01 997.53 122.34 1001.8 115.43 1006.1 108.25 1010.4 100.81 1014.7 93.11 1018.9 85.134 1023.2 76.879 1027.5 68.341 1031.8 59.514 1036.1 50.392 1040.3 40.97 1044.6 31.243 1046.8 26.263 1048.9 21.205 1051 16.067 1053.2 10.85 1055.3 5.5518 1057.5 0.17275 1059.6-5.2882"/></g></g><g clip-path="url(#clip10)"><g fill="#0000FF"><path d="M513.23 436 513.05 434.34C513.43 434.447 513.763 434.5 514.05 434.5 514.443 434.5 514.757 434.433 514.99 434.3 515.223 434.173 515.413 433.997 515.56 433.77 515.673 433.59 515.857 433.15 516.11 432.45 516.143 432.35 516.197 432.207 516.27 432.02L512.33 421.62 514.22 421.62 516.38 427.64C516.66 428.4 516.907 429.197 517.12 430.03 517.333 429.23 517.573 428.443 517.84 427.67L520.06 421.62 521.83 421.62 517.88 432.17C517.46 433.317 517.13 434.103 516.89 434.53 516.577 435.117 516.22 435.54 515.82 435.8 515.42 436.067 514.94 436.2 514.38 436.2 514.033 436.2 513.65 436.133 513.23 436ZM532.56 423.58 523.11 423.58 523.11 421.94 532.56 421.94 532.56 423.58ZM532.56 427.92 523.11 427.92 523.11 426.28 532.56 426.28 532.56 427.92ZM535.41 432 535.41 423 533.87 423 533.87 421.62 535.41 421.62 535.41 420.53C535.41 419.83 535.473 419.31 535.6 418.97 535.767 418.51 536.063 418.14 536.49 417.86 536.917 417.58 537.517 417.44 538.29 417.44 538.79 417.44 539.337 417.497 539.93 417.61L539.66 419.14C539.3 419.08 538.957 419.05 538.63 419.05 538.103 419.05 537.727 419.163 537.5 419.39 537.273 419.617 537.16 420.043 537.16 420.67L537.16 421.62 539.2 421.62 539.2 423 537.16 423 537.16 432 535.41 432ZM543.91 436.2C542.943 434.987 542.127 433.557 541.46 431.91 540.793 430.27 540.46 428.57 540.46 426.81 540.46 425.257 540.71 423.773 541.21 422.36 541.79 420.713 542.69 419.073 543.91 417.44L545.17 417.44C544.383 418.793 543.863 419.76 543.61 420.34 543.217 421.24 542.903 422.18 542.67 423.16 542.39 424.373 542.25 425.597 542.25 426.83 542.25 429.957 543.223 433.08 545.17 436.2L543.91 436.2ZM546.04 432 549.83 426.61 546.33 421.62 548.52 421.62 550.12 424.06C550.42 424.52 550.657 424.907 550.83 425.22 551.123 424.793 551.39 424.413 551.63 424.08L553.38 421.62 555.47 421.62 551.9 426.52 555.76 432 553.6 432 551.46 428.78 550.9 427.91 548.18 432 546.04 432ZM558.37 436.2 557.12 436.2C559.053 433.08 560.02 429.957 560.02 426.83 560.02 425.597 559.887 424.383 559.62 423.19 559.387 422.21 559.073 421.273 558.68 420.38 558.427 419.78 557.907 418.8 557.12 417.44L558.37 417.44C559.597 419.073 560.5 420.713 561.08 422.36 561.58 423.773 561.83 425.257 561.83 426.81 561.83 428.57 561.497 430.27 560.83 431.91 560.157 433.557 559.337 434.987 558.37 436.2Z"/></g></g><g clip-path="url(#clip11)"><g stroke="#000000" stroke-width="3" stroke-linecap="butt" stroke-linejoin="round" stroke-dasharray="3 3" stroke-opacity="0.69804" fill="none"><path d="M655.64 331.51 802.06 185.09"/></g></g><g clip-path="url(#clip12)"><g fill="#FF0000" fill-opacity="0.69804"><path d="M709.77 277.38 692.98 287.45 695.1 289.57 654.4 330.27C653.72 330.96 653.72 332.06 654.4 332.75 654.74 333.09 655.19 333.26 655.64 333.26 656.09 333.26 656.53 333.09 656.88 332.75L697.57 292.05 699.69 294.17 709.77 277.38Z"/></g></g><g clip-path="url(#clip13)"><g fill="#CC0000"><path d="M807.06 185.09C807.06 187.85 804.82 190.09 802.06 190.09 799.3 190.09 797.06 187.85 797.06 185.09 797.06 182.32 799.3 180.09 802.06 180.09 804.82 180.09 807.06 182.32 807.06 185.09Z"/></g></g><g clip-path="url(#clip14)"><g stroke="#000000" stroke-linecap="round" stroke-linejoin="round" fill="none"><path d="M807.06 185.09C807.06 187.85 804.82 190.09 802.06 190.09 799.3 190.09 797.06 187.85 797.06 185.09 797.06 182.32 799.3 180.09 802.06 180.09 804.82 180.09 807.06 182.32 807.06 185.09Z"/></g></g><g clip-path="url(#clip15)"><g fill="#CC0000"><path d="M660.64 331.51C660.64 334.27 658.4 336.51 655.64 336.51 652.88 336.51 650.64 334.27 650.64 331.51 650.64 328.75 652.88 326.51 655.64 326.51 658.4 326.51 660.64 328.75 660.64 331.51Z"/></g></g><g clip-path="url(#clip16)"><g stroke="#000000" stroke-linecap="round" stroke-linejoin="round" fill="none"><path d="M660.64 331.51C660.64 334.27 658.4 336.51 655.64 336.51 652.88 336.51 650.64 334.27 650.64 331.51 650.64 328.75 652.88 326.51 655.64 326.51 658.4 326.51 660.64 328.75 660.64 331.51Z"/></g></g><g clip-path="url(#clip17)"><g><path d="M807.06 258.3C807.06 261.06 804.82 263.3 802.06 263.3 799.3 263.3 797.06 261.06 797.06 258.3 797.06 255.54 799.3 253.3 802.06 253.3 804.82 253.3 807.06 255.54 807.06 258.3Z"/></g></g><g clip-path="url(#clip18)"><g stroke="#000000" stroke-linecap="round" stroke-linejoin="round" fill="none"><path d="M807.06 258.3C807.06 261.06 804.82 263.3 802.06 263.3 799.3 263.3 797.06 261.06 797.06 258.3 797.06 255.54 799.3 253.3 802.06 253.3 804.82 253.3 807.06 255.54 807.06 258.3Z"/></g></g><g clip-path="url(#clip19)"><g><path d="M807.97 278.03C807.97 275.657 808.607 273.797 809.88 272.45 811.16 271.097 812.81 270.42 814.83 270.42 816.15 270.42 817.34 270.74 818.4 271.38 819.453 272.013 820.26 272.893 820.82 274.02 821.38 275.153 821.66 276.433 821.66 277.86 821.66 279.307 821.367 280.603 820.78 281.75 820.2 282.897 819.37 283.767 818.29 284.36 817.21 284.953 816.05 285.25 814.81 285.25 813.47 285.25 812.267 284.923 811.2 284.27 810.14 283.623 809.337 282.733 808.79 281.6 808.243 280.473 807.97 279.283 807.97 278.03ZM809.92 278.06C809.92 279.78 810.383 281.137 811.31 282.13 812.237 283.123 813.4 283.62 814.8 283.62 816.227 283.62 817.4 283.12 818.32 282.12 819.24 281.113 819.7 279.687 819.7 277.84 819.7 276.687 819.507 275.673 819.12 274.8 818.727 273.933 818.15 273.26 817.39 272.78 816.63 272.3 815.777 272.06 814.83 272.06 813.497 272.06 812.347 272.523 811.38 273.45 810.407 274.37 809.92 275.907 809.92 278.06Z"/></g></g><g transform="matrix(0.23 0 0 0.23 605 333.71)"><clipPath id="clipc4c990d3-6e37-4cb3-bb58-a71543a882fb"><path d="M-2630.4-1450.9-2630.4 718.66 2134.8 718.66 2134.8-1450.9Z"/></clipPath><g clip-path="url(#clip20)"><g><path d="M17.906-11.5 52.703-69.906C53.3697-70.9687 54.2343-71.5313 55.297-71.594 56.297-71.594 56.8647-71.2607 57-70.594 57.0627-70.396 57.1303-69.9323 57.203-69.203L63.297-6.7031C63.495-5.03643 63.896-4.03643 64.5-3.7031L64.594-3.7031 64.594-3.7031 64.594-3.7031 64.594-3.7031 64.594-3.5938C65.396-3.26047 67.1303-3.0938 69.797-3.0938 71.2657-3.0938 72.0313-2.7292 72.094-2 72.094-0.666667 71.495 -0 70.297 -0L59.094-0.29688 59-0.29688 46.594 -0 46.5 -0C45.5627 -0 45.094-0.3646 45.094-1.0938 45.6353-2.3646 46.4373-3.03127 47.5-3.0938 52.302-3.0938 54.703-4.19793 54.703-6.4062 54.703-6.33333 54.1667-11.8959 53.094-23.094L28-23.094 20.406-10.297C19.4687-8.63027 19-7.39587 19-6.5938 19-4.53127 20.5677-3.3646 23.703-3.0938 24.7657-3.0938 25.297-2.69793 25.297-1.9062 25.297-0.6354 24.6667 -0 23.406 -0L13.797-0.29688 13.406-0.29688 5 -0 4.7969 -0C3.9323 -0 3.5-0.3646 3.5-1.0938 3.5-2.30207 4-2.93747 5-3L5-3.0938 5.5938-3.0938C9.80193-3.3646 13.2393-5.16667 15.906-8.5 16.5727-9.3646 17.2393-10.3646 17.906-11.5ZM29.906-26.203 52.797-26.203 49.594-59.203 29.906-26.203Z"/></g></g></g><g transform="matrix(0.161 0 0 0.161 622.25 337.16)"><clipPath id="clipb7b0d262-c8e5-4259-b4fe-30816af43188"><path d="M-3864.9-2094.2-3864.9 1005.2 2942.5 1005.2 2942.5-2094.2Z"/></clipPath><g clip-path="url(#clip21)"><g><path d="M46-32C46-22.2707 44.7657-14.7394 42.297-9.4062 38.3697-1.93747 32.5727 1.9323 24.906 2.2031 18.8333 2.2031 13.9637-0.197933 10.297-5 9.56773-5.8646 8.93747-6.83333 8.4062-7.9062 5.4062-13.4374 3.9062-21.4687 3.9062-32 3.9062-41.802 5.1354-49.3697 7.5938-54.703 10.9273-62.1717 16.3283-66.1353 23.797-66.594L25-66.594C30.9373-66.594 35.7707-64.2293 39.5-59.5L39.5-59.406C40.4373-58.198 41.2707-56.8647 42-55.406 44.6667-49.7393 46-41.9373 46-32ZM24.906 -0 24.906 -0C29.104 -0 32.3333-2.03127 34.594-6.0938 35.5313-7.89587 36.198-10.0313 36.594-12.5 37.3333-16.7707 37.703-23.6717 37.703-33.203 37.703-42.4637 37.3697-48.9637 36.703-52.703 35.505-59.0363 32.4373-62.8333 27.5-64.094 26.6353-64.302 25.7707-64.406 24.906-64.406 20.2393-64.406 16.8383-62.0727 14.703-57.406 13.9637-55.802 13.396-53.8647 13-51.594 12.4687-48 12.203-41.8697 12.203-33.203 12.203-23.1303 12.5677-16.094 13.297-12.094 14.495-5.698 17.4273-1.80208 22.094-0.40625 23.0313-0.135417 23.9687 -0 24.906 -0Z"/></g></g></g><g transform="matrix(0.23 0 0 0.23 805 175.37)"><clipPath id="clipb561ae04-6f12-427a-aac1-000592a64ae8"><path d="M-3500-762.49-3500 1407.1 1265.2 1407.1 1265.2-762.49Z"/></clipPath><g clip-path="url(#clip22)"><g><path d="M16-7.7969 29.406-61.5C29.6667-62.5627 29.797-63.198 29.797-63.406 29.797-64.198 29.2657-64.698 28.203-64.906L28.094-64.906 28-64.906C27.802-64.906 27.5-64.9373 27.094-65 25.9687-65.1353 24.703-65.203 23.297-65.203 21.5677-65.203 20.6353-65.5677 20.5-66.297 20.5-67.495 21-68.1617 22-68.297L22.094-68.297 22.203-68.297 23.406-68.297 57-68.297C64.6667-68.297 70.1353-66.0313 73.406-61.5 74.8647-59.3647 75.594-57.0313 75.594-54.5 75.594-49.104 72.594-44.406 66.594-40.406 66.5313-40.406 66.4687-40.3697 66.406-40.297 62.8647-38.0363 58.9637-36.505 54.703-35.703 61.505-34.901 66.1717-32.2343 68.703-27.703 69.703-25.8383 70.203-23.802 70.203-21.594 70.203-16.7293 67.8697-12.1667 63.203-7.9062L63.094-7.7969C57.3647-2.59897 50.5313 -0 42.594 -0L6.9062 -0C5.23953 -0 4.3385-0.3646 4.2031-1.0938 4.2031-2.30207 4.7031-2.96873 5.7031-3.0938L6.9062-3.0938C11.2394-3.0938 13.8383-3.56253 14.703-4.5 15.099-4.96873 15.5-5.90103 15.906-7.2969 15.906-7.36977 15.9373-7.53643 16-7.7969ZM31.094-36.594 45.703-36.594C52.297-36.594 57.7293-38.995 62-43.797 65-47.203 66.5-50.906 66.5-54.906 66.5-59.7707 64.5-62.9373 60.5-64.406 59.104-64.9373 57.4687-65.203 55.594-65.203L42.703-65.203C40.297-65.203 38.8283-64.8697 38.297-64.203L38.297-64.203 38.297-64.094 38.203-64.094 38.203-64C37.9323-63.604 37.6303-62.7393 37.297-61.406L31.094-36.594ZM26.594-3.0938 40.203-3.0938C46.599-3.0938 51.896-5.49487 56.094-10.297 59.302-14.0363 60.906-18.1717 60.906-22.703 60.906-27.5677 59.1717-31 55.703-33 53.9637-33.9373 51.8647-34.406 49.406-34.406L30.5-34.406 23.594-6.5C23.2607-5.30207 23.094-4.53643 23.094-4.2031 23.094-3.67183 23.396-3.3385 24-3.2031L24-3.2031 24-3.2031 24.406-3.2031C24.802-3.13023 25.5313-3.0938 26.594-3.0938Z"/></g></g></g><g transform="matrix(0.23 0 0 0.23 831.27 175.37)"><clipPath id="clipaa26d6eb-d82a-400d-9714-dc39077c0e36"><path d="M-3614.2-762.49-3614.2 1407.1 1151 1407.1 1151-762.49Z"/></clipPath><g clip-path="url(#clip23)"><g><path d="M33.094 24 33.094 24C33.094 24.6667 32.7607 25 32.094 25 31.302 25 29.5363 23.6353 26.797 20.906 22.6617 16.7707 19.2293 11.8697 16.5 6.2031 12.1041-2.86977 9.9062-13.2708 9.9062-25 9.9062-36.2707 12.0051-46.4373 16.203-55.5 19.6717-62.896 24.0727-68.8283 29.406-73.297 30.802-74.4323 31.698-75 32.094-75 32.7607-75 33.094-74.6667 33.094-74 33.094-73.6667 32.6617-73.099 31.797-72.297 21.0677-61.3697 15.703-45.604 15.703-25 15.703-4.46873 20.9373 11.1303 31.406 21.797 32.5313 22.9323 33.094 23.6667 33.094 24Z"/></g></g></g><g transform="matrix(0.23 0 0 0.23 840.21 175.37)"><clipPath id="clip8b8075ed-819b-4f7b-814d-b5e612417b5b"><path d="M-3653.1-762.49-3653.1 1407.1 1112.1 1407.1 1112.1-762.49Z"/></clipPath><g clip-path="url(#clip24)"><g><path d="M46-32C46-22.2707 44.7657-14.7394 42.297-9.4062 38.3697-1.93747 32.5727 1.9323 24.906 2.2031 18.8333 2.2031 13.9637-0.197933 10.297-5 9.56773-5.8646 8.93747-6.83333 8.4062-7.9062 5.4062-13.4374 3.9062-21.4687 3.9062-32 3.9062-41.802 5.1354-49.3697 7.5938-54.703 10.9273-62.1717 16.3283-66.1353 23.797-66.594L25-66.594C30.9373-66.594 35.7707-64.2293 39.5-59.5L39.5-59.406C40.4373-58.198 41.2707-56.8647 42-55.406 44.6667-49.7393 46-41.9373 46-32ZM24.906 -0 24.906 -0C29.104 -0 32.3333-2.03127 34.594-6.0938 35.5313-7.89587 36.198-10.0313 36.594-12.5 37.3333-16.7707 37.703-23.6717 37.703-33.203 37.703-42.4637 37.3697-48.9637 36.703-52.703 35.505-59.0363 32.4373-62.8333 27.5-64.094 26.6353-64.302 25.7707-64.406 24.906-64.406 20.2393-64.406 16.8383-62.0727 14.703-57.406 13.9637-55.802 13.396-53.8647 13-51.594 12.4687-48 12.203-41.8697 12.203-33.203 12.203-23.1303 12.5677-16.094 13.297-12.094 14.495-5.698 17.4273-1.80208 22.094-0.40625 23.0313-0.135417 23.9687 -0 24.906 -0Z"/></g></g></g><g transform="matrix(0.23 0 0 0.23 859.37 175.37)"><clipPath id="clip241778ff-c0d9-4a4e-839e-686e2f5fcc37"><path d="M-3736.4-762.49-3736.4 1407.1 1028.8 1407.1 1028.8-762.49Z"/></clipPath><g clip-path="url(#clip25)"><g><path d="M20.297-0.09375 20.297-0.09375C20.297 6.36462 18.198 12.0312 14 16.906 12.8647 18.2393 11.9323 19.0363 11.203 19.297 10.5363 19.297 10.203 18.9323 10.203 18.203 10.203 17.8697 10.5677 17.3333 11.297 16.594 15.297 12.594 17.5313 7.69807 18 1.9062 18.0627 1.23957 18.094 0.572917 18.094-0.09375 18.094-1.09378 18.0313-1.5938 17.906-1.5938 17.8333-1.5938 17.6667-1.49483 17.406-1.2969 16.4687-0.4323 15.302 -0 13.906 -0 11.4373 -0 9.802-1.1354 9-3.4062 8.7292-4 8.5938-4.63023 8.5938-5.2969 8.5938-7.7031 9.6302-9.33847 11.703-10.203 12.3697-10.4637 13.104-10.594 13.906-10.594 16.8333-10.594 18.797-8.66163 19.797-4.7969 20.1303-3.40103 20.297-1.83332 20.297-0.09375Z"/></g></g></g><g transform="matrix(0.23 0 0 0.23 873.35 159.81)"><clipPath id="clip9852b97c-bc17-413e-b243-b6ba2d6aed27"><path d="M-3797.2-694.83-3797.2 1474.7 968.04 1474.7 968.04-694.83Z"/></clipPath><g clip-path="url(#clip26)"><g><path d="M29.406-64 29.406-7.9062C29.406-5.9062 29.802-4.6354 30.594-4.0938 31.7293-3.42713 34.4323-3.0938 38.703-3.0938L41.906-3.0938 41.906 -0C39.5727-0.19792 34.1717-0.29688 25.703-0.29688 17.2343-0.29688 11.8333-0.19792 9.5 -0L9.5-3.0938 12.703-3.0938C17.8383-3.0938 20.7707-3.69793 21.5-4.9062L21.594-5C21.8647-5.53127 22-6.5 22-7.9062L22-59.703C18.5313-57.9637 14.1667-57.094 8.9062-57.094L8.9062-60.203C16.9061-60.203 22.9687-62.3333 27.094-66.594 28.3647-66.594 29.099-66.3647 29.297-65.906L29.297-65.906 29.297-65.797C29.3697-65.599 29.406-65 29.406-64Z"/></g></g></g><g transform="scale(23 23)"><clipPath id="clip9fe4b580-b863-4557-bc6b-30cffabd02eb"><path d="M0 0 0 21.696 47.652 21.696 47.652 0Z"/></clipPath><g clip-path="url(#clip27)"><g><path d="M37.972 7.3549 38.472 7.3549 38.472 7.3949 37.972 7.3949 37.972 7.3549Z"/></g></g></g><g transform="matrix(0.23 0 0 0.23 873.35 191.15)"><clipPath id="clip35baebc3-ec20-4293-a749-f2a7fc819d16"><path d="M-3797.2-831.08-3797.2 1338.5 968.04 1338.5 968.04-831.08Z"/></clipPath><g clip-path="url(#clip28)"><g><path d="M2.7969-16.5 2.7969-19.594 33.5-66.5C34.0313-67.302 34.698-67.703 35.5-67.703 36.4373-67.703 36.9687-67.3333 37.094-66.594L37.094-65.094 37.094-19.594 47.094-19.594 47.094-16.5 37.094-16.5 37.094-7.7969C37.094-5.73437 37.495-4.46873 38.297-4 39.2343-3.39587 41.3697-3.0938 44.703-3.0938L46.797-3.0938 46.797 -0C44.0677-0.19792 39.5363-0.29688 33.203-0.29688 26.9323-0.29688 22.4323-0.19792 19.703 -0L19.703-3.0938 21.797-3.0938C25.9323-3.0938 28.3333-3.6615 29-4.7969 29.2707-5.26563 29.406-6.26563 29.406-7.7969L29.406-16.5 2.7969-16.5ZM30-19.594 30-56.906 5.5938-19.594 30-19.594Z"/></g></g></g><g transform="matrix(0.23 0 0 0.23 893.7 175.37)"><clipPath id="clipdb54bf1a-1729-4512-ad5d-72ad65693273"><path d="M-3885.7-762.49-3885.7 1407.1 879.54 1407.1 879.54-762.49Z"/></clipPath><g clip-path="url(#clip29)"><g><path d="M28.906-25 28.906-25C28.906-13.7292 26.802-3.56253 22.594 5.5 19.1353 12.896 14.7394 18.8283 9.4062 23.297 8 24.4323 7.09897 25 6.7031 25 6.03643 25 5.7031 24.6667 5.7031 24 5.7031 23.6667 6.1354 23.099 7 22.297 17.7293 11.3698 23.094-4.39587 23.094-25 23.094-45.3333 18.0939-60.7343 8.0938-71.203L7.5938-71.703C6.33333-72.901 5.7031-73.6667 5.7031-74 5.7031-74.6667 6.03643-75 6.7031-75 7.50517-75 9.2708-73.6353 12-70.906 16.1353-66.7707 19.5677-61.8697 22.297-56.203 26.703-47.1303 28.906-36.7293 28.906-25Z"/></g></g></g></g></g></svg>